<svg xmlns="http://www.w3.org/2000/svg" width="120" height="146" viewBox="0 0 1200 1460"><path d="M491 1402c-51-16-55-20-76-72-13-30-30-91-40-135-21-100-57-205-90-261-20-33-40-50-89-74-35-18-74-43-87-56-21-22-22-29-16-116C121 282 420-4 719 89c88 27 141 62 212 139 110 119 175 281 185 462l5 95-71 48c-121 82-167 181-156 335 9 115 1 140-58 179-99 68-236 89-345 55zm247-195c27-13 67-77 76-122 7-34-17-152-39-195-19-38-65-54-123-45-26 3-67 8-91 9-68 4-96 41-104 137-9 109 2 141 67 184 75 50 154 62 214 32zm-90-495c5-30-27-75-50-69-10 3-18 1-18-4s-6-9-12-9c-13 0-58 70-58 89s31 12 51-11l19-23 21 28c24 31 42 31 47-1zm205-29c27-30 58-124 52-153-11-50-60-77-121-65-52 9-64 36-57 124 4 53 12 80 25 93 23 23 80 24 101 1zm-442-62c56-57 62-88 24-126-33-34-103-35-140-2-48 41-42 147 9 167 40 16 58 10 107-39z" fill="#030515"/></svg>