<?xml version="1.0" encoding="UTF-8" standalone="no"?>
<svg
   width="222.80569"
   height="252.2066"
   viewBox="0 0 2228.0569 2522.066"
   version="1.1"
   id="svg4"
   sodipodi:docname="celtic_rising-pests.svg"
   inkscape:version="1.1.2 (0a00cf5339, 2022-02-04)"
   xmlns:inkscape="http://www.inkscape.org/namespaces/inkscape"
   xmlns:sodipodi="http://sodipodi.sourceforge.net/DTD/sodipodi-0.dtd"
   xmlns="http://www.w3.org/2000/svg"
   xmlns:svg="http://www.w3.org/2000/svg">
  <defs
     id="defs8" />
  <sodipodi:namedview
     id="namedview6"
     pagecolor="#ffffff"
     bordercolor="#666666"
     borderopacity="1.0"
     inkscape:pageshadow="2"
     inkscape:pageopacity="0.0"
     inkscape:pagecheckerboard="0"
     showgrid="false"
     inkscape:zoom="2.136612"
     inkscape:cx="113.49744"
     inkscape:cy="179.48977"
     inkscape:window-width="1920"
     inkscape:window-height="1016"
     inkscape:window-x="0"
     inkscape:window-y="0"
     inkscape:window-maximized="1"
     inkscape:current-layer="svg4" />
  <path
     d="m 330.58489,2510.5021 c -38,-21 -84,-124 -95,-215 -10,-79 -1,-177 29,-294 40,-157 173,-521 231,-637 34,-67 18,-89 -32,-45 -20,16 -37,56 -68,154 l -42,131 -81,77 c -78,74 -194,145 -236,145 -25,0 -42.0000003,-19 -35.0000003,-39 13.0000003,-36 50.0000003,-62 114.0000003,-81 66,-20 136,-66 185,-121 12,-13 36,-69 54,-124 60,-185 115,-262 216,-307 42,-18 94,-77 94,-105 0,-8 -14,-13 -39,-13 -43,0 -91,-31 -91,-59 0,-26 -112,-188 -151,-217 -48,-37 -161,-87 -255,-114 -91,-26 -124.0000003,-44 -107,-61 27,-27 279,62 367,129 19,15 47,35 61,45 14,10 50,56 79,101 l 54,83 78,6 c 78,5 80,4 112,-26 26,-25 32,-39 32,-72 0,-23 7,-64 15,-91 20,-66 19,-82 -9,-118 -13,-17 -33,-49 -44,-72 -21,-40 -21,-43 -5,-137 18,-107 21,-88 -53,-267 -35,-83.000003 -55,-158.0000033 -44,-165.0000033 15,-9 38,35.0000003 101,194.0000033 l 61,154 -7,93 c -7,92 -6,93 22,128 32,41 47,44 83,16 18,-14 22,-23 15,-33 -48,-65 -75,-115 -75,-139 0,-34 66,-104 107,-114 16,-4 45.00001,-22 66.00001,-40 51,-46 102,-47 152,-2 20,17 59,42 86,54 57,27 92,75 85,116 -5,23 -32,72 -71,124 -7,10 -3,21 17,39 15,14 31,25 37,25 5,0 23,-19 40,-41 30,-41 30,-43 24,-134 l -6,-92 57,-144 c 31,-79 66,-160.000003 78,-179.000003 21,-33.0000003 23,-33.0000003 26,-12 4,28 -19,99.000003 -70,217.000003 -38,85 -39,93 -33,159 4,38 11,83 16,99 10,35 -6,77 -53,143 -32,44 -32,45 -20,102 7,32 12,78 12,103 0,39 5,50 37,81 l 38,36 79,-5 79,-6 36,-60 c 52,-86 82,-118 158,-169 115,-77 313,-149 359,-131 37,14 5,32 -116,68 -102,30 -209,79 -251,117 -36,32 -114,145 -138,200 -22,53 -44,68 -95,68 -22,0 -36,5 -36,13 0,27 51,86 93,106 109,53 168,138 218,316 17,63 31,89 63,123 59,63 92,84 176,112 60,20 79,32 97,59 18,26 20,37 12,47 -34,41 -154,-19 -270,-135 l -86,-86 -42,-132 c -32,-100 -48,-136 -67,-147 -48,-32 -58,-8 -24,59 30,58 106,251 156,397 105,302 128,484 79,622 -23,67 -52,108 -88,128 -72,38 -351,-235 -491,-479 -22,-40 -46,-73 -53,-73 -7,0 -24,12 -38,26 -14,14 -51,37 -81,51 -48,22 -66,25 -123,21 -70,-5 -137.00001,-35 -176.00001,-78 -10,-11 -24,-20 -31,-20 -7,0 -30,33 -52,73 -113,203 -347,450 -457,480 -11,4 -33,-1 -49,-9 z"
     id="path2" />
</svg>
