<svg xmlns="http://www.w3.org/2000/svg" width="103" height="86" style="shape-rendering:geometricPrecision;text-rendering:geometricPrecision;image-rendering:optimizeQuality;fill-rule:evenodd;clip-rule:evenodd"><path style="opacity:.82" fill="#131313" d="M34.5 6.5c-1.88.841-3.88 1.175-6 1 .216 2.18-.617 3.847-2.5 5a2.428 2.428 0 0 1-.5-2 9.173 9.173 0 0 1 2-4.5c2.538-.796 4.872-.63 7 .5z"/><path style="opacity:.373" fill="#0e0d0e" d="M34.5 6.5c-.06 2.197.273 4.53 1 7a20.088 20.088 0 0 1-1.5 6c-1.039-.744-1.539-1.744-1.5-3 .21-2.214-.624-3.881-2.5-5-1.567 1.356-3.4 2.023-5.5 2-.237-1.291.096-2.291 1-3a2.428 2.428 0 0 0 .5 2c1.883-1.153 2.716-2.82 2.5-5 2.12.175 4.12-.159 6-1z"/><path style="opacity:.936" fill="#020101" d="M66.5 13.5c2.053 1.034 3.72 2.534 5 4.5 10.724 3.506 19.39 9.673 26 18.5-2.758 4.216-6.758 6.383-12 6.5-6.826 5.586-5.993 10.086 2.5 13.5.774 1.903.44 3.57-1 5a108.764 108.764 0 0 1-13.5-5c-1.58 7.386-.914 14.22 2 20.5a3.943 3.943 0 0 1-1 2c-2.31.497-4.643.663-7 .5-.322-2.222.345-4.056 2-5.5L68 72.5a655.838 655.838 0 0 0-2.5-16c-1.713.38-2.713 1.38-3 3-.722-.417-1.222-1.084-1.5-2-1.062 2.295-2.562 2.961-4.5 2-1.431-1.28-2.098-2.947-2-5-4.425-.69-8.258.31-11.5 3A234.633 234.633 0 0 0 38.5 80c-4.125 1.107-7.791.44-11-2a87.895 87.895 0 0 0 6-11.5c-1.814-8.125-4.48-16.125-8-24-3.104-1.34-5.938-1.007-8.5 1-4.336-3.673-6.17-8.34-5.5-14-5.305-1.529-5.305-3.362 0-5.5a3.646 3.646 0 0 1-1-1.5 134.131 134.131 0 0 1 14-6.5c2.42-.687 4.587-.187 6.5 1.5.383-.556.883-.89 1.5-1-.039 1.256.461 2.256 1.5 3a20.088 20.088 0 0 0 1.5-6 303.438 303.438 0 0 1 3 4c-1.554 1.395-1.221 2.061 1 2a22.492 22.492 0 0 1 5.5-1c.236 1.8-.264 3.466-1.5 5-.896-1.006-1.562-1.006-2 0 2.055.687 3.721 1.854 5 3.5 1.333.667 2.667.667 4 0-5.365-3.285-5.032-4.952 1-5l-4-1c1.333-1 1.333-2 0-3a20.473 20.473 0 0 1 2.5-3.5l1 1c.483-.948.65-1.948.5-3a19.066 19.066 0 0 0 6-1 27.012 27.012 0 0 1 8 4c.797-.457 1.13-1.124 1-2zm-43 20c2.701 2.231 2.201 3.898-1.5 5-.613-1.995-.113-3.662 1.5-5z"/><path style="opacity:.908" fill="#090708" d="M66.5 13.5c.13.876-.203 1.543-1 2a27.012 27.012 0 0 0-8-4 19.066 19.066 0 0 1-6 1 4.932 4.932 0 0 1-.5 3l-1-1a20.473 20.473 0 0 0-2.5 3.5c1.333 1 1.333 2 0 3l4 1c-6.032.048-6.365 1.715-1 5-1.333.667-2.667.667-4 0-1.279-1.646-2.945-2.813-5-3.5.438-1.006 1.104-1.006 2 0 1.236-1.534 1.736-3.2 1.5-5a22.492 22.492 0 0 0-5.5 1c-2.221.061-2.554-.605-1-2 1.7.16 3.366-.006 5-.5 4.232-6.504 10.232-8.837 18-7 1.456 1.626 3.122 2.792 5 3.5z"/><path style="opacity:.812" fill="#070504" d="M62.5 59.5c.624.417.957 1.084 1 2a17.343 17.343 0 0 1-3.5 7l-1 7c-2.621 1.492-5.455 2.158-8.5 2a8.434 8.434 0 0 1 .5-4l5-6c.497-2.646.664-5.313.5-8 1.938.961 3.438.295 4.5-2 .278.916.778 1.583 1.5 2z"/></svg>