<svg class="img-fluid" xmlns="http://www.w3.org/2000/svg" width="62" height="88" viewBox="0 0 620 880"><g style="transform:none"><path d="M253 813c-24-5-53-74-53-125 0-16-7-45-15-65-8-19-15-49-15-65s-7-45-15-65c-8-19-15-48-15-63s-7-47-15-70c-19-55-19-114 0-130 8-7 15-18 15-25s12-33 26-59l26-47 131 3 130 3 42 82 41 82-17 63c-29 107-39 157-39 192 0 18-6 51-14 72-7 22-16 64-20 94-9 77-24 118-44 123-22 6-120 6-149 0zm28-389c40-14 49-14 99 1 114 34 149-24 65-109-36-36-46-54-51-90-4-25-13-51-20-57-8-6-14-17-14-24 0-16-17-23-45-17-29 5-48 53-47 121 0 31-2 48-5 39-5-22-23-24-23-3 0 8-4 15-10 15-14 0-70 80-70 101 0 10 12 22 28 27 38 14 44 14 93-4z"/><path d="M200 387c0-17 53-77 68-77 7 0 11 3 10 8-1 4 4 18 11 31 12 21 11 26-5 38-24 17-84 17-84 0zM372 387l-22-13 24-33 24-32 26 34c14 19 26 39 26 45 0 16-49 15-78-1zM312 338c-20-20-14-38 13-38 26 0 29 7 19 34-7 19-16 20-32 4zM295 233c9-48 12-53 34-53 13 0 21 10 25 31 11 55 8 59-30 59h-36l7-37z"/></g></svg>