<svg class="img-fluid" xmlns="http://www.w3.org/2000/svg" width="332" height="336" viewBox="0 0 3320 3360"><g style="transform:none"><path d="M2190 3117c0-7 7-23 16-35 10-15 17-50 19-96 3-68 1-75-20-86-24-13-115-6-115 9 0 4-9 17-19 28-18 18-36 21-185 28-123 5-168 11-177 21-11 14-48 10-59-6-3-4-79-11-170-17-144-9-172-13-224-37-32-14-67-26-79-26-11 0-61-22-111-49s-102-51-116-55c-14-3-55-36-92-73-80-81-90-90-192-185-104-97-162-174-191-254-13-37-31-74-38-83-32-36-56-103-87-241-38-176-45-265-31-435 17-212 46-317 131-475 40-74 84-157 99-184 14-27 34-53 44-58 9-4 25-12 35-17 9-4 19-19 20-32 6-36 56-93 115-130 28-18 70-50 93-70s52-40 65-44 38-17 54-30c17-12 68-42 115-65s97-52 111-64c19-16 51-25 125-35 54-8 104-17 109-21 6-5 55-14 109-20 130-17 302-7 453 25 65 14 126 25 137 25 10 0 55 22 100 49 44 27 99 56 121 65 22 10 49 25 60 35s44 31 74 47c48 25 203 151 239 194 7 8 35 49 62 90s67 100 88 130c52 72 64 97 60 120-3 18-5 18-37 3-18-9-46-35-62-57-66-96-102-137-134-152-19-9-58-37-88-63-75-66-130-96-212-116-38-10-78-24-87-32-24-21-136-32-340-33-182 0-286 13-363 45-66 28-177 95-235 142-30 25-72 54-92 64-21 11-38 24-38 30 0 17-92 137-115 149-31 17-56 57-60 97-2 27-13 45-44 73-36 33-40 42-35 68 4 20-3 57-20 109-56 171-58 288-6 488 17 66 31 134 32 153 1 25 9 40 33 57 18 15 38 44 49 74 9 27 40 75 68 107 34 39 48 63 45 76-3 12-1 18 6 15 6-2 22 9 35 25 14 16 36 35 51 43 14 7 46 32 70 55 57 54 82 70 117 76 16 3 46 16 67 30 33 22 38 23 44 8 4-10-2-23-15-33-29-23-40-119-19-164 24-51 61-81 84-68 10 6 14 11 8 11-5 0 1 7 13 16 34 23 51 12 49-32-2-21-8-39-15-42-7-2-10-7-7-12 3-4-3-6-14-3-10 3-32-2-47-10-29-15-29-16-29-114-1-94-2-101-37-163-20-36-38-74-39-85-7-47 13-112 44-150 29-36 32-45 32-111 0-70 2-75 90-249 51-102 102-189 118-204 16-14 41-39 56-55 28-31 102-105 137-138 12-11 29-18 38-16 13 2 7 21-34 101l-50 99v99c0 79 3 101 15 105 8 4 12 11 9 16-11 18 36-3 98-43 33-21 76-43 96-50 20-6 56-27 79-46s66-41 95-49c29-9 58-19 63-24 21-16 190-41 300-45 28-1 59-5 70-9 18-7 18-6 4 6-9 7-31 24-49 38-75 57-98 81-125 132-15 29-41 68-57 86-15 18-28 39-28 47 0 19 17 28 23 13 3-7 6-1 6 14 1 15-16 58-36 95-37 67-38 70-43 202l-5 135-40 20c-37 20-40 24-38 61 3 60-14 104-43 111-36 9-54 42-54 99-1 27-8 68-16 90-33 88-34 95-14 138 23 51 40 113 40 148 0 52 94 66 164 25 23-13 59-27 81-31 31-6 52-20 91-63 29-30 61-55 72-56 24-1 96-81 105-116 8-33 93-120 116-120 15 0 17 5 12 28-9 41-48 108-73 129-13 10-49 57-80 104-54 83-98 129-122 129-16 0-76 62-76 78 0 14-58 52-80 52-8 0-29 14-47 32s-48 37-65 43c-27 8-34 16-39 47-3 20-17 52-30 70-14 18-31 59-38 91-8 38-23 70-43 93-30 34-58 45-58 21zm-190-272c28-20 30-25 14-25-11 0-29 7-40 15-10 8-28 15-39 15s-27 5-35 10c-11 7-4 10 26 10 27 0 51-8 74-25zm-626-49c-16-19-36-45-45-58-10-13-19-21-23-18-6 7 76 110 88 110 4 0-5-15-20-34zm711 13c11-17 0-20-21-4-17 13-17 14-2 15 9 0 20-5 23-11zm-1055-109c0-6-10-14-22-19-13-5-34-21-47-35-28-30-64-35-59-9 2 10 12 19 23 22 11 2 35 14 55 27 38 26 50 29 50 14zm470 0c0-5-12-10-27-10-22 0-25 2-13 10 20 13 40 13 40 0zm-206-46c-1-22-10-41-22-50-11-7-23-26-26-41-12-49-30-83-45-83-19 0-6 47 25 83 14 17 24 41 24 59 0 29 23 68 40 68 4 0 6-16 4-36zm-483-122c-5-9-19-26-30-36-12-11-21-27-21-37s-5-21-11-24c-33-21-17 45 21 85 31 34 57 41 41 12zm353-95c-3-8 2-20 11-27 8-7 15-19 15-27 0-12-3-12-22 1-26 19-45 10-109-49-25-24-66-53-90-66-24-12-58-32-75-45s-35-24-41-24c-5 0-38-18-73-41l-63-40 32-22c17-12 33-30 37-39 3-10 13-25 22-35 15-15 17-46 18-257 1-266 1-267-66-416-48-105-54-136-32-151 13-8 14-9 1-6-30 9-41-45-37-183 2-95 0-130-9-130-8 0-11 35-10 123 1 67-1 151-4 186-5 65-15 80-84 131-71 52-205 320-205 408 0 13 24 75 54 137 30 63 57 123 61 134 7 22 61 66 98 80 13 5 58 32 100 60 41 28 82 51 91 51 8 0 31 16 52 35 27 26 42 33 59 29 23-6 62 24 189 144 49 47 91 67 80 39zm1203-434c9-13 10-23 4-27-5-3-16 8-25 25-17 34-1 36 21 2zM860 1160c28-16 54-30 58-30s14-11 22-24 33-47 55-76c67-90 170-277 166-304-1-10 13-43 32-75 19-31 38-67 42-81s12-32 18-40c10-13 9-13-5 0-18 17-108 184-108 201 0 18-75 171-111 225-62 92-150 182-201 204-27 11-48 23-48 25 0 13 34 2 80-25zm-28-412 21-30-24 12c-30 16-59 41-59 51 0 17 42-6 62-33zm298-89c0-18-148-31-177-17-44 22-22 29 77 26 55-2 100-6 100-9zm160-192c0-16-18 3-23 25-6 22-5 22 8 4 8-11 15-24 15-29zm404 1c-4-6-10-5-15 3-14 22-10 33 6 19 8-7 12-17 9-22zm-96-54c-9-9-27-14-44-12l-29 4 25 11c14 7 34 12 45 12 18 1 18 0 3-15z"/><path d="M625 2054c-32-20-65-43-73-52-24-30-72-136-77-172-3-19-11-51-17-72-16-55 12-194 59-287 61-119 150-206 174-170 12 18 28 79 32 115 1 16 10 40 19 54 28 41 37 108 38 260 0 155-11 222-52 307-13 26-27 48-33 50-5 1-37-14-70-33zm2322 129c-11-18 2-76 21-95l21-21 7 28c10 41-32 116-49 88zm19-981c-11-18-16-72-6-72 13 0 30 34 30 59 0 21-14 28-24 13z"/></g></svg>