<svg class="img-fluid" xmlns="http://www.w3.org/2000/svg" width="68" height="93" viewBox="0 0 680 930"><path d="M395 847c-12-26-8-77 6-77 5 0 7 11 3 24-4 17 0 30 14 44 17 17 18 21 5 26-8 3-15 6-16 6s-6-10-12-23zm45-20c0-19 27-53 35-45 12 12-4 58-20 58-8 0-15-6-15-13zM126 674c-9-24-7-34 8-34 7 0 16 11 18 25 6 28-16 36-26 9zm411-11c-13-12-7-23 13-23 11 0 20 7 20 15 0 15-21 21-33 8zm-222-41c-24-2-44-11-52-22-11-15-21-18-44-13-21 4-34 1-39-8-14-21-2-29 44-29 44 0 96-29 96-54 0-7 6-21 14-31 13-18 15-16 35 23 24 46 58 66 97 56 33-8 74 3 74 21 0 23-32 34-78 28-34-5-42-3-42 11 0 9-8 16-17 17-10 0-25 1-33 2s-33 1-55-1zm3-204c-15-11-15-15-3-32 13-17 15-17 21-3 3 9 4 23 2 32-2 13-6 14-20 3zm18-135c-12-12-6-33 9-33 8 0 15 6 15 14 0 17-14 28-24 19z" style="transform:none"/><path d="M250 872c0-10-50-37-62-34-5 1-8-5-8-13s4-15 9-15c6 0 14-19 18-42 10-52 31-63 25-13-2 19 0 35 6 35 5 0 12 9 15 20s1 18-4 14c-5-3-9-1-9 5s9 15 20 21c19 10 20 8 20-34 0-43 18-93 39-105 5-4 13-26 17-49 6-36 4-41-9-36-8 3-18 17-22 31-3 14-13 32-20 40-8 8-15 30-15 49 0 49-17 42-22-8-5-41 6-73 22-63 8 5 36-42 29-50-10-10-49 8-54 26-5 15-13 18-36 14-24-4-29-2-29 14 0 11-10 27-22 35-33 23-17 28 20 6 18-11 32-28 32-37 1-17 1-17 11 0 12 20 4 37-17 37-8 0-14 5-14 11 0 5-3 8-7 6-5-3-14 1-21 9-11 12-10 14 3 14 9 0 15 9 15 25 0 37-27 31-35-7-4-18-12-36-18-40s-13-39-15-77c-4-60-2-71 12-71 9 0 16-7 16-15s7-15 16-15c8 0 12-4 9-10-4-6 16-10 54-10 65 0 90-14 93-53 4-66 9-62-65-58-52 2-67 0-67-11 0-7-9-20-20-28-24-17-27-85-5-114 25-33 95-60 95-37 0 5 11 12 24 15 45 11 43 126-3 126-11 0-21 5-23 10-2 7-15 5-36-5-26-14-32-22-32-49 0-37 15-56 45-56 26 0 45 18 45 41 0 19-33 34-50 24-13-8-13-35 0-35 6 0 10 7 10 15s5 15 10 15c6 0 10-9 10-20 0-25-45-28-54-5s16 55 42 55c22 0 61-34 62-53 0-14-57-67-73-67-8 0-26 12-41 26-53 54-22 134 52 134 42 0 51-5 75-40 36-52 15-112-50-149-13-7-17-23-18-68 0-53 3-62 29-86 63-59 156-17 156 69 0 53-31 84-84 84-29 0-39-4-43-20-3-11-9-20-14-20-14 0-11-60 4-74 20-20 46-26 71-16 27 10 37 36 25 68-10 26-50 30-69 6-11-12-11-18 2-31 20-19 45-8 27 13-9 11-8 14 4 14 20 0 29-14 21-33-7-20-27-27-54-20-32 8-24 69 11 90 24 15 28 15 52-3 56-40 24-133-45-134-27 0-68 30-68 50 0 6-4 10-10 10-5 0-10 14-10 30 0 17 5 30 10 30 6 0 10 6 10 14 0 33 108 64 125 36 3-6 24-10 46-10 32 0 46 7 75 37 31 32 35 42 31 74-6 49-54 99-94 99-18 0-41-10-57-25-62-58-6-177 69-143 28 12 38 39 33 84-3 26-8 29-40 32s-40-1-49-22c-15-31 2-56 37-56 17 0 24 6 24 19 0 11-4 23-10 26-5 3-7 0-4-8s-2-17-10-20c-12-5-16 1-16 23 0 33 21 40 46 16 30-31 6-76-40-76-27 0-56 32-56 62 0 23 46 68 70 68 51 0 99-89 66-123-9-8-16-20-16-25 0-14-55-25-87-17-66 15-86 104-49 218 21 63 42 80 101 77 70-4 85-1 85 19 0 11 5 23 10 26 23 14 2 195-22 195-5 0-8 7-8 15s-7 15-15 15c-10 0-15-10-15-31 0-27 2-30 15-19 15 13 20 3 7-15-12-16-73-46-83-39-16 9-10 72 8 82 10 6 14 16 10 27-4 10-3 15 4 13 6-2 11-6 11-8 0-15-15-67-23-82-6-12-6-18 1-18 6 0 13 8 16 18 4 9 12 31 20 49 16 35 18 57 5 49-5-3-14 1-21 9s-19 15-26 15c-8 0-14 5-14 10 0 6-37 10-90 10-49 0-90-4-90-8zm138-16c4-4-1-13-11-21-15-11-16-13-2-19 22-8 18-47-8-80-23-29-23-29-45-1-24 30-30 85-9 86 10 0 10 2 0 6-7 2-13 12-13 21 0 13 9 17 40 16 22-1 44-4 48-8zm40-8c13-16 4-68-12-68-6 0-11 17-11 40 0 42 6 48 23 28zm-198-39c0-10-4-19-10-19-5 0-10 12-10 26s4 23 10 19c6-3 10-15 10-26zm187-72c-1-12-12-37-24-56-13-19-23-40-23-47 0-8-4-14-10-14-5 0-10 11-10 25 0 27 19 75 31 75 4 0 10 11 13 25 8 31 25 24 23-8zm111-25c-16-9-28-22-28-29 0-18 17-16 24 2 6 17 26 21 26 5 0-15-39-32-60-25-11 4-20 12-20 18 0 15 48 46 70 46 8 0 3-7-12-17zm-365-34c-9-15-23-8-23 12 0 17 2 19 14 8 8-7 12-16 9-20zm297 6c0-3-6-12-14-20-8-7-16-18-18-22-1-5-14-13-26-17-22-6-23-5-11 17 7 12 19 28 28 35 17 13 41 17 41 7zm-266-37c3 3 6 1 6-5 0-7 11-12 25-12 15 0 25-6 25-14s6-17 13-19c6-3-2-6-18-6-19-1-37 7-48 19-9 11-22 20-28 20-7 0-4-8 6-20 18-20 17-20-8-20-28 0-31 8-21 47 5 18 10 21 24 13 9-5 20-6 24-3zm340-2c-4-8-11-15-18-15-6 0-19-9-29-20-9-11-28-20-42-20-23 0-24 2-15 20 6 12 21 20 36 20 16 0 23 4 18 12-4 6-3 9 2 6s18-2 29 3c11 4 21 8 22 8 1 1 0-6-3-14zm16-34c0-12-9-20-25-23-29-6-33 9-7 28 24 18 32 17 32-5zm-140-16c0-10 11-15 38-16 20-1 48-4 62-9 22-6 23-8 7-15-10-4-30-5-46-2s-44 2-63-3c-27-8-37-18-47-47-14-37-14-37-33 4-20 42-42 53-109 53-16 0-29 5-29 10 0 6 20 10 45 10 33 0 45 4 45 15 0 12 14 15 65 15s65-3 65-15z" style="transform:none" class="contour"/></svg>