<svg class="img-fluid" xmlns="http://www.w3.org/2000/svg" width="79" height="87" viewBox="0 0 790 870"><path d="M343 829c-35-10-56-41-67-99-10-52-47-152-67-180-9-14-37-36-62-48-65-32-71-42-63-112 13-110 70-229 142-291 37-33 127-64 184-64 169 0 306 151 325 359l6 61-54 37c-75 51-97 98-97 206v82l-57 26c-65 29-142 38-190 23zm170-137c31-33 36-90 13-147-19-45-44-57-109-49-71 8-89 24-97 82-8 68 0 89 45 117 57 35 113 34 148-3zM389 413c9-17 10-17 16 0 4 9 13 17 21 17 15 0 19-28 6-46-4-6-16-14-27-18-16-4-25 1-38 23-9 16-17 32-17 35 0 14 30 5 39-11zm191-35c23-37 26-81 8-95-25-20-64-23-86-7-18 12-21 23-19 62 4 61 11 72 48 72 22 0 34-8 49-32zm-286-20c44-53 30-88-35-88-40 0-69 26-69 63 0 63 60 78 104 25z" fill="#020514" style="transform:none"/></svg>