<svg class="img-fluid" xmlns="http://www.w3.org/2000/svg" width="117" height="77" viewBox="0 0 1170 770"><path d="M543 718c-18-6-33-15-33-19 0-5-5-9-11-9-13 0-39-25-39-38 0-6-5-12-11-14-13-4-59-116-59-146 0-13-4-20-10-17-14 8-13 61 1 84 15 23 4 67-17 75-23 9-62-19-70-48-3-14-12-27-20-30s-14-10-14-15-26-49-59-98c-77-115-89-146-96-250l-6-88 19 41c11 23 37 54 57 70 21 16 46 36 55 46 10 9 28 19 40 23s42 26 68 50l47 44 7-41c4-23 12-46 18-52 5-5 10-19 10-31 0-25 57-105 75-105 7 0 18-7 25-15 20-24 105-20 143 7 18 12 38 29 45 38 25 31 60 108 67 149 8 47 16 51 39 16 9-14 23-25 32-25 8 0 17-7 20-15 4-8 12-15 19-15 8 0 20-6 27-13s27-21 43-31c42-27 75-59 75-73 0-7 4-13 9-13s11-13 15-30c10-53 28-35 23 22-8 73-30 168-39 168-4 0-8 8-8 19 0 10-7 24-15 31s-15 17-15 22c0 11-42 72-52 76-5 2-8 10-8 18s-4 14-10 14c-5 0-16 16-24 35-15 34-23 47-58 86-20 21-27 23-48 9-10-6-14-25-12-69 2-37-2-61-8-61-5 0-10 12-10 26 0 23-26 78-65 138-9 13-38 33-65 45-54 23-52 23-97 9zm108-170c12-7 37-27 57-45 30-27 33-35 22-48-16-19-31-20-24-1 7 18-66 77-114 92l-37 12 38 1c20 1 47-5 58-11zM515 381c13-43-24-70-45-31-8 15-7 24 2 35 18 20 36 19 43-4zm187-20c4-3 4-12-1-19-9-14-61-6-61 9 0 5-7 9-15 9s-15 5-15 10c0 11 79 3 92-9z" style="transform:none"/></svg>