<svg xmlns="http://www.w3.org/2000/svg" width="117" height="89" style="shape-rendering:geometricPrecision;text-rendering:geometricPrecision;image-rendering:optimizeQuality;fill-rule:evenodd;clip-rule:evenodd"><path style="opacity:.596" fill="#908886" d="M83.5 13.5h-3c1.24-2.485 2.24-2.485 3 0z"/><path style="opacity:.067" fill="#bbb4b3" d="M80.5 13.5c-1.333 1-1.333 2 0 3-2.667-1-2.667-2 0-3z"/><path style="opacity:.416" fill="#a6a2a0" d="M83.5 13.5c1.981.605 2.315 1.605 1 3-.904-.709-1.237-1.709-1-3z"/><path style="opacity:.157" fill="#a19d9a" d="M34.5 22.5c-1.25-.077-2.083-.744-2.5-2-1.924 4.924-3.424 9.59-4.5 14 0-.667-.333-1-1-1 .17-1.322-.163-2.489-1-3.5A49.264 49.264 0 0 1 31 18.5c1.148-.958 2.148-.625 3 1 .483.948.65 1.948.5 3z"/><path style="opacity:.427" fill="#9a9492" d="M84.5 16.5c5.757 3.177 6.09 6.677 1 10.5 1.473.71 2.14 1.876 2 3.5h-3c1.01-1.44.676-2.772-1-4a9.427 9.427 0 0 1 3-3c.113-2.35-.553-4.684-2-7z"/><path style="opacity:1" fill="#090808" d="M34.5 22.5c.647 1.64 1.647 2.974 3 4-.997-.03-1.664.47-2 1.5 1.385 1.597 2.051 3.43 2 5.5-2.487 1.29-2.153 2.29 1 3-.363.684-.696 1.35-1 2l4 2c-.787 1.604-2.12 2.27-4 2v3a29.77 29.77 0 0 1 7-2v-6c.507-1.359 1.507-2.359 3-3-1.145-1.391-1.145-2.724 0-4a47.114 47.114 0 0 1 3.5 17c2.286 2.865 3.12 6.198 2.5 10h4c.14-1.624-.527-2.79-2-3.5 2.716-1.001 3.382-2.668 2-5 .405-.945 1.072-1.612 2-2a2.428 2.428 0 0 0-2-.5c-1.22-1.784-1.22-3.45 0-5 .996.086 1.83-.248 2.5-1l1 2c1.052-2.431 1.219-4.765.5-7a71.215 71.215 0 0 1 3-9c1.086.12 1.753.787 2 2 1.052 1.723 1.052 3.39 0 5a11.383 11.383 0 0 0 2.5 2c.186 2.536.686 4.869 1.5 7v7h3v5c1.291.237 2.291-.096 3-1 2.756.754 5.422.754 8 0 .651.59 1.318 1.257 2 2a11.989 11.989 0 0 1 6-1c-.268-1.599.066-2.932 1-4a20.677 20.677 0 0 1 5-1v-4a9.864 9.864 0 0 1-6-1 13.117 13.117 0 0 1 7-1c-.948-3.88-3.281-4.88-7-3v-3c2.478.45 4.478-.218 6-2-2.63-1.505-2.297-2.171 1-2a49.391 49.391 0 0 1 1-11c1.5 1.087 2.833 2.42 4 4 .572 2.417 1.572 4.584 3 6.5-1.383 1.46-1.049 2.294 1 2.5a128.508 128.508 0 0 1-.5 16c-2.023 2.27-2.856 4.936-2.5 8-2.586.987-3.919 2.987-4 6-2.031 1.039-3.365 2.705-4 5-.342.838-1.008 1.172-2 1a63.528 63.528 0 0 1-8 4.5c-.752.67-1.086 1.504-1 2.5-2.893-.469-4.893.531-6 3-1.765.961-3.765 1.295-6 1a118.245 118.245 0 0 1-30 0c-1.915.284-3.581-.049-5-1-.473-1.406-1.473-2.073-3-2-1.88.27-3.213-.396-4-2-.787-1.604-2.12-2.27-4-2-1.365-2.36-3.365-4.026-6-5 0-2-1-3-3-3a9.173 9.173 0 0 0-2-4.5c1.882-.198 3.548-.698 5-1.5 2.032-.548 3.032-1.881 3-4l-1-2c.734-1.208 1.067-2.541 1-4-1.478.262-2.811-.071-4-1a70.679 70.679 0 0 0 4-2c.904-.709 1.237-1.709 1-3-1.175.219-2.175-.114-3-1l3-2.5c-1.537-2.313-2.037-4.813-1.5-7.5.977 1.274 1.81 1.274 2.5 0 1.076-4.41 2.576-9.076 4.5-14 .417 1.256 1.25 1.923 2.5 2zm53 22c1.208-1.282 2.542-1.282 4 0-.124.607-.457.94-1 1-.709-.904-1.709-1.237-3-1zm6 5c-1.677.683-2.343 2.017-2 4h-5c-.262-1.478.071-2.811 1-4 1.836-.528 3.503-1.194 5-2 1.666-1.166 3.333-1.166 5 0a70.679 70.679 0 0 0-4 2z"/><path style="opacity:.369" fill="#a29e9b" d="M15.5 26.5h-3c1-2.667 2-2.667 3 0z"/><path style="opacity:.2" fill="#908c89" d="M71.5 42.5h-1c-.814-2.131-1.314-4.464-1.5-7a11.383 11.383 0 0 1-2.5-2c1.052-1.61 1.052-3.277 0-5-.247-1.213-.914-1.88-2-2-.228-1.855.439-2.688 2-2.5 2.73 5.674 4.397 11.841 5 18.5z"/><path style="opacity:.337" fill="#99928d" d="M15.5 26.5c2.242 1.005 2.576 2.505 1 4.5.556 1.011 1.222 1.844 2 2.5-2.473-.236-4.14-1.57-5-4 1.112-.765 1.779-1.765 2-3z"/><path style="opacity:.867" fill="#44423f" d="M37.5 26.5c-.11.617-.444 1.117-1 1.5 1.692 1.4 2.359 3.234 2 5.5h-1c.051-2.07-.615-3.903-2-5.5.336-1.03 1.003-1.53 2-1.5z"/><path style="opacity:.157" fill="#aaa6a3" d="M34.5 22.5c5.65 2.272 6.983 5.939 4 11 .359-2.266-.308-4.1-2-5.5.556-.383.89-.883 1-1.5-1.353-1.026-2.353-2.36-3-4z"/><path style="opacity:.271" fill="#989391" d="M57.5 46.5a2.428 2.428 0 0 1 2 .5c-.928.388-1.595 1.055-2 2 1.382 2.332.716 3.999-2 5 1.473.71 2.14 1.876 2 3.5h-4c.62-3.802-.214-7.135-2.5-10a47.114 47.114 0 0 0-3.5-17c-1.145 1.276-1.145 2.609 0 4-1.493.641-2.493 1.641-3 3h-3v-1a159.01 159.01 0 0 0 7-8 259.58 259.58 0 0 1 5.5 20l1 1c.377-1.442 1.21-2.442 2.5-3z"/><path style="opacity:.349" fill="#908c89" d="M64.5 26.5a71.215 71.215 0 0 0-3 9c.719 2.235.552 4.569-.5 7l-1-2c-.67.752-1.504 1.086-2.5 1-1.373-1.85-.873-3.183 1.5-4 1.188-4.113 3.021-7.78 5.5-11z"/><path style="opacity:.553" fill="#777373" d="M80.5 18.5c1.042 3.226 1.042 6.226 0 9a10.253 10.253 0 0 1-4 1.5c1.544.29 2.877.956 4 2-2.385.556-4.718.39-7-.5 2.35-1.713 3.35-4.047 3-7 2.705.12 3.371-.88 2-3 .356-1.022 1.022-1.689 2-2z"/><path style="opacity:.58" fill="#908b88" d="M12.5 26.5c.313 3.913-.353 7.58-2 11 .734 1.208 1.067 2.541 1 4a22.353 22.353 0 0 1-3-4.5c1.851-3.398 3.184-6.898 4-10.5z"/><path style="opacity:1" fill="#1c1a19" d="M12.5 26.5h3c-.221 1.235-.888 2.235-2 3 .86 2.43 2.527 3.764 5 4-.321 1.548-1.321 2.215-3 2a13.213 13.213 0 0 1-5 2c1.647-3.42 2.313-7.087 2-11z"/><path style="opacity:.469" fill="#9d9a98" d="M100.5 22.5a49.391 49.391 0 0 0-1 11c-3.297-.171-3.63.495-1 2-1.522 1.782-3.522 2.45-6 2v3c0 .667-.333 1-1 1a32.437 32.437 0 0 1-8-.5 3.646 3.646 0 0 1-1-1.5 70.679 70.679 0 0 0 4-2c1.548.321 2.215 1.321 2 3 2.442.146 3.11-.687 2-2.5 3.55-1.727 6.218-3.893 8-6.5l-2-2c.22-2.651 1.553-4.985 4-7z"/><path style="opacity:.275" fill="#959290" d="M108.5 35.5c-2.049-.206-2.383-1.04-1-2.5-1.428-1.916-2.428-4.083-3-6.5-1.167-1.58-2.5-2.913-4-4 .321-1.548 1.321-2.215 3-2a356.475 356.475 0 0 0 5.5 11c.579 1.428.412 2.762-.5 4z"/><path style="opacity:.357" fill="#a7a29f" d="M37.5 33.5c1.042 1.291 2.208 1.291 3.5 0 1.728.852 1.895 1.852.5 3-1.333.333-1.333.667 0 1-1.068.934-2.401 1.268-4 1 .304-.65.637-1.316 1-2-3.153-.71-3.487-1.71-1-3z"/><path style="opacity:.165" fill="#ada9a6" d="M79.5 33.5c.543.06.876.393 1 1-.825.886-1.825 1.219-3 1l2-2z"/><path style="opacity:.49" fill="#8c8783" d="M84.5 32.5c3.92-.754 5.253.58 4 4-1.444-1.481-2.11-1.148-2 1-2.518-1.194-2.518-2.36 0-3.5-.916-.278-1.582-.778-2-1.5z"/><path style="opacity:.249" fill="#a5a19d" d="M18.5 33.5c1.186 1.205 1.186 2.539 0 4-1.679.215-2.679-.452-3-2 1.679.215 2.679-.452 3-2z"/><path style="opacity:.796" fill="#474343" d="M15.5 35.5c.321 1.548 1.321 2.215 3 2v4c-.904-.709-1.237-1.709-1-3h-5v3h-1c.067-1.459-.266-2.792-1-4 1.822-.33 3.49-.998 5-2z"/><path style="opacity:.647" fill="#464240" d="M41.5 37.5h3v1c-1.333 0-2 .667-2 2h-1l-4-2c1.599.268 2.932-.066 4-1z"/><path style="opacity:.063" fill="#c2c2c2" d="M18.5 37.5a22.853 22.853 0 0 0 3 4h-3v-4z"/><path style="opacity:1" fill="#191818" d="M80.5 13.5h3c-.237 1.291.096 2.291 1 3 1.447 2.316 2.113 4.65 2 7a9.427 9.427 0 0 0-3 3c1.676 1.228 2.01 2.56 1 4v2c.418.722 1.084 1.222 2 1.5-2.518 1.14-2.518 2.306 0 3.5a70.679 70.679 0 0 1-4 2c.21.586.543 1.086 1 1.5 2.646.497 5.313.664 8 .5a41.265 41.265 0 0 0-6 2.5c.88 1.356 1.213 2.856 1 4.5a26.326 26.326 0 0 0-2 5c-2.578.754-5.244.754-8 0v-4c3 .333 4.333-1 4-4h-5c-.11-.617-.444-1.117-1-1.5 5.12-1.423 5.12-2.423 0-3a20.216 20.216 0 0 0 6-1.5c-1.832-.557-3.165-1.557-4-3 0-.667.333-1 1-1 1.175.219 2.175-.114 3-1-.124-.607-.457-.94-1-1a18.436 18.436 0 0 1-6-.5c-1.274-.977-1.274-1.81 0-2.5a11.596 11.596 0 0 0 7 .5c-1.123-1.044-2.456-1.71-4-2a10.253 10.253 0 0 0 4-1.5c1.042-2.774 1.042-5.774 0-9v-2c-1.333-1-1.333-2 0-3z"/><path style="opacity:.082" fill="#a4a09f" d="M76.5 36.5c.835 1.443 2.168 2.443 4 3a20.216 20.216 0 0 1-6 1.5c5.12.577 5.12 1.577 0 3 .556.383.89.883 1 1.5 0 .667.333 1 1 1v1h-3c.617-2.11.283-4.277-1-6.5 1.786-1.196 3.12-2.696 4-4.5z"/><path style="opacity:.404" fill="#83807d" d="M26.5 33.5c.667 0 1 .333 1 1-.69 1.274-1.523 1.274-2.5 0-.537 2.687-.037 5.187 1.5 7.5l-3 2.5c.825.886 1.825 1.219 3 1 .237 1.291-.096 2.291-1 3 .03-.997-.47-1.664-1.5-2a64.97 64.97 0 0 1-7-2c-.3 1.566.2 2.899 1.5 4h-3v-5l6 1v-3c1.075 1.062 2.075 1.062 3 0-1.761-2.065-2.095-4.231-1-6.5a4.452 4.452 0 0 1-2-1.5c1.667-1.166 3.334-1.166 5 0zm-1 15h-7c-1.3-1.101-1.8-2.434-1.5-4a64.97 64.97 0 0 0 7 2c1.03.336 1.53 1.003 1.5 2z"/><path style="opacity:.212" fill="#9f9d9c" d="M44.5 38.5v5a29.77 29.77 0 0 0-7 2v-3c1.88.27 3.213-.396 4-2h1c0-1.333.667-2 2-2z"/><path style="opacity:.506" fill="#7b7674" d="M108.5 35.5c2.037 8.446 1.037 16.446-3 24-.356-3.064.477-5.73 2.5-8 .499-5.323.666-10.656.5-16z"/><path style="opacity:.173" fill="#a29f9c" d="M11.5 41.5h1c1.378 3.638.711 4.305-2 2l-1 1.5a14.075 14.075 0 0 1 2 7.5c-2.105-2.908-3.105-6.242-3-10 1.291.237 2.291-.096 3-1z"/><path style="opacity:.502" fill="#a09b98" d="M87.5 44.5c1.291-.237 2.291.096 3 1-.543.06-.876.393-1 1 .825.886 1.825 1.219 3 1-1.497.806-3.164 1.472-5 2-.929 1.189-1.262 2.522-1 4h5c-.343-1.983.323-3.317 2-4v1c-.934 1.068-1.268 2.401-1 4a11.989 11.989 0 0 0-6 1 30.943 30.943 0 0 0-2-2 26.326 26.326 0 0 1 2-5c.934-1.068 1.268-2.401 1-4z"/><path style="opacity:.478" fill="#777372" d="M93.5 50.5v-1a70.679 70.679 0 0 1 4-2c-1.667-1.166-3.334-1.166-5 0-1.175.219-2.175-.114-3-1 .124-.607.457-.94 1-1 .543-.06.876-.393 1-1-1.458-1.282-2.792-1.282-4 0 .268 1.599-.066 2.932-1 4 .213-1.644-.12-3.144-1-4.5a41.265 41.265 0 0 1 6-2.5c.667 0 1-.333 1-1 3.719-1.88 6.052-.88 7 3a13.117 13.117 0 0 0-7 1 9.864 9.864 0 0 0 6 1v4a20.677 20.677 0 0 0-5 1zm-6-6c1.208-1.282 2.542-1.282 4 0-.124.607-.457.94-1 1-.709-.904-1.709-1.237-3-1z"/><path style="opacity:1" fill="#1d1c1b" d="M18.5 41.5h3v3l-6-1v5h3c-.213 1.644.12 3.144 1 4.5l-4 1c1.973.495 3.973.662 6 .5.304 2.296 1.304 2.629 3 1l1 2c-2.3 1.7-4.634 2.368-7 2-2.185-.204-4.185-.87-6-2-.951-1.419-1.284-3.085-1-5a14.075 14.075 0 0 0-2-7.5l1-1.5c2.711 2.305 3.378 1.638 2-2v-3h5c-.237 1.291.096 2.291 1 3z"/><path style="opacity:.341" fill="#898989" d="M40.5 46.5c.934 1.068 1.268 2.401 1 4-4.682-.66-5.015-1.993-1-4z"/><path style="opacity:.694" fill="#61605e" d="M70.5 42.5h1c1.333 1 1.333 2 0 3-.219 1.175.114 2.175 1 3 .607-.124.94-.457 1-1h3c4-.333 4-.667 0-1-.667 0-1-.333-1-1h5c.333 3-1 4.333-4 4v4c-.709.904-1.709 1.237-3 1v-5h-3v-7z"/><path style="opacity:.076" fill="#b8b5b4" d="m71.5 45.5 2 2c-.06.543-.393.876-1 1-.886-.825-1.219-1.825-1-3z"/><path style="opacity:.098" fill="#a09c9b" d="M18.5 48.5h7a70.679 70.679 0 0 1-4 2c1.189.929 2.522 1.262 4 1 .067 1.459-.266 2.792-1 4-1.696 1.629-2.696 1.296-3-1a18.436 18.436 0 0 1-6-.5l4-1c-.88-1.356-1.213-2.856-1-4.5zm3 6c-.11-.617-.444-1.117-1-1.5 1.333-.667 2.667-.667 4 0-.744 1.039-1.744 1.539-3 1.5z"/><path style="opacity:.141" fill="#a1a19e" d="M72.5 57.5c1.478-.262 2.811.071 4 1l-2 1c-1.213-.247-1.88-.914-2-2z"/><path style="opacity:.22" fill="#a8a8a8" d="M90.5 57.5c1.788-.285 3.455.048 5 1l-2.5 1c-1.376-.184-2.209-.85-2.5-2z"/><path style="opacity:.122" fill="#979594" d="M25.5 57.5c.032 2.119-.968 3.452-3 4-1.172-.845-2.505-1.511-4-2 2.366.368 4.7-.3 7-2z"/><path style="opacity:.514" fill="#888483" d="M105.5 59.5a35.377 35.377 0 0 1-4 6c.081-3.013 1.414-5.013 4-6z"/><path style="opacity:.475" fill="#9e9a98" d="M12.5 57.5c1.815 1.13 3.815 1.796 6 2 .683 1.676 2.017 2.343 4 2-1.452.802-3.118 1.302-5 1.5a9.173 9.173 0 0 1 2 4.5c-3.08-2.757-5.412-6.09-7-10z"/><path style="opacity:.486" fill="#888281" d="M19.5 67.5c2 0 3 1 3 3a6.541 6.541 0 0 1-3-3z"/><path style="opacity:.031" fill="#959292" d="M101.5 65.5c-.624 2.254-1.957 3.92-4 5 .635-2.295 1.969-3.961 4-5z"/><path style="opacity:.243" fill="#84807d" d="M22.5 70.5c2.635.974 4.635 2.64 6 5-2.61-.943-4.61-2.61-6-5z"/><path style="opacity:.376" fill="#878381" d="M95.5 71.5c-2.348 3.026-5.348 5.36-9 7-.086-.996.248-1.83 1-2.5a63.528 63.528 0 0 0 8-4.5z"/><path style="opacity:.012" fill="#9f9c9b" d="M28.5 75.5c1.88-.27 3.213.396 4 2-1.653-.16-2.986-.826-4-2z"/><path style="opacity:.541" fill="#8f8a87" d="M36.5 79.5c1.527-.073 2.527.594 3 2-1.527.073-2.527-.594-3-2z"/><path style="opacity:.408" fill="#847f7d" d="M86.5 78.5a363.698 363.698 0 0 1-6 3c1.107-2.469 3.107-3.469 6-3z"/><path style="opacity:.416" fill="#817d7c" d="M44.5 82.5a118.245 118.245 0 0 0 30 0c-.418.722-1.084 1.222-2 1.5-8.333.667-16.667.667-25 0-1.237-.232-2.237-.732-3-1.5z"/></svg>