<svg xmlns="http://www.w3.org/2000/svg" width="82" height="85" style="shape-rendering:geometricPrecision;text-rendering:geometricPrecision;image-rendering:optimizeQuality;fill-rule:evenodd;clip-rule:evenodd"><path style="opacity:.569" fill="#989391" d="M35.5 24.5c-1.31-5.87-1.31-11.87 0-18l-.5-1a18.492 18.492 0 0 1-3.5 2c1.163-2.482 3.163-3.816 6-4-1.783 6.839-2.45 13.839-2 21z"/><path style="opacity:1" fill="#0e0d0c" d="M35.5 24.5c-.073 1.527.594 2.527 2 3 .719 2.388 2.385 3.888 5 4.5 6.826 1.595 10.826-.905 12-7.5h3c1.089 5.646 1.089 11.312 0 17-1.277 1.194-1.944 2.86-2 5-.731 4.252.935 6.919 5 8 6.04-.316 9.207-3.649 9.5-10 .2 1.82 1.034 3.153 2.5 4 .347 5.557-.32 10.89-2 16 0 .667-.333 1-1 1-1.548.321-2.215 1.321-2 3-1.84.902-3.174 2.236-4 4 0 .667-.333 1-1 1-2.605.12-4.605 1.12-6 3a41.744 41.744 0 0 1-9 1v-2c1.527.073 2.527-.594 3-2 .996.086 1.83-.248 2.5-1 .495-1.973.662-3.973.5-6 1.143-3.476 1.31-7.142.5-11-.377-1.442-1.21-2.442-2.5-3-6.487-1.154-13.154-1.32-20-.5a81.718 81.718 0 0 0-3 2.5c-.32 5.195.013 10.195 1 15-.215 1.679.452 2.679 2 3 .194 2.412 1.527 3.412 4 3v3h-5c-2.518-.764-4.851-1.764-7-3-1.365-2.36-3.365-4.026-6-5 .073-1.527-.594-2.527-2-3-2.412-.194-3.412-1.527-3-4-1.402-3.614-2.069-7.447-2-11.5-.018-4.371.65-8.538 2-12.5v-1a30.943 30.943 0 0 0 2-2 111.25 111.25 0 0 0 2 5c.904.709 1.237 1.709 1 3 3.594 2.785 7.094 2.452 10.5-1l.5-4.5c-.069-1.986-.735-3.486-2-4.5-1.31-6.901-1.31-13.901 0-21 2.36-1.365 4.026-3.365 5-6a18.492 18.492 0 0 0 3.5-2l.5 1c-1.31 6.13-1.31 12.13 0 18z"/><path style="opacity:.471" fill="#969292" d="M31.5 7.5c-.974 2.635-2.64 4.635-5 6 .943-2.61 2.61-4.61 5-6z"/><path style="opacity:.451" fill="#83807f" d="M35.5 24.5c1.406.473 2.073 1.473 2 3-1.406-.473-2.073-1.473-2-3z"/><path style="opacity:.278" fill="#999593" d="M54.5 24.5c-1.174 6.595-5.174 9.095-12 7.5-2.615-.612-4.281-2.112-5-4.5 7.042 5.816 12.709 4.816 17-3z"/><path style="opacity:.618" fill="#8e8a88" d="M57.5 41.5c1.089-5.688 1.089-11.354 0-17h-3c-.238-3.6.762-3.933 3-1 3.644 6.049 3.644 12.049 0 18z"/><path style="opacity:.102" fill="#aba7a4" d="M16.5 41.5a111.25 111.25 0 0 1-2-5 30.943 30.943 0 0 1-2 2c-.434-2.666.566-3.833 3-3.5.923 2.04 1.256 4.208 1 6.5z"/><path style="opacity:.184" fill="#8a8786" d="M26.5 34.5c1.265 1.014 1.931 2.514 2 4.5l-.5 4.5c-3.406 3.452-6.906 3.785-10.5 1 8.48 1.847 11.48-1.486 9-10z"/><path style="opacity:.122" fill="#a39f9c" d="M72.5 48.5c-1.466-.847-2.3-2.18-2.5-4-.293 6.351-3.46 9.684-9.5 10v-1c1.788.285 3.455-.048 5-1a95.556 95.556 0 0 0 5-10 20.807 20.807 0 0 1 2 6z"/><path style="opacity:.255" fill="#9c9897" d="M12.5 39.5c-1.35 3.962-2.018 8.129-2 12.5-.069 4.053.598 7.886 2 11.5-2.481-3.273-3.481-7.107-3-11.5-.438-4.69.562-8.857 3-12.5z"/><path style="opacity:.482" fill="#75716f" d="M57.5 41.5a20.68 20.68 0 0 0-.5 9 14.692 14.692 0 0 0 3.5 3v1c-4.065-1.081-5.731-3.748-5-8 .056-2.14.723-3.806 2-5z"/><path style="opacity:.48" fill="#726d6d" d="M51.5 52.5a62.908 62.908 0 0 1-16 0c-2.014-.063-3.68.603-5 2h-2c.93-.815 1.93-1.648 3-2.5 6.846-.82 13.513-.654 20 .5z"/><path style="opacity:.035" fill="#c3c0be" d="M72.5 48.5c1.75 5.673 1.084 11.007-2 16 1.68-5.11 2.347-10.443 2-16z"/><path style="opacity:.373" fill="#74726e" d="M47.5 60.5c0 2-1 3-3 3 .356-1.69 1.356-2.69 3-3z"/><path style="opacity:1" fill="#110f0e" d="M34.5 60.5c1.532 1.471 2.532 3.304 3 5.5-.248 3.082-1.915 4.582-5 4.5-.667 0-1-.333-1-1-.058-3.164-.724-6.164-2-9h5z"/><path style="opacity:1" fill="#171515" d="M47.5 60.5c1.788-.285 3.455.048 5 1a19.373 19.373 0 0 0-1 8c-1.495 1.845-3.162 2.178-5 1-1.44-2.088-2.106-4.421-2-7 2 0 3-1 3-3z"/><path style="opacity:.039" fill="#b1aeab" d="M28.5 54.5h2c-.8 1.542-1.134 3.209-1 5 1.915-.285 3.581.049 5 1h-5c1.276 2.836 1.942 5.836 2 9h-1c-.333-6.667-.667-6.667-1 0-.987-4.805-1.32-9.805-1-15z"/><path style="opacity:.839" fill="#6f6d6a" d="M44.5 63.5c-.106 2.579.56 4.912 2 7-2.49-.608-3.824-2.275-4-5 .247-1.213.914-1.88 2-2z"/><path style="opacity:.878" fill="#6d6966" d="M34.5 60.5c5.728 2.477 6.395 5.977 2 10.5-1.566.765-2.9.598-4-.5 3.085.082 4.752-1.418 5-4.5-.468-2.196-1.468-4.029-3-5.5z"/><path style="opacity:.041" fill="#9c9a99" d="M51.5 52.5c1.29.558 2.123 1.558 2.5 3 .81 3.858.643 7.524-.5 11a18.436 18.436 0 0 1-.5 6c-.67.752-1.504 1.086-2.5 1a186.2 186.2 0 0 1 2-3c-.124-.607-.457-.94-1-1a19.373 19.373 0 0 1 1-8c-1.545-.952-3.212-1.285-5-1 1.765-.961 3.765-1.295 6-1a29.413 29.413 0 0 0-2-7z"/><path style="opacity:.082" fill="#969493" d="M69.5 65.5c-.432 1.21-1.099 2.21-2 3-.215-1.679.452-2.679 2-3z"/><path style="opacity:.235" fill="#918e8e" d="M15.5 67.5c1.406.473 2.073 1.473 2 3-1.406-.473-2.073-1.473-2-3z"/><path style="opacity:.067" fill="#908e8c" d="M67.5 68.5c-.394 2.21-1.727 3.543-4 4 .826-1.764 2.16-3.098 4-4z"/><path style="opacity:.451" fill="#918e8d" d="M17.5 70.5c2.635.974 4.635 2.64 6 5-2.61-.943-4.61-2.61-6-5z"/><path style="opacity:.263" fill="#9d9d9c" d="M29.5 69.5h1a5.728 5.728 0 0 0 1 3c-1.548-.321-2.215-1.321-2-3z"/><path style="opacity:.451" fill="#8c8685" d="M31.5 72.5a303.438 303.438 0 0 1 4 3c-2.473.412-3.806-.588-4-3z"/><path style="opacity:.486" fill="#84807f" d="M50.5 73.5c-.473 1.406-1.473 2.073-3 2 .473-1.406 1.473-2.073 3-2z"/><path style="opacity:.824" fill="#696663" d="M62.5 73.5c-1.411 2.039-3.411 3.039-6 3 1.395-1.88 3.395-2.88 6-3z"/><path style="opacity:.851" fill="#413f40" d="M56.5 76.5c-.79.901-1.79 1.568-3 2-2.235.295-4.235-.039-6-1a41.744 41.744 0 0 0 9-1z"/><path style="opacity:.055" fill="#afadac" d="M35.5 75.5c1.454 1.02 1.787 2.187 1 3.5-2.212.79-4.212.623-6-.5h5v-3z"/><path style="opacity:.059" fill="#b7b4b2" d="M47.5 75.5v2c1.765.961 3.765 1.295 6 1-2.678 1.41-5.344 1.243-8-.5.566-.995 1.233-1.828 2-2.5z"/></svg>