<svg class="img-fluid" xmlns="http://www.w3.org/2000/svg" width="100" height="93" viewBox="0 0 1000 930"><g style="transform:none"><path d="M295 868c-34-20-155-141-171-171-8-15-13-36-10-45s42-53 86-96c73-71 93-106 60-106-10 0-32-20-59-53-12-15-10-17 23-17 25 0 36 4 36 15 0 8 7 15 15 15 9 0 15 9 15 25 0 14 5 25 10 25 6 0 10 16 10 35 0 28-4 35-20 35-11 0-20 7-20 15s-7 15-15 15-15 6-15 13c0 18-59 77-76 77-8 0-14 6-14 14 0 25 60 36 195 36 181 0 185 4 92 97-75 75-108 91-142 71zM675 867c-10-7-28-23-40-35-50-58-75-82-85-82-5 0-10-11-10-25v-25h137c103 0 140-3 152-14 9-8 33-17 54-21 33-6 37-5 37 13 0 24-17 44-117 136-73 67-92 75-128 53z"/><path d="M393 653c-18-3-23-11-23-34 0-32 11-37 30-15 6 8 30 16 53 18 30 2 43 8 45 21 3 14-4 17-40 16-24-1-53-4-65-6zM820 590c0-27-3-30-30-30-20 0-30-5-30-15 0-8-7-15-15-15-10 0-15-11-15-35 0-28 4-35 20-35 11 0 20 6 20 14 0 7 27 41 60 74 33 34 60 64 60 67s-16 5-35 5c-32 0-35-2-35-30zM423 583c-17-6-16-31 0-47 11-11 16-11 32 0 14 10 22 11 32 3 10-9 13-6 13 14 0 32-37 47-77 30zM150 342c-9-1-21-16-29-33-17-38-5-67 38-98l31-22v30c0 20-8 35-22 46-18 12-20 17-10 24 19 11 11 57-8 53zM480 240c0-29 13-40 25-20 11 18 22 11 96-64 84-84 119-102 119-62 0 19-5 26-20 26-11 0-20 7-20 15 0 10-10 15-30 15-28 0-30 3-30 35 0 31-3 36-30 42-21 4-30 11-30 24 0 15-8 19-40 19-38 0-40-2-40-30zM272 101c6-11 22-21 35-24 19-3 23 0 23 19 0 21-5 24-35 24-32 0-34-2-23-19z"/></g><g style="transform:none"><path d="M460 740c-8-5-75-9-150-10-74 0-143-1-152-1-13 0-48-52-48-73 0-3 13-19 30-36 16-17 30-27 30-23s10-6 23-23c41-55 70-83 79-78 4 3 8-3 8-13 0-16-76-93-92-93-5 0-8-6-8-12 0-7-15-28-34-46-22-21-32-40-31-55 4-26 139-168 183-191 17-9 39-13 49-9s53 42 95 85l77 78 25-25c14-14 30-25 36-25 5 0 10-6 10-13 0-12 76-91 89-93 3 0 14-4 23-8 23-10 34-3 132 92 111 107 111 111 12 217-75 80-96 115-70 115 8 0 14 7 14 15s3 14 8 13c11-4 52 35 52 49 0 7 6 13 13 13 8 0 24 11 36 24 28 30 26 79-4 84-11 2-28 11-37 19-13 12-44 15-152 14-89-1-136 2-136 9 0 5-7 10-15 10s-15-7-15-15-6-15-14-15-21 7-30 15c-17 18-17 17-36 5zm186-141c35-21 74-79 74-109 0-28-40-90-64-101-12-5-34-18-51-28-41-27-139-27-180 0-16 10-39 24-50 29-27 15-55 65-55 100 0 37 29 86 57 99 13 6 23 15 23 20 0 14 36 18 129 14 62-3 93-9 117-24z"/><path d="M407 566c-14-13-29-36-33-50-8-33 4-96 18-96 6 0 16-8 23-17 10-13 30-17 98-17l85-1 36 37c48 50 48 82-2 131-37 36-40 37-110 37-51 0-72-4-72-12 0-10-2-10-8 0-7 9-15 7-35-12zm74-77c-1-30-5-56-6-58-8-8-65 42-65 57 0 18 50 63 65 58 6-1 8-26 6-57zm109 39c40-29 39-62-2-82-17-9-32-16-32-16-1 0-2 19-2 43 0 23-3 50-8 60-11 24 8 22 44-5z"/></g></svg>