<svg xmlns="http://www.w3.org/2000/svg" width="327" height="311" style="shape-rendering:geometricPrecision;text-rendering:geometricPrecision;image-rendering:optimizeQuality;fill-rule:evenodd;clip-rule:evenodd"><path style="opacity:.995" d="m246.5 268.5-2 2c-3.795 1.675-7.962 2.675-12.5 3l-2-2c-1.388 1.054-2.888 1.22-4.5.5-4.182-5.283-9.015-5.783-14.5-1.5-2.556-.719-3.723-2.386-3.5-5-2.411-.363-3.911.637-4.5 3-2.119-3.765-.952-6.098 3.5-7 6.892 3.643 10.059 1.643 9.5-6a151.939 151.939 0 0 0-23-29l-3-6a129.969 129.969 0 0 0 1-25 14.506 14.506 0 0 0-5 4c-5.849 9.121-8.183 19.121-7 30l-2.5 12 3.5 24a103.382 103.382 0 0 0 4.5 8.5 45.792 45.792 0 0 0 13 3.5 32.523 32.523 0 0 1 13-.5c3.957 1.086 5.457 3.586 4.5 7.5-2.129-4.697-4.962-5.53-8.5-2.5l-12 1c-1.176 1.914-2.176 1.748-3-.5l-3 2c-8.641-2.376-17.308-3.709-26-4-.929-1.189-1.262-2.522-1-4a12.93 12.93 0 0 0-5 .5c-5.612 4.552-6.279 3.719-2-2.5l4-2c4.611 1.11 9.278 1.277 14 .5 1.545-1.822 2.212-3.989 2-6.5-.602-14.242-3.936-27.742-10-40.5a68.905 68.905 0 0 0 1.5-23.5c-1.109-2.315-2.943-3.815-5.5-4.5-8.415.647-16.081-1.353-23-6l-7-.5a1312.605 1312.605 0 0 1-35 6 56.65 56.65 0 0 0-17-.5l-28 16c-7.782 1.798-15.449 2.965-23 3.5-.838-.342-1.172-1.008-1-2a200.062 200.062 0 0 1 16-11.5 750.993 750.993 0 0 0 45-26.5c1.385-.802 1.218-1.469-.5-2-.765.07-1.265.403-1.5 1-7.329 2.997-14.662 5.997-22 9-.992.172-1.658-.162-2-1 1.879-2.615 4.212-4.781 7-6.5a43833.65 43833.65 0 0 0 29-17.5c2.927-1.257 5.261-3.257 7-6a66.686 66.686 0 0 1 13-10.5 713.94 713.94 0 0 1 31-18l29.5-23.5a116.577 116.577 0 0 1 15-21 926.052 926.052 0 0 1 17-37c7.3-13.26 18.633-19.926 34-20a40.336 40.336 0 0 1 16.5 5.5c10.234-1.027 19.9.973 29 6l2 2-18 1a30.383 30.383 0 0 0-11 3.5 137.385 137.385 0 0 0 22 5.5c2.347.712 4.347 1.879 6 3.5-6.338.808-12.671 1.641-19 2.5-7.744 4.409-14.244 10.242-19.5 17.5a35.598 35.598 0 0 0-2.5 13.5 132.057 132.057 0 0 0 5 29 540.956 540.956 0 0 1-10.5 35.5 302.772 302.772 0 0 1-25.5 42.5c-5.58 2.981-9.413 7.481-11.5 13.5a1686.978 1686.978 0 0 1-2 24 333.785 333.785 0 0 0 25.5 35.5c5.205 2.464 10.538 3.964 16 4.5z"/><path style="opacity:.796" d="M104.5 153.5c-1.739 2.743-4.073 4.743-7 6 1.74-2.743 4.073-4.743 7-6z"/><path style="opacity:.243" d="M85.5 175.5c.235-.597.735-.93 1.5-1 1.718.531 1.885 1.198.5 2-.342-.838-1.008-1.172-2-1z"/><path style="opacity:.741" d="M61.5 183.5c.342.838 1.008 1.172 2 1-1.681 1.508-3.681 2.508-6 3 .333-2.333 1.667-3.667 4-4z"/><path style="opacity:.18" d="M57.5 187.5c-.667.667-.667.667 0 0z"/><path style="opacity:.553" d="M26.5 214.5c-.172.992.162 1.658 1 2-.802 1.385-1.469 1.218-2-.5.07-.765.403-1.265 1-1.5z"/><path style="opacity:.675" d="M246.5 268.5c1.588 1.135 1.921 2.469 1 4-.765-1.112-1.765-1.779-3-2l2-2z"/></svg>