<svg xmlns="http://www.w3.org/2000/svg" width="101" height="98" style="shape-rendering:geometricPrecision;text-rendering:geometricPrecision;image-rendering:optimizeQuality;fill-rule:evenodd;clip-rule:evenodd"><path style="opacity:.946" fill="#020101" d="M85.5 8.5c.763.768 1.763 1.268 3 1.5.752.67 1.086 1.504 1 2.5h-1c-1.322.17-2.489-.163-3.5-1-.667 1-.667 2 0 3 1.7.906 3.533 1.24 5.5 1-.11.617-.444 1.117-1 1.5.916.278 1.582.778 2 1.5-4.094-.795-7.26.538-9.5 4A320.674 320.674 0 0 1 80.5 46c-3.353 7.668-7.853 14.5-13.5 20.5-.667 3-.667 6 0 9 1.188 1.063 1.688 2.397 1.5 4-1.466-2.758-2.133-2.425-2 1a78.993 78.993 0 0 1-6.5-8v-8c-.374 1.991-1.207 3.658-2.5 5-.617-.11-1.117-.444-1.5-1l-1 8c-1.107-1.212-1.607-.879-1.5 1-.617-.11-1.117-.444-1.5-1-.499-2.522-.332-5.022.5-7.5.06-1.71-.606-3.044-2-4a163.44 163.44 0 0 1-9.5-1.5 83.587 83.587 0 0 1-16.5 1c2.131-.814 4.464-1.314 7-1.5l-8-1a4.932 4.932 0 0 1 3-.5l10-1c.256-2.292-.077-4.46-1-6.5l4-2a32.461 32.461 0 0 0-6-2.5c-.086-.996.248-1.83 1-2.5a77.697 77.697 0 0 0 22-14.5A433.938 433.938 0 0 1 70.5 9c4.952-1.827 9.952-1.994 15-.5z"/><path style="opacity:.729" fill="#12110f" d="M85.5 8.5a18.436 18.436 0 0 1 6 .5c1.473.71 2.14 1.876 2 3.5h-4c.086-.996-.248-1.83-1-2.5-1.237-.232-2.237-.732-3-1.5z"/><path style="opacity:.853" fill="#110f0f" d="M88.5 12.5c.473 1.406 1.473 2.073 3 2 0 .667-.333 1-1 1-1.967.24-3.8-.094-5.5-1-.667-1-.667-2 0-3 1.011.837 2.178 1.17 3.5 1z"/><path style="opacity:.694" fill="#23201f" d="M91.5 14.5c2.522 1.165 2.522 2.498 0 4-.418-.722-1.084-1.222-2-1.5.556-.383.89-.883 1-1.5.667 0 1-.333 1-1z"/><path style="opacity:.976" fill="#0b0a0a" d="M33.5 49.5a32.461 32.461 0 0 1 6 2.5l-4 2c.923 2.04 1.256 4.208 1 6.5l-10 1c-.39-1.89.61-3.39 3-4.5l-1.5-.5c-2.974 1.248-5.14 2.581-6.5 4-.333-1.333-.667-1.333-1 0-1.478.262-2.811-.071-4-1 2.655-1.994 5.655-3.494 9-4.5 2.017-2.861 4.683-4.695 8-5.5z"/><path style="opacity:.612" fill="#151415" d="M26.5 61.5a4.932 4.932 0 0 0-3 .5l8 1c-2.536.186-4.869.686-7 1.5-2.115 2.39-4.781 3.724-8 4 .93-.815 1.93-1.648 3-2.5-1.333-.667-1.333-1.333 0-2a29.816 29.816 0 0 0-5 .5 38.496 38.496 0 0 1 6-4h1c1.36-1.419 3.526-2.752 6.5-4l1.5.5c-2.39 1.11-3.39 2.61-3 4.5z"/><path style="opacity:.912" fill="#252526" d="M16.5 68.5a8.434 8.434 0 0 1-4-.5c1.323-.816 1.99-1.983 2-3.5a29.816 29.816 0 0 1 5-.5c-1.333.667-1.333 1.333 0 2a81.718 81.718 0 0 0-3 2.5z"/><path style="opacity:.559" fill="#181617" d="M14.5 64.5c-.01 1.517-.677 2.684-2 3.5a8.434 8.434 0 0 0 4 .5c-1.28 1.431-2.947 2.098-5 2-1.679.215-2.679-.452-3-2a23.575 23.575 0 0 1 6-4z"/><path style="opacity:.149" fill="#080303" d="M8.5 68.5c.321 1.548 1.321 2.215 3 2-1.419.951-3.085 1.284-5 1-.215-1.679.452-2.679 2-3z"/><path style="opacity:.757" fill="#100e0e" d="M57.5 69.5c.82 3.767.153 7.434-2 11-1.419-.505-2.085-1.505-2-3-.107-1.879.393-2.212 1.5-1l1-8c.383.556.883.89 1.5 1z"/><path style="opacity:.337" fill="#0e0a0b" d="M68.5 79.5c2.547 2.994 5.547 5.66 9 8a3.646 3.646 0 0 1-1 1.5 80.74 80.74 0 0 1-11-1c-.95-.718-1.117-1.55-.5-2.5 1.303-.612 2.47-.945 3.5-1-1.13-1.122-1.797-2.456-2-4-.133-3.425.534-3.758 2-1z"/><path style="opacity:.353" fill="#0a0708" d="M61.5 90.5c-2.082-.028-3.916.639-5.5 2-.849-3.022-2.349-3.522-4.5-1.5 1.237.232 2.237.732 3 1.5-3.47.613-5.47-.72-6-4h7c-.27-1.929.23-3.595 1.5-5 1.026 2.739 2.526 5.072 4.5 7z"/><path style="opacity:.969" fill="#141212" d="M61.5 90.5c1.644.213 3.144-.12 4.5-1 2.122.72 2.622 1.887 1.5 3.5-4.52.814-8.854.647-13-.5-.763-.768-1.763-1.268-3-1.5 2.151-2.022 3.651-1.522 4.5 1.5 1.584-1.361 3.418-2.028 5.5-2z"/></svg>