<svg xmlns="http://www.w3.org/2000/svg" width="90" height="89" style="shape-rendering:geometricPrecision;text-rendering:geometricPrecision;image-rendering:optimizeQuality;fill-rule:evenodd;clip-rule:evenodd"><path style="opacity:.894" fill="#777473" d="M37.5 3.5a41.583 41.583 0 0 1-8 1c2.54-1.913 5.207-2.246 8-1z"/><path style="opacity:.82" fill="#6d6a68" d="M24.5 10.5c-.667 0-1 .333-1 1-.667 0-1 .333-1 1l-2 2c1.42-2.761 2.087-5.761 2-9h-9c2.729-1.576 5.729-2.076 9-1.5 1.729 1.789 2.396 3.956 2 6.5z"/><path style="opacity:1" fill="#151412" d="M37.5 3.5c2.813-.475 4.813.525 6 3 .638 4.486-.696 8.152-4 11a20.216 20.216 0 0 1-1.5-6c-1.011-.837-2.178-1.17-3.5-1h-1c.086-.996-.248-1.83-1-2.5l-4-1c.752-.67 1.086-1.504 1-2.5a41.583 41.583 0 0 0 8-1z"/><path style="opacity:.999" fill="#0c0b0a" d="M13.5 5.5h9c.087 3.239-.58 6.239-2 9-5.34-1.24-10.674-1.24-16 0a4.932 4.932 0 0 1 .5-3 72.586 72.586 0 0 1 8.5-6z"/><path style="opacity:.941" fill="#767574" d="M67.5 7.5h-15c5.013-2.56 10.013-2.56 15 0z"/><path style="opacity:1" fill="#090807" d="M52.5 7.5h15c-.032 2.119.968 3.452 3 4 .296 1.903.963 3.57 2 5a28.818 28.818 0 0 1-1 10 37.922 37.922 0 0 0-9 4c-.952-1.545-1.285-3.212-1-5 1.123-1.788 1.29-3.788.5-6-.122-1.937-.955-3.27-2.5-4-1.952-2.627-4.619-3.96-8-4-.067-1.459.266-2.792 1-4z"/><path style="opacity:.02" fill="#918e8d" d="M29.5 4.5c.086.996-.248 1.83-1 2.5l4 1c.752.67 1.086 1.504 1 2.5-1.006.438-1.006 1.104 0 2-2.613-.935-5.28-1.101-8-.5-1.115 2.131-2.448 3.965-4 5.5a20.677 20.677 0 0 0 1-5c.667 0 1-.333 1-1 .667 0 1-.333 1-1a31.948 31.948 0 0 1 6-1.5c-4.733-.851-5.067-2.351-1-4.5z"/><path style="opacity:.239" fill="#a09f9c" d="M67.5 7.5a8.95 8.95 0 0 1 3 4c-2.032-.548-3.032-1.881-3-4z"/><path style="opacity:1" fill="#100e0e" d="M33.5 12.5c.032 2.576-.635 4.91-2 7 0 .667-.333 1-1 1-2.97.246-4.303 1.912-4 5-1.586.913-3.086.913-4.5 0a32.437 32.437 0 0 1-.5-8c1.552-1.535 2.885-3.369 4-5.5 2.72-.601 5.387-.435 8 .5z"/><path style="opacity:.396" fill="#77746f" d="M52.5 7.5c-.734 1.208-1.067 2.541-1 4 3.381.04 6.048 1.373 8 4-3.747-1.916-7.747-3.249-12-4 1.105-2.111 2.771-3.445 5-4z"/><path style="opacity:.153" fill="#9a9997" d="M70.5 11.5c1.713 1.135 2.38 2.802 2 5-1.037-1.43-1.704-3.097-2-5z"/><path style="opacity:.212" fill="#857f7d" d="M20.5 14.5c-1.792.81-3.792 1.31-6 1.5.916.278 1.582.778 2 1.5-2.958-1.041-5.958-1.041-9 0 .763-.768 1.763-1.268 3-1.5-1.94-.743-3.774-.576-5.5.5a2.427 2.427 0 0 1-.5-2c5.326-1.24 10.66-1.24 16 0z"/><path style="opacity:.537" fill="#878482" d="M58.5 19.5c-2.474-1.986-5.307-3.32-8.5-4a14.075 14.075 0 0 1-7.5 2v-1c.992.172 1.658-.162 2-1 4.583-1.68 8.916-1.18 13 1.5.752.67 1.086 1.504 1 2.5z"/><path style="opacity:1" fill="#0d0c0c" d="M58.5 19.5c1.333 2 1.333 4 0 6-5.795 1.642-11.795 2.476-18 2.5-1.556.72-2.556 1.887-3 3.5-.997.03-1.664-.47-2-1.5a15.416 15.416 0 0 0 2-4.5 26.326 26.326 0 0 0 2-5h1c.901-.79 1.568-1.79 2-3a14.075 14.075 0 0 0 7.5-2c3.193.68 6.026 2.014 8.5 4z"/><path style="opacity:1" fill="#181716" d="M16.5 17.5c1.248.834 1.915 2.167 2 4l-.5 4c-.67.752-1.504 1.086-2.5 1-1.679-.215-2.679.452-3 2-1.175 1.474-2.175 3.14-3 5-3.312-3.674-4.645-8.007-4-13 1.548-.321 2.215-1.321 2-3 3.042-1.041 6.042-1.041 9 0z"/><path style="opacity:.176" fill="#8e8a88" d="M43.5 6.5c2.262 2.681 2.596 5.681 1 9-.992-.172-1.658.162-2 1-1.333.333-1.333.667 0 1-.432 1.21-1.099 2.21-2 3-.321-1.548-1.321-2.215-3-2 .672-3.486-.328-6.153-3-8 1.322-.17 2.489.163 3.5 1a20.216 20.216 0 0 0 1.5 6c3.304-2.848 4.638-6.514 4-11z"/><path style="opacity:.275" fill="#969392" d="M33.5 12.5c3.022 3.275 2.355 5.608-2 7 1.365-2.09 2.032-4.424 2-7z"/><path style="opacity:.463" fill="#938d8e" d="M7.5 17.5c.215 1.679-.452 2.679-2 3 .432-1.21 1.099-2.21 2-3z"/><path style="opacity:.078" fill="#b5b1b0" d="M30.5 20.5a22.763 22.763 0 0 0-4 5c-.303-3.088 1.03-4.754 4-5z"/><path style="opacity:.463" fill="#7e7a78" d="M59.5 15.5c1.545.73 2.378 2.063 2.5 4 .79 2.212.623 4.212-.5 6a27.122 27.122 0 0 0-2-10z"/><path style="opacity:.557" fill="#898583" d="M72.5 16.5c1.165.996 1.832 2.33 2 4l-1.5 6c-1.826 1.679-3.992 2.846-6.5 3.5 3.975 1.38 6.809.213 8.5-3.5.496-1.973.662-3.973.5-6h3a20.677 20.677 0 0 0 1 5c-2.727.867-4.727 2.7-6 5.5a40.936 40.936 0 0 1-9 .5c.215 1.679-.452 2.679-2 3-2.414 1.219-4.747 2.719-7 4.5a18.492 18.492 0 0 1 2 3.5c-1.634-.707-2.968-1.873-4-3.5a7.291 7.291 0 0 1 3-2c-1.882-.198-3.548-.698-5-1.5 3.622.576 6.622-.424 9-3-3.667-1.333-7.333-1.333-11 0 .363.684.696 1.35 1 2-2.187-.548-2.854-1.715-2-3.5l11-1a36.213 36.213 0 0 1 2-4.5c-.285 1.788.048 3.455 1 5a37.922 37.922 0 0 1 9-4 28.818 28.818 0 0 0 1-10z"/><path style="opacity:.467" fill="#817c79" d="M39.5 20.5a26.326 26.326 0 0 1-2 5c-.423-2.281.244-3.948 2-5z"/><path style="opacity:1" fill="#0a0a09" d="M79.5 25.5c-.073 1.527.594 2.527 2 3v1c-.166 5.344 0 10.677.5 16 .383.556.883.89 1.5 1 .934 1.068 1.268 2.401 1 4a98.29 98.29 0 0 1-.5 14c-1.481.97-2.315 2.304-2.5 4-2.51-.447-4.51.22-6 2 0 .667-.333 1-1 1-1.7-.16-3.366.007-5 .5-1.256.417-1.923 1.25-2 2.5-1.967.24-3.8-.094-5.5-1l-1-8c-.383-.556-.883-.89-1.5-1-.992.172-1.658-.162-2-1-.321-1.548-1.321-2.215-3-2v-3h1c1.7.16 3.366-.007 5-.5.752-.67 1.086-1.504 1-2.5 1.398-1.277 2.064-2.943 2-5 .16-1.855-.507-3.188-2-4-1.667-1-3-2.333-4-4a18.492 18.492 0 0 0-2-3.5c2.253-1.781 4.586-3.281 7-4.5 1.548-.321 2.215-1.321 2-3a40.936 40.936 0 0 0 9-.5c1.273-2.8 3.273-4.633 6-5.5z"/><path style="opacity:.569" fill="#959090" d="M21.5 17.5a32.437 32.437 0 0 0 .5 8c1.414.913 2.914.913 4.5 0-1.163 2.738-2.997 3.738-5.5 3-.81-3.858-.643-7.524.5-11z"/><path style="opacity:.29" fill="#939090" d="M15.5 26.5c-.79.901-1.79 1.568-3 2 .321-1.548 1.321-2.215 3-2z"/><path style="opacity:.463" fill="#7b7877" d="M58.5 25.5c-.304.65-.637 1.317-1 2a130 130 0 0 1-16 1.5c-.97 1.481-2.304 2.315-4 2.5.444-1.613 1.444-2.78 3-3.5 6.205-.024 12.205-.858 18-2.5z"/><path style="opacity:.263" fill="#a8a4a1" d="M79.5 25.5c1.406.473 2.073 1.473 2 3-1.406-.473-2.073-1.473-2-3z"/><path style="opacity:.31" fill="#958d8c" d="M5.5 20.5c-.645 4.993.688 9.326 4 13 .825-1.86 1.825-3.526 3-5 .375 2.896-.125 5.563-1.5 8-2.96-1.908-4.96-4.575-6-8-.8-2.867-.634-5.534.5-8z"/><path style="opacity:.998" fill="#1e1e1d" d="M51.5 35.5c-.667 0-1-.333-1-1a44.358 44.358 0 0 0-1-2c3.667-1.333 7.333-1.333 11 0-2.378 2.576-5.378 3.576-9 3z"/><path style="opacity:.192" fill="#a5a4a0" d="M81.5 29.5a481.958 481.958 0 0 1 2 17c-.617-.11-1.117-.444-1.5-1-.5-5.323-.666-10.656-.5-16z"/><path style="opacity:.455" fill="#968f8a" d="M37.5 25.5a15.416 15.416 0 0 1-2 4.5c.336 1.03 1.003 1.53 2 1.5-1.036 4.218-2.702 4.718-5 1.5a26.446 26.446 0 0 0 3-6.5c.457-.797 1.124-1.13 2-1z"/><path style="opacity:.651" fill="#69685f" d="M61.5 46.5c1.493.812 2.16 2.145 2 4 .064 2.057-.602 3.723-2 5 1.041-2.958 1.041-5.958 0-9z"/><path style="opacity:.498" fill="#8b8683" d="M21.5 56.5c-.79-1.108-1.29-2.442-1.5-4-1.93 4.746-1.764 9.413.5 14-3.193-4.53-3.86-9.53-2-15h3v5z"/><path style="opacity:.084" fill="#bcbab8" d="M48.5 58.5c-4.863-.32-9.53.014-14 1-.79.283-1.456.783-2 1.5 2.244.05 3.91.883 5 2.5-1.88-.841-3.88-1.175-6-1-.203-1.89.463-3.39 2-4.5 5.184-.816 10.184-.65 15 .5z"/><path style="opacity:.031" fill="#bbb0af" d="M61.5 55.5c.086.996-.248 1.83-1 2.5-1.634.493-3.3.66-5 .5 2.088-.7 4.088-1.7 6-3z"/><path style="opacity:.8" fill="#484643" d="M34.5 59.5c4.47-.986 9.137-1.32 14-1a303.438 303.438 0 0 1 4 3v1c-1.933-.229-3.6-1.062-5-2.5a84.938 84.938 0 0 0-13-.5z"/><path style="opacity:.165" fill="#afacab" d="M84.5 50.5c1.15 4.816 1.316 9.816.5 15a14.692 14.692 0 0 1-3.5 3c.185-1.696 1.019-3.03 2.5-4 .5-4.655.666-9.322.5-14z"/><path style="opacity:.055" fill="#bebbbb" d="m23.5 58.5 3 3h-3v-3z"/><path style="opacity:.027" fill="#9e9796" d="M26.5 61.5a275.981 275.981 0 0 0 10.5 4 2.428 2.428 0 0 0 .5-2 6.541 6.541 0 0 1 3 3v3c-.768-.763-1.268-1.763-1.5-3a18.436 18.436 0 0 0-.5 6c-.667 0-1 .333-1 1h-2a31.501 31.501 0 0 0 2-4.5c-2.135-3.727-5.468-5.394-10-5-.752-.67-1.086-1.504-1-2.5z"/><path style="opacity:1" fill="#1c1a19" d="M21.5 56.5c1 .333 1.667 1 2 2v3h3c-.086.996.248 1.83 1 2.5 4.532-.394 7.865 1.273 10 5a31.501 31.501 0 0 1-2 4.5c-1.667 1.333-3.333 1.333-5 0-1.954-1.77-4.287-3.103-7-4-2 0-3-1-3-3-2.264-4.587-2.43-9.254-.5-14 .21 1.558.71 2.892 1.5 4z"/><path style="opacity:1" fill="#121211" d="M34.5 59.5c4.346-.166 8.68.001 13 .5 1.4 1.438 3.067 2.271 5 2.5 2.285 2.835 3.618 6.168 4 10a114.905 114.905 0 0 0-4.5 6c-1.261-.26-2.261-.926-3-2-.974 2.378-1.641 2.044-2-1-2.737 1.11-5.57 1.277-8.5.5a9.468 9.468 0 0 0 2.5-1.5c.8-2.867.634-5.534-.5-8a6.541 6.541 0 0 0-3-3c-1.09-1.617-2.756-2.45-5-2.5.544-.717 1.21-1.217 2-1.5z"/><path style="opacity:.643" fill="#838281" d="M54.5 58.5v3c1.679-.215 2.679.452 3 2-3.807-.757-3.974.243-.5 3 .8 2.867.634 5.534-.5 8v-2c-.382-3.832-1.715-7.165-4-10v-1l2-3z"/><path style="opacity:.408" fill="#7f7b77" d="M81.5 68.5c-1.802.958-3.802 1.625-6 2 1.49-1.78 3.49-2.447 6-2z"/><path style="opacity:.506" fill="#7b7776" d="M23.5 69.5c2.713.897 5.046 2.23 7 4-2.989-.314-5.322-1.648-7-4z"/><path style="opacity:.086" fill="#979391" d="M59.5 64.5c.617.11 1.117.444 1.5 1l1 8c1.7.906 3.533 1.24 5.5 1a31.593 31.593 0 0 0-5 3 3.646 3.646 0 0 1-1.5-1 121.78 121.78 0 0 0-1.5-12z"/><path style="opacity:.592" fill="#7a7775" d="M74.5 71.5c-2.149 1.236-4.482 2.236-7 3 .077-1.25.744-2.083 2-2.5 1.634-.493 3.3-.66 5-.5z"/><path style="opacity:.412" fill="#a29e9d" d="M37.5 75.5c-2.54 2.354-5.54 2.688-9 1-.886.825-1.219 1.825-1 3a19.606 19.606 0 0 1-2-3.5l1-1c2.257-.112 4.424.388 6.5 1.5a53.543 53.543 0 0 0 4.5-1z"/><path style="opacity:1" fill="#383534" d="M40.5 66.5c1.134 2.466 1.3 5.133.5 8a9.468 9.468 0 0 1-2.5 1.5c2.93.777 5.763.61 8.5-.5.359 3.044 1.026 3.378 2 1 .739 1.074 1.739 1.74 3 2a114.905 114.905 0 0 1 4.5-6v2c-.61 1.934-1.61 3.6-3 5-2.433-.227-4.1.773-5 3h-1c-2.398-.24-4.398.426-6 2-5.754 1.806-10.42.139-14-5-.219-1.175.114-2.175 1-3 3.46 1.688 6.46 1.354 9-1v-2c.667 0 1-.333 1-1 1.406-.473 2.073-1.473 2-3v-3z"/><path style="opacity:.114" fill="#989791" d="M53.5 79.5c-1.4 1.39-3.066 2.39-5 3 .9-2.227 2.567-3.227 5-3z"/><path style="opacity:.459" fill="#9f9a89" d="M47.5 82.5c-1.714 1.238-3.714 1.905-6 2 1.602-1.574 3.602-2.24 6-2z"/></svg>