<svg class="img-fluid" xmlns="http://www.w3.org/2000/svg" width="64" height="85" viewBox="0 0 640 850"><path d="M220 771c-62-33-106-85-129-152-26-77-29-199-6-223 10-10 15-36 16-78 0-103 42-178 129-233 32-20 52-25 104-25 44 0 67 5 76 15 7 8 18 15 24 15 21 0 96 85 106 120 6 19 10 65 10 101 0 47 4 70 15 79 20 17 21 190 1 228-8 15-20 41-26 59-13 34-51 68-109 96-48 24-164 22-211-2zm148-188-3-78-36-3c-43-4-46 4-41 96l4 62h79l-3-77zM260 363c0-5-7-16-15-27-10-13-11-24-5-37 6-10 10-27 10-38 0-55 99-83 139-40 30 32 38 104 16 129-18 20-17 20 30 20h47l-4-72c-2-44-9-73-16-76-7-2-12-10-12-17 0-23-49-54-95-61-99-14-167 43-182 152-8 62-1 74 47 74 22 0 40-3 40-7zm133-30c4-2 7-11 7-19 0-19-35-18-55 3-11 11-19 13-24 5-3-6-19-14-34-17-23-6-27-4-27 13 0 16 8 22 33 25 32 4 85-1 100-10z" style="transform:none"/></svg>