<svg class="img-fluid" xmlns="http://www.w3.org/2000/svg" style="transform:none;transform-origin:50% 50%;cursor:move" width="184" height="182" viewBox="0 0 1840 1820"><g style="transform:none" fill="#000"><path d="M123 1783c-36-7-52-38-42-81 5-20 9-52 9-69 0-18 4-33 9-33s12-18 16-41c4-22 13-43 21-46 7-3 16-21 20-41 4-21 15-51 25-68 11-17 19-41 19-53 0-14 11-25 35-35 23-10 35-22 35-34 0-23 85-112 123-129 14-7 33-25 41-42 10-19 26-32 45-36 16-3 35-13 42-21 6-8 22-14 35-14s33-9 44-20 26-20 34-20c7 0 25-9 39-20 25-20 81-27 91-12 3 5 2 30-2 58-6 38-12 49-27 52-28 4-122 51-136 68-6 7-26 16-45 20-19 3-34 10-34 14 0 5-13 11-30 15-16 4-36 14-42 23-7 10-25 23-41 30-15 6-33 24-39 39-7 16-21 34-30 41-10 7-18 19-18 27s-7 18-16 23c-8 5-18 28-21 51-4 26-13 45-24 52-11 5-19 16-19 25 0 8-6 17-14 20-15 6-29 74-20 98 8 20 50 21 88 1 32-17 66-20 66-6 0 5 10 13 23 17 33 10 57 34 57 59 0 18-7 24-34 29-19 4-39 13-46 21-8 10-31 15-65 15-29 0-72 7-95 15s-45 14-49 14c-3-1-16-4-28-6z"/><path d="M882 1778c-6-6-51-13-99-16-61-3-92-8-99-18-7-8-29-18-50-21-39-6-114-48-114-64 0-5-18-13-39-19-21-5-42-17-45-25s-10-15-17-15c-6 0-33-22-59-49l-49-50 30-30c37-39 54-39 87 0 14 18 40 37 57 45 17 7 48 28 68 48 28 27 47 36 72 36 18 0 41 7 50 16 38 39 475 41 521 3 13-10 21-9 47 6 44 26 84 68 79 83-2 6-14 12-28 12-13 0-42 10-65 22-30 16-56 21-99 19-31-1-77 5-101 13-52 19-130 21-147 4zM1650 1762c-59-2-90-8-101-18-10-9-37-18-61-21-33-4-52-15-81-44-21-22-46-39-56-39-14 0-93-69-127-111-6-8-24-26-40-41-54-51-64-65-64-87 0-13-9-34-20-48s-20-37-20-51c0-26-46-102-61-102-11 0-11-31 0-48 6-10 17-11 53-2 41 11 47 16 52 45 4 18 13 36 21 39s15 18 15 34c0 21 11 37 40 62 22 18 40 39 40 45s8 18 18 27c9 8 30 30 45 47 16 17 34 31 40 31 11 0 19 6 86 69 31 29 55 43 85 47 22 4 48 13 58 21 22 20 95 14 89-7-10-33-12-120-4-120 6 0 15-11 21-24 12-28 45-38 68-22 12 9 17 31 19 82 1 38 10 86 19 108 17 38 24 111 12 123-7 8-38 9-146 5z"/><path d="M602 1504c-12-21-3-64 13-64 18 0 63-58 70-90 3-16 13-31 21-34s14-18 14-32c0-15 7-35 15-44s20-43 26-76c6-32 16-65 21-72 6-7 13-38 17-70l6-57 48-3c68-4 76 5 65 75-5 32-16 81-23 108-8 28-14 67-13 86 1 22-8 51-20 71s-22 40-22 46c0 15-38 69-83 117-20 22-37 43-37 48 0 4-25 7-55 7-39 0-56-4-63-16zM1477 1493c-29-20-34-29-26-40 6-7 19-13 29-13 20 0 35-15 45-49 4-13 22-38 40-56 39-39 75-96 75-119 0-9 9-33 20-53 18-34 20-57 20-254 0-180-3-219-15-229-16-13-21-80-6-80 5 0 14-13 21-30 12-28 13-29 44-16 28 11 32 18 37 67 4 30 14 72 22 94 13 31 16 80 16 225 0 162-2 190-19 225-11 22-19 54-20 71 0 20-11 42-35 68-20 22-38 51-42 65-3 14-13 34-21 44-8 9-20 27-26 40-6 12-22 23-34 25-13 2-28 12-35 23-16 26-45 24-90-8z"/><path d="M1480 1296c0-8-6-19-13-23-8-4-22-20-31-35-10-15-28-30-39-34-12-3-30-15-40-25-10-11-27-19-38-19s-41-17-66-37c-43-36-51-38-134-44-108-8-121-17-117-78l3-46 95 4c95 3 145 19 176 58 7 8 29 17 50 20 44 7 89 35 137 87 19 20 39 36 45 36 32 0 21 142-11 148-10 2-17-3-17-12zM167 1293c-4-3-7-20-7-37 0-18-8-43-17-56-10-14-28-50-40-80-20-48-23-73-23-225-2-166 4-225 20-225 12 0 60-96 60-120 0-11 9-29 20-40s20-29 20-41c0-20 37-68 53-69 14 0 66-65 67-83 0-25 27-32 49-13 10 9 22 16 28 16 15 0 43 34 43 54 0 10-14 23-34 31-25 11-36 23-41 45-4 17-13 34-20 37-8 2-17 18-20 34-4 16-15 34-26 39-12 7-19 21-19 39 0 21-11 38-37 62l-38 33v222c0 197 2 224 18 241 23 26 22 65-3 86-11 9-20 26-20 37 0 19-20 27-33 13z"/><path d="M785 913c-35-8-90-35-102-50-7-9-34-18-60-20-26-3-55-11-63-19-8-7-35-17-58-23-24-5-51-16-61-25s-24-16-33-16c-17 0-48-31-48-48 0-7-9-17-20-24-16-10-20-24-20-64 0-54 8-64 51-64 17 0 61 36 71 58 6 14 67 51 94 58 16 4 53 22 82 41s69 37 90 40c20 3 48 14 61 25 15 11 40 18 67 18 32 0 44 4 47 18 6 25 3 75-6 90-8 12-51 14-92 5zM993 900c-18-7-23-17-23-48 0-21 5-43 11-49s14-51 18-101c5-52 14-96 22-106s22-27 33-38c10-11 21-39 24-62 5-40 11-51 60-100 12-13 22-28 22-33 0-18 66-73 89-73 21 0 60 34 61 53 0 8-11 23-42 57-9 10-24 32-32 48-9 17-29 44-46 60-16 17-30 41-30 53s-7 30-16 40c-8 9-19 42-23 72-4 31-13 63-21 72-7 9-14 43-16 76-3 84-27 105-91 79zM1157 833c-11-11-7-67 6-83 7-9 31-21 53-28 23-7 47-19 54-27s25-15 41-15c15 0 36-8 46-19 10-10 28-24 40-30 13-6 30-25 38-41s24-31 35-35c21-7 90-103 90-127 0-7 18-32 40-53 33-32 40-46 40-78 0-24 8-49 20-64 38-49 17-87-29-52-13 11-29 19-36 19s-18 7-25 15c-19 23-39 18-58-15-10-17-28-32-44-36-41-9-39-44 3-44 17 0 43-8 57-19 57-39 120-61 185-62 36-1 70 2 77 6 15 9 8 119-9 139-6 7-14 42-17 77-6 52-14 74-45 119-26 37-39 67-39 88 0 20-8 39-20 49-11 10-20 20-20 24 0 20-196 219-216 219-4 0-15 7-25 16s-40 20-66 25-51 16-56 24c-8 15-107 22-120 8zM772 718c-6-6-12-23-12-36s-9-35-20-49-20-38-20-54-8-36-19-46c-10-10-22-33-26-51-5-26-13-34-36-39-18-3-36-18-50-39-11-19-25-34-31-34-5 0-29-19-52-43s-48-46-56-50-26-14-40-22-35-15-48-15-35-9-50-19c-15-11-43-23-64-26-34-7-36-5-43 24-7 33 1 89 16 107 6 8 2 25-12 48-17 30-25 35-43 30-29-9-46-24-46-40 0-7-7-17-15-22-11-6-17-30-21-83-6-77-20-129-35-129s-10-67 6-80c18-15 115-7 125 10 4 6 13 13 21 14 42 8 75 21 87 33 7 7 28 13 47 13 18 0 35 6 38 14 3 7 25 16 50 19 30 4 55 16 77 37 19 17 46 38 61 46 38 19 107 89 144 144 17 25 33 47 38 48 4 2 14 19 21 37 8 19 28 41 45 50 21 10 31 23 31 38 0 12 9 37 20 54 11 18 21 52 22 75l3 43-50 3c-30 2-55-2-63-10z"/><path d="M1429 372c-14-15-31-37-38-49-10-20-45-39-186-104-27-13-55-30-62-38-9-13-42-17-185-19-164-3-175-2-218 20-25 13-49 29-53 36-4 6-15 12-23 12-21 0-64-30-64-45 0-8-9-16-19-20-23-7-36-34-18-40 6-2 31-6 55-9 24-4 53-15 65-26 11-11 29-20 38-20 10 0 19-6 21-12 7-20 374-24 397-5 17 14 166 89 214 106 15 6 36 24 45 41 9 16 26 33 37 36 11 4 33 16 49 28 71 50 80 73 47 114-26 31-69 28-102-6z"/></g></svg>