<svg class="img-fluid" xmlns="http://www.w3.org/2000/svg" width="98" height="65" viewBox="0 0 980 650"><path d="M102 587c-30-32-31-135-2-192 25-49 25-61 0-110-28-55-28-161 0-185 39-34 184-37 211-4 16 19 50 18 79-3 20-14 46-18 127-18 68 0 106 4 115 13 6 6 32 12 58 12 104 0 123 28 60 90-29 28-40 47-38 63 6 42 78 30 78-14 0-29 22-69 37-69 11 0 13 8 8 30-7 33-4 35 27 19 12-7 24-7 29-2 13 13 1 41-19 46-13 3-10 7 11 15 35 15 36 42 2 42-15 0-39-7-55-15-28-14-31-14-50 5-11 11-20 26-20 33 0 17 45 36 62 26 19-12 88-11 88 1 0 6-11 15-25 20-31 12-32 22-2 35 12 6 22 14 22 20 0 17-36 17-54 1-22-20-34-10-20 16 11 20 6 48-8 48-12 0-33-50-33-77 0-28-36-46-62-31-28 14-21 40 22 83 21 22 39 46 40 53 0 17-43 32-95 32-23 0-62 9-86 20-63 28-136 26-204-6l-55-26-55 26c-75 35-162 37-193 3zm147-73c17-4 31-9 31-13 0-10-78-91-88-91-9 0-32 66-32 94 0 17 32 21 89 10zm320 0c17-4 31-11 31-17 0-11-79-87-90-87-12 0-90 76-90 88 0 18 89 28 149 16zM375 412c11-9 31-29 43-44l24-26-23-31c-13-17-33-38-45-46-21-13-26-13-57 8-19 12-42 33-52 45-17 24-17 24 31 67 27 24 51 44 54 44s14-7 25-17zm305-72c0-49-3-90-7-90-5 0-29 20-55 45l-48 44 48 45c26 25 50 46 55 46 4 0 7-40 7-90zM244 222c35-42 36-47 20-53-11-4-38-8-61-8-48-1-51 4-31 69 7 22 17 40 23 39 5 0 27-21 49-47zm316 3c24-24 41-47 38-50-11-12-113-17-148-8l-34 9 43 47c24 26 47 47 50 47 4 0 27-20 51-45z" style="transform:none"/></svg>