<svg class="img-fluid" xmlns="http://www.w3.org/2000/svg" width="106" height="89" viewBox="0 0 1060 890"><path d="M491 804c-62-27-110-94-134-191-18-74-40-57-45 36-4 68-5 70-33 76-37 8-45 3-60-43-6-20-15-41-19-47-4-5-11-26-15-45s-12-44-19-55-18-40-25-65-20-65-28-89c-16-45-13-104 8-157 8-21 13-25 18-14 15 36 64 100 120 157 34 35 61 67 61 72s7 14 15 21c13 10 15 9 15-10 0-74 59-182 122-223 58-36 176-9 194 46 3 9 9 17 14 17 12 0 37 54 51 113 6 26 15 47 20 47s9-3 9-7c1-5 36-46 80-92 71-76 81-91 90-140 22-109 27-107 40 13 9 92-1 192-24 236-8 14-17 41-21 60s-13 44-20 56c-8 12-17 39-21 60-9 47-41 94-65 94s-38-21-44-66c-13-103-26-115-45-41-14 51-38 107-48 107-4 0-12 10-17 22-11 24-88 68-120 67-11 0-35-6-54-15zm128-130c-5-6-6-14-3-17 10-10-43-27-81-27-24 0-39 7-49 22-9 12-16 25-16 28s36 5 79 5c56 0 77-3 70-11zM488 538c7-7 12-31 12-55 0-37-4-44-30-58-33-17-85-21-75-5 3 6 15 10 25 10 23 0 29 15 22 57-8 55 16 81 46 51zm172-33c0-18-6-35-12-38-18-5 8-37 31-37 9 0 23-5 31-10 11-7 4-10-27-10s-49 7-70 26c-20 18-24 27-15 33 7 4 10 15 7 24-10 25 12 56 35 50 15-4 20-14 20-38z" style="transform:none"/></svg>