<svg class="img-fluid" xmlns="http://www.w3.org/2000/svg" width="300" height="340" viewBox="0 0 3000 3400"><g style="transform:none"><path d="M1084 3046c-11-8-31-16-44-18-22-3-25-8-23-38 1-19 7-39 15-45 7-5 18-23 23-39 15-44 39-55 76-33 17 9 37 17 44 17 9 0 2 18-21 52-33 51-45 98-24 98 6 0 10 5 10 10 0 15-32 12-56-4zm136-7c0-13 10-20 34-25 39-7 56 0 56 22 0 15 1 15-52 18-31 2-38-1-38-15zm666-22c-19-14-14-43 5-32 5 4 9 1 9-4 0-17 47-13 64 5 21 20 20 34-1 34-10 0-27 3-38 6s-29-1-39-9zm-93-84c-23-8-14-33 12-33 15 0 25 6 25 14 0 16-19 25-37 19zm42-33c-4-11 0-29 9-42 9-12 16-30 16-40 0-12 8-18 21-18 14 0 19 6 17 18-1 9 1 22 5 29 7 11-37 73-53 73-5 0-11-9-15-20zm-1015-60c-18-11-11-19 20-22 16-2 25 3 28 15 4 19-23 23-48 7zm1159-67c-11-2-16-14-15-33 1-26 5-30 29-30s27 3 27 35c0 35-5 38-41 28zm-963-111c-14-26-13-31 9-58 13-16 26-27 28-24 3 3 9 29 13 58 6 48 5 52-14 52-13 0-27-11-36-28zm-469-20c-26-29-15-68 16-56 9 3 14 10 11 15s-1 9 4 9 10 11 10 25c0 29-18 32-41 7zm353-117c0-16 17-19 44-9 26 10 18 24-14 24-20 0-30-5-30-15zm1261-38c-23-61-23-64 6-70 15-3 36-1 45 4 19 10 25 49 7 49-5 0-8 3-5 8 2 4-7 13-20 19-22 10-26 9-33-10zm-1043 6c7-3 16-2 19 1 4 3-2 6-13 5-11 0-14-3-6-6zm202-11c0-10 10-29 21-41 22-23 22-23 43-1 21 21 21 21-3 41-30 24-61 25-61 1zm-570-31c0-26 4-29 38-32 47-5 92 0 92 10 0 8-98 51-118 51-7 0-12-13-12-29zm368 22c7-3 16-2 19 1 4 3-2 6-13 5-11 0-14-3-6-6z"/><path d="M1693 2457c-18-12-32-30-33-39 0-10-4-18-10-18-5 0-10-11-10-23 0-16-16-37-45-63-25-21-54-55-65-76-16-30-27-37-60-43s-47-2-86 22c-40 24-49 35-59 78-7 27-11 54-8 61 7 18-39 63-70 68-20 4-35-3-60-26-22-20-28-32-19-35 7-3 33-25 56-49 24-24 51-44 60-44s16-8 16-20c0-10 7-23 15-28 16-9 16-35-1-65-6-10-26-20-46-23-29-5-41-1-71 26-22 19-43 30-52 26-8-3-15-1-15 4 0 6-18 10-40 10-27 0-43 5-46 15-4 11-16 13-42 9-21-3-42-10-47-15-6-4-27-9-47-11-20-1-44-8-55-15-15-12-16-15-3-23 29-19 119-40 167-40 42 0 54-4 76-29 14-17 45-36 67-42 34-10 48-23 76-66 18-29 38-53 44-53 5 0 16-13 25-30 9-16 13-30 11-30-3 0 1-18 9-39 7-22 11-41 9-44-5-4 26-77 36-87 17-17 28-66 29-140 2-83 1-86-29-115-16-16-30-37-30-46 0-10-5-21-10-24-6-4-8-10-5-15 8-14-53-59-73-53-23 6-46-36-40-71 3-14 1-26-3-26-5 0-9-6-9-13 0-18-39-49-52-41-5 4-14 1-18-5-4-7-22-13-41-13s-40-5-47-11c-7-5-31-7-55-4-37 5-43 3-53-18-21-43-4-50 112-48 121 2 132 7 139 68 3 21 7 41 10 43 2 3 27 7 55 10 64 6 90-14 90-68 0-45-13-62-70-93-38-21-46-31-53-66-5-23-12-41-17-41s-6-8-3-17c8-20 52-63 64-63 5 0 11-11 15-25 3-14 10-25 14-25 5 0 10-10 12-22 2-18 11-24 36-26 27-3 32 0 32 17 0 11 12 28 26 37 21 14 25 24 22 53-3 31 0 36 20 39 13 2 35-7 53-22 37-31 46-32 54-6 3 11 11 20 16 20s9 16 9 35-4 35-9 35-7 8-5 18c5 22-40 74-59 66-8-3-21 1-28 9-12 13-17 12-36-11-17-22-24-25-34-14-11 10-8 18 16 41 17 15 40 43 53 62 12 18 22 28 22 21 0-6 9-12 21-12 13 0 41-21 70-52 41-44 49-59 49-90 0-25 5-38 13-38 13 0 43-61 38-76-2-4 3-11 11-15 10-7 10-9 1-9-20 0-15-35 8-56 27-24 72-112 64-124-15-25-95 4-95 34 0 7-10 26-21 40-17 21-24 25-30 14-7-10-9-9-9 5 0 9-4 17-10 17-5 0-10-6-10-12 0-7-20-31-45-53-45-41-45-41-36-89 5-27 16-53 25-58s16-20 16-33c0-16 6-25 15-25 8 0 15-4 15-10 0-5 7-10 15-10 14 0 55-76 55-102 0-7-15-8-40-4-40 6-40 6-40-33 0-22-2-45-5-53-3-7 6-18 20-24 22-11 28-9 55 22 16 19 30 39 30 44 0 23 60 65 60 43 0-5 13-23 29-40 20-24 37-33 59-33 17 0 32-5 34-12 7-21 36 0 43 33 4 19 15 33 26 36 10 3 19 8 19 12 0 11 69 6 81-6 20-20 69-16 69 5 0 14 2 15 10 2 5-8 10-12 11-7 3 13 6 22 17 50 20 48 16 57-28 57-21 0-50-5-63-11-16-7-39-8-68-2-38 7-44 12-47 36-2 15 1 27 7 27s11 8 11 17c0 12 3 14 11 6 6-6 19-8 29-6 18 5 18 6 2 29-9 13-23 24-30 24-14 0-14 77 0 86 5 3 6 9 3 14s6 12 20 16c29 7 34 31 8 36-20 5-54-11-66-29-4-7-17-17-27-23-17-9-27-4-65 31-25 23-45 35-45 28 0-8-8 1-16 18-16 32-13 103 4 103 4 0 21 9 39 19 31 20 31 20 15 65-11 31-24 47-39 51-28 7-123 123-116 141 16 42 120 14 194-52 59-52 83-55 104-14 9 16 20 30 25 30 6 0 10 7 10 15 0 11-11 15-39 15-22 0-41 3-43 8-1 4-16 14-33 22-16 9-37 31-46 50-15 31-24 37-80 51-78 20-90 35-64 86 10 21 18 49 17 63-13 188-15 196-84 262-20 19-28 36-29 65-5 149 5 223 33 246 13 10 33 27 46 38 12 10 22 16 22 11 0-4 4-2 8 3 16 23 119 103 140 109 12 4 22 12 22 17 0 6 4 8 9 5 10-6 25 24 16 32-3 3-14-3-25-13-16-14-23-16-32-7-15 15-48 16-48 2 0-5-9-10-19-10-13 0-28-15-42-40-13-22-30-40-39-40s-21-5-26-10c-19-19-64 27-64 64 0 39 44 103 78 112 12 3 22 12 22 20 0 21 62 73 88 74 12 0 22 5 22 12 0 9 3 9 12 0 16-16 39-15 75 3 51 25 50 45-2 46-25 1-59 2-76 3-21 1-38 10-53 29-26 32-31 32-73 4zM1390 910c35-35 20-49-37-34-16 4-23 14-23 30 0 30 32 32 60 4zm244-256c9-8 16-22 16-29 0-8 10-17 23-20 12-4 43-20 70-36 26-16 56-29 66-29 25 0 52-43 59-92 4-31 0-44-18-63-30-32-57-32-94 0-16 14-35 25-43 25-14 0-16 6-17 60-1 25-7 37-24 46-12 6-28 19-35 28s-24 22-37 29c-25 12-38 53-26 83 7 19 41 18 60-2zm265-28c19-23 10-70-14-74-15-2-27 8-43 36-12 22-19 42-15 46 12 11 60 6 72-8zM970 2440c0-5-7-7-15-4-8 4-15 1-15-5s14-11 30-11c20 0 30-5 30-15 0-20 34-32 71-27 33 5 39 28 9 37-11 3-20 11-20 17s-11 8-25 6c-14-3-25-1-25 3 0 5-9 9-20 9s-20-4-20-10zm-60-21c0-5 5-7 10-4 6 3 10 8 10 11 0 2-4 4-10 4-5 0-10-5-10-11zm1320-24c0-8 7-15 15-15s15-4 15-10c0-13 53-13 66 0 5 5 24 6 48 0 41-9 76 3 76 27 0 16-63 17-92 2-14-8-23-8-31 0-17 17-97 14-97-4zm-1710-2c0-15 54-92 61-87 5 3 9 0 9-7s3-9 7-6c3 4 12-2 20-13 18-26 37-27 23-1-13 26 2 66 31 82 21 11 22 12 3 22-18 10-154 19-154 10z"/><path d="M1976 2289c-22-37-12-49 42-49 38 0 43 24 13 58-25 29-33 28-55-9zm637 3c-15-10-28-62-15-62 15 0 45 51 35 61-4 4-13 5-20 1zm-303-17c0-9 9-15 25-15s25 6 25 15-9 15-25 15-25-6-25-15zm-1920-30c0-17 5-25 13-22 6 2 12 12 12 22s-6 20-12 23c-8 2-13-6-13-23zm280 0c0-8 5-15 10-15 6 0 10 7 10 15s-4 15-10 15c-5 0-10-7-10-15zm-369-64c-6-11-11-27-11-36s-8-30-17-46c-16-26-16-31-3-39 25-16 47-11 53 10 7 26 35 36 58 22 28-18 39-15 39 11 0 23-51 87-69 87-5 0-16 3-24 6-9 3-20-3-26-15zm2237-7c-10-16-1-83 12-99 33-40 41 9 11 70-10 21-20 34-23 29zM405 2059c-10-15 3-25 16-12 7 7 7 13 1 17-6 3-14 1-17-5zm2209-54c-7-18 23-68 36-60 16 10 11 62-6 69-22 8-24 8-30-9zm-2357-68c-3-7 1-24 8-38 12-21 14-22 20-7 9 22 3 50-11 55-6 2-14-2-17-10zm83-27c0-5-7-7-15-4-14 6-18-2-30-77-3-21-12-42-20-49s-15-19-15-26c0-8-7-14-15-14-24 0-18-27 8-34 33-9 32-9 46 32 18 49 27 60 61 67 30 7 47 30 27 39-9 3-9 5 1 5 17 1 14 22-7 49-20 23-41 29-41 12zm2367-70c-7-10-28-21-47-25s-46-14-60-23c-25-16-25-16 5-28 17-7 39-13 50-13 26-1 106 74 99 92-7 19-33 17-47-3zm-128-182c-6-29-4-85 5-90 6-4 28-8 49-8 37 0 55-12 90-60 12-17 20-21 23-12 3 6 12 12 20 12 12 0 13 10 8 53-4 28-11 54-16 55-4 2-6 7-3 12 2 4-25 6-60 5-51-2-69 1-86 16-21 18-28 22-30 17zm-2279-77c0-35 2-37 58-46 39-6 43-5 40 11-2 10-14 24-26 30-13 6-29 17-35 23-20 20-37 12-37-18z"/><path d="M2588 1533c-3-4-8-21-12-36-7-28-7-28 40-25 49 3 79 27 59 47-14 13-82 25-87 14zm-2255-85c-23-30-23-51-1-84 26-38 47-43 72-15 17 19 15 61-3 61-5 0-8 10-7 23 1 17-5 23-25 25-14 2-30-3-36-10zm-73-48c0-11-5-20-11-20s-3-7 6-17c14-14 18-14 26-2 14 23 11 59-6 59-8 0-15-9-15-20zm2382-159c-36-33-39-43-17-61 8-7 15-9 15-6 0 4 9 2 19-4 31-16 49-3 46 33-2 35-13 67-24 67-4 0-21-13-39-29zm-2347-11c-3-5-1-10 4-10 6 0 11 5 11 10 0 6-2 10-4 10-3 0-8-4-11-10zm137-6c-31-22-27-36 16-60 37-22 37-22 65 0 33 26 34 39 5 54-42 20-64 22-86 6zm1878-19c0-8 7-15 15-15s15 7 15 15-7 15-15 15-15-7-15-15zm-2003-45c-3-12 0-20 8-20 7 0 15-14 19-30 5-28 8-30 26-20 21 11 21 11-4 31-15 11-26 27-26 34 0 23-17 26-23 5zm1786-17c-13-2-23-9-23-14 0-11 40-52 40-41 0 4 5-1 11-10 5-10 17-18 24-18 8 0 15-4 15-10 0-5 11-10 24-10 14 0 28 5 31 10 3 6 18 10 33 10s33 4 41 9c19 12 6 45-14 37-9-3-23-2-33 3-56 28-115 41-149 34zm-1465-40c0-5-2-12-3-18-2-5-3-18-4-27 0-10-8-18-16-18-17 0-29-40-21-68 10-31 61-82 82-82 10 0 26 5 34 10 18 11 23 51 6 49-50-6-72 12-82 67-3 16 2 28 16 36 23 15 27 58 5 58-8 0-16-3-17-7zm162-137c0-27-6-48-15-56-13-10-13-15-3-21 7-4 18-3 26 3 10 9 16 8 22-2 5-8 12-11 16-8 4 4 15 3 26-3 16-9 18-17 13-53-6-38-4-43 19-54 14-6 33-9 41-6 8 4 15 1 15-5s7-11 15-11c10 0 15 10 15 28 0 29 29 72 48 72 10 0 22 23 22 42 0 6-7 8-15 4-9-3-15 0-15 9 0 8-7 15-15 15s-24 5-35 12c-15 10-22 9-38-5-28-26-82-20-82 9 0 8-6 14-14 14-7 0-16 14-19 30-10 45-27 36-27-14zm155-99c0-26-20-25-23 2-3 16 1 22 10 19 7-3 13-12 13-21zm-568 97c-5-30 6-38 32-24 23 12 18 36-9 43-13 3-19-2-23-19zm558-4c3-5 10-10 16-10 5 0 9 5 9 10 0 6-7 10-16 10-8 0-12-4-9-10zm1615-5c-7-9-11-18-8-20 9-10 38 7 38 21 0 18-14 18-30-1zm-322-33c-26-5-22-22 5-22 32 0 57-30 57-68 0-46 36-117 75-146 37-29 55-32 73-14 19 19 14 35-11 42-13 3-32 21-42 40-16 29-17 37-6 50 17 20 50 20 75 1 27-20 33-19 61 11 41 44 34 51-57 49-95-2-132 6-164 36-12 12-27 18-32 15-6-3-12-3-14 2-1 4-11 6-20 4zM480 848c0-29 15-38 40-25 38 19 37 37-4 37-22 0-36-5-36-12zm1645-58c-3-5-17-10-31-10-27 0-29-3-12-29 10-17 8-23-13-40-23-19-23-21-7-37 17-17 19-16 57 14 44 36 62 39 85 17 18-18 49-7 60 21 9 22 1 31-47 54-44 22-82 26-92 10zM670 750c0-7 3-10 7-7 3 4 3 10 0 14-4 3-7 0-7-7zm65 0c-3-5-1-10 4-10 6 0 11 5 11 10 0 6-2 10-4 10-3 0-8-4-11-10zm1279-6c3-9 6-18 6-20 0-3 4-3 10 1 11 7 2 35-12 35-6 0-7-7-4-16zm-934-15c0-8-14-10-40-6-38 5-52-4-29-19 8-4 7-9-2-15-11-7-11-9-1-9 9 0 11-7 7-19-3-11-1-22 5-26 5-3 10-13 10-22 0-15-12-15-66 2-18 6-25 0-40-34-10-23-21-41-26-41-4 0-15 12-25 28-9 15-18 29-19 30-1 2-11 1-22-2-14-5-19-14-18-30 4-37 13-44 70-57 47-10 57-9 77 5 26 18 74 21 84 6 8-13 52-13 60 0 4 6 11 8 16 4 10-6 69 17 69 28 0 25-15 38-44 38-24 0-40 8-59 30-15 17-23 30-18 30s11 10 13 23c2 18 9 22 38 21 19 0 43-4 53-8 14-7 16-5 11 10-4 11-11 25-17 32-12 15-87 16-87 1z"/><path d="M863 660c-14-6-21-15-17-24 5-12 11-13 30-4 13 6 24 17 24 25 0 15-6 15-37 3zm478-27c-35-5-66-27-57-41 3-5-2-22-10-38-9-16-24-53-34-81-18-53-18-53 7-73 14-11 31-20 37-20 18 0 38-57 31-90-6-26-4-30 15-30 40 0 130 31 130 45 0 7 8 16 18 18 13 4 11 5-5 6-13 1-23 7-23 16 0 8-9 15-20 15s-35 9-55 20c-19 11-42 17-50 14-8-4-15-1-15 5s-7 11-15 11c-21 0-19 50 3 66 9 7 27 14 40 14s35 6 50 14c15 7 37 12 49 10s25 1 29 7c6 11-25 79-37 79-4 0-9 9-12 20-5 20-9 21-76 13zm887-10c-14-3-16-13-12-49 2-25 0-44-6-44-5 0-7-7-4-15 4-8 9-15 13-15 11 0 53 101 47 116-6 14-9 15-38 7zm106-18c-4-8-3-23 1-32 6-17 7-17 21 1 8 11 14 26 14 33 0 18-29 16-36-2zm-306-42c-22-6-23-17-2-37 19-20 73-20 98-1 17 13 18 15 3 15-9 0-17 7-17 15 0 15-41 19-82 8zM793 467c-6-10-4-13 25-21 18-6 22-3 22 13 0 14-6 19-21 18-11-1-23-5-26-10zm224-9c-28-24-37-68-14-68 8 0 7-4-3-11-12-9-11-10 8-6 12 3 22 1 22-4s14-9 31-9 39-4 49-10c13-7 26-6 44 3 25 14 25 14-13 68-44 64-80 75-124 37z"/></g><path d="M1354 3149c-9-15 12-33 30-26 9 4 16 13 16 22 0 17-35 21-46 4zm166-3c0-20 14-27 51-28s61 18 39 32c-24 16-90 12-90-4zm-430-81c-10-12-10-19-2-27 9-9 12-9 12-1 0 7 10 10 22 8 25-5 43 15 25 27-19 12-44 9-57-7zm142-10c-32-37-29-55 11-55 61 0 100 72 42 78-23 2-36-4-53-23zm38-21c0-8-5-12-10-9-6 4-8 11-5 16 9 14 15 11 15-7zm176 31c4-9 13-15 21-13 23 5 20 23-4 26-18 3-21 0-17-13zm234 0c0-8-9-19-20-25-33-18-25-40 15-40 19 0 35 5 35 10 0 6 11 20 25 32 30 26 24 38-21 38-23 0-34-5-34-15zm-673-32c-9-9-9-55 1-69 5-9 11-8 20 2 7 8 8 14 2 14-14 0-13 27 2 32 6 2 8 10 4 16-8 13-19 15-29 5zm400 0c-12-11-7-33 7-33 12 0 26 20 26 36 0 7-26 5-33-3zm456-13c2-8 9-14 15-12 7 1 12-5 12-13s5-15 11-15c5 0 8 4 5 8-2 4-1 14 4 22 8 12 10 12 15-2 5-13 12-14 41-5 44 13 43 24-3 32-60 10-104 3-100-15zm-343-14c0-29 19-44 31-25 13 20 6 43-14 47-12 3-17-3-17-22zm-194-54c-7-11-1-16 16-13 3 0 11-13 17-29 8-24 16-30 40-30 20 0 31 5 31 14 0 14-21 26-47 26-8 0-23 10-32 22-12 15-20 18-25 10zm244-12c0-24 15-27 24-4 9 22 8 24-9 24-8 0-15-9-15-20zm194-2c3-13 6-28 6-34 0-15 54-25 81-16 19 7 19 9 5 21-9 7-27 11-41 9-13-3-22-1-19 4 7 10-14 38-28 38-6 0-8-10-4-22zm310 10c-8-12 24-40 37-32 5 3 9 14 9 25 0 21-34 27-46 7zm-904-48c0-11 7-20 15-20s15 6 15 14-7 16-15 20c-10 4-15-1-15-14zm353 5c-3-9-3-18 0-22 10-10 37 6 37 22 0 20-29 20-37 0zm432 5c-17-28 42-43 64-16 9 11 8 15-5 20-24 9-52 7-59-4zm-909-15c4-8 10-15 15-15 4 0 6 7 3 15-4 8-10 15-15 15-4 0-6-7-3-15zm1050-21c-8-22 1-31 16-16 9 9 9 15 1 23-7 7-12 5-17-7zm-649-33c-6-24 7-46 22-37 15 10 14 25-3 41-12 12-15 12-19-4zm198 2c2-10 4-24 4-30 1-8 15-13 36-13 28 0 35 4 35 20s-7 20-31 20c-17 0-28 4-24 10 3 6 0 10-9 10-8 0-13-7-11-17zm244 12c0-6-2-20-3-33-4-31 10-37 24-11 10 17 9 24-4 37-9 9-16 12-17 7zm-607-17c-7-7-12-17-12-24s-8-11-17-10c-23 4-53-15-53-31 0-8 13-13 34-13 25 0 36 5 41 19 3 10 15 21 25 24 12 3 20 14 20 26 0 23-19 28-38 9zm-447-7c-3-6-14-8-25-6s-20 0-20-5c0-12 102-24 129-15 12 3 21 11 21 16 0 6-4 7-10 4-5-3-10-1-10 4 0 13-77 15-85 2zm1214-7c-6-8-10-16-7-19 7-8 46 7 51 19 7 17-29 17-44 0zm116 7c3-6-1-11-9-11-9 0-16-4-16-10 0-5 25-10 56-10 47 0 55 3 52 18-2 12-15 18-47 20-28 2-41 0-36-7zm-1475-9c0-11 34-22 68-22 15 0 22 5 20 13-5 14-88 23-88 9zm835-33c-12-18 8-57 31-63 14-4 22-11 19-16-3-6-2-10 4-10 12 0 24 41 19 66-3 19-64 38-73 23zm45-36c0-7-4-13-9-13s-11 6-14 13c-3 8 1 14 9 14s14-6 14-14zm397 30c-4-7-3-44 1-80 1-7 9-10 17-7 9 4 15 20 16 43 1 34 2 35 8 7 5-26 8-27 19-13 19 22-1 57-33 57-13 0-26-3-28-7zm353-32c0-43 8-54 29-42 19 12 10 75-11 79-15 3-18-4-18-37zm-1276-15c-9-38 3-77 22-69 11 4 14 17 12 46-3 47-24 61-34 23zm359-52c6-43 10-48 36-39 21 6 29 25 12 25-5 0-12 11-15 25-4 14-13 25-22 25-12 0-15-8-11-36zm-833-19c0-22-4-34-10-30s-10-9-9-32c1-38 1-38 9-8s8 30 10 0c1-26 3-27 9-10 5 11 7 23 4 28-2 4 1 7 6 7 16 0 13 49-4 66-13 14-15 11-15-21zm1358 4c-3-18 0-29 8-29 16 0 24 48 9 54-8 3-15-7-17-25zm-1088-9c0-16 7-20 34-20 38 0 57 17 35 31-8 5-26 9-41 9-21 0-28-5-28-20zm164 6c-2-6 0-24 5-41 9-30 9-30 10 0 1 23 4 27 11 15 8-12 10-10 10 11 0 26-28 37-36 15zm165 2c-2-18 1-41 8-58 4-12 7-11 13 5 14 33 11 65-5 65-8 0-16-6-16-12zm894 5c-33-6-17-29 22-31 29-2 35 1 35 18 0 20-9 22-57 13zm137-12c0-28 13-33 39-14 18 12 20 17 10 24-25 15-49 10-49-10zm203 11c-12-8 11-35 24-30 4 2 10-14 14-35 7-45 17-57 29-37 16 25 12 70-6 70-8 0-13 4-10 9 7 11-38 31-51 23zm-597-19c-3-10-4-27-1-38 2-11 4-24 4-29 2-19 31 18 31 39 0 31-26 53-34 28zm-756-39c0-14-4-23-10-19-5 3-10 1-10-4 0-6 5-11 10-11h17c4 0 9 13 11 30 2 16-2 30-7 30-6 0-11-12-11-26zm597-5c-6-24 1-49 14-49 5 0 10 7 10 15 1 8 2 23 3 32 2 25-21 27-27 2zm-1115-14c0-16 2-22 5-12 2 9 2 23 0 30-3 6-5-1-5-18zm342-46c-3-6 0-17 7-25 11-10 23-11 58-2 40 10 42 12 26 25-23 16-81 17-91 2zm566-9c0-17 7-20 40-20s40 3 40 20-7 20-40 20-40-3-40-20zm600-1c0-18 4-20 28-15 15 4 33 7 40 8 23 2 12 16-19 22-46 9-49 8-49-15zm-750-4c0-8 5-15 10-15 6 0 10 7 10 15s-4 15-10 15c-5 0-10-7-10-15zm1039-7c0-7-2-21-4-30s3-25 10-35c12-17 14-16 20 9 8 30-1 68-16 68-5 0-9-6-10-12zm-1210-12c-8-36 1-58 25-62 25-4 18 60-6 64-10 2-19 1-19-2zm1053-25c-1-19 1-22 7-12 8 12 11 9 17-13 5-23 9-25 15-13 11 19 4 39-19 54-15 9-18 7-20-16zm348-5c0-36 24-56 34-30 13 34 6 64-14 64-16 0-20-7-20-34zm-1188-36c0-19 2-27 5-17 2 9 2 25 0 35-3 9-5 1-5-18zm-482-19c0-3-21-5-47-3-40 3-46 2-35-9 8-9 43-14 105-15 129-1 137-2 137-18s43-26 110-26c58 0 80 7 80 26 0 10-15 14-60 14-44 0-62 4-66 15-7 19-88 30-128 18-17-5-46-6-63-2-18 3-33 4-33 0zm205-30c3-6-4-9-15-8s-20 5-20 9c0 11 28 10 35-1zm162 27c-12-9-14-17-7-28s10-11 10-2c0 8 9 12 23 10s22 2 22 12c0 19-26 24-48 8zm223-4c0-9 9-18 20-21s20-12 20-20 5-11 10-8c6 3 10 1 10-5s5-8 10-5c16 10 12 33-10 55-24 24-60 27-60 4zm206 6c-2-3 0-30 4-60 7-55 7-55 15-12 4 24 14 49 21 57 8 7 14 15 14 17 0 5-52 3-54-2zm222 4c-22-7-24-24-4-24 8 0 17-4 20-9 4-5-18-8-48-8-30 1-52-1-49-5 2-5-8-8-23-8-60 0-12-11 64-14 71-3 81-1 85 15 3 10 0 20-6 22s47 3 116 3c95-1 127 2 127 12 0 8-20 12-67 12-38 0-97 2-133 5-36 2-73 2-82-1zm298-3c-4-7-5-15-2-18 9-9 19 4 14 18-4 11-6 11-12 0zm-1520-44c7-19 54-31 67-18 14 14 9 18-36 26-31 6-36 5-31-8zm1605-1c-19-10-20-14-8-19 8-3 28-2 44 3 25 7 26 8 5 9-13 1-20 6-17 11 8 13 5 12-24-4zm159 3c12-8 12-9-5-7-11 1-22-2-25-7-7-15 89-18 106-4 21 17 0 29-51 29-30 0-36-3-25-11zm-1124-72c0-51 4-71 13-69 6 1 17-11 23-28 9-29 11-29 24-13 27 36 6 88-28 67-7-5-9 5-6 26 4 25-14 90-25 90-1 0-2-33-1-73zm-86 35c0-5 17-23 37-41 25-23 39-29 42-20 2 7-1 15-8 17s-23 15-36 28c-25 25-35 30-35 16zm-630-25c0-9 9-21 20-27s20-7 20-2-9 17-20 27c-18 16-20 16-20 2zm1125-2c-4-11-22-31-40-45-40-29-43-38-13-36 12 0 27 11 34 23 6 13 13 21 16 18s11 1 17 9c9 11 10 20 2 33-10 17-11 17-16-2zm-771-10c-7-18 3-35 21-35 21 0 28 19 15 35-16 19-29 19-36 0zm667-4c-14-4-27-13-29-20-3-9 1-11 9-7 8 3 22 9 32 12 9 4 17 10 17 15s-1 9-2 8c-2-1-14-4-27-8zm374 1c-9-9-5-51 4-56 5-4 112-8 238-11 180-4 233-2 252 9 23 13 22 14-30 20-30 3-132 4-226 2-173-4-173-4-173 19 0 17-6 22-30 22-16 0-32-3-35-5zm45-32c0-5-4-10-10-10-5 0-10 5-10 10 0 6 5 10 10 10 6 0 10-4 10-10zm600 26c-5-7-7-16-3-19 3-4-3-7-15-7-20 0-41-35-28-48 16-15 36-9 36 11 0 16 3 18 9 9 7-12 12-12 30-1 27 17 27 29 1 24-11-2-20 0-20 6 0 8 15 13 33 10 4 0 7 3 7 8 0 15-39 20-50 7zm-2208-58c2-21 9-32 21-34 13-2 17 5 17 32 0 28-4 34-21 34s-20-5-17-32zm122 17c-3-8-3-19 0-24 10-16 36-1 36 20 0 22-28 26-36 4zm111 5c-3-5 0-18 7-29 11-18 14-18 39-6 14 8 30 11 34 7s2 3-4 16c-12 23-64 32-76 12zm898-41c-1-18 1-29 4-25 10 10 15 56 6 56-4 0-9-14-10-31zm-558 0c-9-13-5-16 25-21 17-2 26 2 28 15 3 12-3 17-22 17-14 0-28-5-31-11zm930-9c3-5 10-10 16-10 5 0 9 5 9 10 0 6-7 10-16 10-8 0-12-4-9-10zm-1614-35c0-35 2-37 11-19 7 15 7 28-1 40-9 16-10 12-10-21zm1279-30c0-42 3-56 10-45 5 8 10 29 10 45 0 17-5 37-10 45-7 11-10-3-10-45zm275 43c-16-4-40-6-53-3-17 4-24 0-32-21-6-14-26-40-45-56-19-17-32-35-29-40s2-8-3-7c-4 1-17 1-28 0-19-2-19-2-2-15 9-7 17-19 17-25 0-9 5-8 15 2 8 9 20 18 27 20 10 4 10 7 0 15-10 7-6 11 17 15 19 4 31 13 31 22 0 10-5 13-11 9-23-14-2 20 24 40 29 21 48 16 28-8-9-11-9-16 0-22 7-4 20 2 31 16 10 12 30 24 44 26 28 3 59 24 36 24-7 0-15 0-18-1-4 0-10 3-13 9-3 5-18 5-36 0zm681 3c-4-5-4-33-2-63 3-29 5-62 6-72 0-11 3-16 7-13 3 4 12 2 19-4s18-8 24-4c13 8 13 45 0 45-5 0-10-4-10-8 0-5-7-9-15-9-11 0-15 12-15 44 0 27 4 42 10 38 6-3 10 3 10 13 0 23-25 48-34 33zm164 0c0-5-3-16-6-25-4-12 0-16 15-16 25 0 30 35 6 44-8 3-15 1-15-3zm-1943-9c-17-7-18-9-3-21 12-10 35-12 94-7 42 4 85 7 94 7 17 0 37 19 21 19-4 0-48 3-98 5-49 3-98 1-108-3zm328-2c-50-6-50-6-10-13 22-5 47-10 56-11 9-2 23 0 30 5 12 8 11 11-1 19-8 5-17 9-20 8s-27-4-55-8zm318-7c11-10 77-11 77-2 0 5-19 9-42 9s-38-3-35-7zm-503-40c0-10 27-13 102-13 125 0 120 13-8 20-71 4-94 2-94-7zm280 3c0-8 7-16 15-20 13-4 14-2 5 14-13 23-20 26-20 6zm1521-25c-19-12-5-72 15-64 15 5 20 58 6 67-4 2-14 1-21-3zm-2284-23c-4-12-4-33-1-45 5-20 2-23-20-23-16 0-26-6-26-15 0-17 25-20 35-5 4 6 11 7 17 4 14-9 28 15 28 48 0 53-22 78-33 36zm683-1c0-8 7-14 15-14s16 6 19 14-2 13-14 13c-11 0-20-6-20-13zm131 9c12-10 60-16 54-6-3 5-18 10-32 10-15 0-24-2-22-4zm-938-19c5-14 2-16-18-11-21 5-25 3-25-15 0-25 34-29 63-7 19 15 23 36 6 36-5 0-7-6-4-12 4-7-1-4-11 7-14 17-16 17-11 2zm2325-66c-3-9-3-33 0-53 3-32 8-38 28-38 35 0 54 50 31 81-18 24-54 30-59 10zm39-53c-3-7-5-2-5 12s2 19 5 13c2-7 2-19 0-25zm-1397 12c0-5 7-7 15-4 8 4 15 8 15 10s-7 4-15 4-15-4-15-10zm-1004-36c-3-9-6-27-6-41 0-34 35-28 36 7 1 47-17 68-30 34zm1041 9c-9-14 8-33 21-24 10 6 10 10-2 20-8 7-17 8-19 4zm284-123c0-108 2-131 11-115 15 24 13 208-1 233-7 12-10-23-10-118zm-1218 82c-16-2-23-10-22-25 0-12 3-16 6-9 2 6 11 12 20 12 11 0 13-8 10-35-5-34 5-46 19-24 13 21 13 77 1 81-7 2-22 2-34 0zm2219-18c-2-23 0-25 13-14 12 10 13 16 4 26-15 18-14 18-17-12zm-1242-49c0-38 3-65 7-62 8 8 7 116-1 124-3 4-6-24-6-62zm-930-57c0-19 23-78 31-78 3 0 7 20 7 45 1 38-2 45-18 45-11 0-20-5-20-12zm2175-7c-3-6 3-9 14-8 11 0 17 5 15 9-7 11-22 10-29-1zm-2329-18c-3-4-6-24-6-45 0-31 3-38 20-38s20 7 20 39c0 36-18 59-34 44zm1124-36c0-27 4-37 16-37 10 0 12 5 7 13-4 6-9 21-10 31-6 35-13 30-13-7zm-950-38c0-5-5-7-11-4-11 8-7-34 7-69 7-19 8-19 15 0 11 28 11 84-1 84-5 0-10-5-10-11zm990-113c0-57 4-96 10-96s10 36 10 89c0 50-4 93-10 96-6 4-10-28-10-89zm1162 24c1-36 3-50 5-32 2 17 8 32 14 32 5 0 9 12 9 26s-4 23-9 20c-5-4-12 0-14 6-3 7-5-16-5-52zm-2287 30c-4-6-3-34 0-63 8-52 8-52 22-3 14 48 12 76-6 76-5 0-13-5-16-10zm2325-2c0-4 17-8 37-8s33 3 30 7c-10 10-67 11-67 1zm114 0c-4-6-2-14 4-16 19-6 26-3 28 13 3 18-22 20-32 3zm-1034-73c0-24 5-35 15-35 15 0 20 26 9 54s-24 17-24-19zm-1276-39c-6-17 2-36 17-36 12 0 12 37-1 45-6 3-13-1-16-9zm2157-27c1-19 3-26 6-16 2 9 8 15 12 13 4-3 12 4 19 15s8 19 2 19c-5 0-10-5-10-11 0-8-5-8-15 1-13 11-15 8-14-21zm70 15c8-9 4-14-13-17-20-4-20-4 5-6 20-1 27 4 27 17 0 10-7 19-15 19-11 0-12-4-4-13zm100 7c-13-9 0-28 19-28 9 0 21 6 27 13 9 9 6 13-12 16-13 3-28 2-34-1zm-1051-91c0-33 4-60 9-60 24 0 30 104 6 114-12 4-15-5-15-54zm-1446 19c-6-11 3-109 11-118 10-9 16 9 22 61 4 45 2 56-10 61-9 3-19 2-23-4zm93-6c-11-10-8-33 3-33 6 0 10 7 10 15s5 15 11 15c5 0 7-4 4-10-3-5 2-10 13-10 10 0 19 7 19 15 0 15-47 22-60 8zm2352-10c0-5-3-20-5-35-3-20 0-28 10-28 19 0 28 28 16 51-11 20-19 24-21 12zm-123-19c-11-29-6-44 14-44 14 0 20 7 20 24 0 28-26 42-34 20zm-2156-29c0-8 6-15 13-15 8 0 14 7 14 15s-6 15-14 15c-7 0-13-7-13-15zm916-23c-3-6-1-14 5-17 14-9 20-2 10 14-6 8-11 9-15 3zm327-34c-2-18 0-20 7-8 12 18 13 30 2 30-4 0-9-10-9-22zm-400-5c-7-2-13-10-13-17 0-17 45-9 61 10 9 11 7 14-12 13-13 0-30-3-36-6zm1392-4c-4-6-3-15 3-21s11-4 15 6c7 18-9 31-18 15zm-118-25c-15-15-7-45 11-42 9 2 17 12 17 22 0 20-16 31-28 20zm-2259-11c-10-3-18-9-18-14 0-6 4-8 9-5 18 11 33-24 30-71-3-37 0-49 12-51 9-1 16 4 16 12s-4 13-9 10c-4-3-8 13-8 35 0 23 5 41 10 41 6 0 10 10 10 23 0 23-15 29-52 20zm1701 4c-13-34-8-36 64-28 4 1 7 7 7 14 0 9-67 23-71 14zm725-4c4-7 4-13-1-13-4 0-8-22-8-50 0-27 3-50 8-50 7 0 11 16 8 33 0 4 4 7 9 7 17 0 11 57-7 71-11 10-14 10-9 2zm-999-13c-5-7 14-10 54-8 61 3 61 3 61-33 0-37 0-37-45-34-52 3-53-3-1-15 25-5 41-4 53 6 10 7 14 14 8 14-5 0-3 5 5 10 13 9 13 10 0 10s-13 1 0 10c8 5 10 10 3 10-6 0-9 9-6 20 5 18 0 20-60 20-36 0-69-5-72-10zm-495-39c0-11 5-23 10-26 6-4 8-11 5-16-4-5 2-6 11-2 10 4 13 8 7 10-5 2-8 15-5 28 3 18 0 25-12 25-9 0-16-8-16-19zm1117-8c-6-32 9-66 26-60 14 4 28 54 20 73-9 25-40 16-46-13zm146 20c-19-7-17-63 2-63 10 0 15 11 15 35 0 19-1 35-2 34-2 0-9-3-15-6zm177-52c0-5 7-12 16-15 14-5 15-4 4 9-14 17-20 19-20 6zm-2072-11c-8-25 3-50 23-50 11 0 19 5 19 12 0 6-3 8-7 4-4-3-12 6-18 21-8 20-13 24-17 13zm232-30c0-16 5-21 23-18 12 2 22 10 22 18s-10 16-22 18c-18 3-23-2-23-18zm302 13c-36-3-52-8-49-16 2-8 23-11 60-9 46 3 57 0 57-12 0-8-8-17-17-19-17-4-17-5 0-6 9 0 17-5 17-11 0-5 7-7 15-4 30 12 12 88-19 82-6-1-35-3-64-5zm745 0c-11-10 6-33 24-33 11 0 19-7 19-16 0-8 5-12 10-9 6 3 10 1 10-5s5-8 12-4c8 5 9 2 5-9-4-12-1-17 10-17 12 0 14 7 10 30-6 30-6 30 68 30 41 0 74-3 74-7-4-22 3-31 19-29 9 2 20-1 23-7 4-5 13-7 20-5 8 3 0 10-19 19-31 14-44 31-19 26 6-1 11 4 10 11-2 6 3 12 10 12 8 0 8 3-2 9-18 12-239 13-246 1-3-4 6-11 20-14 14-4 25-13 25-21 0-20-12-19-32 3-27 28-46 41-51 35zm-917-24c-18-33-8-44 41-40 62 4 72 15 19 21-35 4-45 9-44 23 2 23-3 22-16-4zm530 7c15-15 89-14 95 2 3 9-9 12-51 11-39-2-52-5-44-13zm100-20c0-19 46-66 65-66 13 0 14 2 3 14-7 8-16 12-21 9-4-2-12 9-18 26-11 31-29 42-29 17zm-1231-1c-3-5-3-21 2-35 4-14 7-19 8-12 1 6 8 12 17 12 8 0 12-4 9-10-3-5 0-10 8-10 9 0 13 9 11 28-3 38-3 39-15 20-5-10-14-18-19-18s-10 8-12 18c-2 9-6 13-9 7zm311-13c0-11-6-23-12-25-10-4-10-6 0-6 7-1 11-5 8-10-8-12 18-21 33-11 19 11 9 64-11 68-12 2-18-3-18-16zm1555 8c-40-6-40-6 7-14 42-7 107-1 97 9-9 8-66 10-104 5zm245-35c0-29 3-36 18-33 11 2 17 13 17 33s-6 31-17 33c-15 3-18-4-18-33zm-1481-11c-20-24 54-33 84-10 16 13 13 14-28 18-27 2-50-2-56-8zm371 1c0-8 4-15 10-15 5 0 7 7 4 15-4 8-8 15-10 15s-4-7-4-15zm360-4c0-25 6-27 13-6 4 8 2 17-3 20-6 4-10-3-10-14zm525 8c4-6 1-10-6-8-8 1-27 1-44 0-26-2-27-3-10-10 23-10 85-3 85 9 0 4-7 11-16 14s-12 2-9-5zm386 4c2-25 15-41 27-34 16 9 5 41-14 41-8 0-14-3-13-7zm-1224-10c-12-12-7-22 8-17 8 4 15 10 15 15 0 11-14 12-23 2zm-812-33c-8-14 4-70 15-70 5 0 10 10 12 23 2 15 9 21 21 19 21-4 22 2 1 22-18 18-40 21-49 6zm201 2c-2-4-1-14 5-22 6-11 9-12 9-2 0 8 5 10 13 6 8-5 8-2-2 9-15 19-18 20-25 9zm528-8c-18-15-18-15 8-11 15 2 29-1 32-7 2-6 5-1 5 12 1 26-17 29-45 6zm156 2c0-8 13-17 30-21 37-8 50-31 50-88 0-40-2-45-20-40-27 7-25-9 4-34 17-15 27-18 35-10 15 15 14 60-1 76-10 11-10 13 0 7 19-11 15 37-5 60-10 11-23 29-29 40-14 24-64 32-64 10zm555 4c-4-6-13-9-21-6s-14-1-14-9c0-10 10-15 29-15 35 0 47 13 27 29-10 9-16 9-21 1zm332-17c-4-18-3-43 2-55 9-23 9-23 15 2 3 14 2 39-2 55-8 30-8 30-15-2zm-688 2c-5-91-5-90 19-87 22 3 23 1 21-45-1-26-1-59-1-73 2-23 3-23 20-7 14 15 15 19 3 26-11 7-11 9 0 14 9 4 11 8 4 14-6 4-12 22-13 38-1 17-10 37-20 45-9 8-17 27-17 43 1 33-14 63-16 32zm-843-12c-3-10-5-39-5-64 1-40 4-48 22-51 30-5 58 2 52 12-3 5-12 7-20 3-12-4-15 5-15 42 0 50-24 91-34 58zm-446-14c0-5-4-7-10-4-5 3-10 1-10-4 0-6 7-11 16-11 11 0 13-6 9-19-7-22 23-36 55-26 25 8 28 60 4 69-25 10-64 7-64-5zm50-28c0-5-7-11-15-15-9-3-15 0-15 9 0 8 7 15 15 15s15-4 15-9zm1355 30c-11-10-4-20 18-23 17-2 23-11 25-36 3-28 5-30 18-18 16 16 18 44 5 65-9 13-57 22-66 12zm-845-35c0-38 17-57 31-35 13 21 4 64-14 67-13 3-17-4-17-32zm287-1c-6-38 2-105 12-105 4 0 7 25 8 56 0 32 6 60 13 64 8 5 7 9-5 14-9 3-18 6-20 6-1 0-5-16-8-35zm188 25c3-5 10-10 16-10 5 0 9 5 9 10 0 6-7 10-16 10-8 0-12-4-9-10zm1135-21c-10-22-10-33-1-42 8-8 14-8 23 1 7 7 20 12 30 12 13 0 18 8 18 30 0 24-4 30-21 30-16 0-20-5-16-20 3-11 0-23-5-27-7-3-8-1-4 5 4 7 3 12-3 12s-8 7-5 15c11 29-4 15-16-16zM682 948c7-19 35-21 35-3 0 8-9 15-19 15-11 0-18-5-16-12zm608-38c0-16 4-30 9-30s9 14 9 30c-1 17-5 30-10 30-4 0-8-13-8-30zm110 20c0-5 5-10 10-10 6 0 10 5 10 10 0 6-4 10-10 10-5 0-10-4-10-10zm372-27c-13-13-17-23-10-23 22 0 40 17 36 32-2 11-8 9-26-9zm-769 10c-7-2-13-14-13-24 0-14 4-18 13-13 9 6 9 5 0-8-7-8-10-18-6-21 13-13 32-7 38 13 3 11 15 20 25 20 18 0 34 23 23 34-7 7-63 7-80-1zm911-4c-17-29 36-36 191-24 17 1 41-2 54-7 15-5 28-4 37 3 7 6 29 9 48 6 31-4 34-2 27 11-8 14-35 17-180 19-114 2-172-1-177-8zm616-29c0-6-30-8-72-6-77 3-101 0-93-14 3-5 40-7 82-5 54 3 80 1 85-8 6-9 10-8 18 3 13 21 12 27-5 34-8 3-15 1-15-4zM442 858c5-15 139-10 154 5 4 4-30 7-75 7-60 0-82-3-79-12zm798 2c0-5 10-10 23-12 18-2 22-10 23-41 1-42 7-52 24-42 9 6 9 10-1 15-10 7-10 12 2 26 9 11 9 15 2 10-8-4-13-2-13 7 0 17-25 40-46 43-8 1-14-2-14-6zm-472-25c-2-3-3-18 0-35 3-21 10-30 23-30 23 0 33 16 14 24-8 3-15 15-15 26 0 19-10 26-22 15zm619-9c-4-10-5-21-2-24 9-9 17 6 13 25-3 17-4 17-11-1zm664-23c-1-37 15-44 72-30 46 12 32 27-25 27-26 0-38 5-41 18-3 9-5 3-6-15zM913 786c-10-11-9-15 3-20 26-10 42-7 47 9 4 8 1 17-5 21-7 4-8 3-4-4s2-12-3-12c-6 0-11 5-11 10 0 14-13 12-27-4zm-243-36c-13-9-13-11 0-20 24-16 77-12 84 6 3 9 6 17 6 18 0 8-78 4-90-4zm417 3c-10-16 8-29 38-29 42 1 41 30-2 34-17 2-33-1-36-5zm235-15c2-13 10-23 18-23s16 10 18 23c3 17-2 22-18 22s-21-5-18-22zm243 12c-3-5-3-21 1-35 4-18 13-25 29-25 13 0 27 5 31 12 5 7 2 9-9 5-9-3-18 0-21 9-4 11 0 13 19 8 27-7 33 4 13 24-14 14-54 16-63 2zm200 0c-8-13 12-40 28-37 7 1 11-4 10-10-2-7 6-13 17-13s20 1 20 3c0 1-16 17-34 35-22 21-37 29-41 22zm178 4c-7-3-13-11-13-18 0-8 17-12 48-11 35 0 47 4 47 15 0 15-56 25-82 14zm383-2c-3-5 1-15 9-22 16-14 20-3 6 19-5 8-11 9-15 3zM445 740c3-5 15-10 26-10 10 0 19 5 19 10 0 6-12 10-26 10s-23-4-19-10zm1784-17c0-11-3-13-6-5-2 6-8 12-12 12-10 0-11-39 0-45 5-4 9-1 9 5s5 8 10 5c6-4 10 5 10 19 0 29-10 36-11 9zm-1223-11c-2-4-2-20 1-35 4-21 8-25 14-15 7 10 9 10 9 0 0-7 5-10 12-6 6 4 8 3 4-4-3-6-2-13 4-17s8-10 6-14c-3-4 1-8 7-8 18 0 19 36 2 53-7 8-22 14-32 14-11 0-14 3-7 8 9 5 8 10-2 19-7 7-15 9-18 5zm1069-12c-3-5 1-10 9-10 9 0 16 5 16 10 0 6-4 10-9 10-6 0-13-4-16-10zm-145-27c0-16-1-45-3-67-7-58 1-76 32-75 14 0 20 3 14 6-7 2-13 19-13 36 0 18-4 49-9 69-6 24-5 40 2 47 8 8 6 11-6 11s-17-8-17-27zm-1062 9c-29-3-35-16-18-42 7-11 10-11 10-2 0 7 5 10 10 7 13-8 46 24 34 33-5 4-21 6-36 4zm1182-18c0-17 6-21 33-20 24 1 32 5 32 20s-8 19-33 20c-26 1-32-3-32-20zm-528-1c-6-2-10-8-7-13s7-22 9-40c7-61 29-53 30 11 1 41-7 52-32 42zm-848-34c-3-6 1-18 9-27 13-12 19-13 31-3 8 7 12 19 9 27-6 17-39 19-49 3zm609-25c5-37 17-59 17-31 0 10 4 17 8 17s9 11 10 25c1 19-3 25-19 25-18 0-20-5-16-36zm131 28c3-5 2-12-3-14-5-1-3-14 4-28 14-25 14-25 15 7 0 17-5 35-12 39-6 4-8 3-4-4zm793 1c-3-3-4-30-1-60 5-48 3-55-15-60-29-7-14-33 19-33 29 0 41 15 32 39-4 11-6 11-13 0-6-10-9-8-9 8 0 12 6 24 13 26 10 4 10 6 0 6-15 1-18 51-3 51 6 0 10 4 10 9 0 11-26 22-33 14zM567 613c3-7 13-13 22-12 10 0 11 2 3 6-6 2-10 8-8 12 3 4-1 8-8 8-8 0-12-6-9-14zm1129 8c-3-4 7-8 21-9 15-1 23 1 19 5-9 10-35 13-40 4zm54-1c0-5 7-10 15-10s15 5 15 10c0 6-7 10-15 10s-15-4-15-10zm-820-15c0-8 2-15 4-15s6 7 10 15c3 8 1 15-4 15-6 0-10-7-10-15zm-118-35c0-19 2-27 5-17 2 9 2 25 0 35-3 9-5 1-5-18zm996 24c-3-5-5-22-4-39 1-38 36-50 36-13 0 27-24 66-32 52zm518-5c-4-8-2-28 3-42 12-31 26-36 18-7-3 11-1 20 4 20s9 10 8 23c0 21-1 21-8 2-8-20-8-20-13 0-4 17-6 17-12 4zm-1196-36c0-9-16-13-47-13-25 0-44-2-41-5 9-9 129-12 134-3 3 4 10 6 15 3 5-4 9-1 9 4 0 6-3 11-7 12-5 0-16 2-25 4-10 2-18-2-18-8 0-7-5-5-10 3-6 10-10 11-10 3zm880-5c-25-10-25-10 5-19 41-12 113-8 119 7 9 25-75 33-124 12zM703 513c-27-5-31-22-5-24 9-1 27-3 39-4 37-4 51 13 20 24-16 6-29 10-30 10-1-1-12-4-24-6zm574-12c-8-10-9-13 0-8 6 4 14 3 18-3 3-5 17-10 30-10 18 0 23 4 19 15-4 8-10 12-15 9s-9-1-9 4c0 14-29 10-43-7zm389 6c-13-10-15-14-5-15 8 0 24-4 37-7 18-6 22-3 22 14 0 24-26 28-54 8zm-746-13c0-8 5-12 10-9 6 3 10 10 10 16 0 5-4 9-10 9-5 0-10-7-10-16zm640 6c0-5 9-10 20-10s20 5 20 10c0 6-9 10-20 10s-20-4-20-10zm-748-45c0-16 2-22 5-12 2 9 2 23 0 30-3 6-5-1-5-18zm628 6c0-30 11-51 26-51 9 0 14 12 14 35 0 28-4 35-20 35-13 0-20-7-20-19zm-415-1c-16-7-17-9-3-9 9-1 20 4 23 9 7 11 7 11-20 0zm215-21c0-11 4-18 10-14 5 3 7 12 3 20-7 21-13 19-13-6zm-242-29c-6-41 4-54 36-46 30 7 35 26 7 26-21 0-35 36-17 44 6 2 4 5-5 5-11 1-18-9-21-29zm642 20c0-5 4-10 9-10 6 0 13 5 16 10 3 6-1 10-9 10-9 0-16-4-16-10zm-360-44c0-22 17-28 51-21 28 6 29 8 12 21-24 18-63 18-63 0zm404-2c3-9 6-18 6-20 0-8 45-4 60 6 13 9 13 11 0 20-8 5-28 10-44 10-22 0-27-4-22-16zm395-1c-6-7-15-11-19-8-13 8-22-32-14-57 6-21 7-21 22 8 8 16 23 35 34 42 10 7 18 17 18 21 0 13-29 9-41-6zM881 358c0-18 4-42 9-53 9-20 9-20 9 0 1 15 3 17 10 6 14-22 23 21 12 53-15 38-41 34-40-6zm290 20c-1-20 14-24 25-6 4 6 3 8-4 4-5-3-13 0-15 6-3 8-6 6-6-4zm359 2c0-5 7-10 15-10s18 0 22-1c4 0 9 4 11 10s-8 11-22 11-26-4-26-10zm390 0c0-5 9-10 20-10s20 5 20 10c0 6-9 10-20 10s-20-4-20-10zm-487-27c-9-3-9-11 3-29 13-18 13-24 3-24s-10-3-2-11c7-7 19-9 27-6 21 8 21 63 0 71-9 3-16 6-17 5-1 0-8-3-14-6zm182-11c-14-10-17-32-4-32 5 0 7-4 4-10-3-5 1-10 9-10 16 0 22 25 9 33-5 2-3 2 4 1 19-5 25 13 7 20-19 7-17 7-29-2zm155-12c0-24 6-25 25-6 15 15 10 26-12 26-7 0-13-9-13-20zm76-25c-3-8-1-15 4-15 6 0 10 7 10 15s-2 15-4 15-6-7-10-15zm-282-32c-8-29-2-36 20-27 21 8 22 51 1 51-9 0-18-11-21-24zm-349-4c-10-15-1-21 43-29 29-5 48-2 72 10 33 17 33 17 0 23-49 10-108 8-115-4zm472 5c-3-3-3-12 0-20 6-17 39-19 49-3 11 18-33 39-49 23zm-554-50c0-13 10-18 28-16 4 1 5-7 2-17s2-21 10-24c10-4 17 3 20 21 6 32 7 30-30 41-23 7-30 5-30-5zm307-24c0-47 24-56 40-15 12 32 3 55-21 55-15 0-19-7-19-40zm203 33c-17-6-16-25 2-49 13-16 16-17 25-4 24 37 9 68-27 53zm122-2c-6-6 6-54 17-66 5-6 11-1 14 13 4 12 13 22 21 22 28 0 9 33-20 34-15 1-30 0-32-3z" style="transform:none" class="contour"/></svg>