<svg class="img-fluid" xmlns="http://www.w3.org/2000/svg" width="102" height="89" viewBox="0 0 1020 890"><g style="transform:none"><path d="M425 841c-49-6-145-54-145-72 0-5-7-9-15-9s-19-17-26-42c-14-48-48-91-56-70-7 18-37 15-55-5-22-27-48-99-48-136 0-17 9-63 19-102 16-63 21-70 45-73 17-2 28 2 32 12 8 22 26 20 47-4 13-16 17-39 17-103v-83l37-35c75-69 93-74 248-74 158 0 176 6 250 80 39 39 40 41 45 129 4 72 9 91 23 100s21 7 31-6c28-39 76-5 76 53 0 19 4 50 9 70 9 41-7 132-29 167-16 24-39 29-57 11-19-19-53 11-53 46 0 36-40 79-111 118-37 20-65 26-140 30-52 3-116 2-144-2zm176-199c72-19 147-135 148-231 2-93-59-219-121-248-98-46-104-47-157-27-66 23-112 68-143 137-27 59-25 209 3 262 22 42 75 91 118 112 28 13 94 11 152-5z"/><path d="M506 553c-105-27-146-134-86-225 25-38 37-47 70-52 22-3 58-3 80 0 33 5 45 14 70 52 35 52 38 98 12 152-22 45-100 84-146 73z"/></g></svg>