<svg class="img-fluid" xmlns="http://www.w3.org/2000/svg" width="109" height="77" viewBox="0 0 1090 770"><path d="M925 688c-27-11-59-22-70-25-48-12-48-12-34-31 12-15 12-16-1-6-33 24-111 36-212 32-108-4-141-12-117-30 10-7 8-8-6-3-69 26-227 11-290-27-16-9-46-25-65-33-19-9-44-27-54-42-18-24-18-28-3-52 14-24 22-26 92-29 64-2 89 2 149 24 72 27 125 58 138 80 9 13 55-6 102-43 25-20 26-23 15-70-6-26-8-74-4-105 5-48 3-58-9-58-8 0-18 5-21 10-3 6-13 10-21 10-21 0-17-47 6-67 11-10 20-21 20-24 0-4 26-45 57-90 54-79 57-81 67-58 6 13 16 28 23 32s13 15 13 22c0 8 5 15 10 15 6 0 10 6 10 13 0 8 9 22 20 32s20 24 20 31 6 17 13 21c6 4 17 18 24 30 16 29-6 50-36 34-11-6-23-11-28-11-4 0-8 35-9 78-1 58-6 86-22 113l-20 36 44 38c44 36 45 36 71 20 14-9 60-50 103-91 83-80 103-85 114-32 10 48 7 224-4 252-11 30-18 31-85 4zm43-112c6-67-3-72-49-26-34 34-39 43-28 56 7 9 25 14 43 12 28-3 31-7 34-42zm-304 28c19-7 3-44-19-44-8 0-15-6-15-12 0-8-3-9-8-3-4 6-20 19-36 29-22 14-26 20-15 27 16 10 70 12 93 3zm-331-44c-13-5-23-13-23-17 0-11-79-35-91-27-22 13 59 52 111 53 25 0 25 0 3-9zm322-153c9-34 2-112-10-112-5 0-11 30-13 68-3 66 11 93 23 44z" style="transform:none"/></svg>