<svg class="img-fluid" xmlns="http://www.w3.org/2000/svg" width="146" height="84" viewBox="0 0 1460 840"><path d="M60 748c0-80 70-338 91-338 5 0 9-4 9-9 0-33 160-213 200-226 11-4 20-10 20-15 0-4 8-10 18-14 9-3 24-10 32-14 81-49 241-71 400-54 61 6 125 18 143 26 18 7 39 17 47 20 50 22 142 90 181 133 68 78 80 95 111 156 55 111 77 193 81 297l2 75-667 3-668 2v-42zm403-165 15-38 1 38 1 37h69c40 0 73-5 77-11 4-8 9-8 17 0 7 7 63 11 149 11 116 0 138-2 138-15 0-8 7-15 15-15s15 7 15 15c0 13 21 15 126 15 116 0 126-1 119-17-4-10-13-45-20-78-14-63-47-139-66-150-6-4-16-2-22 4-18 18-24 13-32-26-6-34-19-52-36-53-4 0-10 16-13 35-8 43-26 56-26 18s-10-73-21-73c-5 0-9 19-9 43 0 47-15 83-24 57-2-8-7-32-10-53-12-86-70-148-114-121-29 18-71 87-75 124-2 19-4 0-5-43-2-58-5-78-14-75-7 3-14 21-16 41-4 41-17 49-25 15-9-31-15-20-31 53-8 35-14 55-15 45-1-11-6-49-12-84-11-59-13-64-25-47-8 10-14 35-14 54l-1 36-18-40-19-40-1 37c-2 75-31 97-31 23 0-45-12-60-24-29-3 9-6 54-6 101 0 48-2 84-5 82-2-3-10-40-16-82-12-84-25-98-34-39-10 58-11 59-26 29l-15-28-14 50c-12 44-15 48-28 34-14-13-17-12-34 9-10 12-21 40-24 60-4 21-13 43-20 49-8 6-14 27-14 45v34h197l16-37z" style="transform:none"/></svg>