<svg xmlns="http://www.w3.org/2000/svg" fill-rule="evenodd" clip-rule="evenodd" image-rendering="optimizeQuality" shape-rendering="geometricPrecision" text-rendering="geometricPrecision" viewBox="0 0 540 540"><path d="M248.5 22.5c60.507-3.986 115.507 11.18 165 45.5 1.537 1.11 2.203 2.61 2 4.5-45.973 1.843-77.807 23.843-95.5 66-11.488 41.269-.321 74.769 33.5 100.5 25.396 13.901 50.729 13.901 76 0 26.411-20.473 32.244-45.639 17.5-75.5-13.218-16.18-29.384-20.18-48.5-12-10.571 8.427-12.238 18.261-5 29.5 2 .667 4 .667 6 0a36.805 36.805 0 0 1 12.5-5.5c5.853 1.197 8.853 4.864 9 11 .834 13.152-5 21.985-17.5 26.5-22.98 4.093-39.48-4.407-49.5-25.5-8.297-32.147 1.87-56.314 30.5-72.5 34.838-13.916 65.004-7.083 90.5 20.5 19.144 23.723 24.477 50.39 16 80-16.097 46.929-48.931 71.596-98.5 74-47.292-2.464-82.125-24.464-104.5-66a45.892 45.892 0 0 0-4-10 723.03 723.03 0 0 1-13-52c-21.93-61.906-65.764-95.239-131.5-100-.219-1.175.114-2.175 1-3 33.305-19.98 69.305-31.98 108-36z" opacity=".971"/><path d="M128.5 97.5c52.136-1.314 87.969 22.019 107.5 70 15.236 57.309-.598 103.809-47.5 139.5-44.44 42.329-58.607 93.162-42.5 152.5a315.654 315.654 0 0 0 9.5 23c-6.621-2.42-12.954-5.587-19-9.5-80.57-56.655-117.57-134.488-111-233.5 1.89-.203 3.39.463 4.5 2 23.053 34.598 55.553 50.098 97.5 46.5 38.379-6.385 62.879-28.218 73.5-65.5 6.117-38.607-8.383-66.107-43.5-82.5-23.478-7.323-43.645-2.156-60.5 15.5-12.217 16.799-12.55 33.799-1 51 9.291 9.077 19.791 10.91 31.5 5.5 3.687-3.395 5.187-7.562 4.5-12.5-4.701-3.368-8.701-7.368-12-12-1.068-7.628 2.099-12.794 9.5-15.5 13.322-2.846 23.989 1.321 32 12.5 11.317 26.215 4.984 47.049-19 62.5-42.409 14.879-72.576 1.712-90.5-39.5-10.298-49.697 7.868-84.53 54.5-104.5 7.332-2.378 14.665-4.212 22-5.5z" opacity=".97"/><path d="M200.5 344.5c37.74-38.199 82.406-48.866 134-32 42.525 16.948 84.525 15.448 126-4.5 21.743-12.909 39.41-30.075 53-51.5 1.913 94.019-36.087 166.852-114 218.5l-26 14a20.093 20.093 0 0 1-6 1.5 162.278 162.278 0 0 0 8.5-24c8.04-35.18.707-66.513-22-94-35.552-33.131-73.719-36.631-114.5-10.5-23.159 20.491-30.326 45.657-21.5 75.5 14.646 29.883 37.813 39.716 69.5 29.5 10.21-7.251 16.21-17.084 18-29.5-1.296-9.13-5.963-15.964-14-20.5-5.084-1.608-8.751-.108-11 4.5a76.092 76.092 0 0 0-2.5 12c-2.024 4.124-5.357 6.124-10 6-8.538-.534-14.204-4.867-17-13-5.034-20.433 2.133-34.933 21.5-43.5 33.487-7.849 56.321 4.318 68.5 36.5 7.098 40.641-8.069 69.475-45.5 86.5-51.156 13.076-88.656-3.757-112.5-50.5-12.692-32.266-10.692-63.599 6-94a4485.47 4485.47 0 0 1 11.5-17z" opacity=".971"/></svg>