<svg xmlns="http://www.w3.org/2000/svg" width="109" height="86" style="shape-rendering:geometricPrecision;text-rendering:geometricPrecision;image-rendering:optimizeQuality;fill-rule:evenodd;clip-rule:evenodd"><path style="opacity:.49" fill="#87807e" d="M55.5 7.5c2.107-.968 4.44-1.302 7-1 .27 1.88-.396 3.213-2 4-.086-.996.248-1.83 1-2.5a18.436 18.436 0 0 0-6-.5z"/><path style="opacity:.792" fill="#6d6967" d="M50.5 8.5c-3.87 1.94-8.203 2.94-13 3 .417-.722 1.084-1.222 2-1.5a247.5 247.5 0 0 0 11-1.5z"/><path style="opacity:1" fill="#060605" d="M55.5 7.5a18.436 18.436 0 0 1 6 .5c-.752.67-1.086 1.504-1 2.5a54.03 54.03 0 0 1-9 2c-.904.709-1.237 1.709-1 3h3l2 1a8.434 8.434 0 0 1-.5 4c-2.118.783-3.618 2.116-4.5 4h-1a137.937 137.937 0 0 0-23 1.5c-2.227.941-4.227 2.108-6 3.5-.79.283-1.456.783-2 1.5 2.478 4.237 6.145 6.404 11 6.5.11.617.444 1.117 1 1.5a72.457 72.457 0 0 0 15 4 135.338 135.338 0 0 0 10 5 69.097 69.097 0 0 0 11 2.5c-.13.876.203 1.543 1 2a204.928 204.928 0 0 0 8 3c.706 2.376 2.373 3.71 5 4 1.479 2.805 3.812 4.472 7 5 .667 2.667 2.333 4.333 5 5 0 2 1 3 3 3 .085 2.429 1.085 4.429 3 6a378.634 378.634 0 0 1-55 0c-.91-1.875-2.243-3.208-4-4-1.667-3.667-4.333-6.333-8-8 .086-.996-.248-1.83-1-2.5a18.086 18.086 0 0 0-7-4.5c-.992.172-1.658-.162-2-1-.473-1.406-1.473-2.073-3-2-1.527.073-2.527-.594-3-2-.457-2.273-1.79-3.606-4-4-1-.333-1.667-1-2-2-.356-1.69-1.356-2.69-3-3a59.568 59.568 0 0 1-1-14c.342-.838 1.008-1.172 2-1 2.635-.974 4.635-2.64 6-5 7.632-3.214 15.632-4.88 24-5 2.582.475 4.582-.192 6-2h3v-3a76.94 76.94 0 0 1-10-1 5.728 5.728 0 0 1 1-3c4.797-.06 9.13-1.06 13-3 1.419-.951 3.085-1.284 5-1z"/><path style="opacity:.416" fill="#968e8b" d="M37.5 11.5a5.728 5.728 0 0 0-1 3c-2.516-1.36-2.182-2.36 1-3z"/><path style="opacity:.027" fill="#abaaaa" d="M51.5 12.5c.282 1.278.949 2.278 2 3h-3c-.237-1.291.096-2.291 1-3z"/><path style="opacity:.145" fill="#9e9e9b" d="M36.5 14.5c3.307.55 6.64.884 10 1v3h-3c.417-.722 1.084-1.222 2-1.5-3.297-.204-6.297-1.037-9-2.5z"/><path style="opacity:.788" fill="#514e4c" d="M43.5 18.5c-1.418 1.808-3.418 2.475-6 2v-1a19.242 19.242 0 0 1 6-1z"/><path style="opacity:.29" fill="#938f8d" d="M55.5 16.5c2.265 1.44 2.432 3.107.5 5a44.334 44.334 0 0 1-5.5 3c.882-1.884 2.382-3.217 4.5-4a8.434 8.434 0 0 0 .5-4z"/><path style="opacity:.624" fill="#817d7c" d="M37.5 19.5v1c-8.368.12-16.368 1.786-24 5 2.562-1.948 5.562-3.448 9-4.5l15-1.5z"/><path style="opacity:.518" fill="#7f7d7b" d="M49.5 24.5a421.846 421.846 0 0 1-21 2.5c-2.409 1.707-5.076 2.54-8 2.5 1.773-1.392 3.773-2.559 6-3.5a137.937 137.937 0 0 1 23-1.5z"/><path style="opacity:.855" fill="#706e6c" d="M13.5 25.5c-1.365 2.36-3.365 4.026-6 5 .674-1.524 1.674-2.858 3-4 .825-.886 1.825-1.219 3-1z"/><path style="opacity:.055" fill="#908b89" d="M20.5 29.5c-.203 1.89.463 3.39 2 4.5 2.213 1.616 4.547 2.783 7 3.5-4.855-.096-8.522-2.263-11-6.5.544-.717 1.21-1.217 2-1.5z"/><path style="opacity:.224" fill="#aba8a6" d="M5.5 31.5a59.568 59.568 0 0 0 1 14c-.617-.11-1.117-.444-1.5-1-.814-4.52-.647-8.854.5-13z"/><path style="opacity:.506" fill="#858280" d="M29.5 37.5a285.912 285.912 0 0 1 37 13 69.097 69.097 0 0 1-11-2.5 135.338 135.338 0 0 1-10-5 72.457 72.457 0 0 1-15-4c-.556-.383-.89-.883-1-1.5z"/><path style="opacity:.553" fill="#848382" d="M6.5 45.5c1.644.31 2.644 1.31 3 3-1.644-.31-2.644-1.31-3-3z"/><path style="opacity:.039" fill="#aba4a3" d="M66.5 50.5c3.387 1.115 6.387 2.782 9 5a204.928 204.928 0 0 1-8-3c-.797-.457-1.13-1.124-1-2z"/><path style="opacity:.49" fill="#75716f" d="M11.5 50.5c2.21.394 3.543 1.727 4 4-1.764-.826-3.098-2.16-4-4z"/><path style="opacity:.502" fill="#8a8484" d="M18.5 56.5c1.527-.073 2.527.594 3 2-1.527.073-2.527-.594-3-2z"/><path style="opacity:.116" fill="#979190" d="M75.5 55.5c2.051.987 3.718 2.32 5 4-2.627-.29-4.294-1.624-5-4z"/><path style="opacity:.765" fill="#74726f" d="M80.5 59.5a26.694 26.694 0 0 1 7 5c-3.188-.528-5.521-2.195-7-5z"/><path style="opacity:.078" fill="#908d8d" d="M23.5 59.5a18.086 18.086 0 0 1 7 4.5c.752.67 1.086 1.504 1 2.5-3.321-1.71-5.988-4.043-8-7z"/><path style="opacity:.616" fill="#8d8885" d="M87.5 64.5c2 1.333 3.667 3 5 5-2.667-.667-4.333-2.333-5-5z"/><path style="opacity:.788" fill="#6c6868" d="M31.5 66.5c3.667 1.667 6.333 4.333 8 8-3-2.333-5.667-5-8-8z"/><path style="opacity:.514" fill="#92908d" d="M92.5 69.5a6.541 6.541 0 0 1 3 3c-2 0-3-1-3-3z"/><path style="opacity:.438" fill="#7c7775" d="M95.5 72.5c2.637 1.982 3.97 4.648 4 8-19.012.333-38.012 0-57-1-1.452-1.44-2.452-3.106-3-5 1.757.792 3.09 2.125 4 4a378.634 378.634 0 0 0 55 0c-1.915-1.571-2.915-3.571-3-6z"/></svg>