<svg xmlns="http://www.w3.org/2000/svg" width="99" height="95" style="shape-rendering:geometricPrecision;text-rendering:geometricPrecision;image-rendering:optimizeQuality;fill-rule:evenodd;clip-rule:evenodd"><path style="opacity:.486" fill="#797673" d="M65.5 10.5c-10.107-3.197-20.44-3.863-31-2 .417-.722 1.084-1.222 2-1.5 8-.667 16-.667 24 0 2.084.697 3.751 1.864 5 3.5z"/><path style="opacity:1" fill="#0d0b0b" d="M65.5 10.5c1.599-.268 2.932.066 4 1 .437 1.574 1.437 2.741 3 3.5-2.862-.03-5.195.803-7 2.5-2 0-3 1-3 3l-2 1c-2.469 1.107-3.469 3.107-3 6-1.36 4.43-1.027 8.763 1 13 1.527-.073 2.527.594 3 2-.086.996.248 1.83 1 2.5 4.667.667 9.333.667 14 0 1.537-1.11 2.204-2.61 2-4.5h1c1.138-2.803 1.305-5.803.5-9-.422-1.926-1.59-2.926-3.5-3-6.196-2.471-8.196-.471-6 6 .607-.124.94-.457 1-1 2.169-1.18 3.502-.347 4 2.5-.207 1.95-1.207 3.116-3 3.5h-7c-1.64-3.753-2.306-7.753-2-12 1.406-.473 2.073-1.473 2-3a694.307 694.307 0 0 0 8-2 47.617 47.617 0 0 1 9 2 6.541 6.541 0 0 1 3 3c1.28 5.653 1.28 11.32 0 17-.996-.086-1.83.248-2.5 1a11.362 11.362 0 0 1-1.5 3.5c-5.998 3.466-12.331 4.3-19 2.5-.992.172-1.658-.162-2-1a26.156 26.156 0 0 0-7-5v-1c-.054-2.132-1.054-3.465-3-4a98.14 98.14 0 0 0-2-13 44.358 44.358 0 0 0-2-1c-.865-5.264-3.865-8.597-9-10a123.527 123.527 0 0 0-8.5-3c-1.03-.336-1.53-1.003-1.5-2 2.991.334 5.324-.666 7-3 10.56-1.863 20.893-1.197 31 2z"/><path style="opacity:.365" fill="#898684" d="M34.5 8.5c-1.676 2.334-4.009 3.334-7 3 2.149-1.236 4.482-2.236 7-3z"/><path style="opacity:.137" fill="#908c89" d="M27.5 11.5c-.03.997.47 1.664 1.5 2 2.98.936 5.814 1.936 8.5 3-4.55.04-8.55-1.294-12-4 .457-.797 1.124-1.13 2-1z"/><path style="opacity:.463" fill="#787572" d="M69.5 11.5c2.222.614 3.89 1.948 5 4a188.49 188.49 0 0 1-9 2c1.805-1.697 4.138-2.53 7-2.5-1.563-.759-2.563-1.926-3-3.5z"/><path style="opacity:1" fill="#565552" d="M37.5 16.5c5.135 1.403 8.135 4.736 9 10a80.235 80.235 0 0 0-9-10z"/><path style="opacity:.133" fill="#a39b9a" d="M65.5 17.5a6.541 6.541 0 0 1-3 3c0-2 1-3 3-3z"/><path style="opacity:.016" fill="#989693" d="M32.5 20.5c1.904.238 3.238 1.238 4 3-1.904-.238-3.238-1.238-4-3z"/><path style="opacity:1" fill="#121110" d="M32.5 20.5c.762 1.762 2.096 2.762 4 3h1c-.073 1.527.594 2.527 2 3 1.75 1.16 2.75 2.826 3 5a73.246 73.246 0 0 1 1 12c-2.475 1.187-3.475 3.187-3 6-4.066 3.063-7.4 6.73-10 11-1.677.683-2.343 2.017-2 4-.958.453-1.792 1.12-2.5 2-.667 5-.667 10 0 15 .278.916.778 1.582 1.5 2a2.428 2.428 0 0 1-.5 2c-.816-1.323-1.983-1.99-3.5-2h-1c-1.1-3.432-3.433-5.432-7-6 .215-1.679-.452-2.679-2-3-1.406-.473-2.073-1.473-2-3-2.276-5.312-3.776-10.979-4.5-17L6.5 50c.069-1.986.735-3.486 2-4.5v5a59.59 59.59 0 0 1 12 4c4.194-.097 7.527-1.763 10-5h3v-3c1.208-.734 2.541-1.067 4-1 .597-4.794-.07-9.127-2-13-1.333 0-2-.667-2-2v-3h-5c-.47-1.194-1.47-1.86-3-2-1.53.14-2.53.806-3 2-1.172.845-2.505 1.511-4 2-4.794 2.22-5.127 4.886-1 8 1.393 4.25 4.06 5.083 8 2.5a19.606 19.606 0 0 0-2-3.5 5.728 5.728 0 0 1-1-3c1.568-.973 3.235-1.14 5-.5.474 1.729 1.474 2.895 3 3.5 1.333 1.333 1.333 2.667 0 4-1.677.683-2.343 2.017-2 4-5.414 1.253-10.747.92-16-1-2.05-5.575-2.383-11.241-1-17a130.548 130.548 0 0 1 5-5.5c5.427-1.693 10.76-1.86 16-.5z"/><path style="opacity:.439" fill="#8b8887" d="M60.5 21.5a609.785 609.785 0 0 1-3 6c-.469-2.893.531-4.893 3-6z"/><path style="opacity:.929" fill="#696362" d="M82.5 24.5a47.617 47.617 0 0 0-9-2 694.307 694.307 0 0 1-8 2c5.667-5.333 11.333-5.333 17 0z"/><path style="opacity:.475" fill="#999595" d="M37.5 23.5c1.406.473 2.073 1.473 2 3-1.406-.473-2.073-1.473-2-3z"/><path style="opacity:.584" fill="#676463" d="M28.5 27.5c-1.889-.88-3.889-.88-6 0 .47-1.194 1.47-1.86 3-2 1.53.14 2.53.806 3 2z"/><path style="opacity:.459" fill="#7e7d79" d="M65.5 24.5c.073 1.527-.594 2.527-2 3-.073-1.527.594-2.527 2-3z"/><path style="opacity:.671" fill="#848180" d="M28.5 27.5h5v3a19.334 19.334 0 0 0-5-3z"/><path style="opacity:.145" fill="#9e9d9b" d="M76.5 28.5c-5.01-1-6.676.667-5 5-.06.543-.393.876-1 1-2.196-6.471-.196-8.471 6-6z"/><path style="opacity:.451" fill="#8d8886" d="M30.5 36.5c-1.526-.605-2.526-1.771-3-3.5-1.765-.64-3.432-.473-5 .5.47-1.194 1.47-1.86 3-2 3.16.089 4.827 1.755 5 5z"/><path style="opacity:.796" fill="#6d6764" d="M63.5 27.5c-.306 4.247.36 8.247 2 12-3.67-2.75-4.837-6.416-3.5-11 .383-.556.883-.89 1.5-1z"/><path style="opacity:.812" fill="#636260" d="M85.5 27.5c2.427 2.008 3.427 4.674 3 8 .364 3.552-.636 6.552-3 9 1.28-5.68 1.28-11.347 0-17z"/><path style="opacity:.769" fill="#787473" d="M11.5 26.5c-1.383 5.759-1.05 11.425 1 17-4.692-5.444-5.026-11.11-1-17z"/><path style="opacity:.992" fill="#494746" d="M18.5 29.5c-2.052 2.476-2.385 5.142-1 8-4.127-3.114-3.794-5.78 1-8z"/><path style="opacity:.314" fill="#8d8786" d="M22.5 33.5a5.728 5.728 0 0 0 1 3c-2.052-.553-2.385-1.553-1-3z"/><path style="opacity:.149" fill="#989594" d="M46.5 26.5c.65.304 1.316.637 2 1a98.14 98.14 0 0 1 2 13 293.31 293.31 0 0 1-4-14z"/><path style="opacity:.31" fill="#8d8c89" d="M57.5 27.5c.087 4.357.42 8.69 1 13-2.027-4.237-2.36-8.57-1-13z"/><path style="opacity:.094" fill="#928f8b" d="M76.5 28.5c1.91.074 3.078 1.074 3.5 3 .805 3.197.638 6.197-.5 9 .615-4.491-.385-8.491-3-12z"/><path style="opacity:.259" fill="#9d9997" d="M42.5 31.5c1.517 1.962 2.184 4.295 2 7-.007 1.87-.34 3.536-1 5a73.246 73.246 0 0 0-1-12z"/><path style="opacity:.58" fill="#897370" d="M65.5 39.5h7c-2.126 1.926-4.46 1.926-7 0z"/><path style="opacity:1" fill="#484745" d="M23.5 36.5a19.606 19.606 0 0 1 2 3.5c-3.94 2.583-6.607 1.75-8-2.5 1.642 1.58 3.642 2.248 6 2v-3z"/><path style="opacity:.329" fill="#a5a29f" d="M30.5 40.5c-.16 1.653-.826 2.986-2 4-.343-1.983.323-3.317 2-4z"/><path style="opacity:.016" fill="#a6a3a3" d="M50.5 40.5c1.946.535 2.946 1.868 3 4-1.474-.936-2.474-2.27-3-4z"/><path style="opacity:1" fill="#666463" d="M35.5 32.5c1.93 3.873 2.597 8.206 2 13-1.459-.067-2.792.266-4 1 3.112-4.216 3.779-8.883 2-14z"/><path style="opacity:.475" fill="#7f7c7a" d="M78.5 40.5c.204 1.89-.463 3.39-2 4.5a49.248 49.248 0 0 1-14 0c-.752-.67-1.086-1.504-1-2.5 4.376 2.034 9.043 2.534 14 1.5a30.139 30.139 0 0 0 3-3.5z"/><path style="opacity:.692" fill="#6e6a67" d="M12.5 43.5c5.253 1.92 10.586 2.253 16 1-5.53 4.085-10.863 3.751-16-1z"/><path style="opacity:.204" fill="#979493" d="M43.5 43.5c-.492 2.319-1.492 4.319-3 6-.475-2.813.525-4.813 3-6z"/><path style="opacity:.337" fill="#a1a09e" d="M53.5 45.5a26.156 26.156 0 0 1 7 5c-3.143-.469-5.477-2.136-7-5z"/><path style="opacity:.141" fill="#a5a5a5" d="M33.5 46.5v3h-3l3-3z"/><path style="opacity:.135" fill="#a5a19f" d="M91.5 55.5a9.864 9.864 0 0 0-1-6 186.2 186.2 0 0 1-3 2c.262-2.064 1.429-3.397 3.5-4 1.743 2.656 1.91 5.322.5 8z"/><path style="opacity:.51" fill="#847f7e" d="M8.5 45.5c-1.265 1.014-1.931 2.514-2 4.5l.5 4.5c.724 6.021 2.224 11.688 4.5 17-.708-1.878-1.874-3.544-3.5-5A657.203 657.203 0 0 0 4.5 49c-.401-3.79.932-4.957 4-3.5z"/><path style="opacity:.596" fill="#767372" d="M8.5 46.5c6.489 6.685 13.822 7.685 22 3-2.473 3.237-5.806 4.903-10 5a59.59 59.59 0 0 0-12-4v-4z"/><path style="opacity:.435" fill="#7d7a77" d="M85.5 44.5a19.832 19.832 0 0 0-3 5.5 54.214 54.214 0 0 0-9 4 16.25 16.25 0 0 1-8 0c-1.442-.377-2.442-1.21-3-2.5 6.669 1.8 13.002.966 19-2.5a11.362 11.362 0 0 0 1.5-3.5c.67-.752 1.504-1.086 2.5-1z"/><path style="opacity:1" fill="#100f0f" d="M91.5 55.5v1c-2.71 3.1-4.043 6.767-4 11v1c-2 0-3 1-3 3-1.826 1.647-3.16 3.647-4 6-1.74 2.743-4.073 4.743-7 6a29.413 29.413 0 0 1-7 2v-3c1.664-4.696.997-9.029-2-13 .073-1.527-.594-2.527-2-3a5.728 5.728 0 0 1-3-1c-1.187-2.475-3.187-3.475-6-3h-4c-1.983-.343-3.317.324-4 2 0 .667-.333 1-1 1-4-.667-5.667 1-5 5v8a20.677 20.677 0 0 1 1 5h4c2.865 1.283 5.865 1.283 9 0a12.796 12.796 0 0 0 2-4.5c-.336-1.03-1.003-1.53-2-1.5v-1c-.683-1.677-2.017-2.343-4-2v4c-1.333 1.333-2.667 1.333-4 0-.163-2.357.003-4.69.5-7a19.606 19.606 0 0 0 3.5-2c8.985.491 12.485 5.158 10.5 14-1.481.97-2.315 2.304-2.5 4 0 .667-.333 1-1 1a67.237 67.237 0 0 1-15 1c-1.105-1.1-2.438-1.767-4-2-1.64-.972-2.973-2.306-4-4v-18h1c1.762-.762 2.762-2.096 3-4 1.659-3.333 4.325-5 8-5h16c2.259 2.255 5.092 3.255 8.5 3a27.885 27.885 0 0 0 6-1c1.03-.336 1.53-1.003 1.5-2h3c2.47-.154 4.47-1.154 6-3-.172-.992.162-1.658 1-2a186.2 186.2 0 0 0 3-2 9.864 9.864 0 0 1 1 6z"/><path style="opacity:.263" fill="#8d8686" d="M40.5 49.5c-2.572 4.245-5.906 7.911-10 11 2.6-4.27 5.934-7.937 10-11z"/><path style="opacity:.706" fill="#7d7a79" d="M58.5 56.5h-13c4.314-2.509 8.648-2.509 13 0z"/><path style="opacity:.639" fill="#726e6d" d="M86.5 53.5c-1.53 1.846-3.53 2.846-6 3 1.53-1.846 3.53-2.846 6-3z"/><path style="opacity:.537" fill="#706c6a" d="M61.5 56.5c5.313 2.541 10.646 2.541 16 0 .03.997-.47 1.664-1.5 2a27.885 27.885 0 0 1-6 1c-3.408.255-6.241-.745-8.5-3z"/><path style="opacity:.341" fill="#898685" d="M91.5 56.5a81.38 81.38 0 0 1-4 11c-.043-4.233 1.29-7.9 4-11z"/><path style="opacity:.11" fill="#9c9995" d="M30.5 60.5c-.489 1.495-1.155 2.828-2 4-.343-1.983.323-3.317 2-4z"/><path style="opacity:.357" fill="#ac9f96" d="M53.5 62.5c2.813-.475 4.813.525 6 3a609.785 609.785 0 0 1-6-3z"/><path style="opacity:.38" fill="#7f7e7c" d="M37.5 61.5c-.238 1.904-1.238 3.238-3 4 .238-1.904 1.238-3.238 3-4z"/><path style="opacity:.024" fill="#979492" d="M49.5 62.5c-1.014 1.174-2.347 1.84-4 2 .683-1.676 2.017-2.343 4-2z"/><path style="opacity:.808" fill="#605c5a" d="M44.5 65.5c-.709.904-1.709 1.237-3 1 .27 1.88-.396 3.213-2 4-.667-4 1-5.667 5-5z"/><path style="opacity:.286" fill="#8f8f8d" d="M62.5 66.5c1.406.473 2.073 1.473 2 3-1.406-.473-2.073-1.473-2-3z"/><path style="opacity:.216" fill="#898483" d="M87.5 68.5a6.541 6.541 0 0 1-3 3c0-2 1-3 3-3z"/><path style="opacity:.076" fill="#95928f" d="M28.5 64.5c-2.201 6.22-2.535 12.554-1 19-.722-.418-1.222-1.084-1.5-2-.667-5-.667-10 0-15 .708-.88 1.542-1.547 2.5-2z"/><path style="opacity:.463" fill="#74716f" d="M49.5 69.5a19.606 19.606 0 0 1-3.5 2 24.939 24.939 0 0 0-.5 7c-1.134-2.466-1.3-5.133-.5-8 1.356-.88 2.856-1.213 4.5-1z"/><path style="opacity:.063" fill="#b7b3b2" d="M53.5 76.5a44.358 44.358 0 0 1-2-1 44.293 44.293 0 0 1-2 3v-4c1.983-.343 3.317.323 4 2z"/><path style="opacity:.373" fill="#868280" d="M33.5 65.5v18c-2.667-6-2.667-12 0-18z"/><path style="opacity:.043" fill="#bebdbc" d="M13.5 74.5c1.548.321 2.215 1.321 2 3-.901-.79-1.568-1.79-2-3z"/><path style="opacity:.596" fill="#6a675f" d="M64.5 69.5c2.997 3.971 3.664 8.304 2 13a38.472 38.472 0 0 0-2-13z"/><path style="opacity:.196" fill="#8d8785" d="M84.5 71.5c-.345 2.698-1.678 4.698-4 6 .84-2.353 2.174-4.353 4-6z"/><path style="opacity:.753" fill="#76726e" d="M57.5 87.5c.185-1.696 1.019-3.03 2.5-4 1.985-8.842-1.515-13.509-10.5-14 .672-.767 1.505-1.434 2.5-2 9.077 2.489 12.077 8.156 9 17a14.692 14.692 0 0 1-3.5 3z"/><path style="opacity:.451" fill="#7d7978" d="M15.5 77.5c3.567.568 5.9 2.568 7 6-2.32-1.92-4.653-3.92-7-6z"/><path style="opacity:.153" fill="#959492" d="M39.5 78.5c1.604.787 2.27 2.12 2 4 1.291-.237 2.291.096 3 1h-4a20.677 20.677 0 0 0-1-5z"/><path style="opacity:.78" fill="#64615c" d="M53.5 77.5c.997-.03 1.664.47 2 1.5a12.796 12.796 0 0 1-2 4.5c-3.135 1.283-6.135 1.283-9 0a41.744 41.744 0 0 0 9-1v-5z"/><path style="opacity:.365" fill="#87807f" d="M23.5 83.5c1.517.01 2.684.677 3.5 2a2.428 2.428 0 0 0 .5-2c2.65 1.225 2.484 2.225-.5 3-1.642-.478-2.81-1.478-3.5-3z"/><path style="opacity:.494" fill="#877f7d" d="M66.5 82.5v3a29.413 29.413 0 0 0 7-2c-1.995 2.14-4.495 3.473-7.5 4-.78-1.887-.613-3.554.5-5z"/><path style="opacity:.796" fill="#423f3e" d="M56.5 88.5c-.473 1.406-1.473 2.073-3 2-4.202.317-8.202-.017-12-1a67.237 67.237 0 0 0 15-1z"/><path style="opacity:.098" fill="#a4a2a0" d="M37.5 87.5c1.562.233 2.895.9 4 2 3.798.983 7.798 1.317 12 1-4.146 1.147-8.48 1.314-13 .5a14.692 14.692 0 0 1-3-3.5z"/></svg>