<svg class="img-fluid" xmlns="http://www.w3.org/2000/svg" width="93" height="78" viewBox="0 0 930 780"><path d="M625 773c-11-3-26-10-34-16-7-6-22-16-34-22-36-18-78-81-84-125-6-40-48-120-63-120-4 0-17-9-30-20-17-15-37-20-82-20-54 0-62 3-93 35-51 50-46 59 23 50 133-18 162-1 162 101 0 51-31 88-92 110-37 13-47 13-88-1-65-22-107-70-115-131-7-52 9-134 25-134 6 0 10-5 10-11 0-19 44-54 91-72 52-20 96-22 136-6 15 6 54 11 85 12 68 0 113-28 147-93 20-38 28-90 15-90-3 0-33 25-67 55-54 49-65 55-104 55-24 0-43-5-43-10 0-6-8-14-17-17-38-14-48-35-48-101 0-44 4-67 13-69 6-3 12-11 12-19s4-14 10-14c5 0 17-8 27-18 26-26 98-45 122-32 11 5 29 10 41 10 11 0 23 7 26 15 4 8 12 15 19 15s27 22 44 48c25 40 31 59 31 105 0 64-38 152-70 162-11 4-20 13-20 21s-6 17-14 20-22 31-32 61c-14 43-15 59-6 74 7 10 12 24 12 30 0 5 12 26 26 44 26 35 68 51 112 43 20-3 18-7-19-47-67-72-73-116-24-176 22-26 30-29 80-29 54 0 57 1 100 49 41 45 45 54 45 100 0 88-75 167-170 178-25 3-54 3-65 0zM308 670c25-24 29-62 7-80-16-14-35-5-35 16 0 8-11 20-25 26-20 9-28 8-43-5-44-40-58-6-16 37 33 32 81 35 112 6zm482-73c0-27-7-45-25-62-40-41-95-28-95 22 0 19 4 22 28 18 40-7 66 17 59 53-3 16-3 32 0 36 12 12 32-30 33-67zM464 264c4-9 1-23-5-31-9-10-9-19 1-38 14-26 39-32 57-14 8 8 17 7 32-3 31-19 26-31-22-51-47-19-83-13-119 20-27 24-24 90 5 114 27 23 43 24 51 3z" style="transform:none"/></svg>