<svg xmlns="http://www.w3.org/2000/svg" width="244" height="205" viewBox="0 0 2440 2050"><g><path d="M945 2027c-100-40-181-122-210-215l-7-23 39 23c109 68 184 68 257 0 80-76 74-232-13-305-31-26-86-47-126-47-37-1 24-38 99-61 179-56 406 32 482 187 24 48 26 63 22 132-5 79-27 140-65 174-30 27-222 115-289 132-72 19-146 19-189 3zM1618 1746c-4-80-10-112-30-157-29-65-79-124-121-146l-31-15 46-18c106-40 168-107 168-182 0-111-6-122-121-243l-109-112 48-6c70-8 137-41 195-95 49-47 55-50 118-54 126-10 193-74 207-200l8-63 32 49c59 91 102 259 102 398 0 78 31 247 55 304 23 53 31 198 15 274-23 107-27 110-317 245l-261 122-4-101z"/><path d="M783 1725c-111-55-183-121-221-202-37-79-37-198-1-288l23-60 7 70c15 162 127 273 313 311 86 18 116 44 116 104 0 57-41 100-100 107-39 4-58-2-137-42zM305 773c-117-143-132-248-54-366 32-49 69-67 135-67 84 0 128 46 127 131-1 61-15 84-72 119-65 40-86 87-79 175 3 36 2 65-3 65-4 0-29-26-54-57zM1365 790c-39-20-82-66-72-76 3-3 22-1 44 5 54 15 159 14 191-3 37-19 68-55 87-98 20-49 20-183 0-231-41-99-130-150-262-151h-83l28-29c86-91 275-142 383-103 84 30 161 120 205 240 62 171-2 298-161 322-42 6-56 14-88 50-75 86-188 116-272 74z"/><path d="M940 764c0-34 33-141 61-201 43-91 116-166 205-209 70-35 77-36 141-30 147 15 210 72 201 183-9 101-56 138-163 127-38-4-108-8-155-8-105-1-160 22-237 101-34 35-53 48-53 37zM643 660c-31-166-25-288 16-369 32-62 55-76 125-75 97 1 156 43 156 110 0 35-30 63-106 102-80 41-130 116-166 247l-14 50-11-65z"/><path d="M1025 328c0-50-5-70-23-95-27-38-131-92-191-100-22-3-41-11-41-17 0-22 64-75 110-91 103-37 259 17 306 107 18 35 18 108-1 135-13 18-146 123-156 123-3 0-4-28-4-62zM193 290c12-94 95-176 222-221s215-35 242 28c18 44 10 69-48 155-23 35-43 65-45 67s-25-7-51-20c-33-16-71-25-120-27-65-4-80-1-139 27l-67 31 6-40z"/></g></svg>