<svg class="img-fluid" xmlns="http://www.w3.org/2000/svg" width="174" height="172" viewBox="0 0 1740 1720"><g style="transform:none"><path d="M380 1534c-91-6-166-12-167-13-9-4-1-50 8-53 8-3 12-86 13-283l1-280-43-3c-50-4-53-18-11-52 27-22 68-61 98-93 47-49 92-88 129-111 23-14 42-32 42-39s10-17 23-22c12-6 26-19 31-31 5-11 19-25 30-30 12-5 25-19 31-31 5-12 20-24 32-28 14-3 23-13 23-24 0-10 7-24 15-31s15-17 15-22c0-13 26-38 39-38 6 0 11-11 11-25 0-18 7-28 24-35 22-8 43-43 38-62-1-4 9-15 22-26 14-10 29-37 35-60 7-23 16-44 22-47 19-12 39 17 39 57 0 25 5 41 15 44 8 4 15 12 15 20s4 14 9 14c9 0 31 47 40 90 4 14 15 26 26 29 11 2 23 8 27 15 9 13 9 10 11-89l2-70 79-3c48-2 83 1 90 8s11 73 11 188c0 174 0 177 23 187 12 5 22 18 22 27 0 11 11 20 28 24 15 4 41 21 59 38 49 47 61 56 77 56 9 0 25 14 38 30 13 18 31 30 45 30 13 0 23 5 23 11 0 5 24 21 53 34 49 22 83 55 70 69-4 3-21 6-39 6-40 0-46 18-33 103 5 34 9 169 9 300v237h-577l-6-245-5-244-31-33c-17-18-31-38-31-45 0-6-13-14-30-18-35-8-93 3-85 15 3 5-8 16-24 24-16 9-32 24-35 33-3 10-8 125-11 257-3 131-8 242-10 247-7 10-150 8-355-7zm176-347 7-77H330v85c0 82 1 85 25 91 38 9 55-2 57-38 1-32 4-53 8-73 1-5 7 17 14 50 11 58 12 60 46 66 54 8 69-12 76-104zm822 71c7-7 12-40 12-77 0-62-2-67-27-78-15-7-30-13-34-13-9 0-42 139-35 155 4 12 22 18 62 24 5 0 15-4 22-11zm-117-68c3-36 8-71 12-77 4-7 5-24 1-38-6-24-10-26-53-23l-46 3-3 97c-3 94-2 97 20 101 57 11 63 6 69-63zm-703-134c9-43-8-81-44-101-40-21-53-13-55 35-1 21-2 20-11-10-5-19-11-36-13-38-9-10-48 23-57 49-5 16-14 29-19 29s-9 11-9 25c0 24 2 24 93 27 115 4 111 5 115-16zm827-43c-3-21-14-45-24-53s-21-23-24-32c-9-26-73-25-82 0-3 11-17 24-30 30-34 16-36 62-2 62 12 0 32 3 45 6 20 6 22 3 22-29 0-56 18-54 26 3 6 49 7 50 41 50 35 0 35 0 28-37zM958 803l-3-28-112-3c-103-2-113-1-122 17-10 18-7 20 42 25 28 4 75 8 102 9 28 2 60 4 73 5 20 2 23-2 20-25zm2-118c0-17-43-20-101-8-33 7-33 7-9 14 48 14 110 10 110-6zm0-58c0-9-26-12-99-12-55 0-98 2-96 4 20 20 195 28 195 8zm-94-42c79 0 94-3 92-15-3-12-23-15-108-15H745l-3 29c-3 27-2 29 13 16 12-10 46-14 111-15zm74-63c0-5-9-20-21-33-30-34-94-33-131 2-16 15-28 29-28 33 0 3 41 6 90 6 50 0 90-4 90-8z"/><path d="M839 1433c-43-48-54-81-53-160 1-41 7-80 13-86 8-8 11-7 11 5 0 8 10 22 21 30 18 12 20 17 10 35-18 35-14 55 12 51 18-2 23-10 25-40 3-31 8-39 28-44 52-13 19-54-43-54-50 0-54-11-15-38 37-26 74-13 96 36 13 28 16 60 14 137l-3 100-30 2c-16 1-31 6-33 11-1 5-8 17-15 26-11 15-15 14-38-11z"/></g></svg>