<svg xmlns="http://www.w3.org/2000/svg" width="128" height="87" style="shape-rendering:geometricPrecision;text-rendering:geometricPrecision;image-rendering:optimizeQuality;fill-rule:evenodd;clip-rule:evenodd"><path style="opacity:.95" fill="#010100" d="M8.5 49.5c.578 1.047 1.245.88 2-.5-1.461-4.343-1.128-8.51 1-12.5a30.838 30.838 0 0 1 3.5-12 274.511 274.511 0 0 1 12.5-16 38.823 38.823 0 0 1 7-1.5C39.278 1.659 44.778.492 51 3.5 58.461-.572 64.294 1.261 68.5 9l6 1 10 9c5.383.359 10.05 2.359 14 6l6 1A170.826 170.826 0 0 0 123 36.5c.497 2.646.664 5.313.5 8a16.603 16.603 0 0 1-7 .5 3.647 3.647 0 0 0 1-1.5c-1.545-.952-3.212-1.285-5-1 .486 4.009-1.18 5.842-5 5.5-1.709-6.038-5.709-9.705-12-11a50.35 50.35 0 0 1-11-2A265.08 265.08 0 0 0 71 27.5c-2.697 2.35-3.197 5.184-1.5 8.5.104 2.145-.563 3.979-2 5.5 2.077 4.133 2.91 8.466 2.5 13-2.834 6.673-5.667 13.34-8.5 20 2.486 2.078 3.486 4.745 3 8-4.599.3-9.099-.033-13.5-1-1.6-4.362-1.767-9.029-.5-14-1.253-3.493-2.087-7.16-2.5-11-2.47 1.938-5.304 3.104-8.5 3.5 1.682 4.06.849 7.56-2.5 10.5.833 7.167-2.333 10.333-9.5 9.5-5.002 2.492-10.336 3.159-16 2-1.655-1.444-2.322-3.278-2-5.5a13.117 13.117 0 0 0 7-1l6-5a78.942 78.942 0 0 0 4.5-19c2.255-5.041 5.755-8.875 10.5-11.5-1.814-2.557-2.148-5.224-1-8a12.134 12.134 0 0 0-3.5-4.5A98.356 98.356 0 0 1 22.5 44c2.665 4.143 3.498 8.643 2.5 13.5-5.003 4.504-6.836 3.504-5.5-3-1.848-2.69-3.515-2.523-5 .5a4.452 4.452 0 0 1 2 1.5c-2.422 1.785-2.422 3.452 0 5-2.793 2.638-6.126 3.472-10 2.5-1.782-2.243-2.282-4.743-1.5-7.5 1.831-2.082 2.998-4.415 3.5-7z"/><path style="opacity:.756" fill="#090503" d="M11.5 36.5c-2.128 3.99-2.461 8.157-1 12.5-.755 1.38-1.422 1.547-2 .5a60.937 60.937 0 0 1 .5-11c.708-.88 1.542-1.547 2.5-2z"/></svg>