<?xml version="1.0" standalone="no"?>
<!DOCTYPE svg PUBLIC "-//W3C//DTD SVG 20010904//EN"
 "http://www.w3.org/TR/2001/REC-SVG-20010904/DTD/svg10.dtd">
<svg version="1.0" xmlns="http://www.w3.org/2000/svg"
 width="600.000000pt" height="599.000000pt" viewBox="0 0 600.000000 599.000000"
 preserveAspectRatio="xMidYMid meet">
<metadata>
Created by potrace 1.16, written by Peter Selinger 2001-2019
</metadata>
<g transform="translate(0.000000,599.000000) scale(0.100000,-0.100000)"
fill="#000000" stroke="none">
<path d="M560 4947 l0 -72 144 -144 144 -144 209 7 208 8 59 59 c33 32 63 59
68 59 4 0 8 -29 8 -65 l0 -65 137 0 136 0 144 145 144 145 -3 67 -3 68 -697 3
-698 2 0 -73z M836 4418 c-2 -24 -9 -142 -15 -263 -14 -275 -37 -698 -51 -918
l-11 -168 36 -67 c19 -36 35 -71 35 -77 0 -7 -20 -46 -43 -88 -44 -76 -44 -76
-50 -204 -4 -70 -14 -245 -22 -388 -8 -143 -15 -270 -15 -282 l0 -23 553 0
c305 0 556 2 558 4 2 3 1 69 -4 147 l-8 143 -58 61 c-46 47 -75 93 -130 203
l-71 143 42 17 c24 10 76 32 115 48 l73 29 0 45 c0 25 -5 113 -10 195 -6 83
-17 278 -25 434 -14 255 -18 288 -36 318 -20 33 -21 37 -7 121 10 62 12 119 7
202 -8 136 -19 344 -19 383 l0 27 -210 0 -210 0 -69 -65 c-37 -36 -71 -65 -74
-65 -3 0 -33 29 -68 65 l-62 65 -73 0 -73 0 -5 -42z M2629 4128 c0 -2 -4 -77
-9 -168 -5 -91 -18 -329 -30 -530 l-21 -365 26 -88 c14 -48 25 -93 25 -100 0
-7 -15 -35 -34 -62 l-33 -50 -12 -225 c-7 -124 -16 -288 -21 -365 -5 -77 -9
-161 -10 -187 l0 -48 554 0 c305 0 556 3 559 8 7 15 -21 318 -32 347 -7 16
-20 59 -31 95 -10 36 -31 107 -46 158 l-27 93 48 49 48 48 -7 99 c-4 54 -9
125 -11 158 -2 33 -7 128 -10 210 -17 398 -46 659 -79 692 -10 10 -183 59
-247 70 -18 3 -49 -7 -92 -30 l-66 -35 -3 56 -3 57 -205 57 c-189 53 -229 62
-231 56z M4051 2361 c-6 -29 -11 -62 -11 -74 1 -23 197 -312 227 -335 13 -9
73 -12 243 -10 l225 3 3 64 3 65 42 -65 42 -64 228 -3 228 -2 64 45 c58 42 64
50 74 96 16 72 14 86 -11 92 -20 5 -246 46 -513 93 -49 8 -110 19 -135 24 -25
5 -85 16 -135 24 -49 9 -180 32 -290 52 -110 19 -216 38 -236 41 l-37 5 -11
-51z M284 1797 c-2 -7 -3 -71 -2 -143 l3 -129 1392 0 1392 0 69 68 69 69 141
-71 142 -71 1110 0 1110 0 0 145 0 145 -1667 0 -1668 0 -111 -111 c-62 -61
-116 -109 -120 -106 -5 3 -18 22 -28 42 l-20 36 69 69 69 70 -272 0 -273 0
-217 -71 -216 -72 -143 72 -143 71 -340 0 c-271 0 -342 -3 -346 -13z M2 1247
l3 -142 338 -3 338 -2 149 74 148 73 73 -73 73 -74 623 0 623 0 0 45 c0 25 3
45 7 45 3 0 36 -20 73 -45 l66 -44 1734 2 1735 2 3 143 3 142 -2996 0 -2996 0
3 -143z"/>
</g>
</svg>
