<?xml version="1.0" encoding="UTF-8" standalone="no"?>
<svg
   version="1.0"
   width="1529pt"
   height="1749.8516pt"
   viewBox="0 0 1529 1749.8516"
   preserveAspectRatio="xMidYMid"
   id="svg1"
   xmlns="http://www.w3.org/2000/svg"
   xmlns:svg="http://www.w3.org/2000/svg">
  <defs
     id="defs1" />
  <metadata
     id="metadata1">
Created by potrace 1.16, written by Peter Selinger 2001-2019
</metadata>
  <g
     transform="matrix(0.1,0,0,-0.1,0,1749.8516)"
     fill="#000000"
     stroke="none"
     id="g1">
    <path
       d="m 5880,17489 c -771,-50 -1555,-246 -2240,-558 -540,-247 -1014,-545 -1485,-937 -165,-137 -588,-559 -729,-729 C 951,14696 602,14095 357,13430 194,12987 98,12588 28,12055 L 5,11885 3,5942 0,0 h 345 345 v 5788 c 0,3776 4,5837 10,5932 64,917 347,1769 850,2552 199,309 425,586 724,884 296,295 511,472 836,689 795,529 1680,841 2660,937 106,10 511,13 1885,13 1629,0 1761,-1 1915,-18 551,-61 1073,-189 1560,-382 170,-67 534,-242 705,-340 948,-537 1739,-1374 2206,-2333 322,-661 496,-1331 539,-2077 6,-107 10,-2311 10,-5907 V 0 h 350 350 v 5723 c 0,3657 -4,5792 -10,5917 -17,336 -50,602 -111,910 -161,815 -513,1628 -997,2305 -668,935 -1563,1657 -2627,2120 -665,289 -1406,466 -2160,515 -190,12 -3315,11 -3505,-1 z m 1420,-1265 c 1033,-53 2055,-464 2870,-1153 654,-552 1182,-1284 1515,-2096 23,-54 13,-44 -133,150 -364,484 -776,902 -1207,1225 -596,446 -1253,727 -1940,829 -254,38 -358,45 -660,45 -307,0 -444,-10 -740,-54 -611,-90 -1317,-322 -2000,-655 -850,-416 -1493,-927 -1963,-1560 -469,-632 -738,-1347 -839,-2230 -26,-227 -26,-930 0,-1185 72,-704 229,-1395 483,-2116 57,-163 190,-513 197,-521 2,-1 64,-9 138,-18 1104,-127 1970,-422 2674,-911 593,-412 1042,-944 1373,-1626 l 76,-158 h 96 c 615,1 1555,263 2620,732 407,179 981,480 1265,663 223,143 491,352 615,479 l 54,56 -53,107 c -325,654 -435,1342 -330,2068 79,542 285,1115 619,1713 l 85,153 3,-5081 2,-5080 h 795 795 l -3,5508 c -3,4135 -6,5541 -15,5642 -74,841 -244,1484 -566,2146 -292,598 -630,1071 -1083,1514 -748,733 -1655,1197 -2659,1361 -312,50 -336,51 -1269,54 -484,1 -851,0 -815,-1 z m 2912,-4074 c 160,-15 283,-50 433,-124 71,-35 145,-75 164,-89 l 34,-26 -29,-6 c -245,-54 -434,-196 -543,-405 -63,-120 -85,-214 -85,-350 1,-134 18,-218 69,-328 98,-211 287,-367 515,-423 119,-30 311,-23 419,14 41,15 76,25 78,23 2,-1 -18,-45 -42,-96 -208,-427 -649,-700 -1130,-700 -611,0 -1137,443 -1240,1044 -19,114 -19,317 1,429 43,250 169,494 345,668 211,210 464,332 774,372 59,8 132,7 237,-3 z M 6120,9761 c 206,-47 414,-147 546,-263 l 35,-31 -73,-19 c -408,-103 -656,-515 -558,-926 87,-364 431,-615 807,-588 51,3 93,3 92,-1 0,-5 -19,-38 -42,-75 -351,-564 -1114,-754 -1692,-421 -269,155 -477,411 -573,703 -98,297 -76,636 57,917 69,144 128,230 228,334 208,216 435,336 728,385 109,18 333,11 445,-15 z M 8671,8687 c 305,-223 656,-511 994,-816 171,-155 1035,-1013 1035,-1028 0,-5 -52,-19 -116,-31 -420,-82 -837,-280 -1199,-568 -60,-49 -174,-151 -252,-227 l -141,-139 -36,110 c -224,695 -383,1552 -466,2522 -24,281 -25,324 -7,314 6,-4 91,-66 188,-137 z M 10770,4312 C 10335,3580 9680,3058 8979,2886 c -505,-124 -1001,-93 -1479,91 -491,188 -936,526 -1305,988 -53,66 -121,157 -152,202 -31,45 -60,80 -65,77 -4,-3 -8,-17 -8,-32 0,-42 -36,-203 -65,-289 -49,-149 -132,-298 -333,-600 -109,-164 -224,-342 -256,-395 l -58,-97 47,-88 C 5913,1619 6956,904 8142,799 c 196,-17 607,-6 783,21 371,57 680,152 1005,308 562,272 1043,711 1375,1257 109,179 283,552 309,665 5,21 -12,49 -96,162 -57,75 -159,205 -228,289 -185,226 -233,292 -288,398 -74,143 -121,301 -138,465 -4,37 -10,68 -13,70 -4,3 -40,-52 -81,-122 z"
       id="path1" />
  </g>
</svg>
