<svg xmlns="http://www.w3.org/2000/svg" xml:space="preserve" width="32.387" height="31.126"><path d="M.817 19.87c-1.306-3.684-.997-7.128.575-10.424C3.536 4.95 6.991 1.76 11.856.586 18.39-.988 24.113.561 28.616 5.821c2.555 2.984 3.843 6.404 3.768 10.324a13.3 13.3 0 0 1-.784 4.299C29.468 12.92 24.67 8.332 16.928 8.002 8.765 7.656 3.507 12.116.818 19.87"/><path d="M16.335 17.26c-.955 1.417-1.768 2.754-2.323 4.211-.716 1.879-.376 2.659 1.239 3.93.738.584 1.44.578 2.193.228 1.387-.646 2.152-3.33 1.352-4.627-.59-.956-1.165-1.92-1.764-2.87-.17-.27-.4-.503-.697-.871m.022-3.674c.512.784.794 1.19 1.048 1.612.732 1.214 1.435 2.444 2.183 3.648 1.484 2.39 2.27 4.99 1.844 7.778-.323 2.113-1.901 4.633-4.721 4.478-.114-.005-.228.01-.342.002-.77-.06-1.576.237-2.282-.367-.994-.85-1.955-1.67-2.364-3.012-.668-2.197-.675-4.319.242-6.452 1.123-2.608 2.772-4.89 4.392-7.687M3.835 1609.174c-.775-1.721-.04-3.519.059-5.268.104-1.833.397-3.656.652-5.867-1.544.188-2.84.347-4.14.504l.752 2.047c-.682-.075-1.382-.077-2.039-.245a5.6 5.6 0 0 1-1.684-.75c-1.024-.682-1.497-1.414-.147-2.349.894-.619 1.627-1.464 2.478-2.15.457-.369 1.012-.617 1.522-.92l.464.605c-.788.705-1.574 1.412-2.696 2.416 2.02-.488 3.702-.787 5.287-1.356.396-.142.677-1.163.668-1.774-.055-3.353-.141-6.71-.376-10.054-.096-1.37.16-2.008 1.648-2.148 4.224-.398 8.436-.926 12.655-1.386.153-.016.326.15 1.034.5-1.08.215-1.678.338-2.278.455-3.152.612-6.303 1.23-9.456 1.83-1.238.234-1.66.929-1.555 2.178.652 7.664-.91 15.159-1.812 22.704-.043.36-.288.696-.44 1.044-.199-.01-.397-.01-.596-.016"/><path d="m22.252 1599.32 5.022-4.47-.34-.736c-2.16.313-4.332.57-6.468 1.002-.299.061-.61.991-.599 1.511.068 2.999.237 5.993.35 8.99.01.293-.131.589-.202.884q-.35.014-.701.024l-.61-11.317c-1.926.453-3.736.925-5.568 1.29-.745.147-1.538.086-2.305.035-.08-.01-.253-.809-.161-.863.608-.357 1.258-.673 1.933-.877.65-.197 1.343-.265 2.021-.353 4.723-.61 4.76-.604 5.246-5.445.266-2.657.374-5.33.57-7.995.04-.545.018-1.159.264-1.61.28-.51.831-.874 1.263-1.3.164.573.54 1.18.459 1.717-.655 4.328-1.4 8.641-2.106 12.961-.04.248.032.515.072 1.06l8.106-1.339-4.522-3.22c1.92-.425 6.414 1.454 7.055 2.851.18.392-.025 1.277-.364 1.543-2.63 2.062-5.335 4.03-8.017 6.026l-.398-.37M31.36 1609.255c-9.209.559-18.522.276-27.533 2.808-1.253.352-2.477.86-3.752 1.06-.564.088-1.22-.41-1.834-.64.513-.43.977-1.148 1.546-1.245 4.522-.767 9.044-1.627 13.604-2.05 6.814-.633 13.659-.936 20.492-1.373.546-.036 1.114-.125 1.635-.013.303.064.53.477.793.733-.282.24-.553.672-.848.687-1.364.075-2.734.033-4.104.033"/></svg>