<svg xmlns="http://www.w3.org/2000/svg" xml:space="preserve" width="39.646" height="30.748"><path d="m16.565 22.118-1.028 6.59c-3.085-3.394-4.765-7.393-5.75-11.708-.268-1.177-.203-2.428-.332-3.64C8.904 8.187 6.52 4.156 1.867 1.554c.134.194.257.398.406.58 2.524 3.102 3.92 6.712 4.69 10.582.158.803.05 1.659.068 2.49.048 2.236.566 4.338 1.78 6.24.128.2.282.38.493.662.273-.553.505-1.018.805-1.624.64 1.104 1.146 2.05.656 3.28-.284.712-.374 1.503-.581 2.384-.716-.534-1.21-1.162-1.663-1.822-1.682-2.456-2.781-5.114-2.997-8.127-.056-.783.063-1.55.003-2.3-.12-1.499-.32-3.01-.692-4.464-.82-3.21-2.404-6.057-4.44-8.66A10 10 0 0 1 .048.307C.024.27.029.215 0 .057.9.193 1.684.56 2.43.95c4.766 2.492 7.737 6.308 8.48 11.713.134.964.157 1.943.229 2.915.217 2.945 1.333 5.53 3.157 7.989l1.064-3.285c.703.586.852 1.38 1.205 1.836M39.646.163c-.783 1.168-1.616 2.306-2.338 3.51-2.097 3.5-3.31 7.262-3.189 11.387.123 4.185-1.5 7.683-4.201 10.761-.092.106-.223.175-.415.322-.764-3.047-1.284-6.148-3.724-8.55l-1.493 1.56-.774-1.081 2.296-1.88c1.832 1.072 2.188 1.525 4.587 5.847A9.2 9.2 0 0 0 32.298 18c.221-1.086.285-2.216.32-3.33.126-4.176 1.602-7.882 3.87-11.318.402-.609.883-1.166 1.26-1.896-.302.166-.614.312-.904.498-3.78 2.429-5.669 6.072-6.548 10.332-.145.705-.038 1.464-.053 2.197-.03 1.516-.316 2.985-.805 4.605l-1.154-1.324c.163-1.768.264-3.514.495-5.244.573-4.296 2.724-7.665 6.207-10.198.67-.487 1.386-.919 2.124-1.296C37.88.635 38.7.339 39.5 0zM20.06 3.256c-.126.025-.335.008-.38.085-.491.838-1.053 1.651-1.402 2.547-.361.924-.113 1.83.619 2.557.434.434.95.491 1.488.27.912-.378 1.498-1.972 1.053-2.85-.439-.865-.905-1.717-1.377-2.609M19.895.757c1.034 1.842 2.132 3.514 2.939 5.318.804 1.793.43 3.596-.727 5.194-.777 1.076-2.661 1.43-3.806.712-.81-.505-1.322-1.206-1.582-2.172-.416-1.54-.361-2.95.482-4.352.674-1.12 1.205-2.325 1.829-3.477.204-.379.497-.71.865-1.223"/><path d="m19.796 16.336-2.019 2.858-1.03-1.122a15.9 15.9 0 0 1 3.095-3.52c2.684 2.464 4.654 5.268 5.46 8.987.92-.887 1.312-1.956 2-3.035.266.682.527 1.202.656 1.751.068.287-.032.657-.164.94-.925 1.993-2.148 3.795-3.737 5.63-.385-4.586-1.103-8.907-4.261-12.489"/><path d="m13.888 17.445-1.423 1.722-.492-1.47 1.745-1.478c2.852 1.72 4.787 4.377 6.08 7.634l1.878-3.72.761 1.894-2.648 8.72c-.37-1.406-.65-2.586-.992-3.746-.716-2.43-1.419-4.874-2.908-6.98-.588-.83-1.248-1.61-2.001-2.576M7.545 1561.844c-.775-1.722-.04-3.52.059-5.268.104-1.834.397-3.656.652-5.867-1.544.188-2.84.347-4.14.504l.752 2.047c-.682-.075-1.382-.077-2.039-.246a5.6 5.6 0 0 1-1.684-.75c-1.024-.682-1.497-1.414-.147-2.348.894-.62 1.627-1.464 2.478-2.15.457-.37 1.012-.617 1.522-.92l.464.604c-.788.706-1.574 1.412-2.696 2.416 2.02-.488 3.702-.786 5.287-1.356.396-.141.677-1.162.668-1.773-.055-3.353-.141-6.71-.376-10.055-.096-1.37.16-2.008 1.648-2.148 4.224-.397 8.436-.925 12.655-1.385.153-.016.326.15 1.034.499-1.08.216-1.678.338-2.278.456-3.152.612-6.303 1.23-9.456 1.829-1.238.235-1.66.93-1.555 2.179.652 7.664-.91 15.158-1.812 22.704-.043.36-.288.696-.44 1.044-.199-.01-.397-.011-.596-.016"/><path d="m25.962 1551.989 5.022-4.47-.34-.736c-2.16.314-4.332.57-6.468 1.003-.299.06-.61.99-.599 1.51.068 3 .237 5.994.35 8.991.01.292-.131.588-.202.883q-.35.014-.701.025l-.61-11.317c-1.926.453-3.736.925-5.568 1.289-.745.148-1.538.087-2.305.036-.08-.01-.253-.81-.161-.864.608-.356 1.258-.672 1.933-.876.65-.197 1.343-.265 2.021-.353 4.723-.611 4.76-.604 5.246-5.446.266-2.657.374-5.33.57-7.995.04-.545.018-1.158.264-1.609.28-.51.831-.875 1.263-1.301.164.573.54 1.18.459 1.717-.655 4.328-1.4 8.641-2.106 12.961-.04.248.032.515.072 1.06l8.106-1.338-4.522-3.22c1.92-.426 6.414 1.453 7.055 2.85.18.392-.025 1.278-.364 1.543-2.63 2.063-5.335 4.03-8.017 6.027zM35.07 1561.925c-9.209.558-18.522.276-27.533 2.808-1.253.352-2.477.86-3.752 1.06-.564.088-1.22-.41-1.834-.64.513-.431.977-1.149 1.546-1.246 4.522-.767 9.044-1.627 13.604-2.05 6.814-.633 13.659-.935 20.492-1.373.546-.036 1.114-.125 1.635-.013.303.064.53.478.793.734-.282.24-.553.672-.848.687-1.364.074-2.734.032-4.104.032"/></svg>