<svg xmlns="http://www.w3.org/2000/svg" xml:space="preserve" width="34.22" height="32.331"><path d="m6.55.153 9.97 7.089-1.458 1.13L9.85 4.61l4.39 13.216h-1.895zM22.056 20.096l.566-1.608h6.174l.036-.122c-3.683-2.674-7.367-5.35-11.086-8.048l1.515-1.125 14.959 10.63c-.254.057-.378.106-.504.109-.768.012-1.536.005-2.304.017q-4.419.071-8.836.147z"/><path d="m13.42 21.125 1.889-.132 1.946 5.802.123-.001 4.067-12.783 1.334.944c-.394 1.283-5.297 16.956-5.68 17.376z"/><path d="M19.016 18.623c-.147.55-.284 1.058-.43 1.61-.866 0-1.682-.004-2.498 0-1.34.006-2.68.007-4.02.027q-5.316.074-10.633.167c-.46.008-.92.07-1.382.106L0 20.387l9.815-7.283.457 1.684-5.19 3.83c4.651.157 9.267-.097 13.934.005M27.585.1 23.96 11.41c-.472-.35-.894-.663-1.363-1.014l1.855-5.884-.12-.08-10.875 8.01c-.337-.48-.253-1.086-.557-1.615C17.782 7.197 22.625 3.599 27.468 0zM4.072 1656.159c-.774-1.722-.04-3.52.059-5.269.104-1.833.397-3.656.652-5.866-1.544.188-2.84.347-4.14.504l.752 2.046c-.681-.075-1.381-.077-2.039-.245a5.6 5.6 0 0 1-1.684-.75c-1.024-.682-1.497-1.414-.146-2.348.893-.62 1.626-1.465 2.477-2.15.457-.37 1.012-.617 1.523-.92l.464.604-2.696 2.416c2.018-.488 3.7-.787 5.286-1.356.396-.141.678-1.163.668-1.773-.054-3.354-.141-6.71-.376-10.055-.096-1.37.16-2.008 1.648-2.148 4.224-.397 8.436-.925 12.655-1.385.153-.016.327.15 1.035.499-1.08.216-1.68.338-2.28.456-3.151.611-6.302 1.23-9.455 1.829-1.237.235-1.66.93-1.555 2.179.652 7.664-.91 15.158-1.812 22.704-.042.36-.288.695-.44 1.043-.198-.01-.397-.01-.596-.015"/><path d="m22.49 1646.304 5.02-4.47q-.168-.367-.34-.736c-2.16.313-4.331.57-6.467 1.003-.299.06-.61.99-.599 1.51.068 3 .238 5.994.35 8.991.01.292-.131.588-.202.883q-.35.014-.701.025l-.61-11.318c-1.926.454-3.735.926-5.567 1.29-.746.148-1.54.087-2.306.036-.08-.01-.253-.81-.161-.864.608-.356 1.259-.672 1.933-.876.65-.198 1.343-.266 2.022-.354 4.722-.61 4.76-.604 5.245-5.445.267-2.657.375-5.33.57-7.995.04-.545.018-1.158.265-1.609.28-.51.83-.875 1.262-1.301.164.573.54 1.18.459 1.717-.655 4.328-1.4 8.641-2.105 12.961-.04.248.032.515.072 1.06l8.105-1.338-4.521-3.22c1.918-.426 6.413 1.453 7.054 2.85.18.392-.025 1.278-.364 1.543-2.63 2.063-5.334 4.03-8.017 6.027zM31.597 1656.24c-9.208.558-18.522.275-27.532 2.807-1.254.352-2.478.86-3.752 1.06-.564.088-1.22-.409-1.835-.64.513-.43.977-1.148 1.547-1.245 4.52-.767 9.044-1.627 13.604-2.05 6.813-.633 13.658-.935 20.492-1.373.545-.036 1.113-.125 1.634-.013.303.064.53.478.794.734-.283.24-.554.672-.848.686-1.364.075-2.735.033-4.104.033"/></svg>