<svg xmlns="http://www.w3.org/2000/svg" xml:space="preserve" width="39.371" height="28.093"><path d="M25.21 8.225c-.26-.587-.4-1.194-.534-1.816-.073-.339-.36-.736-.661-.898-.684-.362-1.102-.985-1.663-1.448V2.497c-1.15 1.089-2.599 1.821-3.64 3.041-1.055 1.236-2.115 2.468-3.187 3.719-1.03-.254-1.82-.818-2.57-1.448-.41-.344-.807-.7-1.194-1.036-.929.817-1.534 1.818-2.288 2.686-.888 1.024-1.778 2.043-2.576 3.135-.522.716-1.184 1.332-1.396 2.29-.221 1.007-.326.98-1.346 1.489-.266.132-.518.29-.778.433-.161.088-.394.127-.48.261-.318.499-.689.999-.85 1.554-.108.372-.291.658-.51.92q-.164.46-.365.908a4 4 0 0 1-.367.812C.56 22.042.296 22.817 0 23.575c.607-.466 1.319-.669 2.11-.758 1.218-.138 2.357-.488 3.215-1.478.322-.37.284-.845.522-1.224.097-.154.192-.31.282-.457l-.513-.539v-.529c.784-.473 1.485-1.124 2.457-1.299.292.286.567.552.816.795.68-.123 1.016-.53 1.26-1.025.49-.992.97-1.988 1.428-2.994.071-.153.011-.366.011-.6-.295.046-.519.016-.66.112-.41.28-.781.616-1.179.915-.132.1-.297.155-.54.277-.072-.972.547-1.622.76-2.554l-.696.273c-.025-.592-.022-.588.182-.804.398-.427.952-.58 1.457-.812.628-.29 1.15-.664 1.37-1.464l-1.385.26c.639-.533.755-1.55 1.776-1.675l.506.715c.288.095.638.21.882.288l1.342 1.267v.502c-.078.039-.143.072-.211.102-.92.398-1.55.977-1.72 2.064-.113.73-.236 1.485-.465 2.192-.382 1.174-.796 2.306-2.032 2.985-.875.481-1.71 1.065-2.588 1.559-.27.15-.487.236-.648.556-.3.6-.7 1.156-1.11 1.692-.769 1.009-1.856 1.502-3.041 1.884-1.412.456-2.043.582-2.975 1.716l.156.309c.024.017.051.032.063.035.136.018-.168-.022.068.028.033.008.161.032.212.045l.187.005.029-.001.284-.237h.839c.085-.027.173-.051.257-.08.51-.179.757-.291 1.227-.51.962-.449 1.897-.953 2.854-1.413 1.315-.63 3.675-1.805 4.691-.077.024.04.024.078.041.12l.011-.012c.103-.099.245-.156.44-.276.223.737.025 1.258-.45 1.72-.358.348-.783.662-.794 1.365l3.465-2.712h1.204c.01.19.016.345.024.516-.632.723-1.176 1.577-1.933 2.148a7.5 7.5 0 0 0-1.02.93q.48-.176.985-.286c.616-.565 1.243-1.12 1.854-1.692.392-.368.77-.727 1.282-.945 1.452-.623 2.058-1.91 2.388-3.322.131-.56.398-.966.69-1.305v-.988l-2.062 1.147V18.73c.598-.343 1.246-.813 1.966-1.103.825-.332 1.43-.829 1.864-1.796v-1.053l.294-.296c.714.404.714.404 1.364.363-.621-.666-1.376-1.054-2.141-1.443-.536-.272-1.076-.05-1.5-.137l-1.263.649c-.201-.093-.334-.155-.544-.25-.501-.685-.436-1.389.259-2.054h.764l.473.475c.98.029 1.619-.615 2.182-1.29.47-.562.929-1.194.734-2.117-.317.056-.626.059-.896.165-.718.283-1.416.62-2.13.914-.22.09-.47.109-.918.208 1.082-1.728 2.131-3.159 3.668-4.095h.727c.748.803.661 1.907 1.157 2.89l1.558.265c0-.343.072-.607-.014-.8" style="fill:#221f1c;fill-opacity:1;fill-rule:nonzero;stroke:none;stroke-width:1.33333"/><path d="M39.37 24.064a27 27 0 0 0-.738-1.424c-.9-1.599-2.176-3.052-3.195-4.61-1.265-1.347-2.436-2.822-3.257-4.437a5 5 0 0 1-.524-.861c-.492-.3-.644-.661-.759-1.392-.102-.665-.27-1.268-.884-1.81-.908-.8-1.81-1.7-2.114-2.989-.315-1.324-.664-2.63-1.182-3.908C26.196 1.348 26.085.868 25.253 0c-.133.015-.328-.025-.428.053a96 96 0 0 0-2.57 2.132c-.096.082-.091.28-.132.424l1.766.166c.436-.275.743-.715 1.312-.918.892 1.906 1.775 3.746.728 5.912.06.099.152.219.206.352.05.13.06.276.056.254.24.192.342.316.473.365.177.068.38.063.564.117 1.264.374 2.485 1.466 2.697 2.558.106.546.234 1.085.347 1.629.375 1.813.91 3.568 1.643 5.277.302.706.746 1.198 1.384 1.394.488.15.93.325 1.284.652.417.385.905.8 1.082 1.301.12.341.238.653.475.887.541.53 1.112 1.033 1.693 1.521.41.344.85.655 1.504.625-.256-.226-.512-.454-.9-.8.402-.034.694.038.934.163M20.636 25.444v.767l-1.163 1.882c.575-.257 1.138-.533 1.626-.921.572-.453 1.034-1.05 1.513-1.597l.012-.012c-.008-.16-.073-.328-.252-.495-.132-.123-.02-.51-.02-.801l.488-.339c-.05-.957.099-1.793.575-2.616.694.487 1.373.31 2.046.283V21.2c-.657-.084-1.33-.207-1.805-.765-.899-.047-1.499.349-1.89 1.169-.273.573-.655 1.095-1.123 1.859-.026.165.23.692-.344 1.041-.188 0-.424.013-.659-.003-.641-.042-1.093.299-1.483.738-.302.342-.565.72-.849 1.078-.247.312-.548.604-.357 1.143zM22.043 19.487l-.738-1.008-1.523.306c1.088-.896 1.936-1.716 3.093-1.976l.724.991h.863v.69c-.212.014-.473.033-.816.055-.407.395-.819.936-1.603.942M29.28 20.345l-.035.381-1.145-.51h-1.195c-.075-.102-.203-.303-.356-.48-.155-.176-.324-.447-.51-.47-.358-.041-.347-.193-.32-.596.7.348 1.306.662 1.922.952.53.25 1.072.474 1.639.723M25.116 12.328c-.52-.28-1.054-.365-1.645-.048-.272.147-.69.024-1.18.024l.31-.66c.483-.164.913.077 1.322-.252.159-.128.648.063.93.215.187.101.525.274.263.721M22.352 2.497l.239-.239z"/></svg>