<?xml version="1.0" standalone="no"?>
<!DOCTYPE svg PUBLIC "-//W3C//DTD SVG 20010904//EN"
 "http://www.w3.org/TR/2001/REC-SVG-20010904/DTD/svg10.dtd">
<svg version="1.0" xmlns="http://www.w3.org/2000/svg" width="12" height="17" viewBox="44.16653964663012 1 11.595284106436663 17" preserveAspectRatio="xMidYMid meet">
<metadata>
Created by potrace 1.16, written by Peter Selinger 2001-2019
</metadata>
<g transform="translate(0.000000,100.000000) scale(0.100000,-0.100000)"
fill="#000000" stroke="none">
<path d="M470 918 c-14 -40 -26 -79 -28 -85 -3 -10 14 -13 58 -13 46 0 61 3
57 13 -2 6 -15 45 -28 85 -12 39 -26 72 -29 72 -3 0 -17 -33 -30 -72z"/>
<path d="M160 841 c0 -5 16 -43 36 -85 l36 -76 19 25 c11 13 31 33 45 44 l25
20 -80 41 c-45 22 -81 36 -81 31z"/>
<path d="M758 810 l-76 -39 41 -43 c23 -24 43 -43 45 -42 7 3 80 164 74 164
-4 -1 -41 -19 -84 -40z"/>
<path d="M449 779 c-87 -13 -156 -65 -198 -151 -71 -142 -15 -314 125 -384 54
-26 193 -27 246 -1 49 25 103 79 130 130 33 60 32 194 0 254 -60 114 -176 172
-303 152z"/>
<path d="M93 533 c-40 -15 -73 -29 -73 -32 0 -4 30 -17 68 -30 37 -13 73 -26
80 -29 9 -3 12 12 12 57 0 34 -3 61 -7 60 -5 0 -41 -12 -80 -26z"/>
<path d="M820 500 c0 -45 3 -61 13 -58 6 3 42 16 80 29 37 13 67 26 67 30 0 3
-30 16 -67 29 -38 13 -74 25 -80 28 -10 3 -13 -13 -13 -58z"/>
<path d="M193 237 c-22 -45 -39 -83 -38 -85 2 -2 40 15 85 38 l81 41 -25 20
c-14 11 -34 31 -44 44 l-20 25 -39 -83z"/>
<path d="M724 273 l-42 -44 79 -40 c43 -21 81 -39 83 -39 5 0 -70 160 -76 165
-2 1 -22 -18 -44 -42z"/>
<path d="M442 168 c13 -49 53 -158 58 -158 3 0 17 33 29 72 13 40 26 79 28 86
4 9 -11 12 -57 12 -44 0 -61 -3 -58 -12z"/>
</g>
</svg>
