<?xml version="1.0" standalone="no"?>
<!DOCTYPE svg PUBLIC "-//W3C//DTD SVG 20010904//EN"
 "http://www.w3.org/TR/2001/REC-SVG-20010904/DTD/svg10.dtd">
<svg version="1.0" xmlns="http://www.w3.org/2000/svg" width="76" height="11" viewBox="38.17573009736244 4.323118702650703 75.82426990263757 10.535580893867905" preserveAspectRatio="xMidYMid meet">
<metadata>
Created by potrace 1.16, written by Peter Selinger 2001-2019
</metadata>
<g transform="translate(0.000000,150.000000) scale(0.100000,-0.100000)"
fill="#000000" stroke="none">
<path d="M550 1448 c-127 -12 -172 -24 -168 -46 5 -29 91 -43 298 -49 263 -8
460 15 460 52 0 41 -345 66 -590 43z"/>
<path d="M360 1355 c0 -4 9 -52 21 -108 59 -292 211 -483 384 -481 95 0 157
42 234 156 60 90 132 282 148 394 6 44 5 47 -13 40 -132 -52 -624 -53 -756 -1
-10 4 -18 4 -18 0z"/>
<path d="M674 718 c-3 -10 -9 -18 -14 -18 -15 0 -41 -60 -35 -79 3 -10 14 -26
25 -36 25 -23 25 -47 0 -127 -25 -81 -73 -138 -131 -156 -167 -51 -206 -167
-78 -232 77 -40 158 -54 309 -53 131 0 153 3 229 28 99 32 141 68 141 120 0
45 -31 80 -104 116 -67 34 -120 79 -142 121 -8 15 -21 56 -29 92 l-15 64 30
30 c36 37 37 49 5 96 -14 20 -25 40 -25 44 0 4 -36 7 -80 7 -68 1 -81 -2 -86
-17z"/>
</g>
</svg>
