<?xml version="1.0" standalone="no"?>
<!DOCTYPE svg PUBLIC "-//W3C//DTD SVG 20010904//EN"
 "http://www.w3.org/TR/2001/REC-SVG-20010904/DTD/svg10.dtd">
<svg version="1.0" xmlns="http://www.w3.org/2000/svg" width="148" height="218" viewBox="139.78471133964607 5 147.51528866035395 217.53167861881786" preserveAspectRatio="xMidYMid meet">
<metadata>
Created by potrace 1.16, written by Peter Selinger 2001-2019
</metadata>
<g transform="translate(0.000000,335.000000) scale(0.100000,-0.100000)"
fill="#000000" stroke="none">
<path d="M1563 3000 c-94 -165 -169 -301 -165 -304 4 -2 45 4 92 14 l85 17 76
129 c42 71 82 129 89 129 14 0 36 -37 620 -1050 479 -832 471 -818 481 -808 5
5 14 54 20 111 l12 101 -85 148 c-76 133 -522 906 -751 1303 -49 85 -135 235
-191 332 -55 98 -103 178 -106 178 -3 0 -82 -135 -177 -300z"/>
<path d="M1585 2683 c-442 -55 -829 -330 -1029 -731 -45 -89 -89 -220 -111
-327 -30 -145 -30 -452 0 -462 6 -1 36 43 67 98 52 91 58 107 58 159 0 138 53
339 128 484 167 326 481 559 836 621 93 16 298 19 379 6 29 -5 47 -4 47 2 0
12 -58 116 -78 140 -13 15 -32 17 -141 16 -69 -1 -139 -4 -156 -6z"/>
<path d="M2202 2592 c2 -5 27 -51 57 -103 50 -86 61 -98 123 -138 90 -57 227
-186 298 -282 225 -302 290 -704 174 -1064 -33 -102 -111 -253 -174 -336 -26
-35 -46 -67 -43 -71 2 -5 42 -8 88 -8 l83 0 40 63 c219 347 270 754 142 1139
-107 322 -344 596 -650 753 -101 51 -146 67 -138 47z"/>
<path d="M1334 2425 c-133 -50 -130 -47 -236 -232 -53 -92 -205 -357 -338
-588 -134 -231 -337 -584 -453 -785 -115 -201 -216 -372 -223 -381 -34 -38
-25 -39 329 -39 189 0 346 3 350 6 3 4 -22 37 -55 75 l-62 69 -159 0 c-134 0
-158 2 -154 14 3 8 101 180 218 383 117 202 296 514 399 693 162 281 444 772
456 792 10 17 -16 14 -72 -7z"/>
<path d="M1635 2308 c-55 -56 -109 -122 -134 -165 -82 -139 -131 -304 -131
-443 0 -78 3 -80 64 -55 34 15 36 17 36 64 0 107 51 275 115 380 19 32 61 86
94 122 l59 64 37 -35 c27 -26 98 -115 110 -137 4 -9 126 -39 130 -33 10 17
-116 188 -189 258 -42 40 -81 72 -87 72 -7 0 -53 -42 -104 -92z"/>
<path d="M1640 2061 c-25 -7 -81 -93 -68 -106 3 -4 32 -2 64 4 285 53 582
-123 674 -399 16 -47 34 -78 68 -112 25 -27 50 -48 54 -48 13 0 9 59 -8 130
-20 86 -82 212 -137 279 -134 161 -352 263 -554 260 -37 -1 -79 -4 -93 -8z"/>
<path d="M1295 1910 c-73 -57 -141 -144 -185 -235 -115 -235 -92 -516 59 -723
30 -41 33 -42 86 -42 30 0 55 4 55 10 0 5 -21 38 -46 72 -89 121 -125 225
-125 363 -1 168 51 305 157 420 27 29 42 57 55 107 20 81 14 84 -56 28z"/>
<path d="M1997 1818 c5 -24 8 -97 8 -163 -1 -93 -6 -138 -23 -199 -29 -100
-87 -213 -152 -293 -27 -34 -50 -66 -50 -70 0 -4 16 -19 35 -32 l36 -24 25 24
c45 42 134 185 169 271 18 46 41 121 49 167 18 94 21 263 6 291 -9 18 -87 70
-103 70 -4 0 -4 -19 0 -42z"/>
<path d="M1555 1636 c-125 -30 -259 -89 -342 -152 -31 -23 -33 -29 -33 -85 0
-32 2 -59 4 -59 3 0 34 22 70 49 139 106 305 161 483 161 56 0 125 -5 153 -11
29 -6 55 -7 60 -3 4 5 11 26 14 47 6 34 5 38 -21 49 -44 17 -317 20 -388 4z"/>
<path d="M2146 1539 c-3 -8 -7 -30 -10 -50 -6 -35 -5 -38 41 -64 61 -36 189
-164 236 -237 40 -62 95 -191 104 -244 5 -30 2 -35 -23 -45 -16 -6 -65 -16
-110 -22 -72 -11 -85 -16 -127 -53 -26 -23 -47 -44 -47 -48 0 -10 151 -7 216
5 73 13 185 48 201 63 16 15 -8 132 -47 234 -62 159 -194 327 -329 416 -82 55
-99 62 -105 45z"/>
<path d="M1428 1444 c-16 -8 -28 -17 -28 -20 0 -2 14 -40 31 -84 54 -142 165
-289 290 -385 70 -55 179 -115 207 -115 28 0 113 42 109 53 -1 5 -28 19 -59
31 -134 51 -272 157 -352 270 -50 71 -98 162 -116 224 -15 47 -33 53 -82 26z"/>
<path d="M943 1173 c-62 -115 -115 -311 -90 -331 18 -14 134 -50 201 -61 108
-20 263 -14 371 14 108 27 265 98 265 119 0 8 -16 26 -35 40 l-34 27 -59 -30
c-116 -59 -193 -76 -342 -76 -79 0 -161 6 -197 14 -77 17 -78 22 -28 155 28
75 33 99 26 122 -5 16 -12 41 -15 57 -4 15 -10 27 -14 27 -5 0 -27 -35 -49
-77z"/>
<path d="M2327 1213 c-2 -4 -12 -31 -21 -60 -41 -125 -156 -255 -285 -322
-131 -68 -280 -89 -414 -57 -54 13 -64 12 -123 -7 -35 -12 -64 -24 -64 -28 0
-7 69 -35 145 -61 25 -8 90 -13 175 -13 122 0 143 3 216 28 190 65 333 191
420 369 l28 57 -20 36 c-22 42 -50 70 -57 58z"/>
<path d="M3025 916 l-29 -84 77 -134 c42 -74 77 -137 77 -141 0 -4 -489 -7
-1086 -7 -864 0 -1085 -3 -1082 -12 2 -7 41 -41 87 -75 l82 -63 1129 0 c776 0
1130 3 1130 10 0 6 -9 23 -20 38 -10 15 -86 144 -168 287 -82 142 -154 261
-159 262 -6 2 -23 -34 -38 -81z"/>
<path d="M600 948 c-11 -18 -30 -52 -42 -76 l-23 -42 42 -83 c125 -243 368
-468 631 -586 156 -70 300 -102 480 -108 220 -8 377 20 572 103 102 43 300
166 308 192 3 9 -24 12 -112 12 l-116 0 -87 -44 c-159 -80 -319 -116 -515
-116 -263 0 -497 78 -704 234 -84 62 -216 203 -269 285 -48 75 -125 227 -125
248 0 23 -20 14 -40 -19z"/>
</g>
</svg>
