<?xml version="1.0" standalone="no"?>
<!DOCTYPE svg PUBLIC "-//W3C//DTD SVG 20010904//EN"
 "http://www.w3.org/TR/2001/REC-SVG-20010904/DTD/svg10.dtd">
<svg version="1.0" xmlns="http://www.w3.org/2000/svg"
 width="350.000000pt" height="350.000000pt" viewBox="0 0 350.000000 350.000000"
 preserveAspectRatio="xMidYMid meet">
<metadata>
Created by potrace 1.16, written by Peter Selinger 2001-2019
</metadata>
<g transform="translate(0.000000,350.000000) scale(0.100000,-0.100000)"
fill="#000000" stroke="none">
<path d="M1594 3462 c-6 -29 -3 -38 11 -47 25 -13 57 -45 75 -73 10 -16 28
-25 58 -29 40 -5 42 -5 42 21 0 19 5 26 20 26 52 0 88 38 75 80 -5 16 -2 20
16 20 22 0 59 -34 59 -53 0 -6 11 -22 24 -36 13 -15 28 -39 33 -56 8 -24 15
-30 37 -28 32 2 33 -8 5 -81 -23 -60 -20 -86 10 -86 25 0 53 36 71 89 12 38
16 41 41 36 38 -9 46 22 24 83 -25 66 -32 72 -83 72 l-45 0 6 41 c3 26 1 42
-6 44 -7 2 -114 6 -239 8 l-228 4 -6 -35z"/>
<path d="M2910 3492 c-17 -6 -11 -38 10 -57 11 -10 20 -21 20 -25 0 -4 -9 -10
-20 -13 -14 -3 -20 -14 -20 -32 0 -19 -8 -31 -31 -43 -56 -30 -90 -64 -121
-119 -20 -35 -35 -52 -44 -49 -8 3 -20 -3 -26 -14 -7 -11 -18 -20 -25 -20 -7
0 -17 -9 -23 -19 -14 -28 -13 -204 2 -219 17 -17 57 -15 64 3 4 8 12 15 19 15
17 0 25 23 25 71 0 31 4 39 18 39 28 0 84 76 88 118 5 50 21 63 43 33 15 -19
25 -23 55 -19 32 4 39 1 46 -18 18 -45 52 -38 80 17 16 31 26 39 48 39 15 0
37 3 50 6 19 6 22 2 22 -22 0 -40 13 -56 41 -52 18 2 25 10 27 32 2 16 -1 33
-7 39 -25 25 -4 81 61 158 21 25 38 55 38 67 0 27 12 34 85 47 41 7 61 16 63
27 3 13 -12 15 -107 13 -102 -1 -112 -3 -145 -28 -19 -15 -41 -27 -48 -27 -7
0 -26 -13 -41 -30 -21 -22 -35 -28 -52 -24 -12 3 -26 1 -29 -5 -10 -16 -26
-14 -26 3 0 7 16 21 36 31 29 14 35 21 32 43 -3 27 -4 27 -101 32 -53 3 -102
4 -107 2z m300 -223 c0 -6 -4 -7 -10 -4 -5 3 -10 11 -10 16 0 6 5 7 10 4 6 -3
10 -11 10 -16z"/>
<path d="M2298 3151 c-52 -33 -61 -51 -53 -104 4 -20 1 -45 -5 -56 -8 -16 -5
-33 15 -80 28 -67 31 -91 13 -109 -19 -19 -42 -14 -68 13 -28 29 -33 30 -55 9
-13 -13 -15 -28 -9 -73 8 -71 27 -107 58 -115 34 -8 47 -37 50 -102 1 -35 8
-60 19 -71 15 -16 19 -16 52 0 20 9 53 17 73 17 46 0 62 14 62 54 0 38 -9 51
-37 60 -18 6 -23 15 -23 39 0 18 -2 64 -3 103 -2 61 0 74 16 83 10 7 17 22 16
34 -1 12 4 36 10 52 19 45 25 100 12 123 -6 11 -27 26 -46 32 -38 13 -43 21
-21 39 8 6 16 23 19 37 3 20 -1 27 -20 35 -13 5 -25 9 -27 9 -1 0 -23 -13 -48
-29z"/>
<path d="M1461 3040 c-33 -29 -61 -59 -61 -68 0 -10 -7 -26 -15 -36 -20 -27
-19 -96 2 -126 10 -14 25 -38 33 -54 8 -17 31 -38 50 -49 19 -10 42 -27 50
-37 8 -10 48 -33 88 -51 72 -32 74 -32 141 -20 99 18 109 32 108 146 -1 97 7
135 27 135 7 0 19 11 26 25 12 22 11 30 -9 70 -22 44 -51 59 -66 35 -3 -5 -30
-22 -59 -36 -46 -22 -59 -25 -97 -17 -24 5 -43 15 -42 21 2 7 -4 29 -13 51
-11 29 -22 40 -42 44 -15 2 -34 7 -43 11 -11 5 -36 -9 -78 -44z"/>
<path d="M2799 2731 c-12 -26 -17 -29 -58 -27 -36 1 -46 -3 -49 -17 -2 -12 3
-20 17 -24 13 -3 21 -13 21 -26 0 -11 28 -47 68 -86 84 -81 84 -97 1 -103 -63
-5 -91 -22 -94 -57 -1 -10 -6 -25 -12 -33 -6 -7 -18 -39 -27 -71 -21 -71 -10
-103 32 -93 15 4 43 7 63 6 47 -1 72 22 62 58 -10 37 -6 93 7 106 7 7 15 7 28
-2 9 -7 25 -15 34 -18 11 -4 17 -17 17 -38 1 -100 7 -131 28 -134 11 -2 26 4
33 13 7 8 26 15 42 15 16 0 31 6 34 14 9 25 33 26 68 5 28 -16 39 -18 56 -9
15 8 19 17 15 31 -5 14 0 27 14 40 29 27 26 45 -8 65 -15 9 -36 30 -46 46 -17
29 -17 30 9 57 30 32 27 57 -11 72 -26 10 -136 -14 -141 -31 -5 -15 -40 6 -47
29 -10 32 5 51 40 51 31 0 65 21 65 39 0 18 -34 35 -68 34 -21 -1 -55 3 -77 9
-32 8 -36 12 -22 19 25 14 21 45 -9 68 -38 30 -70 27 -85 -8z"/>
<path d="M945 2723 c-47 -10 -223 -66 -262 -84 -45 -20 -75 -53 -66 -75 8 -21
-26 -86 -58 -112 -32 -26 -37 -57 -13 -83 15 -17 15 -21 -5 -59 -11 -22 -21
-54 -21 -70 0 -46 20 -128 35 -140 11 -9 9 -15 -11 -35 -18 -18 -22 -31 -18
-53 3 -17 -4 -68 -16 -118 -24 -93 -31 -261 -12 -273 6 -3 18 -30 27 -59 22
-66 51 -105 74 -97 11 3 25 -3 36 -15 10 -11 30 -20 44 -20 33 0 91 35 91 55
0 11 11 15 39 15 30 0 42 5 55 25 9 13 16 31 16 40 0 8 4 15 9 15 4 0 11 -42
14 -93 5 -84 10 -102 45 -173 31 -61 48 -83 75 -98 20 -10 43 -16 52 -12 9 3
24 0 35 -6 15 -10 23 -9 39 6 17 16 30 17 84 12 53 -6 67 -4 81 10 10 9 15 25
13 35 -6 24 22 33 91 30 51 -2 52 -1 52 26 0 28 0 28 59 25 53 -3 65 0 104 27
25 17 63 51 85 76 22 25 42 45 44 45 3 0 3 -31 0 -69 -4 -60 -1 -76 23 -127
15 -33 35 -88 46 -123 27 -95 80 -138 121 -98 7 7 26 14 42 15 16 1 37 9 47
18 10 9 19 11 23 6 3 -6 31 -27 61 -47 43 -28 54 -41 50 -55 -8 -25 29 -62 58
-58 15 2 23 11 25 28 9 69 23 99 57 120 20 12 38 34 45 54 10 31 15 34 65 41
38 4 61 13 77 30 20 20 29 23 67 18 53 -7 66 9 62 78 -2 33 2 49 15 60 30 25
43 72 38 134 -7 87 -29 103 -89 67 -17 -11 -62 -29 -101 -41 -38 -12 -86 -32
-104 -45 -19 -12 -47 -26 -62 -29 -37 -10 -47 -45 -19 -68 29 -24 14 -69 -23
-69 -21 0 -26 6 -31 34 -4 19 -4 43 -1 53 7 22 -2 37 -29 47 -18 8 -16 10 15
24 19 8 49 14 67 13 48 -2 73 26 67 81 -9 96 -16 127 -28 137 -17 14 -46 4
-65 -22 -12 -17 -22 -19 -75 -14 -34 3 -67 2 -74 -2 -14 -8 -43 -56 -67 -108
-18 -39 -28 -45 -59 -37 -49 12 -45 78 5 89 18 4 35 16 41 30 21 47 -15 102
-48 74 -11 -9 -14 -8 -14 6 0 9 10 25 23 35 18 15 20 22 11 37 -9 13 -23 17
-55 16 -33 -2 -46 2 -57 18 -18 26 -26 19 -64 -57 -31 -63 -33 -65 -48 -46 -9
11 -32 28 -51 37 -19 10 -46 27 -61 38 -24 18 -34 19 -75 11 -42 -8 -50 -14
-66 -47 -11 -24 -23 -37 -31 -34 -7 3 -34 8 -58 12 -68 10 -77 19 -49 49 13
13 36 30 52 36 30 13 31 14 51 102 12 55 13 56 31 40 12 -10 36 -16 70 -17 47
0 52 2 55 23 2 13 -1 29 -7 36 -8 10 -7 21 4 42 32 62 9 161 -44 192 -17 9
-35 29 -41 43 -6 15 -22 32 -36 39 -28 15 -30 23 -9 40 8 7 15 20 15 30 0 19
-30 50 -48 50 -6 0 -18 13 -27 30 -21 41 -46 52 -93 41 -53 -11 -84 3 -152 70
-30 30 -71 61 -90 69 -19 8 -41 20 -48 27 -25 24 -96 37 -147 26z"/>
<path d="M2327 2325 c-13 -14 -36 -28 -52 -31 -40 -7 -65 -32 -65 -64 0 -48
-45 -71 -106 -54 -14 4 -25 19 -33 44 -6 21 -18 44 -27 51 -14 11 -18 10 -30
-6 -8 -10 -14 -26 -14 -35 0 -9 -9 -25 -20 -35 -11 -10 -20 -30 -20 -44 0 -14
-12 -44 -25 -66 -52 -84 -16 -163 57 -124 14 8 23 8 31 0 14 -14 54 -14 63 0
10 17 75 3 91 -21 8 -11 22 -20 32 -20 10 0 21 -9 24 -20 10 -39 36 -35 84 14
l46 47 -21 51 c-19 46 -20 53 -7 79 8 15 15 34 15 41 0 7 9 30 20 50 17 33 26
95 21 151 -2 25 -36 21 -64 -8z"/>
<path d="M490 1300 c-46 -9 -86 -26 -95 -39 -3 -6 -25 -11 -49 -11 -69 0 -104
-55 -126 -200 -5 -30 -14 -76 -21 -102 -7 -27 -9 -51 -6 -54 4 -4 45 -6 92 -5
l85 2 0 -29 c0 -34 35 -153 58 -200 9 -19 31 -45 47 -59 17 -14 29 -34 27 -43
-2 -10 4 -20 13 -23 8 -4 15 -15 15 -25 0 -32 55 -127 95 -165 40 -37 63 -45
81 -27 6 6 33 2 77 -12 78 -26 102 -19 102 28 0 22 -9 34 -42 57 -24 15 -43
33 -43 38 0 14 63 39 97 39 19 0 40 14 74 49 27 28 59 57 73 67 45 29 29 52
-47 69 -25 5 -26 8 -16 27 10 18 8 24 -10 39 -14 11 -18 20 -10 24 14 9 4 49
-20 84 -22 30 -34 98 -20 106 23 15 4 47 -63 105 -70 61 -160 110 -227 125
-22 5 -31 11 -27 21 5 14 -52 111 -69 117 -5 2 -26 0 -45 -3z"/>
<path d="M1978 970 c-21 -11 -39 -25 -39 -30 -1 -6 -3 -14 -4 -20 -1 -5 -3
-17 -4 -25 -1 -12 -6 -12 -31 4 -38 23 -74 17 -101 -17 -29 -38 -21 -64 28
-87 36 -17 61 -20 153 -19 107 1 112 2 140 29 17 16 30 34 30 42 0 19 -31 31
-68 26 l-32 -5 2 58 c3 53 1 59 -17 61 -11 1 -37 -6 -57 -17z"/>
<path d="M1390 925 c-19 -7 -52 -14 -74 -14 -32 -1 -45 -8 -77 -43 -51 -56
-53 -66 -31 -124 25 -62 42 -73 84 -55 18 8 51 16 73 17 22 1 45 2 51 3 7 1
12 25 12 61 1 46 -2 60 -14 60 -26 0 -14 19 25 40 48 24 57 36 41 55 -15 18
-43 18 -90 0z"/>
<path d="M1741 669 c-30 -18 -37 -19 -59 -8 -21 12 -26 11 -41 -6 -9 -11 -28
-25 -42 -32 -36 -16 -44 -57 -13 -73 19 -11 28 -9 58 8 l36 21 26 -26 c18 -18
23 -28 15 -36 -8 -8 -16 -5 -27 11 -33 47 -86 5 -65 -51 14 -36 57 -96 86
-118 33 -27 35 -97 4 -141 -21 -29 -21 -32 -6 -64 9 -19 21 -34 26 -34 5 0 15
-15 22 -32 7 -18 24 -45 38 -61 22 -23 31 -26 56 -21 17 4 39 7 49 6 68 -4
109 103 70 181 -9 18 -23 40 -31 49 -13 15 -12 25 7 87 19 58 20 73 10 86 -10
13 -10 19 3 33 8 9 22 34 30 55 12 27 22 37 39 37 28 1 58 22 58 42 0 26 -31
78 -56 95 -30 19 -164 14 -190 -8 -14 -11 -17 -11 -25 4 -13 23 -37 21 -78 -4z"/>
<path d="M1165 499 c-27 -10 -69 -19 -92 -19 -34 0 -45 -5 -62 -28 -11 -16
-23 -40 -26 -54 -6 -22 0 -31 41 -62 52 -40 66 -41 174 -14 77 20 117 61 85
88 -10 8 -10 17 -1 41 10 28 9 33 -13 50 -28 23 -41 23 -106 -2z"/>
</g>
</svg>
