<svg xmlns="http://www.w3.org/2000/svg" width="27.768" height="17.254" viewBox="0 0 7.347 4.565"><path d="m6.624 2.653.263-.793-.444-.667h-.909c-.491.528-.529 1.125-.307 1.737.241.664.79.846 1.482.74l-.025.121c-.249.059-.498.16-.749.166-.244.007-.491-.082-.749-.09.242.318.556.497.92.616-.471.123-.909.127-1.327-.215-.479-.392-.678-.908-.834-1.481a2.6 2.6 0 0 1 .003-1.466C4.135.673 4.74.096 5.434.022 6.021-.041 6.58.008 7.015.489c.328.361.446 1.087.202 1.52-.145.255-.22.598-.604.632zm-4.898.398c-.746.088-.833.018-.813-.595.421-.524.515-.526 1.02.027z"/><path d="M6.414 1.632c.03.484-.114.787-.369.851-.227.057-.39-.029-.509-.242-.158-.282-.153-.329.279-.784zM4.346.122c-.033.087-.048.185-.101.257-.216.294-.443.58-.646.844-.242-.303-.508-.634-.77-.97C2.807.225 2.82.169 2.817.127l-.012.011.813.36.739-.372zm2.267 2.519-.08.134-.064-.046.155-.076zM4.357.126l.19-.043.003.039h-.204z"/><path d="M2.817.127h-.21l.01-.05.188.061zm1.137.546s.569-.538.672-.59c-.172.039-.098-.018-.336.124a1 1 0 0 0-.336.305z"/><path d="M3.112.613c-.16-.155-.455-.474-.567-.536.115.014.368.109.438.14s.129.396.129.396M4.585 4.48c.016-.01-.16-.121-.214-.16q-.014-.01-.033-.027-.001-.009-.005-.015a2.1 2.1 0 0 1-.537-.768c-.031-.073-.107-.126-.163-.188L3.55 3.4a5 5 0 0 1-.165.247c-.009.061-.032.113-.097.136l-.058.077a.14.14 0 0 1-.07.093l-.084.108a2 2 0 0 1-.283.223v.005c-.058.049-.127.111-.174.133.063-.009.124-.014.174-.02v.003l.03-.008a.2.2 0 0 0 .05-.014c.147-.04.298-.072.425-.147.231-.135.43-.123.652.008.126.075.27.12.408.177v-.003c.071.024.16.052.227.062m-1.527-.6c.21-.27.353-.699.355-.718l.002-.005.001-.017c.021-.172.097-.342.088-.509-.021-.35-.036-.711-.136-1.043-.168-.56-.41-1.089-.999-1.36C1.981.05 1.596-.059 1.115.081c.388.153.746.239.958.678H.806l.005.068.843.233c.464.444.619.967.554 1.572-.032.293-.131.545-.364.723-.239.183-.495.232-.768.041-.079-.055-.194-.06-.282-.084-.134-.254-.36-.426-.268-.773.081-.304.332-.46.468-.702-.028-.023-.041-.042-.051-.04-.042.005-.092.005-.124.028-.509.366-.88.789-.811 1.492.063.643.606 1.22 1.249 1.243.384.014.764.002 1.135-.092.284-.124.48-.348.666-.588"/></svg>