<svg xmlns="http://www.w3.org/2000/svg" width="32" height="28.7"><path d="m20.667 20.37-4.667-8-4.533 8zm9.6 3.066L17.467 1.17H16.4l-1.067.266q2.934 5.6 6.134 10.934l6.4 10.933zM2.8 25.703 13.467 7.036c1.6-.266 1.733 1.067 2.133 1.6l5.333 9.334 1.467 2.533 2.267-.133L14.4 2.77h-.667L9.2 10.503l-6.533 11.2L1.6 23.836q-.534 1.467 1.2 1.867m.8 1.333h25.733l.8-2H13.467l.133-1.466h11.6l.933-.267-.4-1.333-15.2.133-.533.267v1.066l1.733.134.534 1.466c-1.734 0-3.2.4-4.667-.4v-.666l1.6-2.934 4.533-7.466c.8-1.2 1.6-2.4.8-4l-.8-.134zm26.667 1.334a9.2 9.2 0 0 0-2.667.4H2.8Q.934 27.437.267 25.17q-.4-1.2.4-2.534A90 90 0 0 0 4.4 16.37l4.533-7.734 3.6-6.666 1.334-2h4.666L21.6 5.303l3.333 6.267 4.934 8.4 2 3.466q.667 1.067-.134 2.267L30.4 27.97z"/></svg>