<svg xmlns="http://www.w3.org/2000/svg" width="30.5" height="27.5"><path d="M3.433 7.936v-.933l4-.134v-.4L4.767 5.136l.266-.667q5.467.4 6.934 4.534 1.599 3.999.666 7.866c-.4 1.6-1.866 2.667-3.2 3.6a4 4 0 0 1-2.533.8h-2q-3.333-.133-4.4-3.2l-.533-.933q0-4.667 3.466-5.867c-.266 1.334-1.866 2.267-1.066 4.134L3.7 16.736h2.933q2.134-1.867 1.467-4.8c-.533-2.267-1.867-4-4.667-4M20.5 20.869c-1.2.667-2 0-2.4-.533q-2.533-2.266-2.533-5.467a20 20 0 0 1 .8-3.333l1.066-2.533q1.733-2.8 4.934-3.467l1.066-.533c2.667.533 5.334 1.466 6.8 4q1.067 4.8-3.2 7.066h-2.266l2.666-2.133v-2l-2.133-2c-1.467-.267-2.4.533-3.2 1.2q-2.267 2.267-1.333 5.733c.666.934 1.066 2.134 2.533 2.667l-1.333.267c-1.867-1.334-1.867-1.334-2.8-1.334-.267 1.067.666 1.6 1.333 2.4m-6 1.067.267 5.467-1.334.133-1.6-2c-2-.267-4 .267-6.266-.4l1.2-.4a17 17 0 0 0 6.133-2.533q.667-.668 1.6-.267m8.4-18.933q-4.533 1.6-7.067 4.933l-.266-.133-.267-2.4 1.6-1.867c1.867 0 3.6-1.333 6-.533"/><path d="M6.9 12.736v2.4q-.933 1.333-2.4.933l-1.067-.8v-1.866l1.734-1.467zm15.467.267 2-1.867c1.333-.267 1.866.933 2.266 1.867l-1.6 1.866H23.3zM13.833 2.736l-.666 2.933q-2.134-3.333-5.6-5.6H8.9c1.733.8 3.867 1.067 4.933 2.667"/></svg>