<svg xmlns="http://www.w3.org/2000/svg" width="14.5" height="37.1"><path d="m5.9 19.537-2.133-2.133c-.4-2 .533-4-.8-5.2L.033 10.871l2-2-1.2-5.734C3.5 1.137 6.167.471 9.1.071l1.333 1.066L11.5 6.871l-4 .8q-1.467.399-2.933 1.2c3.466 1.333 6.533-1.067 9.866-1.067v.4l-2 1.467.934 2.666-.934.8-.533 2.8-1.467.267-1.866 3.333z"/><path d="M6.433 28.871H6.7v-1.067h-.267zm2.134-9.334 1.6.267L7.9 22.737l1.2 2.934q.4.932.267 2L8.3 31.404l-.8-1.2-.4.133 1.333 4.934H8.7l-.267 1.866h-.4l-1.066-3.466c-1.067-3.2-2-6.534-5.334-8.4-1.733-1.067-1.733-1.6-.8-3.467q0-.8.267-1.467l1.067-2.666L3.5 20.337l2 6h.4l1.333-3.733-2.666-2-1.067-.133q.8-1.734 2.4-.934l1.6 1.734.667-.8zm2.8.934 2.533 4.266c-.8 2.134-2.933 4-3.733 6.667H9.5v-1.467a14.66 14.66 0 0 0 1.333-7.733zm-2.534 13.2v-1.334h.4l.134 1.334z"/></svg>