<svg xmlns="http://www.w3.org/2000/svg" viewBox="0 0 35.2 37.7"><path d="M11.6 10.903q.533-2 0-4l-1.867.934.667 1.733q0 .8 1.333 1.333m0 11.467c-1.733.533-2 1.867-2.266 3.067q.666 1.6 2.266 1.066zM9.6 12.903c-.533 2-.4 6.267.133 7.6l2-1.6v-4.4Zm8.667-3.466q.666-1.2-.267-2.667l-2.4.933-1.067-.8-.933.8v4H16zM20 11.57q-1.333 1.467-2.667 2.4-2 .933-2.8 3.333L20 21.837zm-.133 15.066q.4-4.133-3.6-6.133l-.8-1.333q-.534-1.2-1.6-.533c-.534 1.733-.534 6.133 0 8zM3.333 35.303l-1.866.667-1.334-2.267 1.734-1.467-1.867-2q2.133 0 4-.4 1.733-.666 3.467-1.733.266-1.333-.4-2.267l.533-2.8V10.37q.133-1.2-.533-2.267-.4-1.066-.4-2.533-1.867-.533-2.4-2.267C4.933.637 6.933.237 9.067.103q5.2-.266 10.266 0 2.4.134 4.134 1.6V4.37q-1.6 2-1.467 4.533v18.133l1.6 1.867v4.4l1.867-.933c.8 1.066 2.133.933 3.333.933q3.333 0 6.4 1.333l-1.6.667-.267 1.467q-.533.533-1.333.533l-6.667.4q-.933 0-1.6-.267-2-1.066-4.4-.8l-1.866-.4c-2-.4-4-.533-5.734.8q-.8.8-1.866.134l.666-.534.4-.4L10 35.17l-.533.133q-.667 1.067-1.6.4-1.334-1.333-2.934 0-.933.533-1.6-.4m12.534 2H14.8l.667-.533.4.133z"/></svg>