<svg xmlns="http://www.w3.org/2000/svg" width="31.7" height="41.6"><path d="m11.367 24.404-.134-.534a32.2 32.2 0 0 0-7.733.134c1.333 1.333 4 1.733 6.667 1.2zm10-12.534c2.133 0 4.666-.533 5.066 2.534h4c-1.066-4-2.133-7.467-5.733-9.734h-6.267c-.8 0-1.6 0-2 1.334H22.3l1.733 1.333-.8 2.667-2.533.533zm7.2 10.667h.4l.533-2-.533-.4h-11.2q-.534 0-1.2.8c2 1.867 4.4.4 6.533 1.6l-.533 2.933-.4-.266c-.934 1.2-3.067-.4-3.467 1.866h6.267l1.866-.8c1.2 1.867-.4 4.134 1.734 5.867zm-23.2-10.133.133-.534h7.067v-1.333l-2.8-.4-1.334-2.133 2.8-2.534c-1.333-1.6-3.2-.133-4.533-.8a13.33 13.33 0 0 0-5.6 12.534c2.533 1.066 5.067.8 6-.667l-2.667-2.533zm12.666 20c1.734 1.2-.133 3.6 2.4 4.533l.534-3.733c0-1.334-.267-2.934 1.066-4.267-1.733-1.067-4.266 0-5.066-2.267.666-1.866.933-2 2.933-2.266.8 0 1.733 0 2-1.334h-5.333c-1.867-1.866-1.867-2.666.266-4.4h13.334l.133-2.666q-2.134 0-3.733-.4-1.334-.801-2.934-2.4c-1.066-.267-2.666.4-4-1.067v-2.133l3.334-1.734c-2.667-1.333-5.334.267-7.734-1.733l.134-2.4c2.4-1.067 4.933 0 7.466-.933Q15.5-.53 8.833 3.07v.4l2.8.267 1.067 1.2V6.67l-2.533 1.467c.933.933.933.933 3.2 1.467l1.066 1.333L13.1 13.07H8.033c-.933 0-1.866 0-2 1.067l2.4 1.333v2.4c-2 1.867-4.666.134-7.066 1.2l.933 3.067h8.933l1.334 1.2v2.133l-1.067.934H6.167v7.066c2-1.333.533-3.333 2-4.666l5.333 2c.267 3.2-.267 6.266.533 9.333 1.6-2.4.267-5.333 1.734-7.733zm12.4-.667-1.466 1.6-2.667-.933-.267-4-4 2.533v6.4l-2.8 1.067-1.333-1.467-.267-3.2-1.333.533v7.067l-3.2.267c-1.333-3.467.267-6.934-1.067-10l-3.466-1.067-.134 3.2-1.066 1.067-1.734-.134c-2-2.266-.8-4.933-1.2-6.266L.567 21.07q-.4-.933-.4-1.733Q-.1 16.67.033 14.404c0-5.734 3.2-9.734 7.867-12.4 6.667-3.734 14.667-2.267 20 3.466q4.8 5.6 3.467 12.8a64 64 0 0 0-.934 13.334"/><path d="M28.567 39.337v-2.8c-1.6.667-1.6.933 0 2.8m.533-4.4 1.067 1.333c.4 2.667.266 3.067-1.867 4l-1.867-.8-.266-3.066q.933-2 2.933-1.334M12.3 18.137l2-1.333v-.4l-2.667-.667zm1.867.533H11.5l-1.2-1.066v-1.867l1.333-1.067h2.534c1.733 1.467 1.733 2.4 0 4"/></svg>