<svg xmlns="http://www.w3.org/2000/svg" width="19.991" height="34.419" viewBox="0.11 0.003 19.991 34.419"><path d="m14.567 18.803-1.6-2a2 2 0 0 0-.934-.534H7.5l-1.067 1.334-1.066 1.333q4.667 1.6 9.333 0m-.533 8.8q-.668-3.466-1.734-6.4h-4.8a14.6 14.6 0 0 0-.933 3.2c-.133 1.067-1.333 1.867-.267 3.2zm4 5.067v-.8q-.667-2.533-3.334-2.8h-10q-3.066 0-2.933 3.6zM6.433 14.536q3.867.267 7.467 0l.667-2.8q.666-1.866-.4-3.466L11.5 4.536c.267-2.133.133-2.266-1.733-2.933L8.7 2.67q0 1.333-.267 2.133-.4 1.334.267 2.4.8 1.334 1.333 2.933c-1.2 0-1.2-.933-1.6-1.466l-1.2-2-1.066 1.6q-.8 1.2-.667 2.533zm10.534 4.4L14.3 21.469l1.867 5.867c3.466 2.133 4.4 3.733 3.733 6.4q-.667.8-1.733.667h-16q-2.4 0-2-2.267l1.066-3.2L3.9 27.603l1.333-2.8.8-3.334-2.8-2.8.8-1.466 1.334-.667-.134-1.067A13.3 13.3 0 0 1 3.9 10.003Q4.033 7.87 5.5 6.27l1.333-1.867Q6.433 1.47 9.1.003h2.267q2.533 1.333 2.133 4.4l2.267 3.2c1.066 1.333.666 3.066.533 4.533l-.533 2-.8 2c0 1.067 2.266.933 2 2.8"/></svg>