<svg xmlns="http://www.w3.org/2000/svg" width="33.2" height="24.054" viewBox="0.095 5.894 33.2 24.054"><path d="m.095 18.188.666-4.533a17.34 17.34 0 0 1 4.4-7.467c.667-.533 1.734-.133 1.867.667q.133 1.066-.533 1.6a9.3 9.3 0 0 0-2 2.8 12 12 0 0 0-1.734 6l.134 3.333 1.066 3.067a19.7 19.7 0 0 0 2.667 4l.4.666a1.34 1.34 0 0 1-.533 1.334c-.267.4-1.2.266-1.467 0l-2-2.534a17.4 17.4 0 0 1-2.667-6.266zm30.8-.8-.667-2.933a7.1 7.1 0 0 0-.933-2.4q-.801-2.135-2.4-3.6-.534-.534-.534-1.334c0-1.066 1.067-1.6 1.734-.933q.933.534 1.6 1.6 1.866 2 2.666 4.933.534 1.733.8 3.734.4 2.666-.4 5.333-.666 3.066-2.666 5.6l-1.6 2.133q-.667.534-1.334.4c-.8-.133-1.2-1.333-.533-2.133a17.1 17.1 0 0 0 2.8-4q.8-2 1.067-3.867zm-14.134-3.867c2.267 0 4.4 2.134 4.4 4.534q0 2-1.333 3.066-1.333 1.334-3.067 1.334-1.866 0-3.2-1.334-1.333-1.333-1.333-3.333c0-2.4 2.133-4.267 4.533-4.267m11.067 4.267q0 4.667-3.2 8-.8.8-1.6.133-1.066-.8-.4-1.733l.533-.533q1.2-1.333 1.734-3.334.533-1.6.266-3.466a6.66 6.66 0 0 0-1.733-4l-.8-1.2q-.533-.8.133-1.6c.4-.267 1.334-.4 1.6 0a9.33 9.33 0 0 1 2.934 4.8zm-18.267-8q1.2 0 1.334.667.267.533 0 1.333l-1.334 1.333a7 7 0 0 0-1.066 2.534 13.5 13.5 0 0 0-.267 2.666q0 2.8 2 5.067.667.8.8 1.467 0 .933-.933 1.333l-1.2-.267a14.7 14.7 0 0 1-2.267-3.333c-.921-2-1.2-4.235-.8-6.4l.667-2.4q.4-1.2 1.333-2.667l1.2-1.066z"/></svg>