<svg xmlns="http://www.w3.org/2000/svg" width="34.7" height="33.3"><path d="M16.967 20.737c1.6.267 1.6.267 2.4-.533L20.7 18.87l-1.333-.666c-1.2.666-2.4 1.066-2.4 2.666m-2.8-3.733h-2q0 2.933 2.666 3.467l.534-1.734zm5.333-.267h1.867l-.134-2.4-2-1.733c-1.733 1.733.4 2.8.4 4.133M16.7 12.204c-3.467.933-4 1.333-3.733 3.066l1.333.4 2.4-1.866zm5.333 20.533c-1.333.667-2.266-.533-3.066-1.067q-2.4-1.866-3.467-4.533l-.533-2.267-1.2-.533q-3.6-1.334-4.667-4.667l-.933-2.266a12.9 12.9 0 0 0-4.4 1.866L-.1 21.404a9.33 9.33 0 0 1 4.133-4.8l4.8-2.134q1.467-6 8-5.866A17.33 17.33 0 0 0 11.9.07a10.67 10.67 0 0 1 7.2 8.4q6.267 2 6 9.067c3.467-.667 6.667-1.467 9.6-4-1.2 3.333-5.333 6-9.867 6.4-1.733 2.667-3.466 4-7.466 5.2.933 2.933 1.733 5.867 4.666 7.733z"/><path d="M6.3 23.537q1.866-1.867 3.733.133c.267.8.8 1.867-.266 2.8q-1.067.933-2.267.267c-1.6-.667-1.333-2-1.2-3.2m.667-16.8 2 .533.533 1.067.667.933L9.1 10.737c-2.667.533-2.667.533-4-2.267zm17.866.4h1.734L27.9 8.47v2q-2.667 2.001-3.867 0-1.467-1.333.8-3.333m0 20.533q-1.2-.666-1.866-1.6a2.27 2.27 0 0 1 0-1.866c.533-1.6 1.866-.934 3.066-.934l1.334 1.867c-.267 1.6-1.334 1.867-2.534 2.533m-2.8 5.2v.534z"/></svg>