<svg xmlns="http://www.w3.org/2000/svg" width="38.7" height="33.9"><path d="M32.633 30.171v.266l.134-.266zm-3.2-11.467-.4.133v-.266l.267-.134zm1.2 5.333H29.7v-.4h.933zm-13.866-14.8 1.866-.133c-.8 1.333-1.333.4-1.866.133M29.3 3.771c.133 1.333.133 1.333-1.067 1.333zm-7.733 20.533h3.066q-1.466 1.2-3.2 0m.134-6.8H18.5v-.4h3.067zm-6.267 6c.933-.933 2 .267 2.933 0v.533l-2.666.134zm8.133-18c1.334-.267 1.867-1.6 3.2-.667-.933.667-1.6 1.6-3.2.667m1.2 15.6c-2.666 1.467-4.933.667-7.466-.267v-.533l2 .267c1.733-1.734 3.6 1.333 5.6.533m1.866-6q-1.067-1.2-1.733-.4l-5.733-1.333c1.333-.667 5.333-.534 7.2.266q.399.267.666 1.067zm2.4 18.133-4.4.667-1.733-6c1.6.933 1.867 2.4 2.4 4l.533-2.667 1.334 2.267.8-1.467zm-8.4-3.066c1.334.666 1.334.8 0 2.533L18.5 31.371l-1.867.933-.4-2.667-2.133 2.667c-.533-1.867.8-4.133 2.933-5.2l.267 3.2 2.933-1.6zm0 0h-.266z"/><path d="m32.633 30.171 3.467-1.467-.4 2.667h2.933v.4l-4.666 1.6.533-2.667c-1.867 0-2.133 2.933-4.4 2.533.133-1.866-.267-3.733.533-5.6a43.5 43.5 0 0 0 1.334-6.933l1.466-7.733q.133-.8.667-1.334l-1.333-1.6 1.066-.666q.668-5.866-4.533-7.2-3.2-.667-6.667 0H21.3q-3.867-.267-7.333 1.333c-1.067.667-2.4 1.733-2.667 3.467l1.6-.8 1.467-.4c-.134 1.333-.934 1.733-3.334 2.266l.667.534-1.733 2.133.933.267 1.333.266-2.133 1.6-.267 1.6-.4 1.6 1.867-.4c.667 1.867-2.667 1.334-1.733 3.2l2.8-.666.266.533c-.8 1.333-2.666 1.067-4 1.867v1.333l1.734-.4.266.4-2.666 2.267.266.533 3.6-.667c-.533 2.267-2.933.8-3.6 2.4l-.8 2.667c1.334 0 1.334-2.267 3.067-1.467l-.667 3.734c1.467-.8 1.334-2.8 3.6-2.667-1.066 1.867-2 3.333-4 4.267l-.266-3.6L5.7 33.637l-1.333-2.4q0 .667-.4 1.067-.267.267-.934.4l-1.2-3.2c-.666 1.067.267 2.667-1.866 2.933l1.466-5.733h.534l1.466 2.667.934-1.334 1.2.934 1.6-6.934q.533-2 .533-4.266a76 76 0 0 0 .8-6.667q.4-4.4 3.067-8A6.67 6.67 0 0 1 14.9 1.237a37 37 0 0 1 5.467-.666 84 84 0 0 1 6.8-.534c4.666 0 9.066 4.267 8.8 8.667v6.133a22.4 22.4 0 0 1-.934 5.334l-1.466 6.666zm0 0v.266z"/></svg>