<svg xmlns="http://www.w3.org/2000/svg" width="26.7" height="45.4"><path d="M10.267 13.47c-2.667 2-4.934 4.267-5.067 7.867q.133 4.933 3.733 8.4l-.266.266-2.4-1.466a8 8 0 0 1-2.8-4.934l-.134-.8c-1.066-3.866.934-7.2 4-8.666q1.333-.667 2.934-.667m3.466 12.133q3.333-1.733 2.667-4.266t-2.8-2.267l-.533 1.333-.534-1.466q-2.666.4-2.666 3.2 0 2.666 2.8 3.333l.4-1.333zm-1.466-9.866-1.067-8 2.667.933c.266-2.8-.267-5.733.933-8.667l.667 2.134c0 3.6 1.333 6.933 1.066 10.666l-2-.4-.8 3.467c3.067 1.2 5.334 2.667 5.334 6.267q-.4 4.8-5.334 6l1.334 8.666-2.667-.933-.667 9.6h-.4l-2-13.867 2.134.4c.933-2 .933-2.133.533-4q-4-.933-4.667-4.933c-.533-3.333.4-4.533 4.934-7.333"/><path d="M16.267 30.803c2.8-2 4.8-4.266 4.933-7.866q-.133-4.8-4-8.534a8 8 0 0 1 4.533 3.467 9.33 9.33 0 0 1 .534 9.733 6.67 6.67 0 0 1-6 3.2M24 29.07l.133-1.333 1.334-3.734V22.67L24 18.003v-.8q2.266 1.734 2.667 4.4.8 4.267-2.667 7.467M2.667 15.47v1.067C.4 19.87.933 23.203 2.667 26.67l.133.933q-1.2-.666-1.333-1.2Q.267 25.07.133 23.07c0-1.867-.4-3.733.667-5.333q.933-1.2 2-2.134zM24 29.07q-.267 0 0 0M2.667 15.603"/></svg>