<svg xmlns="http://www.w3.org/2000/svg" width="35.49" height="35.29" preserveAspectRatio="none"><path d="m18.95 15.74-1.7-9.11-.39-.06-1.44 4.96C14.2 8.3 15.71 2.27 18.27 0c.6 1.19 1.37 2.27 1.74 3.46.7 2.32 1.71 4.6 1.44 7.12-.08.77-.01 1.55-.01 2.33 0 1.62.2 3.27-1.29 4.6l-.73-.66"/><path d="M19.423 16.846c-.093 2.013-1.72 2.427-3.173 3.013l.053.04-.893-.906.04.013c-.533-1.093-.867-2.2-.08-3.413l-10.613-.56 1.6 1.386 2.826 1.36c-2.426.147-6.293-1.773-9.186-4.32.346-.266.613-.613.96-.693 4.106-1 8.226-1.08 12.346-.04.867.227 1.734.533 2.587.8l-.04-.04 1.507 1.28q-.122.16-.24.32l1.84.653" opacity=".5"/><path d="M23.88 12.85v.2h1.02v-.2zm.94 7.4-5.3.86c-.65-1.06-.22-1.54.54-2 1.18-.7 2.3-1.48 3.46-2.23l-.04.04 5.19-2.39c-2.3-.9-4.92.83-6.87-1.56l.2-3.06.45-.02.5 1.54c3.31 1.48 6.76 1.11 10.16 1.13h2.37c-.95 2.17-2.53 3.38-4.12 4.38-2.08 1.31-4.39 2.25-6.6 3.35l.05-.04Z"/><path d="M23.503 24.553c1.36 2.853 1.72 5.893 1.934 9.493-1.054-.507-1.734-.667-2.227-1.08a20.9 20.9 0 0 1-7.16-10.667c-.2-.72-.587-1.4-.773-2.133-.08-.347.106-.773.173-1.16l-.04-.013.893.893-.053-.027 7.067 9.027.226-4.373zm-8.266 2.946c-1.2 2.933-3.227 5.213-5.76 7.787-.334-1.12-.667-1.734-.68-2.387-.174-4.44.68-8.64 3.133-12.44.4-.64.667-1.386 1.067-2 .213-.306.653-.44.986-.653l-.013-.04-.08 1.267v-.067l-2 11.293 3.413-2.76zm9.533-7.213 1.027.147.266 1.893-.813.293.187 1.654-.36.146-1.667-2.666 1.413-1.507zm-12.853-8.707.893-.666-.867-.534 1.974-1.04-.4-.666.933 3.093-2.4.2z" opacity=".5"/><path d="M23.51 16.88H22.1c-.44-.95-.35-1.61 1.05-2.05l.34 2.08.03-.04Z"/><path d="M15.28 23.17h-1.43c-.44-.95-.35-1.6 1.05-2.05l.34 2.09z" opacity=".5"/><path d="m15.88 13.53.21-1.66.52-.18 1.35 1.21-.17.52-1.95.06.04.04Z"/><path d="m11.13 17.006 1.253-.987.574 1.374h-1.734l-.093-.4m9.013 5.426.8-.266.16.72-.84.08-.133-.534m3.413 2.094c-.24-.134-.586-.187-.68-.374-.12-.24-.026-.573.294-.893l.346 1.307z" opacity=".5"/><path d="m23.53 10.68.93.04.03.34-.92.17zM16.3 19.9l-.9-.9z"/></svg>