<svg xmlns="http://www.w3.org/2000/svg" width="21.3" height="30.2"><path d="m2.067 28.503.933.133h15.067l1.066-.266-.666-1.334q-.4-1.333-1.867-1.333h-12q-1.333 0-1.867 1.333zM19.133 13.17a8 8 0 0 0-2-6.134L14.867 4.77q-1.734-1.734-4-2.134l-.934 1.2-2.533-1.6-.267 2q-3.467 3.2-5.066 7.067L3 12.636h1.067L5.8 11.97q2.266-.267 4-2 .8-.667 1.733 0v.8a30.4 30.4 0 0 1-5.066 8.266q-1.867 2-2.534 5.067l1.334.267c2.666.266 11.466 0 12.666-.267.4-1.733 1.2-3.467 1.2-5.467l-2.133-.4v-.933c2.4-.4 2.4-.4 2.667-1.467-1.334-1.733-3.334-.4-4.8-1.333q0-.533.266-.533zm-15.6 1.733-2.666-2.4c-.4-2.133.533-3.467 1.466-4.933L5.8 3.303 4.733.503q1.334-.8 2.667 0 1.066.533 1.867.4 1.866-.134 3.333.667 3.733 1.733 6 5.066 2 2.8 2 6.267v4.667q0 3.466-1.333 6.666l-.134.934C19.8 26.903 21 28.103 21.4 30.103l-5.333.133h-16L.2 28.903l1.733-3.2.934-2.8a14.3 14.3 0 0 1 3.6-6A18 18 0 0 0 8.6 13.57v-.934l-2.667.667a11.3 11.3 0 0 0-2.4 1.6"/></svg>