<svg xmlns="http://www.w3.org/2000/svg" width="32.7" height="29.7"><path d="M22.667 17.17h-.4v.934h.4zM10.933 9.304q.667 0 .8-.667Q13.6 4.77 18 5.97q2.4.668 3.2 2.667l.533.267v7.333h.4V9.57l-.4-.533V7.57q3.867-1.333 5.467 2l.667.4v8.4l-1.067-.666-.933-6c-.667.533-.4 1.066-.4 1.6v13.733h-1.6v-7.733c-1.467 2.666-.934 5.2-1.2 7.733h-1.6v-6q-.134-1.334.666-2.267l.134-.266v.266H20.8c-1.333-2.266-.533-4.666-.933-7.066-.667.4-.4.933-.4 1.333v16l-1.334.667-.533-.267-.267-1.067-.666-8.666q0-.4-.4-.8l-.134 1.2v6.8c0 1.6 0 1.6-1.333 2.666q-.933-.133-.933-1.333V14.904l-.134-3.334c-.4 1.867-1.2 3.6-1.066 5.6.133 1.334-.267 1.467-1.734 1.467z"/><path d="m10.933 18.637 1.334 1.2v5.6l-.8 2L10 26.104v-7.6h-.4l-.8 8.533H7.333v-15.2h-.4c-.8 2 .534 4.4-1.066 6.267q-.934-.534-.8-1.6 0-2.667-.4-5.334l-.134 1.067v4.4c0 1.333 0 1.333.934 2.4v5.733q-1.333-.4-1.467-2v-3.333q0-.8-.267-1.467c-.666 2.134-.133 4.4-.533 6.667H1.733V14.104c-.933 1.066.134 2.666-1.6 3.6v-5.6A4 4 0 0 1 2 8.904l1.2-.667-1.333-1.733c.4-.934.533-2.4 2-2 .666 0 1.333.933 1.733 1.6q.534.933-1.733 1.866l1.066.534.267 1.866c1.2-2.8 2.667-3.6 5.867-2.933v1.867l-.4 1.066v7.467zM27.867 9.97l.666-2.133-1.466-1.733c.666-.8 1.2-2 2.266-1.6q1.066.4 1.734 1.6.533.8-1.6 1.866l1.333.8q1.866.534 1.867 2.4.266 2.934 0 6.534-1.2-.8-1.067-1.867l-.133-3.467c-.534.934-.267 2-.4 3.067v9.333q-1.867 0-1.6-1.333v-4l-.267-1.6c-.533 2.267-.267 4.533-.4 6.933h-1.6v-5.333l.667-1.067.4-.933v-6.8q0-.4-.534-.667zm-12.4-5.066L14 3.837V1.17l1.333-1.2h2.134c2 1.867 2 2.934 0 4.934zm10-1.467v2l-1.467.8.133.267h-1.6c-2.133-1.734-1.866-2.8.667-4.267l1.6.667z"/><path d="m8.533 6.504-1.333-2q.534-1.734 2.4-2.267l2 1.067v2l-1.333 1.333zm13.2 12.266.134-.266"/></svg>