<svg xmlns="http://www.w3.org/2000/svg" width="31" height="32.2"><path d="m1.4 12.638 1.6-.534h-.4l2-.533 2.533-.667.267-.4 1.067-.266v.266l.666-.266H8.6l1.6-.267 1.6-.533v-.134h.533l2.134-.666h.133l1.067-.4h.266l2.667-.8h.533l1.6-.667h.4l2.134-.667v-.133h.266l2-.533 4.534-1.334v-.133c-.534-2.8-.667-2.933-3.067-4l-1.333 1.867L17.8 4.104l-4.533 1.334c-3.867.933-7.467 2.933-11.6 2.4l-.8 1.333q-1.867 2 .533 3.333m19.467 2.8-6 1.867-1.334-3.2c1.734.533 2.267 2.533 4 1.6l-1.866-2.4 4-1.333c1.733.666 1.2 2 1.2 3.333m8-10.267h-.4l-6.667 2-1.733.534h-.4l-2.4.8-2 .533-.534.267-4.133 1.2-6.4 1.866h-.4l-3.067.934q-.399.8 0 1.333L3.8 16.238v6.933l.667 6.666q.266 3.068 3.2 2L9 31.304l4.533-1.333-.4-2.267v-8q.133-.933.667-2.133 5.067.134 8.267-2.133l-.534-4.4 4.134-1.334c1.333-.4 2.933-.533 3.2-2 .933-.666 2-1.066 2-1.6q0-.8-.667-1.733z"/></svg>