<svg xmlns="http://www.w3.org/2000/svg" width="35.7" height="36"><path d="M31.033 25.671H30.9v.133zM21.7 27.404h.267zm2.8-4 .133-.4h-.266v.134zM4.633 20.205v2.933H4.9zm0 0 1.2-3.867.8 5.333q.134.933 1.2 2.133Q11.7 18.471 9.3 13.138c-1.733.667 0 2.667-1.467 3.867L6.1 8.205c-3.733 4.266-3.867 9.066-3.2 13.999.533-1.866-.133-3.999.667-5.733l.4 2q.134.8.666 1.6m4 11.467-2.266-1.334 1.2 2.134zm0 0q.134 1.866 2.267 2.266l-.4-2 1.467 1.334 1.6-.667.266 1.733c.667-.4 0-2 1.334-1.733l1.733 1.733 1.867-.266.133-3.067h1.867l.4 3.067.533-1.2-.4-4h-.267l-1.2.533-1.333-.933c-.4 3.466-.4 3.466-1.333 4.266l-1.6-.4-.134-1.733c-2.666 2.4-4.4.267-6.266-.8l-.4-2.667q-.8 2.8.8 4.934zm20.134-17.333 1.866 2.666q1.067 2 .8 4.534v3.199c2-1.6.667-3.866 1.334-5.733l1.333.534.8-3.334.933 1.867c-.666 2.933-.8 6-2.266 8.666-1.467 2.667-3.2 4.934-5.867 6.534l-.933-.667-.934-1.867-1.066 1.867-2.134 1.333 1.067 1.334c-5.6.933-10.8 1.733-15.733-1.6q-6-4-7.467-11.6c-1.6-6.8 1.067-12.4 5.333-17.333Q9.3 1.137 14.5.338a16.8 16.8 0 0 1 6.667 0q5.333 1.067 9.2 4.667l1.333 1.2-2.267.133v6.4c0 .533.4 1.333-.666 1.467l-.267-3.334a28.4 28.4 0 0 1-1.067-5.333q-.267-2.934-3.466-2.8c-1.867 3.733-.267 8.267-2.4 12L19.7 1.405h-2.667c-1.333 1.866-.4 4-.666 6.133l-.667 6q.267 3.066-.933 5.867h-.534l-2.8-16c-1.866.8-2.133 1.333-2.266 3.333v5.333q2 1.333 2 4l.266 7.2c0 1.467 0 2.933 1.334 4 1.6-1.6 1.6-1.733 1.6-4l.266-2 .667.533c2-5.466 2.267-5.866 4.267-6.666l-.4.933a9.3 9.3 0 0 0-.8 4.934c.133 1.599 1.333 2.133 2.4 1.199a9.34 9.34 0 0 0 3.2-5.466c0-1.867 1.333-3.733 0-5.6l.533-.8c2.533 3.867 1.733 7.6.4 11.466h.4l1.2-2.133c.667 1.6-.267 2.533-.667 3.6l1.734-.667c2.133-1.599 2.266-5.333.533-7.199l-.667-1.067z"/><path d="M31.967 15.138c1.6 0 1.6 0 .933 1.867zm-7.2 17.466c1.333.267.666 1.2.8 2h-1.334zm2 0v1.6c-.8-.933-.8-.933 0-1.466zM18.5 13.005a4 4 0 0 1-.8-4q1.866 1.866.8 4m3.2 3.6-1.067 3.2c-1.066-1.6 0-2.4.4-3.334zm-7.067 4.8H13.7l.133-.4zm-6.266-2 .133-1.6h.533v1.6zM5.7 16.471l.267-1.2.4.267zm9.467 16.267.533-.534z"/></svg>