<svg xmlns="http://www.w3.org/2000/svg" width="200" height="200"><path d="M74.5 20.5q1.064 1.356 3 1a30.6 30.6 0 0 1 8 7q2.268 2.537 3 6-1.281 1.698 0 4-1.857 2.571-2 6a808 808 0 0 1-5 4q-4.185.375-9 0-3.083-1.588-4-5l2-1a32 32 0 0 0 4 1 71 71 0 0 0 4-3q2.609-2.43 1.5-6l-1 1-1-3q-1-2-2 0a4.93 4.93 0 0 1-.5-3h-3q-3.7-1.7-8-.5-3.787.635-6 3.5-2.265 2.186-3 5.5 2.385 8.814 5 16.5-3.205 1.305-5.5 4-4.278-9.085-8.5-19.5-.912-3.276 2-6-.835-.575-1-1.5a8.95 8.95 0 0 0 3-4l3-3q-.186-.91-1-1 10.303-5.648 22-3M74.5 19.5q2 1 0 0m3 1q-1-2 0 0M77.5 20.5q2 1 0 0M81.5 22.5q2 1 0 0M112.5 22.5q13.375 1.102 19 13.5-.068 3.955-.5 8.5-5.812 12.061-16 3-1.124-1.703.5-3 6.475 6.42 11-1.5-1.163-8.493-9-12-5.52-1.54-9.5 2.5a28.4 28.4 0 0 0-3 11l-2 2q-2.349.84-4-2-3.37-16.522 13.5-22M52.5 23.5q-1 1 0 0M50.5 27.5q-1-2 0 0M49.5 27.5q-1 1 0 0M85.5 27.5q2 1 0 0M69.5 29.5q2 1 0 0"/><path d="M72.5 29.5v1q-1.005-.722 0-1M47.5 31.5q-1-2 0 0M72.5 30.5q2 1 0 0m-14 2q2 1 0 0m30 2q2 1 0 0M57.5 35.5q2 1 0 0m31 3q1.538.595.5 2a2.43 2.43 0 0 1-.5-2m-10 2q-1-2 0 0m-21 1q2 1 0 0m13 0q2 1 0 0M154.5 41.5q19.185 4.73 10.5 23-7.65 9.126-14.5 0 2.341-1.27 4.5 1 10.836-4.434 3.5-14-2.397-1.477-5-.5a25.6 25.6 0 0 0-6.5 8.5q-5.532 4.11-7.5-2.5 3.754-11.502 15-15.5M68.5 43.5q-1-2 0 0M86.5 44.5q2 1 0 0M68.5 47.5q2 1 0 0M72.5 48.5v1q-1.005-.722 0-1M81.5 48.5q2 1 0 0M20.5 49.5q10.811-1.88 19 6 6.57 9.537-4.5 13-4.732-1.4.5-2-1.325-9.306-11-9-12.197 3.225-6.5 15 4.27 3.687 4 9-5.74 1.665-10-3-11.724-19.657 8.5-29M72.5 49.5q2 1 0 0m2 0q2 1 0 0m-24 3q2 1 0 0"/><path d="M86.5 52.5q31.86-.867 59 18.5A182 182 0 0 1 174 97.5q9.808 13.426 10 30l-1 1q-22.822-48.156-73-66-38.01-8.002-65 22-9.645 11.54-11.5 26.5-1.546 27.587 8 54-1.98 4.809-7 3a114 114 0 0 1-7-20l1-1q-17.83-75.93 58-94.5M60.5 54.5q2 1 0 0m0 1q-1 1 0 0M47.5 56.5q2.755.21 1 2-1.195-.686-1-2"/><path d="M94.5 66.5q1.762-.329 3 1a127.8 127.8 0 0 0-23.5 29q-12.059 31.37-1.5 62.5-4.163 8.12-9-.5-10.874-37.566 5.5-72 9.63-14.425 25.5-20M178.5 71.5q-1-2 0 0m5-1q2 1 0 0M178.5 71.5q6.864.43 12 6-.166.925-1 1.5 3.233 5.472.5 11.5l-1-1q-4.302 4.32-9.5 4l-2-2q-.166-3.222 2-1 8.325-4.81 2-10-2.878-.766-5 2-3.256 5.385-9 3 .255-1.983-1-3.5 4.83-7.65 12-10.5M187.5 72.5q2 1 0 0m-17 1q2 1 0 0M190.5 76.5q2 1 0 0M191.5 79.5q2 1 0 0m-15 3q2 1 0 0m-1 2q2 1 0 0M119.5 85.5q6.655-.435 13 1.5 4.106 6.896-2 2-16.392.344-23.5 15.5a126 126 0 0 0-8 27 1995 1995 0 0 0-.5 27q-1.824.753-3.5 1-3.2-4.538-2.5-9.5-5.035-31.246 14-57.5 5.57-5.5 13-7M167.5 85.5q-1 1 0 0m14 0q2 1 0 0m10 1q2 1 0 0m-14 5q-1 1 0 0m11 0q2 1 0 0M179.5 93.5q2 1 0 0M146.5 100.5q6.513-.515 13 2.5 3.153 2.096 3.5 5.5-6.444-3.641-13.5-.5-15.743 9.645-19 27-4.587 10.131-4.5 20.5-6.033 8.624-7.5-2 1.444-25.35 17-45a85 85 0 0 1 11-8M164.5 119.5q8.865-.818 13 7l-1 1q-4.183-2.697-9-1.5-8.682 7.616-12.5 18.5-2.801 7.73-4 15-1.088 2.487-3.5 1.5-3.141-1.882-3-5.5 3.106-22.246 20-36"/></svg>