<svg xmlns="http://www.w3.org/2000/svg" width="659" height="659" viewBox="0 0 659 659" version="1.1"><path d="M 204.500 0.660 C 166.596 5.213, 131.879 17.707, 102 37.547 C 88.700 46.378, 80.203 53.355, 67.630 65.768 C 33.600 99.364, 12.490 139.138, 3.363 186.851 C 0.183 203.476, -1.004 236.097, 0.951 253.124 C 14.891 374.510, 120.710 463.524, 242.044 455.929 C 282.619 453.389, 321.141 440.458, 354.500 418.180 L 366.500 410.167 377.235 420.801 L 387.970 431.436 384.853 434.652 C 382.917 436.649, 381.964 438.463, 382.338 439.438 C 383.355 442.089, 397.726 464.729, 407.767 479.500 C 445.774 535.409, 490.959 586.974, 536.364 626.253 C 552.834 640.502, 575.253 658.302, 577.314 658.768 C 578.849 659.115, 659.367 578.580, 658.874 577.191 C 658.075 574.942, 639.317 551.465, 626.253 536.364 C 586.974 490.959, 535.409 445.774, 479.500 407.767 C 464.729 397.726, 442.089 383.355, 439.438 382.338 C 438.463 381.964, 436.649 382.917, 434.652 384.853 L 431.436 387.970 420.801 377.235 L 410.167 366.500 418.180 354.500 C 457.862 295.080, 467.149 220.655, 443.460 151.922 C 441.485 146.190, 436.798 135.200, 433.045 127.500 C 399.557 58.788, 333.901 11.777, 257 1.449 C 247.513 0.175, 212.872 -0.346, 204.500 0.660 M 202.500 52.572 C 174.804 56.812, 147.710 67.721, 125 83.776 C 112.812 92.393, 92.393 112.812, 83.776 125 C 75.268 137.034, 65.225 156.468, 60.558 169.931 C 49.663 201.354, 47.978 239.287, 56.061 271.180 C 71.998 334.070, 121.162 383.573, 183.500 399.499 C 201.864 404.191, 212.842 405.337, 233.754 404.747 C 266.450 403.825, 294.391 395.606, 320.961 379.094 C 338.018 368.495, 357.570 350.794, 369.323 335.312 C 385.274 314.301, 396.785 288.677, 402.045 262.470 C 404.821 248.638, 405.815 220.562, 404.034 206.254 C 395.041 133.979, 341.955 73.967, 271.180 56.064 C 251.376 51.055, 222.126 49.567, 202.500 52.572 M 182.631 116.144 C 182.309 123.490, 181.772 141.200, 181.439 155.500 C 181.105 169.800, 180.725 181.607, 180.595 181.738 C 180.295 182.038, 111.804 185.986, 106.750 185.994 C 104.688 185.997, 103 186.365, 103 186.812 C 103 187.259, 116.275 198.746, 132.500 212.340 C 148.725 225.933, 161.983 237.380, 161.963 237.778 C 161.942 238.175, 151.853 252.674, 139.543 269.997 C 127.232 287.320, 117.299 301.632, 117.468 301.801 C 117.637 301.971, 134.377 298.710, 154.668 294.555 C 174.959 290.400, 192.265 287, 193.126 287 C 194.326 287, 196.986 295.012, 204.499 321.250 C 209.893 340.087, 214.835 357.044, 215.480 358.930 L 216.653 362.361 228.714 338.930 C 235.348 326.044, 243.352 310.325, 246.502 304 C 249.652 297.675, 252.325 292.390, 252.442 292.255 C 252.560 292.121, 268.984 298.782, 288.942 307.058 C 308.899 315.334, 325.348 321.969, 325.496 321.803 C 325.643 321.636, 318.617 305.796, 309.882 286.601 C 301.147 267.407, 294.007 251.207, 294.015 250.601 C 294.023 249.996, 308.555 241.518, 326.308 231.762 C 344.060 222.006, 359.418 213.415, 360.437 212.670 C 362.065 211.479, 357.778 210.195, 324.894 202.020 C 304.327 196.907, 287.143 192.407, 286.707 192.019 C 286.271 191.632, 288.851 174.061, 292.440 152.973 C 296.028 131.885, 298.850 114.517, 298.710 114.377 C 298.570 114.236, 284.599 124.669, 267.664 137.561 C 250.729 150.452, 236.489 161, 236.019 161 C 235.549 161, 224.033 148.512, 210.428 133.250 C 196.823 117.987, 185.135 104.890, 184.454 104.144 C 183.462 103.057, 183.100 105.440, 182.631 116.144" stroke="none" fill="#34343c" fill-rule="evenodd"/></svg>