<svg xmlns="http://www.w3.org/2000/svg" width="992" height="1024" fill="none" viewBox="0 0 32 33"><path fill="#000" fill-rule="evenodd" d="M14.091.067c-.476.199-.62.29-.652.415-.024.093-.399.32-.423.257-.018-.045-.086-.04-.368.024-.171.04-.277.053-.35.043-.08-.01-.316.029-1.02.169-.504.1-.987.186-1.074.19-.269.014-.887.235-.826.296a.4.4 0 0 0 .125-.029q.322-.105-.104.188c-.215.148-.267.176-.282.148-.063-.112-.126-.08-.99.505-.294.199-.385.244-.648.319a2.87 2.87 0 0 0-1.471 1.026c-.246.344-.293.392-.333.338-.066-.088-.248.14-.526.659-.382.71-.681 1.078-1.218 1.496-.777.606-.783.614-.996 1.482a8 8 0 0 1-.12.455c-.023.024-.058-.023-.046-.063.03-.096-.029-.03-.13.142a6 6 0 0 1-.261.396c-.669.916-.724 1.02-.86 1.608-.157.685-.367 1.32-.42 1.276-.055-.046-.106.288-.129.846-.03.722-.043.812-.148 1.031-.1.207-.115.265-.196.741-.104.613-.22.98-.426 1.365-.278.516-.268.959.05 2.334.151.656.253.918.507 1.299.189.283.195.298.122.28-.056-.015-.056-.015-.001.096.08.162.089.35.027.555-.06.198-.022.684.04.5.026-.08.045.005.07.313.052.663.154 1.056.54 2.092.33.883.4 1.022.968 1.906.152.236.33.514.395.618.174.274.468.57.868.873.462.35.653.532.838.795.27.38 1.362 1.405 2.467 2.31.664.544 1.251.835 1.803.892.581.06.672.091 1.044.36.148.105.2.13.302.143.1.012.166.043.346.16.28.181.613.344.86.42.41.126.933.31 1.06.374a.9.9 0 0 0 .305.086c.094.01.29.055.436.098.99.296 1.483.326 1.92.12.152-.072.152-.072.32-.038.166.034.179.033.928-.063a265 265 0 0 1 1.775-.22c1.096-.133 1.354-.172 1.894-.29.193-.041.451-.086.574-.1a1 1 0 0 0 .424-.123c.197-.097 1.01-.571 1.185-.69.096-.064.156-.073.243-.033.05.022.082.014.253-.065.266-.123.508-.197.939-.285.22-.046.393-.094.44-.123.192-.118.52-.561.347-.47a.2.2 0 0 0-.057.046c-.007.013-.028.023-.046.023-.113 0 .085-.225.531-.605.25-.213.624-.553.833-.757.406-.398.479-.459.702-.593.08-.047.236-.17.349-.272.173-.157.24-.2.43-.283.54-.234.628-.325.896-.919.381-.842.429-.91 1.029-1.47.566-.528.825-.84 1.083-1.307.07-.128.19-.329.267-.447.163-.251.22-.36.295-.558a.6.6 0 0 1 .085-.169c.031-.024.194-.46.276-.738.074-.249.177-.722.25-1.145.047-.279.102-.497.19-.765.091-.279.134-.455.167-.684.05-.347.109-.635.191-.94.056-.206.056-.206-.012-.46a1.6 1.6 0 0 1-.068-.53c-.001-.312-.026-.4-.191-.67-.088-.143-.088-.144-.095-.071-.009.093-.061.095-.08.003-.032-.162-.009-.385.097-.921.19-.956.193-.825-.054-1.748-.318-1.19-.576-1.93-.674-1.93-.017 0-.03-.008-.03-.018 0-.011-.05-.086-.113-.166-.132-.17-.15-.243-.112-.47.022-.14.02-.179-.01-.263-.071-.195-.08-.238-.121-.616-.048-.432-.037-.404-.273-.727-.121-.165-.175-.259-.175-.303q0-.062-.07-.129a4 4 0 0 1-.277-.381 5 5 0 0 0-.369-.492c-.18-.196-.45-.59-.458-.669-.006-.058-.505-.802-.713-1.064q-.19-.238-.19-.383c0-.136-.185-.338-.698-.764-.336-.279-.34-.282-.352-.22-.017.1-.054.088-.144-.05a24 24 0 0 0-.347-.497l-.371-.528c-.458-.67-.574-.78-.824-.797-.235-.014-1.207-.31-1.41-.43a2 2 0 0 1-.237-.181 11 11 0 0 0-.46-.37 8 8 0 0 1-.548-.46c-.26-.246-.452-.355-1.327-.75C20.69.62 20.735.63 19.881.571c-.765-.052-.902-.075-1.148-.189-.332-.154-1.05-.231-1.189-.128a.47.47 0 0 1-.372.072 3 3 0 0 0-.149-.022c-.009 0-.031-.03-.05-.065-.052-.1-.063-.102-1.006-.103-.893 0-.893 0-1.172-.065-.408-.095-.488-.095-.704-.005m-7.45 5.369c.22.215.88.905 1.062 1.11.085.096.276.28.424.408.148.13.36.318.47.42.29.267.66.59 1.1.962.213.179.484.432.604.563a14 14 0 0 0 1.278 1.233c.54.461 2.34 2.231 2.58 2.534.177.226.268.312.373.356.046.02.084.046.084.059s.025.056.056.096c.03.04.056.098.057.127q.002.156.155.23c.279.133-.091.385-.402.274-.129-.046-.516-.337-.705-.53a15 15 0 0 0-1.428-1.265c-.433-.328-.572-.457-1.2-1.113-.328-.343-.841-.876-1.14-1.183a12 12 0 0 1-.7-.77 4 4 0 0 0-.48-.508 6 6 0 0 1-.37-.357 8 8 0 0 0-.311-.342 3 3 0 0 1-.323-.39c-.144-.274-.245-.44-.33-.54q-.153-.184-.124-.279c.02-.062-.04-.138-.186-.238-.22-.15-.385-.34-.385-.446 0-.082-.017-.107-.212-.312-.234-.246-.237-.25-.157-.25.04 0 .103.045.21.15m1.84.094c.057.04.159.084.241.103.264.062.81.422 1.372.905.16.137.44.376.625.53.184.154.335.287.335.297 0 .027.565.455.982.744.21.145.45.32.536.391.087.07.248.186.358.257.221.142.304.208.75.603 1.064.944 1.617 1.4 1.908 1.574.243.145.463.314.949.727.422.358.914.755 1.054.85.053.036.196.137.32.225.122.088.388.252.591.366.4.223.412.23.692.436.105.077.27.189.369.249s.229.148.29.195.187.12.28.162a1 1 0 0 1 .29.197c.106.105.177.145.536.307.588.266.674.329.874.635.143.22.144.494.001.4-.339-.22-.62-.256-.797-.1q-.217.19-.595-.037a1 1 0 0 0-.232-.11c-.497-.075-.57-.067-.915.104-.217.108-.504.033-.832-.216a.8.8 0 0 0-.193-.124c-.017 0-.133-.095-.257-.21a6 6 0 0 0-.31-.274c-.129-.095-.495-.41-.865-.743a59 59 0 0 0-.76-.67 24 24 0 0 1-1.183-1.073 28 28 0 0 0-1.172-1.073 35 35 0 0 1-.69-.624 33 33 0 0 0-.693-.625c-.505-.441-.734-.664-.95-.928a4 4 0 0 0-.367-.387c-.1-.09-.279-.28-.399-.422-.12-.143-.308-.356-.418-.474a2 2 0 0 1-.254-.318c-.086-.167-.247-.347-.472-.528a1.4 1.4 0 0 1-.317-.327q-.105-.157-.608-.644c-.544-.526-.584-.717-.074-.35M6 7.256c.303.328.63.716.776.92.119.167.253.318.416.47.133.123.448.43.7.683.335.334.527.507.706.634.428.304 1.033.876 1.548 1.463.167.19.38.427.473.525.16.169.517.671.622.875.08.16.152.947.074.834-.14-.206-1.14-1.22-1.82-1.85a6 6 0 0 1-.565-.588 5 5 0 0 0-.42-.45c-.279-.252-.338-.32-.512-.59a5 5 0 0 0-.317-.43 7 7 0 0 1-.302-.394 6 6 0 0 0-.249-.329c-.155-.186-.254-.345-.284-.454a.25.25 0 0 0-.114-.153c-.15-.104-.24-.224-.366-.486a1.5 1.5 0 0 0-.256-.399 1.2 1.2 0 0 1-.137-.164.3.3 0 0 0-.044-.072c-.096-.122-.035-.16.07-.045m.479 1.75c.107.051.246.214.377.442.28.49.862 1.267 1.503 2.006.11.126.3.365.422.53.123.166.32.413.44.548.143.161.275.342.385.527.092.155.306.468.475.695.17.228.42.601.56.83.454.753 1.076 1.544 1.81 2.303.154.16.487.531.74.826.764.89.976 1.094 1.313 1.262.49.245.691.405.789.628.03.069.066.132.08.14q.078.05-.096.148-.185.105-.127.163c.014.014.073-.028.168-.12.15-.144.2-.162.139-.051a2 2 0 0 0-.112.234c-.06.153-.104.165-.557.157-.538-.009-.643-.073-.993-.607a3.5 3.5 0 0 0-.285-.38 1.2 1.2 0 0 1-.167-.224 1.7 1.7 0 0 0-.223-.278c-.095-.099-.328-.37-.519-.603a36 36 0 0 0-.866-1.005c-.804-.898-1.225-1.413-1.72-2.107a7 7 0 0 0-.481-.605c-.17-.18-.212-.24-.241-.34-.027-.092-.074-.163-.204-.31a3.1 3.1 0 0 1-.494-.725 3.2 3.2 0 0 0-.572-.83c-.133-.126-.171-.176-.184-.245-.02-.107-.074-.198-.237-.399a4 4 0 0 1-.412-.637 4.7 4.7 0 0 0-.589-.86c-.188-.196-.418-.489-.491-.625-.144-.268.114-.609.369-.488m10.154.503c.027.014.104.082.172.15.109.113.807.673.837.673.007 0 .189.135.404.3.216.167.47.35.564.409s.312.2.484.316c1.062.715 1.385.929 1.976 1.309.426.273.754.503.927.647.147.124.357.288.466.365.39.277 1.143.974 1.678 1.553.151.164.364.364.49.461.739.57 1.652 1.83 1.9 2.62.105.338.235 1.176.181 1.176-.026 0-.132-.208-.238-.47-.221-.548-.522-.952-1.068-1.434-.407-.36-.49-.44-.662-.635a4 4 0 0 0-.349-.342 2.1 2.1 0 0 1-.44-.469 5 5 0 0 0-.317-.368c-.226-.233-.335-.378-.335-.445 0-.21-.7-.816-1.319-1.14a1.8 1.8 0 0 1-.477-.326 5 5 0 0 0-.369-.312 14 14 0 0 1-.508-.415 9 9 0 0 0-.599-.468 7 7 0 0 1-.44-.332 11 11 0 0 0-.386-.307 3 3 0 0 1-.312-.264c-.05-.052-.32-.309-.603-.57-.283-.262-.645-.598-.804-.748-.16-.149-.35-.317-.425-.373-.31-.24-.412-.328-.477-.42-.105-.145-.082-.21.05-.141M5.938 11.086c.05.058.272.287.494.508.292.29.48.501.677.76.15.196.367.46.482.585s.242.284.281.353.122.182.183.252c.062.07.203.262.314.428.151.226.263.36.442.536.132.13.26.275.285.324.078.156.506.662.754.893.132.122.332.333.445.469.224.268.718.758 1.14 1.13.154.136.355.343.476.49.114.141.26.311.324.379.16.17.281.342.307.435.031.114.186.283.31.339.128.057.156.102.156.248 0 .351-.577.28-1.035-.126-.566-.503-.628-.585-.917-1.207-.26-.562-.374-.726-.783-1.13-.34-.334-.38-.385-.898-1.116-.433-.612-.507-.702-.958-1.172-.507-.53-.612-.663-.767-.97a2 2 0 0 0-.328-.471 4 4 0 0 1-.339-.458 2.5 2.5 0 0 0-.272-.368 2 2 0 0 1-.212-.257 2 2 0 0 0-.17-.223 4 4 0 0 1-.227-.313 1.2 1.2 0 0 0-.21-.255c-.142-.105-.182-.17-.105-.17.045 0 .084.028.15.107m6.51 2.784c.033.018.1.08.149.14.048.059.143.168.211.242.069.074.249.3.4.502.349.466.53.683.84 1.006.135.142.329.36.429.484.1.123.27.325.378.447s.256.307.33.41c.368.523.52.697.833.964.086.073.088.09.02.135-.049.032-.053.05-.052.22.003.459-.26.55-.804.283-.336-.165-.53-.425-.868-1.16a6 6 0 0 0-.283-.548c-.068-.109-.18-.293-.248-.41a9 9 0 0 0-.518-.703c-.712-.89-.956-1.273-1.027-1.609-.08-.377-.008-.515.21-.403m3.128.655q.077.04.146.161c.124.225.742.738.888.738.153 0 .239.143.24.396 0 .117 0 .117.217.118.287 0 .4.183.247.399-.321.453-.543.582-.975.564-.104-.005-.384-.279-.573-.561a8 8 0 0 0-.436-.559c-.483-.568-.63-.881-.474-1.016.332-.288.508-.347.72-.24m-9.163.681c.025.028.076.096.114.15.037.056.206.257.374.447s.427.507.575.704c.375.496.48.622.843 1.017.174.19.423.476.552.636.354.437.807.925 1.63 1.753a454 454 0 0 0 2.661 2.666c.25.247.561.57.691.717s.312.348.406.447c.094.098.245.279.335.402.246.337.353.455 1.082 1.197.369.376.746.762.839.86.31.326.582.467.882.46.169-.004.28.004.356.027.087.026.117.027.143.006.065-.054.504-.035.568.025.131.123.26.548.188.62-.01.01-.08-.005-.156-.034a54 54 0 0 0-.731-.252c-1.12-.38-1.373-.496-1.654-.763a1.8 1.8 0 0 0-.335-.257 6 6 0 0 1-.738-.462c-.327-.26-.775-.669-.887-.81a7 7 0 0 0-.37-.405 2.7 2.7 0 0 1-.35-.424c-.203-.343-.739-.93-1.163-1.277-.11-.09-.26-.242-.334-.337a3 3 0 0 0-.35-.361 5 5 0 0 1-.418-.429c-.11-.131-.322-.375-.47-.542s-.296-.34-.33-.386a1.7 1.7 0 0 0-.236-.216 4.4 4.4 0 0 1-.802-.868 7 7 0 0 0-.41-.527c-.313-.358-.394-.462-.41-.529a2 2 0 0 0-.169-.296 5 5 0 0 1-.217-.368 6 6 0 0 0-.58-.85 8 8 0 0 1-.597-.876c-.048-.08-.18-.24-.292-.357-.26-.268-.322-.36-.322-.472 0-.099.018-.107.082-.036m15.545 1.002c.303.053.372.077.574.196.086.05.222.113.302.139.291.095.438.19.607.392.19.228.344.347.539.418.19.07.479.273.613.434.192.23.616.652.868.866.286.242.355.33.39.5.038.195.083.322.245.704.207.489.215.554.074.665-.135.106-.14.457-.012.757.11.256.107.244.139.9.013.283.038.642.056.798.045.392.04.54-.021.817-.03.131-.06.294-.07.362-.063.48-.54 1.258-.949 1.543-.055.038-.18.148-.279.244a4 4 0 0 1-.456.358c-.41.273-.57.436-.727.734-.14.27-.174.3-.444.414a2 2 0 0 0-.299.163c-.297.204-.24.194-1.212.202-.973.008-.968.009-1.151-.152a1.1 1.1 0 0 0-.297-.18c-.347-.143-.564-.295-.941-.658-.489-.47-.81-.616-1.441-.653-.454-.027-.579-.095-.966-.524a2.3 2.3 0 0 1-.465-.725c-.161-.409-.308-.662-.476-.82-.06-.058-.069-.081-.07-.19a.5.5 0 0 0-.032-.18q-.033-.056-.033-.275c0-.193-.01-.24-.076-.413a1.6 1.6 0 0 1-.09-.335c-.014-.155-.027-.185-.143-.357-.09-.132-.128-.405-.126-.899 0-.305.026-.351.381-.723.362-.377.383-.42.41-.841.024-.368.033-.408.258-1.095.09-.278.176-.573.189-.655.032-.205.109-.303.234-.303.11 0 .278-.061.407-.148.08-.054.15-.098.153-.098s.081-.05.172-.11c.264-.174.522-.303.803-.402.144-.05.343-.127.442-.17.28-.12.422-.148.827-.165.436-.018.461-.027.813-.29.426-.32.63-.36 1.28-.245M10.322 17.88c.065.08.2.258.299.397.416.581 1.313 1.432 2.108 2 .52.372 1.377 1.142 1.522 1.37.09.14.133.156.277.105.14-.05.201-.015.295.17.366.727-.213 1.304-.65.648-.184-.277-.339-.464-.676-.816a16 16 0 0 1-.8-.907 2 2 0 0 1-.146-.25c-.08-.156-.12-.207-.285-.35a5 5 0 0 1-.382-.385 21 21 0 0 0-.891-.955c-.125-.12-.159-.17-.198-.285-.04-.118-.08-.176-.273-.383-.244-.261-.428-.526-.358-.512a.6.6 0 0 1 .158.152" clip-rule="evenodd" /></svg>