<svg xmlns="http://www.w3.org/2000/svg" width="33" height="33" fill="none"><path fill="#000" fill-rule="evenodd" d="M14.41.233c-.197.069-.427.175-.472.218a.1.1 0 0 1-.056.028c-.053 0-.168.122-.186.199-.026.107-.34.277-.42.226-.041-.027-.085-.023-.34.029-.187.037-.325.054-.378.045-.084-.013-.395.026-.416.053a3 3 0 0 1-.354.076c-.845.153-1.163.216-1.183.236a.4.4 0 0 1-.167.02c-.143 0-.217.016-.558.118q-.26.078-.26.165c0 .036.076.024.182-.028.07-.035.1-.01.044.038-.178.154-.462.314-.478.27-.023-.058-.151-.036-.273.046a1 1 0 0 1-.13.077c-.008 0-.11.067-.227.149-.672.467-.691.478-1.027.572-.368.104-.973.457-1.213.71-.104.11-.463.573-.463.598 0 .062-.073.092-.111.045-.065-.08-.302.188-.464.526-.354.74-.866 1.372-1.406 1.736-.06.04-.135.1-.166.131a1 1 0 0 1-.122.102c-.06.04-.198.176-.286.28-.067.08-.166.346-.234.632a4 4 0 0 1-.086.327c-.01.024-.036.116-.057.205-.02.088-.047.16-.059.16s-.015-.028-.007-.066c.024-.105-.025-.08-.09.047a3 3 0 0 1-.177.287c-.066.096-.12.182-.12.192a1 1 0 0 1-.106.15c-.058.072-.14.181-.18.242-.042.06-.082.115-.09.122a3 3 0 0 0-.243.375c0 .012-.01.023-.022.023s-.022.015-.022.034c0 .018-.014.039-.031.045-.048.019-.092.162-.192.629a6 6 0 0 1-.12.498c-.016.036-.071.205-.123.376-.128.425-.126.42-.164.387-.075-.062-.137.328-.156.984-.018.616-.035.727-.142.938s-.1.18-.179.664c-.11.666-.238 1.087-.436 1.423-.228.39-.257.81-.107 1.588.121.634.288 1.322.356 1.472.017.036.051.12.076.184.025.065.114.22.197.344.208.31.22.333.16.318-.048-.013-.064.023-.026.062.088.092.109.384.043.622-.062.228-.026.54.06.508.019-.008.03.045.04.181.028.352.06.628.08.665.01.02.04.136.067.257.053.244.184.692.232.797.046.097.298.8.298.828 0 .013.009.024.019.024s.031.042.046.093c.044.146.225.548.247.548.011 0 .02.01.02.021 0 .025.223.397.298.498.028.037.075.112.105.167s.124.204.21.332c.084.128.173.267.196.31a1 1 0 0 0 .056.088c.007.006.066.09.131.188.117.175.393.47.517.554a.7.7 0 0 1 .11.093c.024.028.058.05.074.05s.029.01.029.023.022.031.05.042c.158.063.671.545.814.765.142.218.35.444.689.749a100.391 100.391 0 0 0 .657.6l.234.212c.06.056.27.24.465.407.195.168.376.328.403.356.06.061.417.342.435.342.014 0 .236.153.257.177.023.025.424.221.453.221.017 0 .034.009.038.02.018.047.4.14.745.18.552.066.59.082 1.107.454q.076.054.163.054c.092 0 .221.063.459.222.13.087.427.243.463.243.012 0 .075.023.14.053.063.029.19.074.282.1.267.078.58.18.653.21l.22.102c.114.052.217.08.38.1.123.016.313.059.42.096.827.282 1.504.328 1.941.131.152-.068.152-.068.32-.035.172.033.905-.028 1.132-.093.075-.022.917-.125 1.815-.223.237-.026.451-.055.475-.065a1 1 0 0 1 .188-.034c.181-.017.542-.08 1.038-.178.212-.042.428-.076.48-.076s.101-.01.109-.022.043-.022.08-.022c.095 0 .342-.114.635-.292.139-.084.298-.176.354-.205a1 1 0 0 0 .156-.098.2.2 0 0 1 .072-.047c.01 0 .09-.045.179-.1.173-.107.19-.111.293-.074.06.022.086.016.228-.056.229-.115.526-.204.967-.29.26-.05.35-.077.454-.137.113-.065.22-.159.221-.193 0-.013.045-.071.1-.13.137-.145.125-.268-.013-.136-.035.034-.07.056-.077.05-.02-.02.105-.256.147-.276.021-.01.097-.07.168-.134.07-.064.248-.218.394-.342s.45-.406.675-.626c.375-.369.791-.697.881-.697a.7.7 0 0 0 .144-.139c.126-.143.153-.16.557-.35s.563-.34.694-.654c.284-.68.576-1.177.833-1.413.172-.158.889-.87.928-.922.225-.295.293-.392.39-.56.063-.11.131-.23.15-.266a.3.3 0 0 1 .052-.073q.016-.009.017-.03c0-.01.06-.11.132-.218.16-.24.185-.287.258-.491.032-.089.077-.204.1-.256.168-.373.362-1.106.484-1.83a4 4 0 0 1 .131-.575c.114-.29.198-.62.234-.918.02-.165.044-.309.054-.321a.4.4 0 0 0 .032-.11c.009-.05.047-.221.085-.382.069-.293.069-.293.005-.542a1.4 1.4 0 0 1-.06-.47c.005-.218-.029-.476-.062-.476-.01 0-.028-.032-.042-.07-.068-.197-.223-.377-.223-.26 0 .13-.054.056-.068-.092-.012-.138.018-.44.046-.463.008-.006.037-.136.065-.288.145-.786.158-.875.144-.995-.018-.164-.19-.873-.212-.882-.01-.004-.019-.021-.019-.039 0-.046-.26-.996-.286-1.042a2 2 0 0 1-.07-.195c-.057-.185-.216-.55-.244-.56-.01-.004-.02-.02-.02-.036a.8.8 0 0 0-.11-.177c-.13-.177-.145-.24-.114-.473.025-.183.012-.274-.051-.37-.038-.058-.063-.212-.102-.63-.03-.32-.018-.291-.257-.61-.135-.18-.184-.262-.184-.311a.17.17 0 0 0-.058-.12 2 2 0 0 1-.181-.241c-.222-.335-.373-.54-.488-.665a1 1 0 0 1-.113-.137 1 1 0 0 0-.096-.144 4 4 0 0 1-.17-.25c-.154-.247-.45-.697-.474-.718a2 2 0 0 1-.126-.178 3 3 0 0 0-.194-.262.7.7 0 0 1-.188-.365c-.03-.192-.156-.334-.711-.799-.355-.297-.336-.286-.365-.21-.031.082-.042.074-.221-.19-.091-.134-.237-.34-.323-.459a23 23 0 0 1-.293-.413c-.217-.315-.311-.442-.335-.45-.013-.004-.023-.02-.023-.037s-.007-.033-.017-.037a1 1 0 0 1-.1-.121c-.097-.135-.11-.141-.325-.155a2.2 2.2 0 0 1-.443-.096l-.573-.178c-.357-.11-.506-.198-.787-.462a2 2 0 0 0-.188-.142 2 2 0 0 1-.195-.147.4.4 0 0 0-.085-.067c-.023 0-.35-.286-.48-.419-.116-.118-.18-.158-.598-.364-1.165-.576-1.098-.554-1.834-.6-.307-.019-.608-.044-.669-.055a8 8 0 0 0-.284-.043 1.5 1.5 0 0 1-.32-.088A3 3 0 0 0 18.8.49a1 1 0 0 1-.161-.058c-.11-.059-.761-.052-.833.01-.083.069-.187.091-.344.073-.155-.019-.178-.029-.207-.093-.047-.103-.09-.107-1.043-.109-.95-.002-.933 0-1.428-.121-.13-.033-.18-.027-.376.041m.48 3.92c.312.063.35.085.35.208 0 .078.018.124.095.238.054.077.137.226.187.33s.105.205.124.224.069.117.11.219c.15.369.169.4.308.533.076.072.16.146.189.166.19.128.415.653.51 1.189.049.271.093.445.143.553.028.06.09.22.135.354.047.134.093.253.104.264s.019.04.019.061c0 .022.008.04.019.04s.036.045.057.1c.12.312.586.23.588-.106 0-.051.01-.134.022-.182.012-.049.032-.208.044-.354.024-.285.113-.702.153-.715.013-.004.024-.022.024-.039 0-.061.136-.253.19-.266.247-.062.448.54.33.987-.032.122-.036.2-.022.53.02.51.02.508.281.59.4.124.492.274.497.804.007.713.213 1.055.583.966.082-.02.162-.036.178-.036.074 0 .596-.6.596-.685 0-.011.025-.04.055-.064s.055-.053.055-.066c0-.012.008-.026.017-.03a.5.5 0 0 0 .072-.127c.08-.172.268-.367.335-.347.029.009.089.021.134.028.173.027.237.332.1.477a.5.5 0 0 0-.06.093 1.4 1.4 0 0 1-.17.206 3 3 0 0 0-.381.548.1.1 0 0 1-.033.038c-.047.03-.045.398.003.506l.106.248c.061.148.138.237.205.237a.8.8 0 0 1 .175.079c.188.105.231.101.73-.067.124-.041.269-.106.32-.144l.206-.147c.061-.043.206-.15.321-.236l.302-.226c.138-.103.694-.711.794-.869a.6.6 0 0 1 .104-.138c.01 0 .017-.015.017-.033s.018-.042.04-.053a.3.3 0 0 0 .082-.1c.024-.044.05-.08.06-.08s.017-.013.017-.028.105-.158.233-.316a20 20 0 0 0 .518-.665c.046-.058.286.018.368.117.076.092.076.092-.037.31a4 4 0 0 1-.243.427 5 5 0 0 0-.152.255c-.04.073-.12.202-.176.287a4 4 0 0 0-.134.217 1.3 1.3 0 0 1-.145.188c-.533.593-.615.792-.519 1.259.057.276.423.649.637.649.024 0 .1.03.17.066.2.105.695.075.884-.054.048-.032.154-.078.237-.104a.9.9 0 0 0 .245-.12.4.4 0 0 1 .12-.076.6.6 0 0 0 .134-.075c.06-.041.16-.101.223-.133a.4.4 0 0 0 .115-.075c.002-.085.312-.113.5-.045.288.103.2 1.143-.126 1.512-.28.316-.674.665-.927.82a2.8 2.8 0 0 0-.48.367c-.104.097-.525.328-.598.328a.7.7 0 0 0-.223.104 1 1 0 0 1-.093.066c-.059.034-.332.534-.332.606a.02.02 0 0 1-.02.02c-.01 0-.044.063-.075.139-.03.076-.117.267-.193.424a5 5 0 0 0-.223.553 6 6 0 0 1-.106.311c-.019.041-.177.542-.227.72-.022.08-.034.11-.093.244-.018.043-.044.14-.056.215a1 1 0 0 1-.034.158c-.007.01-.048.143-.091.293s-.098.33-.122.4c-.038.114-.043.19-.043.69 0 .621-.011.584.197.644.03.009.074.037.1.064a1 1 0 0 0 .146.107c.437.255.78 1.027.52 1.172-.148.083-.233.523-.156.817.031.12.138.373.168.395a5.808 5.808 0 0 0 .322.512c.114.166.207.311.207.322s.02.04.043.066c.113.121.267.53.267.71 0 .318-.24.464-.84.513-.823.066-1.13.19-1.35.544-.107.171-.184.791-.121.965.052.141.05.153-.028.198-.24.136-.814.142-1.101.012-.274-.124-.561-.273-.602-.312a.5.5 0 0 0-.11-.08 5 5 0 0 1-.29-.182c-.734-.486-1.298-.68-1.602-.55-.1.043-.261.201-.261.258 0 .018-.009.033-.019.033-.164 0-.16.958.005 1.224.017.026.058.12.09.21.034.088.118.248.187.354.4.609.438.745.261.928-.144.15-.586.195-1.03.106-.236-.047-.193-.015-.724-.53a4 4 0 0 0-.453-.386 6 6 0 0 1-.514-.44c-.182-.174-.344-.316-.36-.316a.05.05 0 0 1-.038-.027.5.5 0 0 0-.14-.104 17 17 0 0 1-.402-.25 3 3 0 0 0-.337-.198c-.036-.012-.066-.03-.066-.039 0-.133-1.338-.127-1.728.008a7 7 0 0 1-.805.223 4 4 0 0 0-.31.08c-.092.038-.324.064-.741.084-.365.018-.463.03-.63.08l-.288.083a.3.3 0 0 0-.101.041c-.007.01-.116.03-.244.042-.127.013-.327.034-.445.048-.428.049-.961-.015-1.307-.156a5 5 0 0 0-.373-.135c-.59-.18-.542-.986.071-1.193.81-.274 1.08-1.108.42-1.3a2 2 0 0 1-.168-.054 5 5 0 0 0-.453-.075c-1.107-.152-1.18-.183-1.508-.633-.187-.258-.18-.344.047-.564.282-.273.356-.337.424-.37.41-.194.46-.86.076-.989a.7.7 0 0 1-.195-.097c-.085-.078-.201-.124-.398-.157-.1-.016-.209-.04-.24-.052a3 3 0 0 0-.442-.048 3 3 0 0 1-.424-.046.3.3 0 0 0-.102-.02.6.6 0 0 1-.215-.1.9.9 0 0 0-.23-.112c-.149-.025-.215-.055-.289-.131a.5.5 0 0 0-.146-.101c-.155-.051-.25-.3-.164-.43a1.2 1.2 0 0 0 .142-.261c.066-.151.107-.174.387-.214.102-.015.21-.036.241-.048s.192-.03.357-.04c.395-.026.366-.006.37-.25 0-.113.017-.265.037-.338.279-1.056.299-1.418.138-2.478-.03-.194-.063-.443-.075-.553-.027-.257-.076-.427-.251-.874-.08-.2-.172-.444-.206-.54-.063-.177-.063-.177-.575-.687-.493-.492-.605-.62-.683-.786a.8.8 0 0 0-.108-.156c-.086-.093-.116-.155-.183-.377a2 2 0 0 0-.11-.286c-.076-.15-.08-.28-.01-.338.056-.045.108-.04.397.04.103.028.272.067.376.086q.188.035.332.113c.079.043.218.113.31.156.09.043.308.149.481.236.872.436.97.015.193-.835l-.26-.29c-.22-.25-.29-.325-.371-.396a3 3 0 0 1-.37-.415 1.7 1.7 0 0 0-.232-.239c-.248-.202-.321-.402-.194-.53.108-.107.656.172.903.46.24.279.55.502.79.569.132.036.213.066.276.101l.208.11c.096.051.24.137.32.192.213.146.5.283.723.346.24.067.653.211.69.241.187.148.584-.03.69-.31.092-.24.02-1.041-.109-1.21a1.3 1.3 0 0 1-.065-.2 5 5 0 0 0-.232-.663 3 3 0 0 1-.11-.255 2.8 2.8 0 0 0-.274-.534 5 5 0 0 1-.135-.236.7.7 0 0 0-.073-.118 2 2 0 0 1-.108-.152 4 4 0 0 0-.217-.285c-.276-.33-.543-.8-.591-1.039-.008-.038-.024-.07-.035-.07s-.017-.042-.014-.094c.016-.212.396-.113.704.183.067.064.201.186.299.271s.185.17.196.188c.011.019.05.065.086.103s.09.1.12.14c.101.13.303.147.416.034.052-.053.075-.148.039-.164-.01-.005-.07-.07-.134-.145a.9.9 0 0 0-.22-.188Q8.337 7.44 8.21 7.1c-.154-.41-.113-.536.143-.44.046.018.109.037.14.044.093.022.478.326.61.484.142.168.118.159.495.191 1.173.101 1.968.011 2.626-.298.064-.03.213-.084.332-.121s.247-.08.284-.097a1 1 0 0 1 .138-.045c.04-.008.072-.023.072-.032s.047-.04.105-.068c.24-.118.22-.048.234-.769.007-.35.023-.681.036-.736a3 3 0 0 0 .044-.265c.062-.498.097-.571.334-.696.278-.146.68-.183 1.088-.1m4.168.906c.247.12.399.667.255.919a.7.7 0 0 0-.047.131c-.045.176-.247.387-.37.387-.028 0-.05.01-.05.022 0 .079-.295-.026-.388-.137-.462-.548.018-1.604.6-1.322m7.518.797c.096.084.128.181.13.383 0 .16-.042.412-.069.412-.008 0-.033.045-.056.1-.106.259-.446.485-.548.365-.278-.328.239-1.527.543-1.26M22.275 6.94c.322.074.425.325.288.702-.097.266-.327.73-.405.82a.3.3 0 0 0-.048.106c-.06.283-.407.403-.688.238-.202-.118-.226-.268-.118-.75l.08-.37c.006-.034.018-.061.027-.061s.029-.043.044-.094c.132-.441.455-.674.82-.59m-16.56.62c.012 0 .091-.007.177-.015.33-.03.644.172.855.547.027.047.057.086.067.086s.018.014.018.031.074.16.164.318c.157.275.411.796.411.844 0 .013.01.024.022.024s.028.027.037.06c.008.034.043.124.077.2.11.245.142.453.087.556a.4.4 0 0 0-.033.12c-.015.122-.118.186-.153.095-.007-.02-.059-.034-.144-.04-.184-.013-.264-.078-.343-.278-.042-.108-.076-.161-.115-.179-.2-.09-.386-.32-.386-.474 0-.092-.507-.553-.779-.708-.654-.374-.81-.706-.499-1.061.104-.119.197-.153.37-.138zm4.347.623c0 .018.021.051.047.074.026.024.133.142.238.263.724.84.887.955 1.015.726.124-.223.27-.563.27-.63 0-.02.01-.043.023-.051.171-.106-.13-.365-.388-.333a1.6 1.6 0 0 1-.31-.011 6 6 0 0 0-.508-.031 2.3 2.3 0 0 1-.348-.022q-.04-.018-.039.015m3.132.602c-.132.128-.26.24-.287.247-.084.027-.787.775-.787.838 0 .009-.037.067-.083.128-.083.114.036.292.277.417a.3.3 0 0 1 .086.064c.103.132.922.024 1.005-.133.167-.318.177-.467.112-1.548-.019-.303-.025-.303-.323-.013m1.746 3.484c-.402.067-.892.365-1.01.614a.5.5 0 0 1-.098.155.05.05 0 0 0-.031.043.2.2 0 0 1-.032.081c-.047.073-.057 1.009-.011 1.133.047.13.044.8-.004.952-.07.218-.178.475-.198.475-.011 0-.02.009-.02.019s-.053.074-.117.141l-.293.312c-.097.105-.189.19-.203.19-.015.002-.035.015-.045.032-.092.157-.46.528-.659.667-.418.29-.667.53-.774.741a.4.4 0 0 1-.055.089c-.18.133-.257 1.59-.106 1.997.161.432.252.49.726.465.2-.01.28-.006.365.022.06.019.154.042.21.05.268.04.487.307.57.692.02.093.044.173.053.177s.018.026.018.049c0 .022.023.109.053.191.029.083.084.25.123.372.19.595.666.477 1.115-.276.16-.269.236-.31.576-.31.29 0 .33.013.422.132.024.03.076.088.116.126s.073.08.073.092.008.026.018.03c.07.027.18.462.18.704 0 .173.038.39.074.435.138.168.219.206.436.206.121 0 .198-.032.26-.11.05-.062.193-.376.217-.477.03-.124.099-.231.184-.285a.8.8 0 0 0 .155-.142.4.4 0 0 1 .174-.127c.159-.058.355-.139.504-.207.074-.034.179-.07.233-.078.132-.022.153-.044.153-.16 0-.108.04-.293.07-.326a.5.5 0 0 0 .02-.166c.001-.497.052-.683.198-.725.055-.016.144-.05.199-.077.08-.04.154-.051.378-.06.366-.017.369-.02.506-.486.12-.406.044-.755-.163-.755a.4.4 0 0 1-.126-.066c-.086-.059-.116-.066-.264-.066-.104 0-.178-.011-.195-.028-.02-.02-.187-.031-.615-.04-.97-.017-1.529-.876-.797-1.224.156-.074.8-.066.846.01.017.028.806.026.806-.002 0-.012.021-.022.047-.022.166 0 .351-.323.351-.612 0-.04.01-.077.023-.085.027-.017.03-.557.002-.573-.01-.007-.025-.053-.033-.104-.039-.238-.383-.573-.59-.573-.053 0-.404-.108-.418-.128a.4.4 0 0 0-.112-.056c-.45-.172-.542-.442-.503-1.486.031-.846.012-.937-.218-1.052a3 3 0 0 1-.164-.086c-.149-.095-.165-.097-.907-.112-.677-.013-.725-.017-.819-.062a.5.5 0 0 0-.14-.049c-.034 0-.039-.011-.026-.06l.019-.082c.013-.07-.44-.107-.727-.059m-.85 4.214a.6.6 0 0 1 .324.183c.082.084.09.11.101.35.013.268.06.319.312.336.215.014.264-.014.282-.159a1 1 0 0 1 .039-.187.6.6 0 0 0 .025-.138c0-.06.05-.106.117-.106.045 0 .098.123.128.299q.085.496.339-.063c.11-.242.157-.234.158.03 0 .204.024.368.056.388.011.007.02.04.02.072 0 .111.153.31.346.452.45.33.61.95.193.748-.545-.264-.608-.276-.858-.153-.143.07-.159.084-.227.217-.04.078-.095.168-.124.199a3 3 0 0 0-.143.18c-.338.45-.57.357-.402-.16.228-.7-.033-1.196-.54-1.023-.157.053-.744.037-.866-.024-.175-.088-.209-.175-.21-.537 0-.277-.005-.315-.037-.315-.096 0 .043-.432.16-.497a.2.2 0 0 0 .053-.037c.058-.075.527-.109.755-.055m8.926.274c-.059.057-.162.18-.229.27a5 5 0 0 1-.198.252 1 1 0 0 0-.13.21l-.096.213a5 5 0 0 0-.307.902c-.028.118-.034.531-.008.556a.7.7 0 0 1 .042.172c.038.228.08.218.385-.09.285-.287.428-.61.54-1.22.03-.164.075-.392.1-.508.046-.218.066-.863.026-.863a.6.6 0 0 0-.125.106m-14.761.276c.007.027.023.134.037.238s.034.208.044.232.041.149.067.277c.062.298.091.383.226.652.06.122.133.282.16.356.124.326.166.368.264.252.145-.173.113-.59-.08-1.044-.025-.058-.054-.106-.064-.106s-.02-.01-.02-.021c0-.052-.34-.585-.51-.799-.077-.098-.143-.117-.124-.037m-1.36.236c-.09.073-.155 1.66-.076 1.828.019.038.049.127.067.198.042.16.026.15.18.113.072-.017.17-.038.217-.046.086-.014.086-.014.068-.151a4 4 0 0 1-.023-.38c-.007-.428-.051-1.213-.074-1.328a2 2 0 0 1-.023-.139c-.005-.117-.23-.18-.336-.095m18.299 4.34a1 1 0 0 1 .221.097c.09.054.203.093.414.141.813.187 1.145.923.539 1.194-.332.149-1.46-.389-1.46-.695a.4.4 0 0 0-.084-.108c-.306-.323-.067-.73.37-.629" clip-rule="evenodd"/></svg>