<?xml version="1.0" encoding="UTF-8"?>
<svg xmlns="http://www.w3.org/2000/svg" xmlns:xlink="http://www.w3.org/1999/xlink" width="1024px" height="1024px" viewBox="0 0 1024 1024" version="1.1">
<g id="surface1">
<path style=" stroke:none;fill-rule:nonzero;fill:rgb(0%,0%,0%);fill-opacity:1;" d="M 874.75 760.230469 L 838.128906 760.230469 L 838.128906 833.472656 C 838.128906 873.929688 805.328125 906.722656 764.878906 906.722656 L 142.257812 906.722656 C 101.808594 906.722656 69.015625 873.929688 69.015625 833.472656 L 69.015625 320.734375 C 69.015625 280.28125 101.808594 247.488281 142.257812 247.488281 L 178.882812 247.488281 L 178.882812 174.234375 C 178.882812 133.78125 211.675781 100.988281 252.136719 100.988281 L 874.746094 100.988281 C 915.207031 100.988281 948 133.777344 948 174.234375 L 948 686.976562 C 948 727.433594 915.207031 760.230469 874.746094 760.230469 Z M 142.257812 284.109375 C 122.03125 284.109375 105.636719 300.507812 105.636719 320.734375 L 105.636719 833.472656 C 105.636719 853.699219 122.03125 870.101562 142.257812 870.101562 L 764.878906 870.101562 C 785.101562 870.101562 801.5 853.699219 801.5 833.472656 L 801.5 320.734375 C 801.5 300.507812 785.101562 284.109375 764.878906 284.109375 Z M 911.375 174.234375 C 911.375 154.007812 894.976562 137.613281 874.75 137.613281 L 252.136719 137.613281 C 231.90625 137.613281 215.511719 154.007812 215.511719 174.234375 L 215.511719 247.488281 L 764.882812 247.488281 C 805.328125 247.488281 838.132812 280.28125 838.132812 320.734375 L 838.132812 723.601562 L 874.753906 723.601562 C 894.980469 723.601562 911.375 707.203125 911.375 686.976562 Z M 618.378906 577.101562 C 618.378906 577.101562 622.640625 540.480469 581.75 540.480469 C 565.078125 540.480469 545.128906 548.5 545.128906 577.101562 L 545.128906 723.601562 L 471.882812 723.601562 L 471.882812 503.855469 L 618.378906 503.855469 C 616.191406 503.855469 691.628906 499.339844 691.628906 577.105469 L 691.628906 723.601562 L 618.378906 723.601562 Z M 215.511719 393.980469 L 435.257812 393.980469 L 435.257812 430.609375 L 288.757812 430.609375 L 288.757812 540.480469 L 398.628906 540.480469 L 398.628906 577.101562 L 288.757812 577.101562 L 288.757812 686.976562 L 435.257812 686.976562 L 435.257812 723.601562 L 215.511719 723.601562 Z M 215.511719 393.980469 "/>
</g>
</svg>
