<?xml version="1.0" encoding="utf-8"?>
<!-- Generator: Adobe Illustrator 22.1.0, SVG Export Plug-In . SVG Version: 6.00 Build 0)  -->
<svg version="1.1" id="Layer_1" xmlns="http://www.w3.org/2000/svg" xmlns:xlink="http://www.w3.org/1999/xlink" x="0px" y="0px"
	 viewBox="0 0 512 512" style="enable-background:new 0 0 512 512;" xml:space="preserve">
<g>
	<path d="M256,59.9L59.9,256L256,452.1L452.1,256L256,59.9z M108.6,255.9c1.7-1.8,10.5-10.8,84.8-85.7
		c36.4-36.7,75.8-38.5,105.3-16.4c21.6,16.2,54.5,51.8,54.6,51.9c0.6,0.7,0.9,2.5,0.5,3c-9.9,10.4-19.9,20.7-29.4,30.5
		c-30.1-28.4-35.6-33.6-42.6-38.6c-15.6-11.2-36.4-8.9-50.1,4.5c-1.9,1.9-1.6,3,0.1,4.7c2.6,2.6,24.7,24.9,30.8,31.4
		c-10.5,10.2-20.8,20.2-31.4,30.5c-10.6-11-21.5-22.4-32.1-33.5c-18.8,18.5-36.6,36.1-54.4,53.6
		C132.7,279.7,120.7,267.8,108.6,255.9L108.6,255.9z M315,345.1c-31.2,31.1-68.6,33.5-94,18c-19.4-11.9-34.6-28.2-64.1-58.7
		c10.6-10.9,20.9-21.5,31.1-31.9c29,28,32.6,31.6,39.3,37c16.2,13,37.4,12,52.1-1.6c3.2-3,3.2-3.2,0.1-6.4
		c-9.3-9.4-18.6-18.8-27.9-28.3c-1.2-1.2-2.7-2.2-0.7-4.1c9.5-9.4,18.9-18.9,28.3-28.4c0.2-0.2,0.6-0.3,1.7-0.9
		c10.9,11.3,21.9,22.8,32.7,34.1c18.5-18.2,36.2-35.8,53.8-53.1c12,11.8,23.8,23.4,35.9,35.2C385.6,274.3,331.6,328.6,315,345.1
		L315,345.1z M256,31L31,256l225,225l225-225L256,31z M45.1,256L256,45.1L466.9,256L256,466.9L45.1,256z"/>
</g>
</svg>
