<svg xmlns="http://www.w3.org/2000/svg" width="992" height="1024" fill="none" viewBox="0 0 32 33"><path fill="#000" fill-rule="evenodd" d="M14.186.038c-.408.137-.757.342-.757.443 0 .031-.032.075-.083.115-.105.083-.316.19-.316.16q-.002-.072-.346.01c-.15.037-.287.057-.363.053-.182-.01-.337.015-1.173.185-.42.086-.854.164-.963.174-.228.02-.697.165-.77.238-.063.063-.033.097.056.06.248-.1.223-.056-.084.152-.19.13-.247.159-.26.134-.054-.095-.16-.048-.714.321-.658.438-.768.495-1.06.544-.278.046-1.018.537-1.222.81-.46.616-.428.581-.48.504-.056-.086-.216.131-.614.837-.383.68-.627.966-1.215 1.423-.659.513-.702.584-.923 1.515-.08.334-.11.393-.125.25-.007-.059-.015-.05-.094.1-.094.178-.254.425-.283.436-.01.005-.018.018-.018.03a.7.7 0 0 1-.108.148c-.1.115-.536.764-.609.906a5 5 0 0 0-.134.493c-.118.5-.138.576-.26.963-.133.422-.126.407-.163.357-.03-.04-.03-.04-.043.01-.067.29-.085.455-.11 1.005-.027.594-.03.627-.089.765-.13.307-.145.36-.19.613-.14.816-.21 1.052-.46 1.579-.237.5-.266.806-.138 1.483.038.201.078.43.09.51.044.313.36 1.397.418 1.439.038.027.18.23.18.258 0 .016.01.03.021.03s.028.024.035.054.033.07.056.092q.082.074-.002.075c-.054 0-.055-.015.01.144.069.165.072.323.012.532-.053.187-.056.313-.008.431.033.084.075.12.075.063q.001-.022.01-.015c.006.006.027.178.045.383.049.527.211 1.178.451 1.806.294.768.422 1.08.492 1.196.012.018.033.058.048.088s.156.26.313.51l.419.664c.288.46.541.752.881 1.013.334.257.619.496.726.61.096.101.164.186.362.447.079.103.35.393.414.442.062.047.24.212.456.422.075.073.193.183.263.244a21.526 21.526 0 0 0 .803.71c.222.188.406.35.41.36.011.029.362.293.56.424.367.24.888.445 1.212.476.534.053.827.135.966.27.016.017.036.03.044.03s.05.03.093.066a.53.53 0 0 0 .317.147c.087.011.163.048.334.16.327.214.589.34.899.433.357.107.882.298 1.052.383.081.04.184.071.266.08.146.014.38.067.686.156.781.225 1.267.244 1.655.064.172-.08.172-.08.357-.05.206.031.298.022 1.963-.19l1.229-.153c.568-.069.87-.12 1.392-.235.22-.048.502-.096.625-.106.25-.02.273-.03.857-.377l.357-.213c.092-.054.285-.172.386-.236.068-.043.085-.045.178-.021.1.025.11.023.29-.06.319-.146.74-.267 1.048-.3.247-.027.394-.118.602-.373.178-.218.2-.343.037-.205-.183.154-.024-.133.173-.313.067-.061.262-.23.432-.374.17-.145.495-.443.72-.663.34-.33.448-.421.62-.521.12-.071.293-.201.412-.31.186-.172.225-.197.429-.275.467-.18.657-.383.928-.992.184-.412.333-.713.36-.723a.03.03 0 0 0 .019-.028c0-.042.668-.728.71-.728.018 0 .34-.323.552-.554.134-.146.3-.384.415-.598.056-.103.187-.323.29-.487.168-.266.214-.354.324-.609.132-.305.388-1.072.388-1.162 0-.021.026-.152.058-.29.031-.14.086-.41.12-.602.044-.238.106-.475.199-.752.121-.362.141-.447.19-.814.029-.226.079-.51.11-.631l.08-.31c.018-.07.014-.119-.015-.222-.087-.311-.099-.387-.1-.628 0-.288-.032-.425-.14-.603-.156-.257-.17-.269-.17-.142 0 .103-.035.1-.052-.005-.03-.186-.009-.37.119-.997.178-.874.186-.786-.205-2.12a34 34 0 0 1-.177-.62c-.09-.364-.3-.827-.461-1.019-.148-.176-.163-.228-.13-.465.025-.188.024-.21-.02-.344a4 4 0 0 1-.092-.538c-.051-.447-.038-.412-.267-.723-.194-.266-.22-.31-.22-.378 0-.027-.023-.071-.05-.099-.093-.091-.153-.173-.32-.43a3.3 3.3 0 0 0-.425-.544 3 3 0 0 1-.363-.52A6 6 0 0 0 28.644 7c-.074-.103-.205-.287-.291-.41a11 11 0 0 0-.244-.331c-.087-.11-.154-.265-.154-.354 0-.188-1.012-1.106-1.05-.953-.018.073-.061.07-.107-.007-.02-.035-.149-.222-.286-.415l-.416-.598a7 7 0 0 0-.338-.464 4 4 0 0 0-.222-.274c-.073-.086-.143-.113-.29-.113-.402 0-1.507-.43-1.742-.678a4 4 0 0 0-.399-.328 6 6 0 0 1-.487-.408c-.282-.278-.902-.611-1.816-.977-.113-.046-.366-.074-1.096-.124-.547-.037-.758-.073-.924-.156-.337-.17-1.106-.238-1.312-.116-.139.081-.476.037-.509-.068-.022-.07-.153-.08-.997-.073-.797.007-.797.007-1.118-.062-.53-.112-.494-.11-.66-.053m-2.32 4.194c.644.057 1.048.502.877.964s-.163.967.03 1.805a36 36 0 0 0 .5 1.96c.131.484.542 1.494.747 1.835.096.16.363.496.493.622.09.087.095.089.295.103.465.035.604.183.63.674.051 1-.39 1.217-1.096.535-.355-.343-.674-.548-.85-.548-1.016.004-2.738 1.47-3.895 3.317l-.181.288c-.137.217-.342.63-.631 1.267a8 8 0 0 0-.381 1.14c-.086.304-.21.916-.255 1.251-.083.623-.09.826-.084 2.347.006 1.417-.018 2.373-.062 2.52-.018.06-.018.06-.02-.007 0-.038-.01-.077-.022-.089a2 2 0 0 1-.098-.32c-.305-1.18-1.312-1.914-2.277-1.66-.283.074-.357.116-.561.317-.11.11-.11.11-.16-.154-.279-1.471-.272-2.057.035-2.971.298-.887.315-1.21.09-1.705-.31-.684-1.496-.926-2.138-.436a.4.4 0 0 1-.086.055c-.034 0 .07-.676.158-1.03.136-.547.154-.59.55-1.296.106-.188.258-.467.338-.62s.168-.311.195-.354c.028-.043.131-.227.23-.41l.207-.38c.015-.027.142-.176.282-.331a9 9 0 0 0 .588-.698c.047-.065.093-.123.1-.13.096-.07.264-.548.264-.751.002-.798-1.257-1.415-2.216-1.086a3 3 0 0 1-.206.066c-.012 0 .18-.388.241-.485l.186-.312c.315-.53.804-1.206 1.252-1.727.062-.073.589-.596.688-.684.202-.179.593-.458 1.134-.808.222-.144.508-.338.635-.431.128-.094.295-.213.372-.265.692-.472 1.442-.957 1.48-.957.012 0 .022-.008.022-.019 0-.052.57-.264.899-.334.405-.086 1.165-.116 1.702-.068m9.468.043a3.3 3.3 0 0 1 .919.312c.24.123 1.043.622 1.13.702.066.062 1.153.816 1.483 1.028.83.534 1.493 1.095 1.904 1.61.73.919.84 1.069 1.178 1.631.123.203.415.764.399.764-.004 0-.095-.03-.202-.066-.5-.169-.93-.133-1.441.122-1.048.521-1.034 1.27.045 2.407.368.388.459.523.857 1.28.068.127.16.297.206.376.175.304.364.642.364.652 0 .006.078.153.174.327.267.486.477 1.303.49 1.904 0 .01-.06-.023-.136-.072-.384-.248-.979-.29-1.463-.106-.095.036-.172.075-.172.086 0 .012-.013.02-.029.02-.112 0-.435.42-.513.67-.139.438-.102.727.2 1.556.293.81.286 1.794-.024 3.15-.01.044-.02.038-.116-.065-.637-.686-2.09-.325-2.593.645-.128.245-.172.367-.27.752-.103.403-.11.429-.12.42-.04-.041-.062-.855-.065-2.421-.003-1.729-.01-1.958-.08-2.591-.057-.502-.298-1.455-.488-1.93a4 4 0 0 1-.092-.252c-.037-.128-.301-.704-.432-.94l-.233-.421a10.7 10.7 0 0 0-1.273-1.75 18 18 0 0 0-1.102-1.082 3 3 0 0 0-.31-.235 1 1 0 0 1-.13-.089c-.256-.193-.678-.373-1.06-.452-.254-.052-.299-.046-.526.067-.204.102-.23.124-.72.594-.435.418-.84.309-.92-.249-.106-.742.067-1.07.588-1.108.575-.042 1.325-1.463 1.784-3.38.026-.11.062-.232.08-.272.017-.04.047-.149.066-.243.018-.094.068-.321.11-.504.247-1.086.259-1.35.083-1.851-.264-.752.216-1.066 1.608-1.05.492.005.629.014.842.054m-7.894 8.33c.145.054.345.23.48.422.102.146.106.148.196.081.152-.112.2.098.098.423-.062.198-.053.552.023.845.062.237-.149.407-.338.274-.05-.035-.05-.035-.054.133L13.84 15c-.008.254.69.233.973-.03.24-.221.258-.228.567-.21.252.014.26.013.322-.04s.062-.053.126 0c.063.054.07.055.323.04.305-.018.362.002.544.19.267.276 1.003.313.995.05l-.006-.217c-.004-.168-.004-.168-.053-.133-.194.136-.403-.031-.338-.272.076-.288.086-.646.023-.845-.103-.327-.055-.538.098-.425.086.063.094.062.142-.028.37-.685 1.208-.647 1.572.07.193.383-.319.81-.52.434-.096-.179-.362-.223-.507-.085-.089.086-.085.132.033.412.074.177.108.294.132.466.019.126.046.282.06.346.025.107.023.126-.024.233-.137.306-.085.747.088.747.11 0 .297-.148.318-.25.034-.169.357-.66.516-.786.235-.185.587-.277.832-.218.127.03.13.03.164-.023.157-.24.494-.062.494.26 0 .457-.502.645-.731.274-.063-.101-.16-.103-.352-.007-.161.08-.178.107-.115.188.081.102.007.286-.134.33-.026.008-.068.064-.098.129-.125.268-.018.435.216.337.075-.031.12-.04.583-.113.335-.052.361-.066.281-.152-.218-.232-.007-.494.287-.357.103.048.15.055.362.056.352.001.5.086.572.328.03.102.168.228.393.36.541.316.127.849-.437.561a.54.54 0 0 1-.293-.403c-.042-.212-.19-.214-.78-.013-.19.064-.45.138-.576.164-.416.084-.455.231-.2.758.075.156.136.29.136.296 0 .021.158.436.189.495.098.19.264.19.344-.003.03-.07.121-.13.201-.13.05 0 .31-.146.606-.342.692-.457 1.656-.127 1.656.566 0 .465-.385.616-.66.26-.188-.243-.233-.283-.358-.32-.103-.03-.126-.03-.158-.004-.059.048-.133.076-.347.128-.812.199-.865.265-.753.941.03.183.065.472.078.642.04.542.192.853.416.853.103 0 .89-.403.954-.488.026-.036.067-.066.09-.066.025 0 .062-.027.083-.06.072-.114.183-.13.288-.04.036.029.094.06.13.068.343.08.805.709.825 1.122.023.483-.398.747-.561.352-.037-.088-.067-.126-.116-.147a.36.36 0 0 1-.13-.132c-.088-.145-.15-.206-.223-.224a1 1 0 0 1-.163-.075.6.6 0 0 0-.21-.072 3 3 0 0 1-.24-.042c-.138-.03-.126-.033-.435.091-.312.127-.342.158-.401.426-.068.304-.073.38-.035.531.033.127.105.5.137.71.04.256.524.481.75.348.19-.113.743.035.943.253.434.475.428 1.072-.013 1.2-.256.075-.463-.078-.63-.463-.054-.125-.054-.125-.155-.125-.134 0-.213-.029-.452-.165q-.686-.386-.743.392c-.012.169-.04.34-.073.456-.054.186-.054.186.008.31.034.069.088.19.122.269.148.355.485.936.596 1.029.607.509.52 1.73-.105 1.465-.15-.065-.18-.123-.189-.386-.008-.237-.008-.237-.118-.364-.093-.108-.19-.284-.302-.553-.03-.073-.21-.208-.3-.226a.36.36 0 0 1-.145-.097 2 2 0 0 0-.19-.17c-.269-.216-.327-.357-.21-.506.126-.16-.086-.33-.237-.19-.167.154-.18.333-.034.504.321.378.601.893.703 1.296.02.074.058.205.087.29.152.447.052 1.221-.174 1.36-.456.28-.785-.215-.638-.961.1-.506.015-.95-.266-1.39-.118-.186-.62-.389-.792-.322-.03.012-.12.031-.198.043-.397.057-.536.222-.498.59.011.106.02.358.02.559 0 .27.01.402.037.509.058.223.092.558.075.732-.024.244-.092.565-.131.621a.2.2 0 0 0-.036.092c0 .092-.153.345-.241.397-.048.029-.15.131-.227.229-.187.234-.396.35-.666.373-.096.008-.214.03-.262.05-.073.03-.11.03-.237.01-.239-.04-.4-.043-.634-.009-.193.028-.229.028-.302-.001a1.2 1.2 0 0 0-.258-.049c-.3-.025-.494-.14-.732-.434a1 1 0 0 0-.178-.171c-.093-.068-.227-.3-.227-.395a.2.2 0 0 0-.037-.093c-.04-.056-.104-.374-.13-.637-.017-.168.009-.405.074-.693.027-.12.037-.267.037-.531 0-.201.01-.451.02-.556.038-.363-.11-.538-.499-.593a1 1 0 0 1-.191-.045c-.1-.053-.59.11-.702.233-.312.34-.447.91-.343 1.448.146.759-.118 1.22-.583 1.02-.263-.112-.389-.877-.226-1.374.03-.092.085-.27.123-.397q.18-.598.632-1.155.143-.174.142-.233c0-.189-.158-.395-.292-.381-.092.009-.16.189-.1.257.13.142.093.243-.167.472-.1.089-.205.188-.233.221a.26.26 0 0 1-.122.076.53.53 0 0 0-.346.32 1.7 1.7 0 0 1-.292.496c-.086.097-.087.099-.089.294-.007.635-.645.62-.698-.017-.035-.423.002-.529.33-.943a5.2 5.2 0 0 0 .56-.87c.17-.337.29-.656.27-.711a2.6 2.6 0 0 1-.105-.602c0-.358-.306-.597-.576-.451l-.166.092c-.236.131-.29.153-.415.162-.13.01-.13.01-.22.196-.188.384-.406.5-.683.36-.367-.185-.307-.813.117-1.207.221-.206.785-.323.93-.193.062.056.337.01.465-.08.2-.136.224-.186.306-.611.026-.134.062-.3.08-.37.038-.136.032-.268-.022-.507-.06-.27-.14-.37-.359-.44a2 2 0 0 1-.199-.082c-.13-.06-.186-.063-.358-.019-.07.019-.16.034-.2.034s-.111.024-.157.054a.6.6 0 0 1-.149.07c-.076.017-.188.09-.188.121 0 .044-.168.244-.214.256-.03.008-.064.049-.092.115-.194.45-.664.086-.557-.43.03-.144.15-.43.18-.43.01 0 .019-.01.019-.023s.01-.035.022-.05l.105-.126c.204-.245.32-.34.47-.388.031-.01.087-.04.124-.07.105-.08.21-.07.291.026.037.043.079.078.094.078s.056.03.09.066c.228.245.971.518 1.113.41.193-.147.216-.233.282-1.019.014-.17.04-.388.057-.484.103-.578.003-.679-.885-.892a.7.7 0 0 1-.192-.075c-.111-.08-.285-.014-.424.157-.227.284-.292.33-.455.33-.2 0-.326-.17-.326-.442-.002-.6.783-.964 1.459-.678.079.033.385.224.411.256a.3.3 0 0 0 .067.041q.128.065.186.114a.4.4 0 0 0 .15.048c.113.018.195.069.195.12 0 .043.11.165.148.165.042 0 .228-.178.228-.218 0-.057.107-.328.273-.692.275-.606.253-.704-.173-.792a7 7 0 0 1-.587-.168c-.548-.185-.746-.19-.78-.022-.057.274-.11.354-.291.446-.554.281-.965-.25-.435-.562.216-.128.371-.262.388-.336.055-.251.226-.357.577-.357.212 0 .258-.008.36-.056.3-.14.555.236.266.39-.069.037.016.079.218.108.445.065.58.09.654.121.276.115.382-.334.11-.466-.144-.07-.196-.261-.1-.367.038-.042.038-.045-.015-.086-.196-.15-.389-.171-.476-.05-.263.36-.72.17-.72-.3 0-.291.282-.458.463-.275.044.045.09.08.102.076.396-.118.865.057 1.134.423.115.157.298.5.314.592.016.087.186.222.279.222.166 0 .246-.445.123-.686a.44.44 0 0 1-.035-.366c.02-.07.046-.21.058-.312s.035-.224.052-.27l.089-.23c.108-.28.057-.395-.181-.412-.167-.012-.243.02-.284.116-.063.152-.298.197-.447.086-.457-.342.362-1.24.936-1.024m-.21 5.131c-.203.214-.152.716.136 1.322.074.155.074.155.068 1.076-.007 1.147.02 1.325.254 1.642.205.28.314.73.243 1.004-.016.062-.02.126-.011.143a1 1 0 0 1 .04.094c.04.111.134.076.167-.062.014-.06.063-.185.108-.277.128-.258.075-.451-.205-.76-.244-.268-.394-.722-.417-1.255-.013-.296.042-1.118.079-1.195.036-.074.014-1.109-.028-1.294-.111-.493-.249-.632-.433-.438m4.843-.06c-.223.13-.322 1.138-.2 2.035.131.973-.009 1.8-.374 2.21-.28.314-.331.516-.195.78.04.078.085.193.1.254.03.137.13.176.157.062a.3.3 0 0 1 .036-.089c.013-.017.007-.08-.019-.18-.065-.253.065-.703.298-1.032.204-.29.213-.353.214-1.507 0-1.018 0-1.018.103-1.251.277-.627.311-1.006.11-1.218-.087-.09-.153-.11-.23-.064m-3.714.861c-.025.025-.045.06-.045.08q0 .035-.033.023c-.056-.022-.039.062.066.316.224.545.32.926.321 1.271 0 .19.048.538.111.823.097.431.501.12.424-.326a2 2 0 0 1-.025-.251c0-.15-.04-.443-.079-.563-.068-.215-.143-.536-.143-.615-.001-.409-.418-.937-.597-.758m2.59-.012c-.144.079-.376.557-.376.777 0 .083-.12.564-.158.636-.081.151-.135.958-.074 1.117.095.247.344.253.408.01.052-.196.112-.644.112-.831 0-.383.08-.695.34-1.325.079-.188.102-.3.058-.272-.012.008-.031-.011-.043-.042-.037-.098-.157-.13-.267-.07m-1.32.753c-.185.122-.192.172-.108.84.059.468.068.654.036.758-.01.035-.032.134-.046.219a2.5 2.5 0 0 1-.268.77.2.2 0 0 1-.102.094c-.307.128-.603.61-.796 1.295a5 5 0 0 1-.136.42c-.06.149-.07.231-.042.34.02.075.048.062.067-.032.013-.063.233-.636.279-.725.01-.02.045-.101.077-.18.262-.653.524-.92.872-.893.17.013.18.01.234-.044.058-.058.058-.058.115 0 .056.055.064.057.246.044.34-.024.637.253.826.77.022.062.114.281.205.489s.178.43.195.493q.053.2.093.014c.016-.073.008-.115-.048-.253a5 5 0 0 1-.136-.421c-.172-.634-.492-1.166-.784-1.303-.147-.07-.3-.415-.389-.878l-.046-.226c-.031-.143-.024-.292.036-.748.076-.587.065-.76-.05-.802a.6.6 0 0 1-.108-.066c-.086-.064-.085-.064-.222.025m-1.415.509c-.194.295-.1 1.102.186 1.597.12.208.16.33.155.465-.008.207.069.223.242.048.137-.14.134-.122.036-.24a1.2 1.2 0 0 1-.208-.385.3.3 0 0 0-.064-.117c-.03-.024-.038-.108-.05-.565-.014-.55-.026-.626-.116-.757-.08-.117-.127-.129-.181-.046m2.926.04c-.101.173-.107.21-.114.687-.007.5-.02.633-.067.65-.016.007-.046.064-.067.127a.95.95 0 0 1-.198.367c-.098.107-.098.104.04.24.169.167.25.149.223-.048-.013-.098-.004-.124.155-.44.295-.589.376-1.058.259-1.5-.053-.198-.145-.23-.231-.083m-1.396 2.458a6 6 0 0 0-.044.26c-.02.128-.053.298-.072.377-.093.38-.03.697.137.697.184 0 .231-.32.115-.775a5 5 0 0 1-.083-.404c-.026-.179-.037-.21-.053-.155m-.782.452c-.017.007-.028.053-.028.115 0 .178-.062.406-.166.618-.194.395-.129.642.114.428.055-.049.15-.111.21-.138.118-.054.14-.118.082-.256a2 2 0 0 1-.041-.383c-.021-.403-.036-.438-.171-.384m1.48.016c-.015.019-.034.154-.045.328-.01.162-.037.361-.058.442-.045.165-.033.202.073.228.069.018.166.081.266.175.203.19.264-.088.093-.43a1.5 1.5 0 0 1-.171-.588c-.017-.184-.081-.247-.158-.155m-1 1.51c-.111.115-.117.3-.016.486.093.168.122.167.21-.011.152-.305 0-.675-.193-.476m.5-.03c-.142.11-.154.272-.039.505.101.202.107.202.212-.003.146-.284.019-.654-.173-.503m-.848.354c-.094.094-.007.496.138.636.098.096.113.081.07-.067a.8.8 0 0 1-.021-.327c.017-.244-.071-.358-.187-.242m1.191-.005c-.027.017-.032.068-.027.262.004.172-.004.268-.028.336-.043.122-.028.136.057.054.252-.239.25-.812-.002-.652m-1.466.188c-.216.117-.153.566.127.904.132.16.137.153.076-.088a1.6 1.6 0 0 1-.047-.48c.002-.359-.021-.41-.156-.336m1.768.014c-.032.052-.035.1-.024.29.014.22-.004.353-.09.682-.03.12.227-.2.298-.37q.196-.464-.076-.623c-.071-.042-.071-.042-.108.02m-2.162.367c-.256.093-.345.254-.31.56.033.275.2.623.2.416 0-.097.068-.327.115-.386a.8.8 0 0 0 .106-.221c0-.016.02-.039.044-.052.096-.05-.01-.356-.115-.33zm2.575.035c-.094.104-.128.249-.064.273.06.024.28.5.295.637.015.153.026.145.117-.085.147-.37.105-.658-.113-.79-.145-.088-.182-.093-.235-.035M14.429 26.9c-.258.103-.486.87-.258.87.107 0 .148-.089.188-.408.022-.167.07-.317.15-.46.01-.02-.034-.02-.08-.002m2.588-.004c0 .007.03.07.066.14a.9.9 0 0 1 .09.314c.031.256.064.374.111.399.278.149.213-.44-.084-.757-.084-.09-.183-.141-.183-.096m-2.45.895c-.272.132-.396.31-.363.52.039.247.173.229.317-.043.305-.576.308-.604.047-.477m2.206-.041c0 .149.323.715.413.724.295.03.16-.49-.17-.657-.228-.116-.243-.12-.243-.067m-2.163.647c-.268.149-.36.404-.208.574.13.145.356-.069.5-.473.045-.123-.139-.187-.292-.101m2.013-.01c-.036.023.001.13.126.36q.22.402.38.224c.159-.177.074-.407-.21-.575-.052-.03-.253-.037-.296-.01m-1.389.376c-.414.17-.569.48-.35.698.157.158.413-.078.484-.445.059-.31.049-.328-.134-.253m.897.02c0 .566.454.975.598.538.057-.172-.004-.294-.216-.436-.235-.157-.382-.196-.382-.102m-.406.012a2 2 0 0 1-.147.274c-.305.51-.243.76.188.76.442 0 .502-.3.161-.803a2 2 0 0 1-.119-.205q-.056-.133-.083-.026" clip-rule="evenodd" /></svg>