<?xml version="1.0" encoding="UTF-8" standalone="no"?>
<!-- Created with Inkscape (http://www.inkscape.org/) -->

<svg
   width="9.9999027mm"
   height="9.0758896mm"
   viewBox="0 0 9.9999027 9.0758896"
   version="1.1"
   id="svg374"
   inkscape:version="1.1.2 (0a00cf5339, 2022-02-04)"
   sodipodi:docname="mystic_alt.svg"
   xmlns:inkscape="http://www.inkscape.org/namespaces/inkscape"
   xmlns:sodipodi="http://sodipodi.sourceforge.net/DTD/sodipodi-0.dtd"
   xmlns="http://www.w3.org/2000/svg"
   xmlns:svg="http://www.w3.org/2000/svg">
  <sodipodi:namedview
     id="namedview376"
     pagecolor="#ffffff"
     bordercolor="#666666"
     borderopacity="1.0"
     inkscape:pageshadow="2"
     inkscape:pageopacity="0.0"
     inkscape:pagecheckerboard="0"
     inkscape:document-units="mm"
     showgrid="false"
     inkscape:zoom="12.550993"
     inkscape:cx="61.150538"
     inkscape:cy="18.404918"
     inkscape:window-width="2560"
     inkscape:window-height="1403"
     inkscape:window-x="0"
     inkscape:window-y="0"
     inkscape:window-maximized="1"
     inkscape:current-layer="layer1" />
  <defs
     id="defs371" />
  <g
     inkscape:label="Layer 1"
     inkscape:groupmode="layer"
     id="layer1"
     transform="translate(59.310693,83.15559)">
    <path
       id="path1-0"
       style="display:inline;stroke-width:0.264583"
       d="m -54.31306,-83.15559 -4.997633,6.67866 h 9.999903 z m 0,2.70578 c 0.35335,0 0.68783,0.0594 1.00459,0.17673 0.31549,0.11863 0.59675,0.28115 0.84284,0.48937 0.24861,0.20949 0.45583,0.45825 0.62115,0.74725 0.16784,0.28647 0.28255,0.59948 0.34313,0.93896 -0.14891,0.19939 -0.32311,0.3771 -0.52503,0.53485 -0.20192,0.15396 -0.42645,0.28789 -0.67128,0.39894 -0.24609,0.11105 -0.50462,0.19465 -0.77721,0.2527 -0.27259,0.0568 -0.55299,0.0858 -0.83819,0.0858 -0.28648,0 -0.56561,-0.029 -0.8382,-0.0858 -0.27259,-0.0581 -0.53238,-0.14165 -0.77721,-0.2527 -0.24609,-0.11105 -0.46936,-0.24498 -0.67128,-0.39894 -0.19939,-0.15775 -0.37221,-0.33546 -0.51986,-0.53485 0.0606,-0.33948 0.17264,-0.65249 0.33796,-0.93896 0.16406,-0.289 0.36852,-0.53776 0.61082,-0.74725 0.24482,-0.20822 0.5266,-0.37074 0.84336,-0.48937 0.31928,-0.11737 0.65726,-0.17673 1.01441,-0.17673 z m 0,0 c -0.1994,0 -0.38602,0.0428 -0.56018,0.12609 -0.17163,0.0808 -0.32299,0.19461 -0.45423,0.33848 -0.13125,0.14134 -0.23618,0.30789 -0.31316,0.49971 -0.0745,0.1893 -0.11111,0.39111 -0.11111,0.60565 0,0.21201 0.0366,0.41382 0.11111,0.60564 0.077,0.1893 0.18191,0.35723 0.31316,0.50488 0.13124,0.14513 0.2826,0.2572 0.45423,0.33797 0.17416,0.0833 0.36078,0.1266 0.56018,0.1266 0.19813,0 0.38389,-0.0433 0.55552,-0.1266 0.17415,-0.0808 0.32551,-0.19284 0.45423,-0.33797 0.13125,-0.14765 0.23354,-0.31558 0.30799,-0.50488 0.0732,-0.19182 0.11059,-0.39363 0.11059,-0.60564 0,-0.21454 -0.0374,-0.41635 -0.11059,-0.60565 -0.0744,-0.19182 -0.17674,-0.35837 -0.30799,-0.49971 -0.12872,-0.14387 -0.28008,-0.25772 -0.45423,-0.33848 -0.17163,-0.0833 -0.35739,-0.12609 -0.55552,-0.12609 z m -2.944011,4.31033 -0.138493,0.25424 c -0.06204,0.11344 -0.155792,0.20668 -0.269234,0.26872 l -0.253732,0.1385 0.253732,0.139 c 0.113439,0.062 0.20719,0.15528 0.269234,0.26872 l 0.138493,0.25373 0.139011,-0.25373 c 0.062,-0.11344 0.15528,-0.20667 0.26872,-0.26872 l 0.25373,-0.139 -0.25373,-0.1385 c -0.11344,-0.062 -0.20668,-0.15528 -0.26872,-0.26872 z m 5.893181,0 -0.13901,0.25424 c -0.062,0.11344 -0.15527,0.20668 -0.26872,0.26872 l -0.25373,0.1385 0.25373,0.139 c 0.11344,0.062 0.20668,0.15528 0.26872,0.26872 l 0.13901,0.25373 0.13849,-0.25373 c 0.062,-0.11344 0.15528,-0.20667 0.26872,-0.26872 l 0.25425,-0.139 -0.25425,-0.1385 c -0.11344,-0.062 -0.20668,-0.15528 -0.26872,-0.26872 z m -2.94659,0.0599 -0.20981,0.38396 c -0.0938,0.1715 -0.23519,0.31238 -0.40669,0.40617 l -0.38344,0.20981 0.38344,0.20981 c 0.1715,0.0938 0.31289,0.23519 0.40669,0.40669 l 0.20981,0.38344 0.20981,-0.38344 c 0.0938,-0.1715 0.23467,-0.31289 0.40617,-0.40669 l 0.38396,-0.20981 -0.38396,-0.20981 c -0.1715,-0.0938 -0.31238,-0.23467 -0.40617,-0.40617 z"
       inkscape:label="Mystic" />
  </g>
</svg>
