<svg viewBox="0 0 400 400" xmlns="http://www.w3.org/2000/svg" xml:space="preserve" style="fill-rule:evenodd;clip-rule:evenodd;stroke-linejoin:round;stroke-miterlimit:2"><path d="m485.332 2914.94-.077.08c0-.04.077-.08.077-.08zm52.138-20.87c-.109-.11-.102-.14.098-.04l.077.08s-.067-.02-.175-.04zm-17.108-6.21.077-.08c.154.05.18.08.077.08h-.154zm10.956 64.81c-.681.68-.846.31-1.543 1l-1.312.7-.077.08c-.363 0-.671.23-1.08.23l.308-.16c-1.236.16-1.399.16-2.777.62l.077-.15c-.666.22-1.587.8-2.083.3l-.463.16h-.463c-1.389 0-1.229.12-2.546.38l-.695.08-.771.16h-.618l-.617.07-.231-.23c-.943.14-.771.43-1.698.54l.232-.15c-.926.31-2.326-.21-3.241-.39l.077-.15c-.385 0-.773-.16-1.157-.16h-.232c-.663-.44-1.875-1-2.7-1l-.54-.23c-.581-.29-1.311-.62-1.775-1.08l-.231.15-.618-.31c-.09-.09-.217-.14-.308-.23l-.154-.15h-.116c-.083 0-.193-.16-.193-.16h.154c.116-.11-1.68-.25-1.389-.15l-.926-.31c-.348-.12-.725-.22-1.08-.31l-.926-.62c-.577-.57-1.338-.95-1.929-1.54 0 0-.165-.09-.231-.15l-.231-.23c-2.366-2.37-5.071-4.48-7.33-6.95l.308.16-.54-.54c0-.17-.309-.39-.309-.39-.011-.02 0-.08 0-.08-.105-.42-.316-.43-.54-.77l.155.08c-1.091-1.09-2.392-3.89-2.392-4.71 0 0-.077-.1-.077-.15l-.926-2.78.231.38c-.403-.8-.188-1.64-.463-2.46v.77c0-.65-.231-1.28-.231-1.93 0-.15.231.53.231.38v-1.42c0-.23-.617-.92-.617-.81-.792-1.59-.769-3.31-1.312-4.94v-.54c0-.11-.077-.2-.077-.31v-.46c0-1.56 1.158-7.52 1.158-3.09.314-1.26.127-1.18.385-2.47l.232-.15c0-.19.068-.37.14-.55l.029-.07c.072-.18.139-.35.139-.54v-.08l-.077.08c.092-1.1-.041-1.32.155-2.39v.07c.051-.1.077-.2.077-.3v-.54l.077-.16v-.23c.112 0 .077-.08.077-.15l.077-.08-.077.31-.077.46c.405 0 1.312-3.42 1.312-4.17l.077.08c.262-.42.905-1.6 1.311-2l-.077.15c.165-.16.155-.27.386-.39l.154-.23c0-.08.078-.23.078-.23l.54-.54c.206-.51.385-1.62.385-1.62.574-1.72 2.239-2.62 3.472-3.86l.232-.46.617-.62c-.225.15 1.08-2.04 1.08-2.08l.463-.46c-.397.49.913-.89 1.389-1.32l.232-.07.231-.23.154-.08c.407-.81 2.09-.62 2.701-1.24l-.463.16c1.063-.36 1.756-1.26 2.778-1.7l.154.23c.34 0 .779-.46 1.08-.61l.155-.08c.156-.16-.058-.23.154-.23l.231-.16-.617.23-.772.54c.331-.26.109-.61.541-.61 0 0 .096-.08.154-.08h.154c0-.05.013-.08.039-.08h.193c.376 0 1.049-.14 1.388-.23l.926-.31c.296 0 .556-.15.849-.15h.695c.081-.08.308-.04.308-.16h-.386c.906 0 2.701-.31 2.701-.31.057 0 .154-.07.154-.07h.463s.018.06 0 .07l-.154.08-.077.08h-.155c.037 0 .078.08.078.08s.096-.08.154-.08c0 0 .947-.88 1.543-1.08l-.309.08c.201-.2.373-.27.618-.39l-.386.23c.483-.24 1.321-.69 1.852-.69l.154.07h.309c-.037 0-.798.04-.078.16.404 0 .298.07.772.23 1.123 0 1.587-.33 2.238 0h1.543c-.919 0 .897.05 1.003.08h-.463c-.186 0 .279.28.463.31.394-.05.187-.24.656-.24h1.388c.698 0 1.486.49 2.122.7 1.466-.37 1.406-.32 3.627.23l-.232.15c.448 0 .77.39 1.157.39l-.462-.31c.795.2 1.749.9 2.469 1.31-1.309-.65.181.39.617.39l.154.15c-.912 0 1.383 1.2 2.083 1.78l.232.23.231.16c.24.11.519.22.772.3l.771.23c.414.17 1.179.35 1.523.43.307.31 1.539 1.26 1.95 1.73.529.62.9 1.36 1.388 2.01l-.385-.23c.07.07.196.17.285.24-.032-.02-.066-.01-.131-.01l.463.39c.027 0 .694.15 1.312.77l.231.15.231.23.155.24-.155-.08c.187.28.253.33.463.54l.309.46c-.646-.64.995 1.53 1.466 2.32.627 1.04 1.545 3.16 2.778 3.78.281.56 1.157 1.98 1.157 3.86l.232.07-.232.54.077.62c.444.22.33.24.54.62l-.077-.08c0 .25 1.349 2.35.617 1.62l.309.46h-.077c.085.26.231.77.231.77l.309.93-.077-.08.617 2.4-.694 3.47v.15h.077l.154.46c.24 0 .311-.14.617.62.091.45-.1.94 0 1.39l.232.69.154.24-.077.3v.16h-.077c-.059.12-.077.38-.077.38-.393-.39-.277 1.08-.386 1.63l.077-.16c-.134 1.88-.608 1.65-.926 3.4v.84l-.154.16v.31c0 .82-.501 1.46-.695 2.24l-.231.61-.154.62c-.716 1.02-1.288 2.02-1.929 3.09l-1.003 1c-.246.24-.514.47-.77.7.001 0 .003 0 0-.01h-.002c-.038.04-.043.04-.079.08-.025.03-.049.05-.075.08-.985.66-1.489 1.92-1.852 3.01l-.231.38-.232.47c-.302.3-.877.65-1.305.82a.288.288 0 0 1 .071-.05l-.155.07c.027 0 .055-.02.084-.02-2.929 1.96-4.564 3.52-6.796 6.12a.424.424 0 0 1-.193.11l-.193.04c.059 0 .127-.01.193-.04l.193-.03.54-.62.077-.08c.057-.11.231-.31.231-.31.156-.15-.133.43-.231.62l-.386.39c-.051.05-.077.1-.077.15h-.309c-.268.14-.869.31-1.157.31l.077-.08h-.077c-.174.06-1.929.47-1.929.77h-.154v-.07l-.077-.08s-.177.05-.232 0h.077l.077-.08 1.158-.38c-.4 0-1.158.31-1.158.31l-.154.15zm14.276-12.03c-.002.01-.003.02-.006.02-.007.02-.012.04-.027.05-.033.04-.078.06-.12.08l.153-.15zm-.153.15a.549.549 0 0 0-.08.08l.077-.08h.003zm-4.733-42.97c.028 0 .055.02.1.07l-.1-.07zm-23.022 19.47c-1.954 0-3.776.38-5.469 1.13a14.84 14.84 0 0 0-4.444 3c-1.269 1.25-2.278 2.74-3.027 4.47-.716 1.69-1.074 3.5-1.074 5.42 0 1.95.358 3.77 1.074 5.47a14.572 14.572 0 0 0 3.027 4.44 13.912 13.912 0 0 0 4.444 2.98c1.693.75 3.515 1.12 5.469 1.12 1.92 0 3.727-.37 5.42-1.12 1.725-.72 3.214-1.71 4.467-2.98a14.756 14.756 0 0 0 3.003-4.44c.749-1.7 1.123-3.52 1.123-5.47 0-1.92-.374-3.73-1.123-5.42-.748-1.73-1.749-3.22-3.003-4.47-1.253-1.25-2.742-2.25-4.467-3-1.693-.75-3.5-1.13-5.42-1.13zm0 3.57c-2.084 0-4.045.38-5.884 1.15-1.839.76-3.459 1.79-4.859 3.1 1.075-1.86 2.556-3.36 4.444-4.49 1.888-1.15 3.987-1.71 6.299-1.71 2.278 0 4.37.56 6.274 1.71 1.904 1.13 3.394 2.63 4.468 4.49a16.673 16.673 0 0 0-4.883-3.1c-1.823-.77-3.776-1.15-5.859-1.15zm-14.307-8.89c-.033.07-.073.13-.122.2a.494.494 0 0 1-.171.14.648.648 0 0 1-.122.18l-.171.17c-.228.19-.488.38-.781.56-.293.18-.602.31-.928.41.293.2.57.4.83.61.261.21.488.45.684.71.032.07.073.12.122.17.049.05.089.11.122.17l.195.39c.065.13.114.27.147.42.032.14.048.28.048.41v.44c0 .13-.016.26-.048.39a.95.95 0 0 1-.098.44c-.065.13-.13.28-.195.44a4.3 4.3 0 0 1-.513.78c-.212.26-.448.51-.708.74.163.03.326.07.488.12.163.05.326.1.489.17.162.03.317.08.463.15.147.06.285.14.415.24.131.06.253.15.367.24.114.1.219.2.317.3.098.09.187.19.269.29.081.1.154.21.219.34.228-.32.48-.63.757-.93.277-.29.545-.58.806-.88-.228-.55-.415-1.12-.562-1.7a13.69 13.69 0 0 1-.317-1.76c0-.2-.008-.39-.024-.59a6.02 6.02 0 0 1-.025-.53l.049-1.18.146-1.12c.033-.2.074-.38.122-.56.049-.18.106-.37.171-.56.196-.72.464-1.42.806-2.1.342-.69.741-1.34 1.196-1.96.456-.58.961-1.13 1.514-1.66.553-.52 1.156-.99 1.807-1.41.651-.39 1.326-.73 2.026-1 .7-.28 1.424-.5 2.173-.66.749-.13 1.505-.21 2.27-.22.765-.02 1.522.06 2.271.22.749.13 1.481.33 2.197.61.716.28 1.4.61 2.051 1 .618.39 1.212.85 1.782 1.37.57.52 1.083 1.07 1.538 1.66.489.61.904 1.27 1.245 1.95.342.68.611 1.38.806 2.1.228.75.374 1.5.439 2.25.066.74.066 1.51 0 2.29-.032.62-.13 1.23-.293 1.83-.162.6-.358 1.18-.585 1.73.293.3.569.59.83.88.26.3.504.61.732.93.033 0 .049-.01.049-.02v-.08c.065-.13.138-.25.22-.36.081-.12.171-.22.268-.32.098-.1.204-.19.318-.29.113-.1.236-.18.366-.25.26-.16.553-.3.879-.41.325-.12.651-.21.976-.27-.26-.23-.496-.47-.708-.73a4.293 4.293 0 0 1-.512-.78c-.163-.3-.277-.58-.342-.86a2.474 2.474 0 0 1-.049-.85c.032-.26.106-.53.22-.81s.268-.53.463-.76a4.5 4.5 0 0 1 .635-.68c.261-.23.537-.44.83-.63-.325-.1-.634-.24-.927-.42a6.707 6.707 0 0 1-.782-.56c-.13-.1-.236-.2-.317-.32a2.999 2.999 0 0 0-.269-.32l-.195-.39a1.875 1.875 0 0 1-.146-.39 1.103 1.103 0 0 1-.098-.44v-.39c0-.16.008-.31.024-.46.017-.15.057-.29.122-.42.033-.16.082-.31.147-.46.065-.15.13-.28.195-.41.065-.17.147-.32.244-.47.098-.15.196-.28.293-.41-.162 0-.333-.01-.512-.03-.179-.01-.35-.02-.513-.02a3.287 3.287 0 0 1-.464-.13c-.146-.04-.301-.08-.464-.12l-.39-.19a2.784 2.784 0 0 1-.391-.25 2.363 2.363 0 0 1-.317-.24c-.114-.1-.204-.2-.269-.29a2.525 2.525 0 0 1-.244-.39l-.195-.39c-.033-.13-.066-.27-.098-.42a1.872 1.872 0 0 1-.049-.41 5.014 5.014 0 0 1 0-.98c.033-.33.098-.67.195-1.03-.651.3-1.285.44-1.904.44-.618 0-1.172-.14-1.66-.44a1.52 1.52 0 0 1-.366-.24c-.114-.1-.204-.2-.269-.29-.097-.1-.187-.22-.268-.34a6.89 6.89 0 0 1-.22-.4 2.982 2.982 0 0 1-.366-.9 4.296 4.296 0 0 1-.122-1c-.261.23-.537.44-.83.63-.293.2-.57.35-.831.44a2.89 2.89 0 0 1-.854.25c-.277.03-.562.01-.855-.05a1.886 1.886 0 0 1-.805-.27c-.244-.15-.48-.32-.708-.51-.228-.2-.44-.43-.635-.71a7.64 7.64 0 0 1-.537-.9c-.13.32-.293.62-.488.9a3.93 3.93 0 0 1-.635.71c-.228.19-.464.37-.708.54-.244.16-.513.26-.806.29-.163.03-.309.05-.439.05h-.44c-.13-.04-.268-.07-.415-.1a1.516 1.516 0 0 1-.415-.15 7.106 7.106 0 0 1-.854-.44 3.947 3.947 0 0 1-.806-.63c0 .16-.016.33-.049.51-.032.18-.065.34-.097.47l-.171.51c-.049.14-.106.28-.171.41-.065.17-.139.3-.22.42-.081.11-.171.22-.268.32-.066.13-.155.24-.269.34-.114.1-.236.18-.366.24a3.243 3.243 0 0 1-1.66.44c-.293-.03-.603-.07-.928-.12a3.388 3.388 0 0 1-.977-.32c.098.36.163.7.196 1.03.032.32.048.65.048.97-.032.3-.097.57-.195.83s-.228.52-.39.78c-.066.1-.155.2-.269.3-.114.1-.236.19-.366.29-.098.07-.212.14-.342.22-.13.08-.26.14-.391.17-.162.07-.317.12-.464.15-.146.03-.317.06-.512.1-.163.03-.326.05-.489.07-.162.01-.325.02-.488.02.228.26.415.54.562.83.146.3.268.59.366.88.032.16.065.32.098.47.032.14.048.28.048.41 0 .16-.008.31-.024.44s-.041.28-.073.44c-.033.13-.082.26-.147.39-.065.13-.13.24-.195.34z" style="fill-rule:nonzero" transform="matrix(5.82496 0 0 5.78595 -2815.36 -16705.9)"/></svg>