<svg xmlns="http://www.w3.org/2000/svg" width="653" height="764" viewBox="0 0 653 764" version="1.1"><path d="M 325.994 0.083 C 325.941 3.573, 277.611 328.338, 277.292 327.343 C 277.143 326.879, 267.342 273.888, 255.512 209.585 C 243.682 145.281, 233.822 92.488, 233.601 92.267 C 232.970 91.637, 232.840 92.681, 217.510 221 C 209.526 287.825, 202.658 343.715, 202.247 345.200 C 201.630 347.431, 197.075 336.297, 176.064 281.200 C 162.075 244.515, 149.960 212.925, 149.143 211 L 147.658 207.500 146.880 211.500 C 146.453 213.700, 140.657 269.725, 134 336 C 127.343 402.275, 121.702 457.453, 121.463 458.617 C 121.208 459.857, 116.981 463.766, 111.264 468.048 C 80.753 490.901, 50.674 517.867, 26.545 544 C 9.662 562.285, -0.374 574.607, 0.291 576.236 C 2.725 582.201, 45.407 627.186, 66.500 646.016 C 134.797 706.986, 204.486 745.164, 272.639 758.943 C 306.089 765.706, 346.911 765.706, 380.361 758.943 C 448.514 745.164, 518.203 706.986, 586.500 646.016 C 601.953 632.220, 632.774 600.681, 644.297 586.871 C 653.222 576.174, 655.522 572.597, 653.055 573.250 C 652.536 573.388, 649.349 570.125, 645.975 566 C 620.195 534.490, 579.943 496.665, 541.736 468.048 C 536.019 463.766, 531.792 459.857, 531.537 458.617 C 531.298 457.453, 525.657 402.275, 519 336 C 512.343 269.725, 506.547 213.700, 506.120 211.500 L 505.342 207.500 503.857 211 C 503.040 212.925, 490.925 244.515, 476.936 281.200 C 455.925 336.297, 451.370 347.431, 450.753 345.200 C 450.342 343.715, 443.474 287.825, 435.490 221 C 420.169 92.758, 420.029 91.637, 419.402 92.265 C 419.182 92.485, 409.320 145.277, 397.487 209.582 C 385.654 273.887, 375.853 326.877, 375.707 327.337 C 375.457 328.128, 343.938 117.262, 332.401 37.612 C 329.462 17.324, 326.820 0.486, 326.529 0.195 C 326.238 -0.095, 325.997 -0.146, 325.994 0.083 M 309.500 422.623 C 288.330 425.749, 271.276 430.834, 255.591 438.697 C 211.111 460.993, 179.581 503.095, 170.365 552.500 C 167.570 567.488, 167.826 596.700, 170.878 611 C 181.141 659.072, 209.928 697.714, 252.500 720.560 C 260.413 724.807, 260.325 724.656, 250.082 716.446 C 228.614 699.237, 213.124 672.210, 208.544 643.973 C 202.256 605.199, 215.082 566.582, 243.316 539.278 C 267.140 516.239, 293.442 505.585, 326.500 505.585 C 359.558 505.585, 385.860 516.239, 409.684 539.278 C 437.918 566.582, 450.744 605.199, 444.456 643.973 C 439.876 672.210, 424.386 699.237, 402.918 716.446 C 392.675 724.656, 392.587 724.807, 400.500 720.560 C 443.072 697.714, 471.859 659.072, 482.122 611 C 485.174 596.700, 485.430 567.488, 482.635 552.500 C 470.622 488.101, 421.120 437.726, 357.265 424.919 C 346.857 422.832, 317.607 421.425, 309.500 422.623 M 107.433 493.690 C 82.707 513.267, 53.211 540.876, 32.404 563.918 L 22.094 575.337 27.297 581.380 C 42.694 599.265, 72.903 628.572, 95.069 647.128 C 113.989 662.968, 144.734 685.298, 158.931 693.514 C 159.719 693.969, 157.850 691.228, 154.780 687.421 C 128.253 654.537, 112.938 605.422, 113.021 553.500 C 113.031 546.900, 114.335 528.900, 115.918 513.500 C 117.501 498.100, 118.700 485.395, 118.582 485.267 C 118.464 485.138, 113.447 488.929, 107.433 493.690 M 534.484 488.605 C 536.514 502.891, 540 544.098, 539.999 553.810 C 539.995 605.623, 524.672 654.630, 498.220 687.421 C 495.150 691.228, 493.281 693.969, 494.069 693.514 C 508.129 685.378, 539.190 662.855, 557.716 647.363 C 579.552 629.101, 610.361 599.201, 625.703 581.380 L 630.906 575.337 620.596 563.918 C 597.678 538.538, 562.531 506.151, 537.715 487.547 L 533.930 484.709 534.484 488.605" stroke="none" fill="#34343c" fill-rule="evenodd"/></svg>