<svg xmlns="http://www.w3.org/2000/svg" width="551" height="551" viewBox="0 0 5510 5510"><path id="pQ4pTTuTj" d="M2075 5113 c-1109 -641 -1176 -681 -1268 -749 -437 -327 -724 -829 -787 -1379 -6 -58 -10 -611 -10 -1532 l0 -1443 2750 0 2751 0 -4 1483 c-4 1618 -1 1526 -62 1768 -119 470 -410 884 -814 1158 -42 29 -1845 1074 -1871 1085 -3 2 -311 -174 -685 -391z m1236 -1412 c-73 -102 -135 -300 -151 -485 -5 -61 -10 -338 -10 -615 l0 -503 213 5 c175 3 226 8 291 26 109 29 232 91 294 146 l52 47 0 -426 0 -426 -1240 0 -1240 0 0 421 0 420 58 -44 c74 -58 159 -100 269 -133 80 -25 107 -27 301 -32 l212 -4 0 555 c0 568 -4 640 -41 786 -20 78 -73 200 -109 251 -11 15 -20 31 -20 34 0 3 257 6 571 6 l570 0 -20 -29z"></path></svg>