<svg viewBox="0 0 400 400" xmlns="http://www.w3.org/2000/svg" xml:space="preserve" style="fill-rule:evenodd;clip-rule:evenodd;stroke-linejoin:round;stroke-miterlimit:2"><path d="M266.402 1112.87c0 22.48.468 44.96.468 67.44.751 0 .117-1.49.14-2.24.039-1.25-.031-2.5.047-3.75 0-19.99.562-36.98.936-56.96.756-48.42 2.246-96.95 2.246-145.387.2-12.803.009-29.086.468-41.968.641-14.364.562-30.635.562-44.965.377-72.468-1.778-144.893-1.778-217.334-.132-27.479.17-54.959-.094-82.437-.044-2.129-.197-13.797-.281-16.487-.16-18.003 1.019-35.977 1.03-53.959.04-68.4-1.993-138.087-.562-206.841.374-13.99.187-30.975.187-44.966v-77.94c0-68.451-.167-136.889-.842-205.343h-.468c-1.067 0-.926-1.949-1.123-2.998l-2.34-22.483c-.426-3.02-.563-6.157-1.684-8.993-.23-.58-1.542-.529-1.872 0-1.047 0 .111 2.998-.936 2.998-1.117 0-.38-2.998-1.497-2.998-.238-.763-1.073 1.499-1.872 1.499-1.509 2.014-3-4.042-4.586-5.995-1.121-3.592-1.792-3.018-3.837-5.996-6.023-6.029-5.237 5.996-8.61 5.996-.674 1.798-.903 1.499-2.246 1.499-2.261 4.024-2.615 13.837-2.808 16.487-.349 2.801-1.379 7.494 1.779 7.494.498 1.995.819 4.039 1.45 5.996.341 1.056.341 2.997 1.451 2.997 2.626 4.206 2.889 8.39 3.463 13.49 1.038 7.391 1.924 12.27 3.275 19.485.79 0 .619 1.469.749 2.248.371 2.232.503 4.497.748 6.745l1.124 10.492c.285 2.108 1.92 2.893 1.965.75.015-.75 0-1.499 0-2.249.573 0 .269 1.499.842 1.499.998 1.999 2.184 0 3.182 0 .504.898 2.628-.921 3.089 0 1.141 4.573 6.925-3.819 6.925.75v194.101c0 13.989.25 32.475 0 46.464-.063-1.005-.355-4.004-.374-2.997-.215 10.981-.188 21.991-.188 32.974v37.472c0 5.995-.031 12.49-.093 19.485-.195 12.461-.223 33.816-.562 46.464-.516 33.098-.041 65.636.375 98.925.967 30.972 1.475 61.939 1.123 92.928-.25 25.98.28 51.962.28 77.941 1.835 146.874-1.544 293.785.749 440.667zm-40.991-35.98c.014-.69.141-13.51.187-14.99.269-34.46.655-68.955.655-103.417v-13.489c.294-23.489.936-46.961.936-70.446V772.626c0-49.951 1.081-99.939.562-149.885-.25-17.988-.188-40.47.187-58.456.632-80.96 1.928-161.859-.094-242.814-.125-11.991-.093-23.981-.093-35.972.249-29.977.53-59.954.655-89.931.353-67.941.662-135.905-.281-203.844 0-15.468-.266-31.006-.749-46.465 0 33.898-1.236 68.001-1.871 101.922-.276 17.647-.562 31.74-.562 49.462a1533.86 1533.86 0 0 0-.187 23.982c-.53 33.961-1.123 67.956-1.123 101.922-.125 11.991.093 22.483.093 34.474.125 7.994-.062 15.989-.187 23.981 0 7.995-.062 14.49-.187 22.483-.426 78.439-.961 156.88-.655 235.32 0 49.453.561 98.924.561 148.386v59.205c0 8.243-.187 16.487-.187 24.731v91.43c0 20.984-.187 41.969-.187 62.952v130.401c0 8.99.031 17.48.094 25.48.483 30.97 1.204 61.95 1.591 92.93-.125-33.91.446-63.57.842-97.43z" style="fill-rule:nonzero;stroke:#231f20;stroke-width:.13px" transform="matrix(4.57744 0 0 .28581 -928.841 43.362)"/><path d="M268.464 1114.62s9.562 1.47 10.529 1.47c2.238 0 4.462.37 6.691.37h4.586c2.007 0 4.083.17 6.083.29h5.99c1.437 0 2.781-.06 4.211-.19.624 0 15.037-1.47 15.536-1.47 1.998 0 7.423-1.21 8.597.75.376.37.18 5.02.18 5.66.701 1.41.325 2.29.394 2.29v.19c0 1.61-9.69.75-10.715.75h-7.628c-7.372 0-14.357.71-21.712.18-7.041-1.28-14.774-2.26-21.899-1.3-2.708 0-6.357 1.53-8.985.65v-.28c1.302-2.6-1.102-6.15.206-8.77.252-.76 5.877.74 5.877-.12l2.059-.47z" style="fill-rule:nonzero" transform="matrix(4.25504 .67613 -.48852 3.07438 -510.23 -3412.577)"/><path d="M268.464 1114.62s9.562 1.47 10.529 1.47c2.238 0 4.46 1.85 6.689 1.85h4.586c2.007 0 4.083.16 6.083.28h5.99c1.437 0 2.781-.06 4.211-.19.624 0 15.039-2.94 15.538-2.94 1.998 0 7.423-1.21 8.597.75.376.37.18 5.02.18 5.66.701 1.41.325 2.29.394 2.29v.19c0 1.61-9.69.75-10.715.75-1.467 0-6.569 1.47-7.63 1.47-7.372 0-14.355-.76-21.71-1.29-7.041-1.28-14.774-2.26-21.899-1.3-2.708 0-6.357 1.53-8.985.65v-.28c1.302-2.6-1.102-6.15.206-8.77.252-.76 5.877.74 5.877-.12l2.059-.47z" style="fill-rule:nonzero" transform="matrix(-3.80237 -.00706 -.00578 3.11294 1333.426 -3192.764)"/><path d="M268.464 1114.62s9.562 1.47 10.529 1.47c2.238 0 4.462.37 6.691.37h4.586c2.007 0 4.083.17 6.083.29h5.99c1.437 0 2.781-.06 4.211-.19.624 0 15.037-1.47 15.536-1.47 1.998 0 7.423-1.21 8.597.75.376.37.18 5.02.18 5.66.701 1.41.325 2.29.394 2.29v.19c0 1.61-9.69.75-10.715.75h-7.628c-7.372 0-14.357.71-21.712.18-7.041-1.28-14.774-2.26-21.899-1.3-2.708 0-6.357 1.53-8.985.65v-.28c1.302-2.6-1.102-6.15.206-8.77.252-.76 5.877.74 5.877-.12l2.059-.47z" style="fill-rule:nonzero" transform="matrix(3.89794 -.20166 -.16083 -3.1088 -766.644 3679.406)"/><path d="M268.464 1114.62s9.562 1.47 10.529 1.47c2.238 0 4.462.37 6.691.37h4.586c2.007 0 4.083.17 6.083.29h5.99c1.437 0 2.781-.06 4.211-.19.624 0 14.403.61 14.902.61 1.999 0 7.602-1.26 8.775.69.376.38.636 3 .636 3.64.701 1.41.325 2.29.394 2.29v.19c0 1.61-9.69.75-10.715.75h-7.628c-7.372 0-14.357.71-21.712.18-7.041-1.28-14.774-2.26-21.899-1.3-2.708 0-6.357 1.53-8.985.65v-.28c1.302-2.6-1.102-6.15.206-8.77.252-.76 5.877.74 5.877-.12l2.059-.47z" style="fill-rule:nonzero" transform="matrix(-4.0553 -2.1231 -1.77324 3.38704 3388.669 -3029.803)"/></svg>