<svg viewBox="0 0 400 400" xmlns="http://www.w3.org/2000/svg" xml:space="preserve" style="fill-rule:evenodd;clip-rule:evenodd;stroke-linejoin:round;stroke-miterlimit:2"><path d="M671.455 1032.27c-.226.44 1.613 1 1.576.56v-.93c0-.32-.019-.63-.057-.94 0-.12-.009-.22-.028-.28-.018-.06-.065-.06-.14 0a.906.906 0 0 0-.197.23.823.823 0 0 1-.197.24c-.188.12-.357.28-.507.47-.15.18-.3.4-.45.65zm.056-12.35v-5.9c0-.31-.009-.61-.028-.89-.019-.28-.028-.54-.028-.79 0-.38-.01-.72-.029-1.03-.018-.31-.028-.66-.028-1.03a8.096 8.096 0 0 1-.028-1.17 2.74 2.74 0 0 0-.197-1.17c0-.06-.009-.14-.028-.24a.737.737 0 0 0-.084-.23c-.075-.19-.132-.28-.169-.28-.038 0-.094.09-.169.28-.15.37-.31.72-.479 1.03-.169.31-.347.59-.534.84-.075.19-.151.36-.226.52-.075.15-.15.32-.225.51-.112.19-.506.84-.619 1.03-.3.44-.582.91-.844 1.4-.263.5-.544 1-.845 1.5-.3.5-.628.92-.985 1.27-.356.34-.722.67-1.097.98-.413.25-.798.54-1.154.89-.357.34-.723.7-1.098 1.07-.338.38-.666.74-.985 1.08-.319.34-.666.64-1.042.89-.187.12-.384.26-.591.42-.206.16-.403.3-.591.42-.15 0-.281.03-.394.09-.112.07-.225.13-.337.19-.263.19-.507.33-.732.42-.225.1-.469.17-.732.24-.113.06-.225.11-.338.14-.112.03-.225.08-.337.14v.93c0 .56-.01 1.13-.029 1.69-.018.56-.047 1.15-.084 1.78-.075.43-.122.89-.141 1.35-.019.47-.028.95-.028 1.45v1.13c.038.12.066.23.085.32.018.1.028.21.028.33.037.13.047.27.028.42-.019.16.028.27.141.33.037-.06.065-.09.084-.09h.028c.15-.07.282-.13.394-.19a.713.713 0 0 1 .338-.09c.375-.19.732-.39 1.069-.61.338-.22.676-.49 1.014-.8.337-.25.666-.5.985-.75.319-.25.647-.53.985-.84.375-.37.75-.76 1.126-1.17.375-.4.75-.79 1.125-1.17.301-.25.61-.5.929-.75.319-.25.629-.5.929-.75.263-.18.535-.4.816-.65.282-.25.573-.5.873-.75.187-.19.356-.36.506-.52.151-.15.319-.35.507-.6s.394-.45.619-.61c.225-.16.451-.33.676-.52.112-.12.215-.25.309-.37s.197-.25.31-.37c.112-.19.206-.41.281-.66.075-.25.169-.47.282-.65a.468.468 0 0 1 .253-.29c.131-.06.31.22.535.85zm-1.126-21.622c-.188.062-.291-.094-.31-.468a19.535 19.535 0 0 1-.028-.842 17.793 17.793 0 0 1-.112-1.966 20.536 20.536 0 0 0-.113-2.152 11.05 11.05 0 0 1-.084-.702 8.116 8.116 0 0 1-.028-.702c0-.25-.019-.484-.057-.702a22.656 22.656 0 0 0-.112-.608c0-.187-.019-.406-.057-.655a4.553 4.553 0 0 1-.056-.655.854.854 0 0 1-.028-.375c.019-.125-.009-.218-.084-.281-.076.063-.141.11-.197.141a1.301 1.301 0 0 0-.197.14c-.113.125-.207.25-.282.375l-.225.374c-.075.062-.16.156-.253.281a4.187 4.187 0 0 0-.254.374c-.15.187-.3.359-.45.515-.15.156-.3.327-.45.514-.226.25-.451.453-.676.609-.225.156-.45.359-.675.608-.263.25-.526.53-.788.842l-.789.936c-.3.25-.591.484-.872.702a11 11 0 0 0-.816.702c-.3.312-.61.562-.929.749a6.908 6.908 0 0 0-.929.655c-.3.249-.6.483-.9.702-.301.218-.62.39-.957.515a7.709 7.709 0 0 1-.366.187 1.163 1.163 0 0 0-.366.28.586.586 0 0 0-.225.047c-.075.031-.132.109-.169.234-.038.063-.057.187-.057.375v.468c0 .374-.009.745-.028 1.125-.018.37-.028.75-.028 1.12v2.62c0 .25-.019.47-.056.66-.038.18-.056.4-.056.65.037.31.056.66.056 1.03v1.03c-.038.19-.075.39-.113.61-.037.22-.037.39 0 .51h.225c.113-.06.235-.12.366-.18.132-.07.254-.13.366-.19.263-.13.535-.3.816-.52.282-.21.554-.42.817-.6.375-.32.731-.66 1.069-1.03.338-.38.676-.72 1.013-1.03.338-.32.667-.64.986-.99.319-.34.647-.67.985-.98.262-.31.534-.58.816-.79.281-.22.553-.46.816-.71.15-.18.319-.35.507-.51.187-.16.375-.33.563-.51a2.355 2.355 0 0 0 .45-.57c.15-.12.3-.25.45-.371.15-.125.3-.281.451-.468.075-.125.168-.25.281-.374l.338-.375c.15-.125.356-.234.619-.327.263-.094.657-.11 1.182-.047zm-2.083-15.723v-1.404c0-.124.01-.28.028-.468.019-.187.029-.343.029-.467 0-.188.028-.359.084-.515.056-.156.084-.297.084-.421 0-.125-.018-.328-.056-.609-.037-.28-.094-.421-.169-.421-.037 0-.084.031-.14.094a1.146 1.146 0 0 0-.141.187c-.075.062-.16.125-.253.187a3.168 3.168 0 0 0-.254.187l-.338.187a.683.683 0 0 1-.337.094 2.81 2.81 0 0 1-.422.14 1.792 1.792 0 0 1-.423.047c-.15.063-.3.094-.45.094-.15 0-.319.031-.507.093a.988.988 0 0 0-.478.141c-.169.093-.347.14-.535.14a6.176 6.176 0 0 0-1.013.281 6.204 6.204 0 0 1-1.013.281 2.577 2.577 0 0 1-.788.234 6.961 6.961 0 0 0-.788.14 5.274 5.274 0 0 1-.676.14c-.225.032-.45.047-.675.047-.075 0-.207-.015-.394-.047-.188-.031-.301-.015-.338.047-.038.063-.056.187-.056.375v2.62c0 .686.009 1.373.028 2.059.018.686-.01 1.373-.085 2.059v.561c.263-.124.507-.249.732-.374.225-.125.45-.281.676-.468.3-.249.591-.499.872-.749.281-.249.572-.468.873-.655.262-.187.516-.374.759-.561.244-.187.498-.375.76-.562.413-.312.845-.624 1.295-.936.45-.312.882-.655 1.295-1.029.3-.25.647-.437 1.041-.562.394-.124.985-.187 1.773-.187zm-3.546-5.428c.038.063.056.078.056.047s.019-.047.057-.047c.075-.062.14-.109.197-.14a.401.401 0 0 1 .197-.047 4.22 4.22 0 0 1 .76-.281c.243-.062.478-.093.703-.093a3.477 3.477 0 0 1 1.267-.141c.431.031.853.047 1.266.047h1.239a.093.093 0 0 0 .084-.047l.085-.14c.075 0 .121.015.14.047.019.031.028-.047.028-.234.038-.063.057-.187.057-.375 0-.187-.019-.312-.057-.374h-3.096c-.3 0-.609-.016-.928-.047a10.19 10.19 0 0 0-.985-.047h-7.684a6.667 6.667 0 0 1-1.548-.187.784.784 0 0 0-.253-.14.824.824 0 0 0-.254-.047h-.169l-.225-.187c-.075-.063-.169-.063-.281 0-.075.062-.103.312-.085.749.019.436.066.717.141.842.038.062.084.078.141.047a.298.298 0 0 1 .14-.047c.076 0 .151.015.226.047a.737.737 0 0 0 .281.046.739.739 0 0 0 .366.094h.422c.188 0 .385.016.591.047.207.031.422.047.648.047h.365c.132 0 .273.031.423.093.187.063.366.094.534.094.169 0 .348.031.535.093.225 0 .46.032.704.094.244.062.497.094.76.094.112 0 .244.015.394.046.15.032.281.047.394.047.3.063.591.078.872.047.282-.031.573-.047.873-.047.075 0 .15.016.225.047.075.031.206.016.394-.047zm1.858-2.901a.78.78 0 0 1-.085-.281 2.478 2.478 0 0 1-.028-.374 7.646 7.646 0 0 1-.141-1.076 20.575 20.575 0 0 1-.028-1.077 33.682 33.682 0 0 1-.084-1.216c-.019-.375.009-.78.084-1.217.038-.312.085-.655.141-1.029.056-.375.122-.718.197-1.03l.225-2.62c.038-.187.047-.343.028-.468a2.806 2.806 0 0 0-.084-.375c0-.187.009-.343.028-.468a.851.851 0 0 0-.028-.374.86.86 0 0 0-.057-.327.496.496 0 0 1 0-.328.553.553 0 0 1 .169.281 1.3 1.3 0 0 0 .113.281c.075.124.159.187.253.187h.254c.112 0 .159.015.14.047-.019.031-.009.077.028.14.038.187.057.343.057.468v.374c.037.562.047 1.139.028 1.732a53.96 53.96 0 0 0-.028 1.731v5.147a.367.367 0 0 1 .056.187c0 .063.019.094.056.094 0 .374-.094.702-.281.983-.188.28-.526.483-1.013.608zm-6.249-.374c-.075 0-.122-.078-.14-.234-.019-.156-.047-.266-.085-.328a11.756 11.756 0 0 1-.169-1.123c-.037-.374-.075-.78-.112-1.217a29.39 29.39 0 0 1-.085-1.357 35.774 35.774 0 0 1-.028-1.45c.038-.375.085-.733.141-1.076.056-.344.103-.734.141-1.17.037-.499.046-1.045.028-1.638-.019-.593-.16-1.076-.422-1.451-.076-.062-.141-.093-.197-.093h-.198a.342.342 0 0 0-.168-.141.585.585 0 0 0-.226-.046c-.037 0-.103-.047-.197-.141-.093-.093-.159-.14-.197-.14-.075 0-.122.062-.14.187a2.027 2.027 0 0 0-.028.281c-.038.374-.066.733-.085 1.076-.019.343-.028.671-.028.983v7.767c0 .188-.009.375-.028.562-.019.187-.01.374.028.561 0 .125.009.188.028.188h.141c.187 0 .403-.016.647-.047s.704-.016 1.379.047zm8.106-12.073h-5.46c-.338 0-.676-.031-1.013-.094a5.607 5.607 0 0 0-1.013-.093h-2.702c-.263 0-.507-.016-.732-.047a4.955 4.955 0 0 0-.676-.047 1.058 1.058 0 0 0-.394-.094h-.788a.713.713 0 0 1 .225-.421l.282-.234c.15-.124.291-.249.422-.374a1.39 1.39 0 0 1 .422-.281c.113-.062.216-.125.31-.187s.197-.125.309-.187l.451-.374a.422.422 0 0 1 .281-.094.423.423 0 0 0 .282-.094c.187-.062.365-.124.534-.187.169-.062.329-.156.479-.281a3.118 3.118 0 0 0 1.013-.561 9.22 9.22 0 0 0 .422-.187c.132-.063.254-.156.366-.281.113-.062.216-.14.31-.234s.178-.172.253-.234c.038-.062.084-.125.141-.187a.26.26 0 0 1 .197-.094c.225-.124.478-.187.76-.187h.76c.112 0 .197.047.253.141.056.093.103.202.141.327.075.187.14.359.197.515.056.156.122.296.197.421.112.187.215.343.309.468s.197.249.31.374c.112.125.206.25.281.375.075.124.169.249.282.374a.764.764 0 0 0 .281.281l.338.187c.188.125.385.265.591.421.206.156.403.296.591.421.225.125.441.234.647.328.207.093.423.14.648.14a.773.773 0 0 0 .338.14c.15.032.225.11.225.234l-1.07-.093z" style="fill-rule:nonzero;stroke:#000;stroke-width:.12px" transform="matrix(4.29674 0 0 2.58442 -2658.147 -2413.476)"/><path d="m10.561-8.737-6.302-.034c-3.01.432-5.816.73-8.579 1.255-5.241.998-8.905 4.406-12.273 8.247-1.129 1.288-2.401 2.45-3.768 3.562-.466-1.233.149-2.168.549-3.095.929-2.16.863-2.388-1.462-2.784-2.047-.349-3.959.133-5.767 1.103-.382.204-.77.396-1.156.594l-.286-.248c.206-.394.362-.824.625-1.174 1.57-2.099 6.346-3.874 9.173-2.318 1.069.588 1.832.289 2.733-.548 5.322-4.95 11.465-7.853 18.94-7.289.593.044 5.634-.339 11.929-.636 2.792-.132-7.363 3.418-4.356 3.365z" style="fill-rule:nonzero;stroke:#000;stroke-width:.18px" transform="translate(125.829 183.541) scale(2.34755)"/><path d="M43.574-6.502c-.339.195.485-2.546 1.003-2.978 5.255-4.385 12.671-3.309 16.397 2.384.273.417.649.804.792 1.263.46 1.482 1.468 1.463 2.741 1.268 3.154-.482 6.152-.057 8.707 2.038a6.278 6.278 0 0 1 1.497 1.782c.212.385.198 1.086-.028 1.45-.144.231-.934.268-1.312.107-.988-.422-1.933-.961-2.851-1.524-2.184-1.339-4.586-1.334-7.005-1.156-.283.021-.623.453-.773.772-.169.36-.043.878-.248 1.198-.252.393-.714.897-1.085.896-.333-.001-.824-.563-.969-.975-.587-1.662-.748-3.561-1.65-5.01-2.364-3.797-6.51-5.153-10.765-3.712-1.556.527-3.018 1.372-4.451 2.197z" style="fill-rule:nonzero;stroke:#000;stroke-width:.18px" transform="translate(135.219 183.541) scale(2.34755)"/><path d="M43.574-6.502c-.339.195.485-2.546 1.003-2.978 5.255-4.385 12.671-3.309 16.397 2.384.273.417.649.804.792 1.263.46 1.482 1.468 1.463 2.741 1.268 3.154-.482 6.152-.057 8.707 2.038a6.278 6.278 0 0 1 1.497 1.782c.212.385.198 1.086-.028 1.45-.144.231-.934.268-1.312.107-.988-.422-1.933-.961-2.851-1.524-2.184-1.339-4.586-1.334-7.005-1.156-.283.021-.623.453-.773.772-.169.36-.043.878-.248 1.198-.252.393-.714.897-1.085.896-.333-.001-.824-.563-.969-.975-.587-1.662-.748-3.561-1.65-5.01-2.364-3.797-6.51-5.153-10.765-3.712-1.556.527-3.018 1.372-4.451 2.197z" style="fill-rule:nonzero;stroke:#000;stroke-width:.14px" transform="matrix(-3.28986 0 -.7217 1.51856 286.643 231.408)"/><path d="M0-18.655c2.008 1.504 4.157 2.797 5.886 4.512 1.283 1.273 2.079 3.062 2.968 4.689.266.487.115 1.202.155 1.813l-.432.187c-.503-.451-1.033-.876-1.504-1.358-2.455-2.507-5.044-4.852-8.33-6.218-4.707-1.958-9.491-1.685-14.273-.261-2.067.615-4.12 1.278-6.184 1.906-.179.054-.388.007-.917.007.453-.466.671-.807.982-.993 4.202-2.5 8.553-4.641 13.52-5.079 1.186-.105 2.399.134 3.597.11.476-.01 1.16-.16 1.387-.493 2.986-4.381 7.5-6.151 12.376-7.22 12.463-2.73 23.64 3.567 28.68 14.704.997 2.204 1.51 4.651 2.036 7.032.264 1.191.619 1.502 1.812 1.229 4.339-.994 8.324-.17 11.526 2.985 1.252 1.234 2.023 2.971 2.938 4.523.208.352.195.903.116 1.332-.058.315-.342.741-.611.818-.225.065-.672-.239-.851-.496-.733-1.057-1.358-2.187-2.099-3.237-2.58-3.657-7.138-5.298-11.305-4.17-.944.256-1.37.693-1.396 1.714-.098 3.937-1.432 7.461-3.756 10.625-.049.067-.085.161-.151.196-.607.315-1.219.619-1.83.926-.088-.645-.365-1.333-.228-1.927.351-1.533.874-3.028 1.348-4.532 3.973-12.602-3.569-25.595-16.463-28.354-6.451-1.38-14.754.862-18.997 5.03" style="fill-rule:nonzero;stroke:#000;stroke-width:.18px" transform="translate(64.797 313.408) scale(2.34755)"/><path d="M0 38.569c-.214-.453-.496-.886-.632-1.361-1.367-4.783-2.362-9.602-1.175-14.59.169-.71-.014-1.131-.802-1.189-7.055-.524-14.132-.7-20.613 2.636-3.553 1.829-6.764 4.325-10.114 6.543-1.117.74-2.188 1.552-3.28 2.331l-.51-.369c.295-.742.419-1.633.916-2.198 1.772-2.016 3.434-4.242 5.564-5.811 8.499-6.259 18.103-8.629 28.581-7.312 1.149.144 1.679-.09 2.171-1.183C3.755 7.963 10.02 2.962 18.686 1.191 24.51 0 30.224.675 35.409 3.797c1.378.83 2.499 2.139 3.604 3.35.768.842.63 1.846-.179 2.691-.861.897-1.666.415-2.436-.137-2.995-2.146-6.102-4.083-9.858-4.528-8.188-.968-15.127 1.518-20.451 7.874C2.222 17.664.343 23.1.369 29.138c.012 2.652.171 5.303.242 7.955.012.46-.079.923-.122 1.384L0 38.569" style="fill-rule:nonzero;stroke:#000;stroke-width:.18px" transform="translate(293.763 214.67) scale(2.34755)"/></svg>