<svg viewBox="0 0 400 400" xmlns="http://www.w3.org/2000/svg" xml:space="preserve" style="fill-rule:evenodd;clip-rule:evenodd;stroke-linejoin:round;stroke-miterlimit:2"><path d="M320.025 131.495c22.92 26.652 36.67 60.76 36.67 97.904 0 85.27-72.554 154.517-161.925 154.517-1.926 0-3.844-.02-5.751-.098 80.493-2.745 144.931-64.185 144.931-139.468 0-77.034-67.461-139.565-150.558-139.565-80.474 0-146.29 58.657-150.357 132.323-.133-2.55-.2-5.12-.2-7.709 0-85.289 72.561-154.536 161.935-154.536 24.553 0 47.838 5.217 68.7 14.562-8.512-10.123-19.405-17.6-30.685-24.627.074-.136.147-.292.22-.428 1.353.428 2.726.817 4.054 1.304 8.273 3.095 16.675 5.82 25.503 6.93 3.25.41 6.701.156 9.943-.408 5.634-.974 9.002-4.595 10.697-9.695 2.004-6.016 2.442-12.226 2.13-18.475-.277-5.588-.918-11.155-1.377-16.723-.063-.74-.01-1.48.28-2.356.3.623.63 1.227.895 1.85 3.42 8.157 6.832 16.314 11.618 23.848 1.859 2.92 4.168 5.665 6.687 8.098 3.091 2.979 6.837 3.154 10.74 1.13 4.124-2.142 7.425-5.198 10.111-8.722 5.217-6.833 10.103-13.9 15.13-20.87.346-.486.693-.992 1.04-1.499l.53.176c-.326 1.284-.592 2.589-1.02 3.854-2.917 8.8-5.21 17.735-6.06 26.944-.633 6.852.244 13.413 5.611 18.708 3.489 3.466 7.956 5.237 12.648 6.522 7.426 2.025 14.974 3.368 22.747 3.33.183 0 .387.019.591.038.041.175.102.37.163.545-1.51.526-2.978 1.188-4.508 1.558-6.304 1.518-12.363 3.62-17.973 6.794-6.283 3.543-11.036 8.254-12.321 15.477-.96 5.529.285 10.805 2.162 15.983 2.734 7.456 6.753 14.348 11.016 21.084.939 1.48 1.836 2.978 2.591 4.594-10.18-9.617-20.786-18.494-34.935-22.563-.561-.117-1.118-.234-1.673-.331zm-34.911-36.016c-.467 2.784.675 5.257 3.792 7.379 5.892 4.01 11.424 8.507 17.15 12.732.6.447 1.512.759 2.261.72 15.62-.7 24.503-14.348 21.64-26.301-3.37-14.056-18.255-19-27.47-16.509-10.5 2.842-17.716 11.467-17.373 21.98z"/><path d="M189.033 384.247h-.028a.429.429 0 0 1-.402-.429.41.41 0 0 1 .402-.408h.028c80.248-2.745 144.5-63.991 144.5-139.06 0-76.8-67.283-139.137-150.14-139.137-80.247 0-145.886 58.462-149.942 131.934a.417.417 0 0 1-.832 0c-.133-2.57-.2-5.159-.2-7.748 0-85.522 72.74-154.964 162.35-154.964 23.955 0 46.703 4.964 67.18 13.88-8.294-9.403-18.666-16.47-29.384-23.167a.4.4 0 0 1-.153-.525c.074-.156.147-.292.222-.448a.433.433 0 0 1 .5-.214c1.357.448 2.736.837 4.07 1.324 8.242 3.076 16.614 5.801 25.41 6.91 3.208.39 6.618.137 9.821-.408 5.465-.935 8.727-4.458 10.374-9.423 1.985-5.957 2.417-12.128 2.107-18.319-.277-5.568-.916-11.135-1.377-16.703a6.154 6.154 0 0 1 .3-2.531.395.395 0 0 1 .367-.273c.17-.02.329.078.402.234.304.623.639 1.226.906 1.869 3.41 8.118 6.811 16.275 11.585 23.77 1.842 2.9 4.131 5.607 6.626 8.021 2.952 2.862 6.53 2.998 10.257 1.07 4.07-2.102 7.322-5.139 9.974-8.604 5.214-6.833 10.098-13.9 15.112-20.85.368-.506.694-1.013 1.04-1.519a.458.458 0 0 1 .49-.155l.53.194a.421.421 0 0 1 .266.506c-.326 1.285-.612 2.61-1.02 3.874-2.917 8.761-5.206 17.677-6.053 26.827-.622 6.756.22 13.2 5.482 18.397 3.447 3.407 7.854 5.16 12.485 6.405 7.385 2.006 14.892 3.368 22.624 3.31.204 0 .408.039.612.039.183.02.326.136.367.311.061.176.122.37.163.545.061.215-.04.448-.265.507-1.51.545-2.979 1.187-4.53 1.576-6.262 1.519-12.3 3.602-17.87 6.736-6.16 3.505-10.873 8.118-12.097 15.205-.98 5.45.265 10.649 2.142 15.75 2.713 7.456 6.712 14.289 10.955 21.025.959 1.48 1.877 2.998 2.611 4.633.082.175.041.39-.122.506a.419.419 0 0 1-.53-.039c-10.12-9.558-20.674-18.397-34.746-22.466-.161-.02-.32-.058-.48-.078 22.516 26.594 36 60.429 36 97.262 0 85.503-72.744 154.945-162.352 154.945-1.922 0-3.834-.039-5.737-.097zm130.992-252.752c.555.097 1.112.214 1.673.33 14.15 4.07 24.755 12.947 34.935 22.564-.755-1.616-1.652-3.115-2.59-4.594-4.264-6.736-8.283-13.628-11.017-21.084-1.877-5.178-3.121-10.454-2.162-15.983 1.285-7.223 6.038-11.934 12.321-15.477 5.61-3.173 11.67-5.276 17.973-6.794 1.53-.37 2.999-1.032 4.508-1.558a5.526 5.526 0 0 1-.163-.545c-.204-.02-.408-.039-.591-.039-7.773.04-15.321-1.304-22.747-3.329-4.692-1.285-9.16-3.056-12.648-6.522-5.367-5.295-6.244-11.856-5.612-18.708.85-9.209 3.144-18.144 6.061-26.944.428-1.265.694-2.57 1.02-3.854l-.53-.176a99.982 99.982 0 0 1-1.04 1.5c-5.027 6.969-9.913 14.036-15.13 20.869-2.686 3.524-5.987 6.58-10.112 8.722-3.902 2.024-7.648 1.849-10.739-1.13-2.519-2.433-4.828-5.178-6.687-8.098-4.786-7.534-8.199-15.691-11.618-23.848-.265-.623-.595-1.227-.895-1.85a5.654 5.654 0 0 0-.28 2.356c.46 5.568 1.1 11.135 1.377 16.723.312 6.249-.126 12.46-2.13 18.475-1.695 5.1-5.063 8.721-10.697 9.695-3.242.564-6.694.817-9.943.409-8.828-1.11-17.23-3.836-25.503-6.931-1.328-.487-2.7-.876-4.053-1.304-.074.136-.147.292-.22.428 11.279 7.028 22.172 14.504 30.683 24.627-20.86-9.345-44.146-14.562-68.7-14.562-89.373 0-161.934 69.247-161.934 154.536 0 2.59.067 5.159.2 7.71 4.068-73.667 69.883-132.324 150.357-132.324 83.097 0 150.558 62.53 150.558 139.565 0 75.283-64.438 136.723-144.931 139.468 1.907.078 3.825.098 5.75.098 89.372 0 161.925-69.248 161.925-154.517 0-37.145-13.75-71.252-36.67-97.904zm-34.911-36.016c-.343-10.512 6.873-19.137 17.373-21.979 9.215-2.492 24.1 2.453 27.47 16.509 2.863 11.953-6.02 25.6-21.64 26.301-.749.039-1.66-.273-2.26-.72-5.727-4.225-11.259-8.722-17.15-12.732-3.118-2.122-4.26-4.595-3.793-7.379zm.412.059c-.443 2.647.667 4.964 3.615 6.97 5.896 4.03 11.432 8.507 17.165 12.75.528.39 1.332.682 1.993.643 15.326-.681 24.062-14.056 21.253-25.795-3.307-13.783-17.914-18.65-26.957-16.197-10.306 2.764-17.401 11.233-17.063 21.55a.353.353 0 0 1-.006.079z"/></svg>