<svg viewBox="0 0 400 400" xmlns="http://www.w3.org/2000/svg" xml:space="preserve" style="fill-rule:evenodd;clip-rule:evenodd;stroke-linejoin:round;stroke-miterlimit:2"><path d="m520.362 3005.86.077-.08c.154.05.18.08.077.08h-.154zm-35.03 27.08-.077.08c0-.04.077-.08.077-.08zm45.986 37.73c-.681.68-.846.31-1.543 1l-1.312.7-.077.07c-.363 0-.671.24-1.08.24l.308-.16c-1.236.16-1.399.16-2.777.62l.077-.16c-.666.23-1.587.81-2.083.31l-.463.16h-.463c-1.389 0-1.229.12-2.546.38l-.695.08-.771.16h-.618l-.617.07-.231-.23c-.943.14-.771.43-1.698.54l.232-.15c-.926.31-2.326-.21-3.241-.39l.077-.15c-.385 0-.773-.16-1.157-.16h-.232c-.663-.44-1.875-1-2.7-1l-.54-.23c-.581-.29-1.311-.62-1.775-1.08l-.231.15-.618-.31c-.09-.09-.217-.14-.308-.23l-.154-.15h-.116c-.083 0-.193-.16-.193-.16h.154c.116-.11-1.68-.25-1.389-.15l-.926-.31c-.348-.12-.725-.22-1.08-.31l-.926-.62c-.577-.57-1.338-.95-1.929-1.54 0 0-.165-.09-.231-.15l-.231-.23c-2.366-2.37-5.071-4.48-7.33-6.95l.308.16-.54-.54c0-.17-.309-.39-.309-.39-.011-.02 0-.08 0-.08-.105-.42-.316-.43-.54-.77l.155.08c-1.091-1.09-2.392-3.89-2.392-4.71 0 0-.077-.1-.077-.15l-.926-2.78.231.38c-.403-.8-.188-1.64-.463-2.46v.77c0-.65-.231-1.28-.231-1.93 0-.15.231.53.231.38v-1.42c0-.23-.617-.92-.617-.81-.792-1.59-.769-3.31-1.312-4.94v-.54c0-.11-.077-.2-.077-.31v-.46c0-1.56 1.158-7.52 1.158-3.09.314-1.26.127-1.18.385-2.47l.232-.15c0-.19.068-.37.14-.55l.029-.07c.072-.18.139-.35.139-.54v-.08l-.077.08c.092-1.1-.041-1.32.155-2.39v.07c.051-.1.077-.2.077-.3v-.54l.077-.16v-.23c.112 0 .077-.08.077-.15l.077-.08-.077.31-.077.46c.405 0 1.312-3.42 1.312-4.17l.077.08c.262-.42.905-1.6 1.311-2l-.077.15c.165-.16.155-.27.386-.39l.154-.23c0-.08.078-.23.078-.23l.54-.54c.206-.51.385-1.62.385-1.62.574-1.72 2.239-2.62 3.472-3.86l.232-.46.617-.62c-.225.15 1.08-2.04 1.08-2.08l.463-.46c-.397.49.913-.89 1.389-1.32l.232-.07.231-.23.154-.08c.407-.81 2.09-.62 2.701-1.24l-.463.16c1.063-.36 1.756-1.26 2.778-1.7l.154.23c.34 0 .779-.46 1.08-.61l.155-.08c.156-.16-.058-.23.154-.23l.231-.16-.617.23-.772.54c.331-.26.109-.61.541-.61 0 0 .096-.08.154-.08h.154c0-.05.013-.08.039-.08h.193c.376 0 1.049-.14 1.388-.23l.926-.31c.296 0 .556-.15.849-.15h.695c.081-.08.308-.04.308-.16h-.386c.906 0 2.701-.31 2.701-.31.057 0 .154-.07.154-.07h.463s.018.06 0 .07l-.154.08-.077.08h-.155c.037 0 .078.08.078.08s.096-.08.154-.08c0 0 .947-.88 1.543-1.08l-.309.08c.201-.2.373-.27.618-.39l-.386.23c.483-.24 1.321-.69 1.852-.69l.154.07h.309c-.037 0-.798.04-.078.16.404 0 .298.07.772.23 1.123 0 1.587-.33 2.238 0h1.543c-.919 0 .897.05 1.003.08h-.463c-.186 0 .279.28.463.31.394-.05.187-.24.656-.24h1.388c.698 0 1.486.49 2.122.7 1.466-.37 1.406-.33 3.627.23l-.232.15c.448 0 .77.39 1.157.39l-.462-.31c.795.2 1.749.9 2.469 1.31-1.309-.65.181.39.617.39l.154.15c-.912 0 1.383 1.19 2.083 1.78l.232.23.231.15c.24.12.519.23.772.31l.771.23c.414.17 1.179.35 1.523.43.307.31 1.539 1.26 1.95 1.73.529.62.9 1.36 1.388 2.01l-.385-.23c.07.07.196.17.285.23-.032-.01-.066 0-.131 0l.463.39c.027 0 .694.15 1.312.77l.231.15.231.23.155.24-.155-.08c.187.28.253.33.463.54l.309.46c-.646-.64.995 1.53 1.466 2.32.627 1.04 1.545 3.16 2.778 3.78.281.56 1.157 1.98 1.157 3.86l.232.07-.232.54.077.62c.444.22.33.24.54.62l-.077-.08c0 .24 1.349 2.35.617 1.62l.309.46h-.077c.085.26.231.77.231.77l.309.93-.077-.08.617 2.4-.694 3.47v.15h.077l.154.46c.24 0 .311-.14.617.62.091.45-.1.94 0 1.39l.232.69.154.24-.077.3v.16h-.077c-.059.12-.077.38-.077.38-.393-.39-.277 1.08-.386 1.63l.077-.16c-.134 1.88-.608 1.65-.926 3.4v.84l-.154.16v.31c0 .82-.501 1.46-.695 2.24l-.231.61-.154.62c-.716 1.02-1.288 2.02-1.929 3.09l-1.003 1c-.246.24-.514.47-.77.7.001 0 .003 0 0-.01h-.002c-.038.04-.043.04-.079.08-.025.03-.049.05-.075.08-.985.65-1.489 1.92-1.852 3.01l-.231.38-.232.46c-.302.31-.877.66-1.305.82.023-.01.047-.03.071-.04l-.155.07c.027 0 .055-.02.084-.03-2.929 1.96-4.564 3.53-6.796 6.13a.424.424 0 0 1-.193.11l-.193.04c.059 0 .127-.01.193-.04l.193-.03.54-.62.077-.08c.057-.11.231-.31.231-.31.156-.15-.133.42-.231.62l-.386.39c-.051.05-.077.1-.077.15h-.309c-.268.13-.869.31-1.157.31l.077-.08h-.077c-.174.06-1.929.47-1.929.77h-.154v-.07l-.077-.08s-.177.05-.232 0h.077l.077-.08 1.158-.38c-.4 0-1.158.3-1.158.3l-.154.16zm14.276-12.03c-.002.01-.003.02-.006.02-.007.02-.012.04-.027.05-.033.04-.078.05-.12.08l.153-.15zm-.153.15a.549.549 0 0 0-.08.08l.077-.08h.003zm-7.971-46.72c-.109-.11-.102-.14.098-.04l.077.08s-.067-.02-.175-.04zm3.238 3.74c.028.01.055.03.1.08 0 0-.042-.03-.1-.08zm-8.582 38.38a21.773 21.773 0 0 0-1.705-1.86 46.101 46.101 0 0 0-1.883-1.73l-.068-.06c-.015-.02-.037-.03-.067-.03-.12-.09-.247-.18-.381-.27-.135-.08-.262-.16-.381-.22-.18-.09-.352-.19-.516-.31-.165-.12-.322-.24-.471-.36l-.359-.36a.337.337 0 0 0-.157-.2c-.075-.05-.142-.1-.202-.16l-.448-.45c-.15-.15-.284-.31-.404-.49-.06-.12-.142-.24-.247-.36a6.561 6.561 0 0 1-.291-.36c-.209-.27-.456-.5-.74-.69a9.23 9.23 0 0 1-.83-.66c-.06-.05-.127-.11-.202-.17a2.445 2.445 0 0 1-.202-.18 13.25 13.25 0 0 1-.358-.38c-.12-.14-.24-.28-.359-.43l-.449-.36a5.374 5.374 0 0 1-.448-.4.243.243 0 0 0-.112-.07c-.045-.02-.098-.01-.157.02-.03 0-.068-.01-.112-.02a.362.362 0 0 1-.113-.07 2.708 2.708 0 0 1-.336-.29c-.105-.1-.202-.22-.292-.34a1.43 1.43 0 0 1-.358-.42 3.03 3.03 0 0 0-.314-.47c-.03-.03-.06-.07-.09-.11a.623.623 0 0 0-.09-.12c0-.09-.015-.16-.045-.22l-.089-.18c-.12.12-.232.25-.337.38-.104.14-.216.28-.336.43-.15.18-.321.35-.516.51-.194.17-.396.32-.605.47a.28.28 0 0 0-.068.12c-.015.04-.037.09-.067.15a.35.35 0 0 0-.067.09.338.338 0 0 0-.023.14c.03.03.06.06.09.11.03.04.075.1.135.16l.179.17h.045l.269.14c.03 0 .052.01.067.04.015.03.038.06.068.09l.807.63c.269.21.523.43.762.68.12.11.24.22.359.31.12.09.239.16.359.22.09.09.194.18.314.25s.239.16.359.25c.089.09.194.18.314.29.119.1.224.21.314.33l.381.48c.134.16.291.3.471.42.239.18.471.35.695.49.224.15.471.27.74.36.03 0 .052.01.067.03l.023.02.628.36c.209.12.388.28.538.49.03.03.06.05.09.07.03.01.059.03.089.07.12.08.247.18.382.29.134.1.261.2.381.29.209.15.411.3.605.45.195.15.382.31.561.49.209.15.419.29.628.43.209.13.433.26.673.38.03 0 .067.01.112.04a.28.28 0 0 0 .157.05c.089.03.172.06.246.11.075.04.157.1.247.16.03.06.075.09.135.11.059.01.119.02.179.02l.045.05c.09 0 .187.01.291.04.105.03.202.06.292.09.03 0 .06.01.09.02.03.02.059.02.089.02v.05c.06 0 .112.01.157.04s.098.06.157.09h.045c.03.03.067.05.112.05s.083.01.112.04c.06.03.113.06.157.07.045.02.083.05.113.11.029.03.052.06.067.09a.35.35 0 0 0 .067.09l.718.54c.089.03.172.06.246.09.075.03.142.06.202.09a.4.4 0 0 0-.045-.18l-.089-.18zm-24.848-27.94c-.359-.36-.74-.67-1.144-.94a9.595 9.595 0 0 0-1.278-.72l-.022-.02c-.015-.02-.038-.02-.067-.02h-.045c-.389.29-.8.56-1.234.8-.433.24-.83.54-1.188.9a17.254 17.254 0 0 0-3.431 3.81 14.24 14.24 0 0 0-2.041 4.85l.045.62h.045c0 .09.044.11.134.05a.51.51 0 0 0 .18-.18c.029-.06.059-.11.089-.16.03-.04.06-.1.09-.15.03-.06.06-.12.09-.16.03-.05.044-.08.044-.11.03-.03.045-.06.045-.07v-.02c.359-.66.748-1.28 1.166-1.86.419-.59.868-1.12 1.346-1.6 0-.03.007-.05.022-.07a.122.122 0 0 1 .068-.02c0-.03.007-.04.022-.04s.023-.02.023-.05c.299-.3.605-.58.919-.85.314-.27.635-.52.964-.76a39.952 39.952 0 0 1 1.705-1.08c.209-.12.411-.24.605-.36s.396-.24.606-.36c.358-.23.732-.47 1.121-.69a6.98 6.98 0 0 1 1.211-.56.2.2 0 0 0-.023-.09.35.35 0 0 0-.067-.09zm11.527 1.84c-.06-.03-.112-.05-.157-.07-.045-.01-.097-.04-.157-.07l-.359-.18-.09.09a.659.659 0 0 0-.179-.13.523.523 0 0 1-.135-.09 7.554 7.554 0 0 1-.493-.27 3.087 3.087 0 0 0-.448-.22c-.15-.03-.277-.08-.382-.14-.104-.06-.216-.1-.336-.13a4.097 4.097 0 0 0-.561-.32 23.93 23.93 0 0 0-.605-.27 6.89 6.89 0 0 1-.538-.29c-.18-.1-.359-.2-.539-.29a3.238 3.238 0 0 1-.336-.2 2.098 2.098 0 0 0-.336-.2h-.023c-.015 0-.022-.02-.022-.05h-.045c-.15-.09-.292-.18-.426-.27a2.323 2.323 0 0 0-.426-.22.731.731 0 0 0-.112-.09.205.205 0 0 0-.112-.04c-.21-.15-.427-.29-.651-.41a5.818 5.818 0 0 1-.65-.4 6.357 6.357 0 0 0-1.032-.61c-.359-.16-.732-.32-1.121-.47h-.045a.707.707 0 0 1-.224-.04.563.563 0 0 1-.224-.14c-.09-.06-.187-.11-.292-.16a3.007 3.007 0 0 0-.336-.11.523.523 0 0 0-.135-.09l-.179-.09c0 .03-.008.06-.023.07a.118.118 0 0 1-.067.02l-.359-.18a.731.731 0 0 0-.112-.09.731.731 0 0 1-.112-.09c-.329-.12-.665-.23-1.009-.36a5.77 5.77 0 0 1-1.009-.44c0 .03-.008.04-.023.04h-.067v.09c0 .03-.015.08-.045.14-.03.11-.022.21.023.27.044.05.112.13.201.22.09.03.18.07.27.13l.269.18c.089.06.172.13.246.21.075.07.157.14.247.2.239.12.456.27.65.44.195.18.396.36.606.54.03.06.075.11.134.16.06.05.105.1.135.16.329.15.62.35.875.6.254.26.515.5.784.74.509.48 1.039.97 1.593 1.46.553.49 1.098.95 1.637 1.37.538.42 1.046.85 1.525 1.3.478.45.986.87 1.525 1.25.149.12.306.25.47.39.165.13.322.26.471.38.09-.06.172-.12.247-.16a.89.89 0 0 0 .202-.16c.12-.09.232-.18.336-.29l.292-.29c.209-.21.426-.41.65-.6.224-.2.456-.4.695-.61.09-.06.172-.12.247-.18.075-.06.097-.16.067-.31l.045-.05c0-.03.008-.07.023-.11.015-.05.022-.1.022-.16v-.16c0-.04.015-.09.045-.15zm17.895 1.84a3.14 3.14 0 0 0-.201-.27 4.033 4.033 0 0 0-.247-.27c-.179-.21-.344-.41-.493-.61-.15-.19-.27-.42-.359-.69-.269-.27-.553-.53-.852-.79-.299-.25-.613-.5-.942-.74a18.05 18.05 0 0 1-.987-.74c-.359-.28-.733-.33-1.121-.15l-.359.18c-.209.29-.411.59-.606.89-.194.3-.396.6-.605.9.837.3 1.637.75 2.399 1.35.763.59 1.473 1.19 2.131 1.79.359.3.695.63 1.009.99.314.35.591.74.83 1.16.299.27.575.56.83.88.254.31.471.63.65.96.06.06.112.12.157.18s.082.12.112.18c.03.03.082.05.157.05s.142-.02.202-.05h.022c.015 0 .023.01.023.05h.045c-.06-.48-.135-.96-.225-1.42-.089-.46-.209-.92-.359-1.37-.179-.42-.381-.83-.605-1.23-.224-.4-.426-.81-.606-1.23zm-22.918 6.32c0-.06-.015-.1-.045-.11-.03-.02-.06-.04-.09-.07a2.74 2.74 0 0 1-.493-.31c-.15-.12-.269-.27-.359-.45 0-.03-.015-.06-.045-.09l-.09-.09c-.089-.06-.179-.13-.269-.2-.09-.08-.179-.14-.269-.2-.209-.15-.419-.3-.628-.43a6.927 6.927 0 0 1-.583-.43 6.953 6.953 0 0 0-.852-.56c-.299-.16-.598-.33-.897-.51l-.023-.02c-.014-.02-.037-.03-.067-.03a.84.84 0 0 1-.314-.15c-.089-.08-.179-.16-.269-.25a5.237 5.237 0 0 0-.493-.43c-.18-.13-.389-.24-.628-.33-.15-.09-.314-.16-.493-.2-.18-.05-.359-.12-.539-.21a1.226 1.226 0 0 0-.359-.11 2.263 2.263 0 0 1-.358-.07c-.06 0-.105.01-.135.03-.03.01-.06.02-.09.02.479.57 1.002 1.11 1.57 1.61.568.51 1.092 1.03 1.57 1.57.329.36.643.73.942 1.1.299.37.613.73.942 1.06.119.08.254.21.403.35.15.15.314.3.494.45h.045c.03 0 .059.01.089.03.03.01.06.03.09.06.03 0 .067.02.112.05.045.03.097.04.157.04.09.03.172.04.247.02.075-.01.142-.06.202-.15a.805.805 0 0 1 .224-.23c.09-.06.179-.1.269-.13.12-.09.247-.17.381-.22.135-.06.292-.09.471-.09.06 0 .112-.04.157-.1.045-.06.052-.13.023-.22zm3.184-16.64c-1.076.09-2.145.27-3.207.54-1.061.27-2.1.58-3.117.94v.05c-.12.09-.247.18-.381.27-.135.08-.262.18-.381.26 0 .03-.008.06-.023.07a.107.107 0 0 0-.022.07.732.732 0 0 0-.157.11l-.112.11c.448.27.897.52 1.345.74.449.23.912.44 1.39.65.15.06.307.12.471.18.165.06.337.14.516.23l.045-.05.045.02c.03.02.075.03.134.03.27-.12.546-.22.83-.29.284-.08.561-.15.83-.21.269-.06.546-.1.83-.13.284-.03.575-.03.874 0a9.39 9.39 0 0 1 1.189-.02c.404.01.785.02 1.144.02.926.03 1.831.13 2.713.29.882.17 1.712.52 2.489 1.06a7.781 7.781 0 0 0 1.48-1.04c.479-.41.927-.8 1.346-1.16l.112-.11c.045-.05.082-.1.112-.16a14.16 14.16 0 0 0-5.023-2.07 22.723 22.723 0 0 0-5.472-.4zm17.537-1.25c-.06.03-.127.06-.202.11-.075.04-.142.1-.202.15a.96.96 0 0 0-.157.21c-.045.07-.097.14-.157.2-.119.09-.239.19-.359.29-.119.1-.239.22-.358.34l-1.032 1.03c-.179.15-.351.31-.516.49-.164.18-.336.36-.516.54 0 .03-.015.05-.044.07-.03.01-.06.03-.09.06-.06 0-.12 0-.18-.02a1.078 1.078 0 0 0-.179-.02.732.732 0 0 0-.157.11.495.495 0 0 1-.157.11c-.209.21-.411.42-.605.63-.195.21-.397.42-.606.63-.269.27-.531.54-.785.81s-.516.52-.785.76l-.403.4c-.12.12-.255.24-.404.36-.179.12-.359.25-.538.38-.18.14-.359.28-.538.43l-.987.81c-.329.27-.643.55-.942.85-.239.24-.486.47-.74.69-.254.23-.516.46-.785.7l-.179.18c-.15.12-.307.25-.471.38a5.31 5.31 0 0 0-.471.43l-.068.06a.112.112 0 0 0-.022.07l-1.727 1.73a.118.118 0 0 1-.067.02c-.06.06-.112.1-.157.13a.356.356 0 0 0-.112.14c-.12.09-.217.19-.292.31-.074.12-.172.23-.291.32a.49.49 0 0 0-.224.15c-.06.08-.12.15-.18.21a5.4 5.4 0 0 1-.493.58l-.875.87c-.104.11-.202.23-.291.38l-.359.36a6.561 6.561 0 0 0-.628.72c-.269.3-.523.61-.763.94-.239.33-.478.68-.717 1.03-.18.24-.359.5-.538.77l-.539.8c-.119.18-.239.37-.358.56-.12.2-.24.39-.359.56-.15.18-.299.37-.449.56-.149.2-.299.4-.448.61-.03.03-.06.05-.09.07-.03.01-.06.03-.09.07a4.745 4.745 0 0 1-.358-.3c-.12-.1-.225-.21-.314-.33-.12-.09-.24-.18-.359-.25a.665.665 0 0 1-.269-.34l-.09-.09c-.09-.06-.179-.12-.269-.2a2.27 2.27 0 0 1-.224-.2c-.15-.12-.299-.23-.449-.33a3.534 3.534 0 0 1-.404-.34c-.328-.24-.65-.47-.964-.68-.314-.2-.62-.41-.919-.62h-.09c-.03 0-.06-.03-.09-.09a2.394 2.394 0 0 1-.358-.23c-.12-.09-.24-.16-.359-.22l-.269-.18c-.09-.06-.165-.1-.225-.14l-.246-.24a.576.576 0 0 0-.292-.16l-.179-.18c-.299-.24-.606-.47-.92-.69-.314-.23-.62-.46-.919-.7h-.023c-.015 0-.022.02-.022.05-.03 0-.045.01-.045.04s-.015.05-.045.05h-.134c-.15-.06-.307-.12-.471-.18a3.326 3.326 0 0 0-.471-.14l-.135-.13a.548.548 0 0 0-.291-.16c-.105-.01-.202-.02-.292-.02-.03-.03-.06-.04-.089-.02-.03.01-.06.02-.09.02.119.18.247.35.381.51.135.17.262.33.381.47 0 .04.008.05.023.05s.037.01.067.05c.09.03.164.07.224.13s.105.12.135.18c.149.24.291.46.426.65.134.19.276.4.426.61.179.17.329.37.448.58.12.21.225.42.314.63.359.44.726.87 1.099 1.27.374.41.725.83 1.054 1.28.24.27.486.54.74.81.255.27.486.54.696.81.149.09.291.19.426.31.134.12.261.26.381.4.09.12.179.26.269.41.09.15.149.31.179.49 0 .03.008.07.023.11a.28.28 0 0 0 .067.12c.06.09.097.17.112.26.015.1.038.2.067.32-.029.06-.059.11-.089.16-.03.04-.075.09-.135.15-.239.3-.478.61-.717.92-.24.32-.494.62-.763.92-.209.21-.404.43-.583.65-.179.23-.359.44-.538.65-.12.15-.247.29-.381.43-.135.13-.247.29-.337.47-.209.27-.403.55-.583.83-.179.28-.359.58-.538.87-.06.12-.127.24-.202.36-.075.12-.142.24-.202.36a.913.913 0 0 0-.134.16c-.03.04-.045.11-.045.2 0 .09-.015.19-.045.29-.03.11-.09.2-.179.29-.03.03-.06.08-.09.14-.03.06-.06.1-.09.13-.119.18-.231.35-.336.52-.105.16-.202.32-.292.47-.059.15-.134.28-.224.4s-.149.27-.179.45c-.03.09-.068.17-.112.25-.045.07-.098.15-.157.25-.12.11-.217.26-.292.42-.075.17-.142.34-.202.52-.03.09-.06.18-.09.29-.029.1-.059.2-.089.29a.2.2 0 0 1-.023.09.35.35 0 0 1-.067.09 8.144 8.144 0 0 1-.628.9l-.09.17a.572.572 0 0 0-.044.23.2.2 0 0 1-.023.09l-.067.13c-.09.15-.179.31-.269.47-.09.17-.195.34-.314.52-.06.09-.12.19-.18.29-.059.11-.119.22-.179.34-.03.06-.03.12 0 .18s.06.1.09.13c.06 0 .119 0 .179-.02.06-.01.105-.05.135-.11 0-.03.007-.06.022-.09a.375.375 0 0 1 .067-.09c.03-.09.068-.17.113-.25a.325.325 0 0 1 .201-.15c.15-.04.277-.09.382-.19a.553.553 0 0 0 .201-.31l.135-.13c.12-.12.247-.24.381-.36.135-.12.277-.23.426-.32.24-.17.456-.37.651-.58.194-.21.396-.42.605-.63.09-.09.172-.18.247-.27.075-.09.157-.16.246-.22h.09c.12.03.232.03.337 0 .104-.03.186-.14.246-.31l.09-.09c.06-.06.12-.13.179-.21a.71.71 0 0 0 .135-.24c0-.06.015-.12.045-.16.03-.04.06-.1.089-.16.03-.06.068-.12.113-.18a.807.807 0 0 1 .201-.18c.03-.02.068-.05.113-.08.044-.03.082-.07.112-.09a19.375 19.375 0 0 1 1.166-1.08l1.076-1.08c.09-.12.187-.24.292-.36.104-.12.217-.22.336-.31.12-.12.232-.22.337-.31a.915.915 0 0 0 .246-.36l.18-.18a.47.47 0 0 0 .157-.14c.044-.06.082-.12.112-.18.119-.15.246-.29.381-.42l.65-.65c.09-.09.18-.2.269-.32.12-.15.24-.3.359-.47.12-.16.254-.3.404-.42.03 0 .045-.02.045-.05 0-.03.015-.06.045-.09l.291-.29c.105-.1.217-.2.337-.29.119-.06.246-.11.381-.16.134-.04.276-.07.426-.07 0 .03.007.06.022.07l.068.07h.157c.044 0 .082.03.112.09.239.18.493.35.762.51.269.17.553.33.852.47.06-.02.12-.02.18 0l.179.1c.06.03.112.06.157.11.045.04.097.08.157.11l1.076.54c.509.33 1.032.63 1.57.92.538.28 1.062.59 1.57.92.449.3.882.6 1.301.92.418.31.867.59 1.345.83.15.05.299.12.449.2.149.07.299.15.448.24a.2.2 0 0 1 .023-.09l.022-.04a3.206 3.206 0 0 0-.179-.45c-.15-.18-.292-.35-.426-.52a7.852 7.852 0 0 0-.426-.47.976.976 0 0 0-.202-.22 2.445 2.445 0 0 1-.202-.18c-.18-.27-.374-.51-.583-.74-.209-.22-.434-.45-.673-.7a5.03 5.03 0 0 1-.448-.38c-.15-.13-.314-.24-.494-.33a4.926 4.926 0 0 1-.493-.38c-.15-.14-.299-.26-.449-.39l-.202-.2a1.346 1.346 0 0 1-.201-.24c-.09-.09-.187-.2-.292-.32a6.775 6.775 0 0 0-.291-.31l-.045-.05a.122.122 0 0 0-.09-.04c-.03 0-.045-.02-.045-.05a.849.849 0 0 0-.202-.15c-.074-.05-.142-.1-.201-.16l-.023-.02a.107.107 0 0 1-.022-.07l-.112-.11a.506.506 0 0 0-.157-.11 6.41 6.41 0 0 0-.471-.59c-.165-.18-.322-.34-.471-.49-.06-.06-.112-.13-.157-.2a.897.897 0 0 0-.157-.2c-.09-.15-.187-.29-.292-.43-.104-.13-.202-.26-.291-.38l-.539-.72a1.257 1.257 0 0 1-.157-.2 1.196 1.196 0 0 1-.112-.25c.09-.21.187-.41.292-.6.105-.2.247-.38.426-.56.209-.18.419-.38.628-.59.209-.21.419-.4.628-.58.239-.24.486-.48.74-.72s.501-.49.74-.76c.03-.06.075-.11.134-.16.06-.04.12-.09.18-.15l.359-.36c.119-.12.224-.26.314-.41.149-.2.299-.41.448-.6.15-.2.314-.38.493-.56.12-.15.247-.3.382-.45.134-.15.261-.3.381-.45.179-.21.351-.43.516-.65.164-.22.321-.46.471-.69l.358-.54c.12-.18.27-.35.449-.5 0-.03.022-.04.067-.04.045 0 .083-.02.112-.05l.18.18c.06.06.119.11.179.14h.023c.015 0 .037.01.067.04.688.24 1.368.53 2.041.85.672.33 1.353.66 2.04.99a.2.2 0 0 1 .023-.09.199.199 0 0 0 .022-.09c0-.03-.007-.06-.022-.11a.333.333 0 0 1-.023-.11c-.03-.06-.059-.13-.089-.2-.03-.08-.06-.15-.09-.2 0-.04-.008-.06-.022-.09l-.023-.05c-.179-.24-.351-.46-.516-.67a7.043 7.043 0 0 0-.56-.63l-.023-.02a.107.107 0 0 1-.022-.07c0-.03-.008-.05-.023-.07a.118.118 0 0 0-.067-.02c-.09-.12-.187-.22-.291-.31-.105-.09-.202-.2-.292-.32-.12-.12-.224-.26-.314-.42-.09-.17-.134-.34-.134-.52l.515-.69c.165-.23.322-.46.471-.7.03-.06.068-.12.112-.18.045-.06.083-.12.113-.18.119-.18.246-.35.381-.52.134-.16.261-.32.381-.47.179-.24.351-.47.516-.71.164-.24.336-.48.516-.72.328-.39.635-.79.919-1.21.284-.42.576-.84.875-1.26.179-.24.373-.46.583-.67.209-.21.403-.43.583-.67l.336-.34c.105-.1.202-.22.292-.34l.269-.36c.089-.11.164-.23.224-.35 0-.03.015-.06.045-.09l.09-.09c.089-.15.186-.29.291-.41.105-.12.202-.24.292-.36l.179-.35c.12-.18.239-.37.359-.56.119-.2.239-.39.359-.57 0-.03.007-.04.022-.04h.023c.089-.18.209-.36.358-.54.15-.18.299-.34.449-.49.209-.24.426-.49.65-.76.224-.27.426-.54.606-.81.059-.12.112-.23.157-.34.044-.1.097-.2.157-.29l-.045-.04z" style="fill-rule:nonzero" transform="matrix(5.82496 0 0 5.78595 -2815.36 -17388.6)"/></svg>