<svg viewBox="0 0 400 400" xmlns="http://www.w3.org/2000/svg" xml:space="preserve" style="fill-rule:evenodd;clip-rule:evenodd;stroke-linejoin:round;stroke-miterlimit:2"><path d="m687.554 3023.09-.077.08c0-.04.077-.08.077-.08zm35.03-27.08.077-.08c.154.05.18.08.077.08h-.154zm20.346 9.96c.028 0 .055.02.1.07l-.1-.07zm-3.238-3.75c-.109-.11-.102-.14.098-.04l.077.08s-.067-.02-.175-.04zm-6.152 58.6c-.681.68-.846.31-1.543 1.01l-1.312.69-.077.08c-.363 0-.671.23-1.08.23l.308-.16c-1.236.16-1.399.16-2.777.62l.077-.15c-.666.22-1.587.8-2.083.31l-.463.15h-.463c-1.389 0-1.229.12-2.546.39l-.695.07-.771.16h-.618l-.617.07-.231-.23c-.943.14-.771.43-1.698.54l.232-.15c-.926.31-2.326-.21-3.241-.39l.077-.15c-.385 0-.773-.16-1.157-.16h-.232c-.663-.44-1.875-1-2.7-1l-.54-.23c-.581-.29-1.311-.62-1.775-1.08l-.231.15-.618-.31c-.091-.09-.217-.14-.308-.23l-.155-.15h-.115c-.083 0-.193-.16-.193-.16h.154c.116-.11-1.68-.25-1.389-.15l-.926-.31c-.348-.12-.725-.22-1.08-.31l-.926-.61c-.577-.58-1.338-.96-1.929-1.55 0 0-.166-.09-.231-.15l-.232-.23c-2.365-2.37-5.071-4.48-7.33-6.95l.309.16-.54-.54c0-.17-.309-.39-.309-.39-.011-.02 0-.08 0-.08-.105-.42-.316-.43-.54-.77l.155.08c-1.092-1.09-2.392-3.89-2.392-4.71 0 0-.077-.09-.077-.15l-.926-2.78.231.39c-.403-.81-.188-1.65-.463-2.47v.77c0-.65-.231-1.28-.231-1.93 0-.15.231.54.231.39v-1.43c0-.23-.617-.92-.617-.81-.792-1.59-.769-3.31-1.312-4.94v-.54c0-.11-.077-.2-.077-.31v-.46c0-1.56 1.157-7.52 1.157-3.09.315-1.26.128-1.17.386-2.47l.232-.15c0-.19.068-.37.14-.54l.028-.07c.073-.18.14-.36.14-.55v-.08l-.077.08c.092-1.1-.041-1.32.154-2.39v.08a.717.717 0 0 0 .078-.31v-.54l.077-.16v-.23c.111 0 .077-.08.077-.15l.077-.08-.077.31-.077.46c.404 0 1.311-3.42 1.311-4.16l.078.07c.262-.42.905-1.6 1.311-2l-.077.15c.165-.16.155-.27.386-.38l.154-.24c0-.08.077-.23.077-.23l.541-.54c.206-.51.385-1.62.385-1.62.573-1.72 2.238-2.62 3.472-3.86l.232-.46.617-.62c-.225.15 1.08-2.04 1.08-2.08l.463-.46c-.398.49.913-.89 1.389-1.31l.232-.08.231-.23.154-.08c.407-.81 2.09-.62 2.701-1.23l-.463.15c1.063-.35 1.756-1.26 2.778-1.7l.154.23c.34 0 .779-.46 1.08-.61l.154-.08c.157-.16-.058-.23.155-.23l.231-.16-.617.24-.772.54c.331-.27.109-.62.54-.62 0 0 .097-.08.155-.08h.154c0-.05.013-.08.039-.08h.193c.376 0 1.049-.14 1.388-.23l.926-.31c.296 0 .556-.15.849-.15h.694c.082-.08.309-.04.309-.16h-.386c.906 0 2.701-.3 2.701-.3.057 0 .154-.08.154-.08h.463s.018.06 0 .08l-.154.07-.077.08h-.155c.037 0 .077.08.077.08s.097-.08.155-.08c0 0 .947-.88 1.543-1.08l-.309.08c.201-.2.373-.27.617-.39l-.385.23c.483-.24 1.321-.69 1.851-.69l.155.08h.308c-.036 0-.797.03-.077.15.404 0 .298.07.772.23 1.123 0 1.587-.32 2.237 0h1.544c-.919 0 .897.05 1.003.08h-.463c-.186 0 .279.28.463.31.394-.05.187-.23.655-.23h1.389c.698 0 1.486.48 2.122.69 1.466-.37 1.406-.32 3.626.23l-.231.16c.448 0 .77.38 1.157.38l-.463-.31c.796.2 1.75.9 2.469 1.32-1.308-.66.182.38.618.38l.154.16c-.912 0 1.382 1.19 2.083 1.77l.232.23.231.16c.24.12.519.22.772.31l.771.23c.414.16 1.179.34 1.523.42.307.31 1.538 1.26 1.949 1.74.53.61.901 1.35 1.389 2l-.386-.23c.071.07.197.17.286.24-.032-.01-.066-.01-.131-.01l.463.39c.027 0 .694.15 1.311.77l.232.15.231.24.155.23-.155-.08c.187.28.253.33.463.54l.309.46c-.646-.64.995 1.54 1.466 2.32.627 1.04 1.545 3.16 2.778 3.78.281.56 1.157 1.98 1.157 3.86l.231.07-.231.54.077.62c.444.22.33.24.54.62l-.077-.08c0 .25 1.349 2.35.617 1.62l.309.46h-.077c.085.26.231.78.231.78l.309.92-.077-.07.617 2.39-.694 3.47v.15h.077l.154.47c.24 0 .311-.15.617.61.091.46-.1.94 0 1.39l.232.7.154.23-.077.31v.15h-.077c-.059.12-.077.39-.077.39-.393-.4-.277 1.07-.386 1.62l.077-.16c-.134 1.88-.608 1.65-.926 3.4v.85l-.154.15v.31c0 .83-.501 1.46-.695 2.24l-.231.61-.154.62c-.717 1.02-1.288 2.02-1.929 3.09l-1.003 1c-.246.25-.514.47-.77.7.001 0 .003 0 0-.01h-.002c-.039.04-.043.04-.079.08-.025.03-.05.05-.075.08-.986.66-1.489 1.92-1.852 3.01l-.232.38-.231.47c-.303.3-.877.65-1.306.82.024-.02.048-.03.071-.05l-.154.08.083-.03c-2.928 1.96-4.563 3.52-6.796 6.12a.551.551 0 0 1-.192.12l-.193.04c.058 0 .127-.02.193-.04l.192-.04.541-.62.077-.08c.057-.11.231-.3.231-.3.156-.16-.133.42-.231.61l-.386.39c-.051.05-.077.1-.077.15h-.309c-.268.14-.869.31-1.157.31l.077-.08h-.077c-.174.06-1.929.47-1.929.78h-.154v-.08l-.078-.08s-.177.06-.231 0h.077l.077-.08 1.158-.38c-.4 0-1.158.31-1.158.31l-.154.15zm14.276-12.03-.006.03c-.007.02-.012.03-.028.04-.032.04-.077.06-.119.08l.153-.15zm-.153.15a.549.549 0 0 0-.08.08l.077-.08h.003zm-20.042 1.52c.066.06.135.12.205.18.032.02.064.05.098.07-.423-.18-.831-.38-1.221-.61l-1.172-.68c-.391-.23-.749-.5-1.074-.83a8.306 8.306 0 0 0-.44-.41 9.116 9.116 0 0 0-.488-.42 1.989 1.989 0 0 1-.391-.41 5.005 5.005 0 0 1-.293-.52 7.495 7.495 0 0 1-.854-2.73c-.076-.65-.126-1.29-.152-1.92l-.019-.18a17.41 17.41 0 0 0-.122-.81c-.049-.27-.09-.54-.122-.8 0-.26-.008-.52-.025-.78-.016-.26-.024-.51-.024-.74a1.716 1.716 0 0 1-.024-.51 5.774 5.774 0 0 0 0-1.07c-.017-.21-.009-.4.024-.57.033-.12.073-.25.122-.38.049-.14.09-.27.122-.4l.098-.29c.032-.1.049-.21.049-.34.065-.2.146-.38.244-.56.097-.18.179-.37.244-.56.065-.2.138-.38.22-.54.081-.16.17-.33.268-.49.065-.1.139-.2.22-.32.081-.11.155-.22.22-.31.097-.17.187-.32.268-.47.082-.14.155-.28.22-.41.098-.2.203-.38.317-.54.114-.16.236-.34.366-.54.066-.13.147-.27.245-.41.097-.15.195-.3.293-.47.13-.13.252-.26.366-.39.114-.13.236-.27.366-.44.13-.16.277-.32.439-.48l.489-.49c.163-.17.333-.32.512-.47.179-.14.367-.28.562-.41.163-.13.334-.24.513-.32.179-.08.333-.17.464-.27.13-.09.236-.19.317-.29.081-.1.171-.18.268-.24.391-.23.814-.4 1.27-.52.456-.11.911-.2 1.367-.27a47.073 47.073 0 0 1 4.102-.19c.455 0 .887.08 1.294.24.407.17.805.36 1.196.59l.488.34.094.05c.107.13.206.25.297.39.13.2.277.39.439.59.131.22.261.44.391.63.114.17.216.36.305.55.056.76.076 1.51.061 2.26-.016.8-.024 1.6-.024 2.42a6.446 6.446 0 0 1 .097-1.13c.066-.29.114-.58.147-.88l.098-.87.001-.04c.016.07.032.15.047.23l.098.54.049.34v-1.95c0-.13.016-.26.049-.39 0-.1.008-.2.024-.3a.608.608 0 0 0-.024-.29l-.196-.54-.046-.22c-.033-.54-.099-1.07-.198-1.58-.065-.62-.163-1.24-.293-1.86a35.02 35.02 0 0 0-.439-1.85 5.983 5.983 0 0 0-.147-.71c-.065-.25-.13-.5-.195-.76a4.482 4.482 0 0 1-.171-.51 5.454 5.454 0 0 0-.171-.52 1.845 1.845 0 0 0-.171-.48 2.141 2.141 0 0 1-.171-.49 21.53 21.53 0 0 0-.634-1.52c-.228-.48-.472-.97-.733-1.46-.163-.29-.35-.57-.561-.83-.212-.26-.432-.52-.659-.78-.098-.1-.196-.21-.293-.32-.098-.11-.196-.22-.293-.32-.163-.16-.342-.3-.538-.41-.195-.12-.39-.24-.585-.37-.261-.13-.529-.27-.806-.41a4.09 4.09 0 0 1-.757-.52c-.228-.16-.448-.32-.659-.48-.212-.17-.431-.3-.659-.4-.358-.16-.733-.3-1.123-.41-.391-.11-.782-.25-1.172-.41-.13-.07-.269-.14-.415-.2-.147-.07-.285-.13-.415-.19-.163-.04-.318-.07-.464-.1a5.712 5.712 0 0 0-.464-.1 7.274 7.274 0 0 1-1.05-.17 7.274 7.274 0 0 0-1.05-.17c-.911-.13-1.814-.25-2.71-.37-.895-.11-1.798-.25-2.71-.41a6.938 6.938 0 0 0-.512-.1c-.179-.03-.35-.05-.513-.05a5.412 5.412 0 0 0-.708-.05c-.244 0-.48.02-.708.05h-3.906c-.489 0-.993-.01-1.514-.03-.521-.01-1.025 0-1.514.03-.358.03-.699.08-1.025.15-.325.06-.667.11-1.025.14-.293.07-.586.12-.879.17a7.06 7.06 0 0 0-.879.22c-.195.1-.399.22-.611.35-.211.13-.415.25-.61.39-.521.35-1.033.74-1.538 1.17-.505.42-1.001.84-1.489 1.27l-1.172 1.17c-.228.23-.423.46-.586.71-.163.24-.326.51-.488.8-.261.46-.456.95-.586 1.47-.13.52-.293 1.02-.489 1.51-.065.16-.138.33-.219.49-.082.16-.155.33-.22.49l-.098.44c-.032.09-.073.19-.122.29-.049.1-.089.21-.122.34a14.158 14.158 0 0 0-.195 2.35v.85c0 .28.016.55.049.81.065.26.097.53.097.8 0 .28.017.55.049.81.033.26.073.53.122.8.049.28.09.55.122.81.033.23.049.45.049.66 0 .21.049.41.147.61.097.19.203.4.317.61.114.21.22.43.317.66l.245.44.048-1.17v-.37c0-.11-.016-.24-.048-.37-.131-.49-.22-.98-.269-1.49a9.603 9.603 0 0 1-.024-1.54 7.437 7.437 0 0 1 .195-1.7c.098-.23.187-.45.268-.66.082-.21.171-.43.269-.66.195-.42.407-.85.635-1.27.228-.42.472-.85.732-1.27.358-.59.757-1.16 1.197-1.73.439-.57.919-1.09 1.44-1.54.293-.26.61-.51.952-.73.342-.23.676-.46 1.001-.69.358-.26.724-.5 1.099-.71.374-.21.773-.41 1.196-.61a32.12 32.12 0 0 1 2.002-.9c.684-.28 1.4-.48 2.148-.61.391-.07.782-.12 1.172-.17.391-.05.798-.09 1.221-.12.358 0 .732-.03 1.123-.08s.765-.07 1.123-.07h6.03c.537 0 1.066.03 1.587.1.423.03.822.09 1.197.19.374.1.756.2 1.147.3.163.03.334.05.513.07.179.01.35.04.512.07.196.07.399.13.611.2.211.06.415.13.61.19.391.17.789.31 1.196.44.407.13.806.3 1.197.49.455.26.895.54 1.318.83.423.29.863.59 1.318.88.293.16.586.33.879.51.293.18.554.4.782.66.227.23.455.47.683.71.228.24.407.51.537.8.456.75.79 1.55 1.001 2.4.212.84.432 1.67.659 2.49.131.42.277.84.44 1.27.052.13.102.27.151.4a1.89 1.89 0 0 0-.176-.23 2.387 2.387 0 0 1-.415-.71 2.91 2.91 0 0 0-.219-.44 5.682 5.682 0 0 0-.269-.39c-.13-.16-.252-.33-.366-.49a4.44 4.44 0 0 0-.415-.49 3.62 3.62 0 0 1-.44-.53c-.13-.2-.276-.39-.439-.59a5.15 5.15 0 0 0-.732-.61c-.261-.18-.521-.37-.782-.56a3.084 3.084 0 0 0-.781-.39c-.293-.1-.57-.2-.83-.3-.358-.12-.716-.25-1.074-.36-.358-.11-.733-.2-1.123-.27a2.2 2.2 0 0 0-.537-.12 5.848 5.848 0 0 1-.586-.08c-.098-.03-.196-.05-.293-.07a3.288 3.288 0 0 0-.342-.02c-.391-.03-.798-.09-1.221-.17a9.2 9.2 0 0 0-1.269-.17c-.782-.07-1.563-.09-2.344-.05-.781.03-1.563.1-2.344.19-.521.07-1.033.12-1.538.17-.504.05-1.017.11-1.538.17-.26.04-.513.08-.757.13s-.496.09-.757.12c-.39.06-.789.16-1.196.29-.407.13-.789.26-1.147.39-.326.13-.643.26-.953.39a5.34 5.34 0 0 1-.952.3c-.26.09-.529.2-.805.31-.277.12-.546.22-.806.32-.391.13-.773.29-1.148.49-.374.19-.74.39-1.098.58-.261.13-.554.27-.879.4-.326.13-.602.3-.83.53-.228.23-.456.45-.684.66-.228.21-.423.45-.586.71-.162.26-.317.53-.464.81-.146.27-.301.54-.463.8-.163.29-.302.59-.415.88l-.367.93c-.065.13-.13.27-.195.44-.065.16-.114.32-.146.49a2.99 2.99 0 0 0-.074.39c-.016.13-.04.26-.073.39-.098.29-.163.57-.195.85a8.32 8.32 0 0 1-.147.85c-.032.23-.081.48-.146.74-.065.26-.114.5-.147.73-.032.2-.057.37-.073.54-.016.16-.041.32-.073.49-.13.74-.236 1.48-.318 2.19-.081.72-.105 1.44-.073 2.15 0 .39.082.77.244 1.15.163.37.293.74.391 1.1.065.16.122.33.171.51.049.18.106.35.171.51.032.1.081.21.146.32.065.11.13.24.196.37.097.22.219.42.366.58.146.16.317.33.512.49.098.1.188.21.269.34.081.13.187.25.317.34.098.07.204.13.318.2.114.06.219.15.317.24.13.1.269.21.415.32.147.11.301.22.464.32l.366.37c.114.11.236.21.366.31.131.13.277.25.44.34l.488.3c.228.09.464.18.708.26.244.09.48.19.708.32l-1.465-1.46c-.52-.62-.968-1.3-1.342-2.05-.375-.75-.66-1.53-.855-2.35a15.32 15.32 0 0 1-.415-2.32c-.081-.79-.073-1.58.024-2.36.033-.26.09-.53.171-.81.082-.28.155-.54.22-.81.065-.39.155-.78.269-1.17.114-.39.252-.78.415-1.17.228-.52.464-1.05.708-1.59.244-.53.496-1.06.757-1.58.26-.46.569-.91.927-1.35.358-.43.716-.87 1.075-1.29a6.198 6.198 0 0 1 1.171-1.07c.261-.17.537-.32.83-.47.293-.14.57-.3.831-.46.195-.13.382-.25.561-.37.179-.11.366-.22.562-.31.358-.17.732-.32 1.123-.47.39-.15.781-.27 1.172-.36.325-.1.634-.2.927-.3.293-.1.586-.18.879-.24.293-.03.586-.06.879-.08.293-.01.586-.04.879-.07.456 0 .903-.03 1.343-.1.439-.06.871-.09 1.294-.09.423 0 .854-.01 1.294-.03.439-.01.87-.01 1.294.03.26 0 .52.02.781.07.26.05.537.09.83.12.228.07.464.12.708.15.244.03.48.08.708.14.488.1.976.21 1.465.32.488.12.96.25 1.416.42.521.16 1.025.31 1.513.46.489.15.961.33 1.416.56.146.07.283.15.41.22-.289-.06-.58-.1-.873-.14-.57-.09-1.132-.18-1.685-.27-.293-.04-.57-.08-.83-.13a7.27 7.27 0 0 1-.781-.17 6.827 6.827 0 0 0-.782-.04h-.732c-.618 0-1.204.05-1.758.17-.553.11-1.107.3-1.66.56-.195.1-.382.18-.561.27-.179.08-.367.17-.562.26-.195.13-.415.26-.659.37-.244.11-.464.27-.659.46l-.44.44-.537.35c-.163.16-.334.32-.513.48-.179.17-.333.35-.463.54-.163.26-.342.5-.538.73-.195.23-.358.48-.488.74l-.317.63c-.114.23-.22.46-.318.68-.13.3-.26.6-.39.91-.13.31-.261.61-.391.9-.13.23-.252.46-.366.68-.114.23-.22.48-.317.74-.066.16-.123.32-.171.49-.049.16-.106.32-.171.48-.098.2-.163.39-.196.59l-.097.59c-.033.29-.073.57-.122.82-.049.27-.074.54-.074.83-.032.36-.048.73-.048 1.1v2.57c0 .23.016.44.048.63.033.2.066.41.098.64.065.32.13.66.195 1 .066.34.147.69.245 1.05.097.36.227.72.39 1.1.163.37.326.74.488 1.1.163.42.342.81.538 1.17.195.35.439.71.732 1.07.293.33.618.63.977.9.358.28.716.53 1.074.76.358.26.724.51 1.098.76.375.24.757.45 1.148.61l.39.19c.131.07.261.12.391.15l.684.1c.228.03.439.05.634.05.684.03 1.327.04 1.929.02.294-.01.539-.03.736-.06.091.03.196.05.314.06.13.02.26.03.391.03v-.08l.002-.04c.152.05.297.09.437.12.228.03.456.07.684.12.228.05.455.07.683.07.293 0 .578-.01.855-.02.276-.02.545-.08.805-.17l.782-.2c.032 0 .057-.02.073-.07.016-.05-.008-.21-.073-.47-.293.13-.594.2-.904.2-.309 0-.61-.02-.903-.05-.553-.1-1.09-.24-1.611-.44a9.889 9.889 0 0 1-1.514-.73 3.358 3.358 0 0 1-.757-.56c-.211-.22-.431-.45-.659-.71-.13-.16-.269-.33-.415-.49a2.234 2.234 0 0 1-.366-.54 4.419 4.419 0 0 0-.342-.56 3.81 3.81 0 0 1-.342-.56 4.96 4.96 0 0 1-.244-.73 1.91 1.91 0 0 1-.049-.73 5.16 5.16 0 0 1 .098-1.03c.032-.23.065-.46.098-.71.032-.24.097-.48.195-.71.097-.19.203-.38.317-.56.114-.18.204-.36.269-.56.13-.19.244-.37.342-.54.097-.16.227-.32.39-.48.163-.17.342-.31.537-.44.196-.14.407-.27.635-.39.228-.1.464-.2.708-.3.244-.1.496-.16.757-.19.456-.07.895-.04 1.318.07.423.11.83.25 1.221.42.456.12.879.31 1.269.56.391.24.798.46 1.221.66.228.13.448.28.659.46.212.18.383.4.513.66.098.23.179.49.244.78.065.29.114.57.147.83 0 .26-.008.51-.025.76-.016.24-.057.49-.122.75l-.195.59-.195.39c-.066.13-.147.24-.245.34-.39.39-.83.69-1.318.88-.488.2-1.009.29-1.562.29a7.401 7.401 0 0 0-.513-.07c-.179-.02-.35-.04-.513-.07a6.677 6.677 0 0 1-.61-.25 9.595 9.595 0 0 1-.611-.29c-.26-.13-.496-.28-.708-.46-.211-.18-.382-.4-.512-.66-.098-.2-.179-.38-.244-.54a2.527 2.527 0 0 1-.147-.54 3.433 3.433 0 0 0-.122-.39 1.098 1.098 0 0 1-.073-.39c.032-.32.106-.62.22-.9s.252-.56.415-.86l-.196.15c-.13.1-.252.21-.366.34-.114.13-.22.26-.317.39l-.244.25c-.066.06-.131.16-.196.29a5.36 5.36 0 0 0-.171.37c-.048.11-.073.25-.073.41.033.16.073.34.122.54.049.19.122.37.22.54.098.19.212.37.342.53l.39.49c.131.2.261.38.391.54.13.16.277.32.439.49.131.06.245.14.342.24l.293.29.586.3.586.39a1 1 0 0 0 .415.19c.147.04.301.07.464.1.13.03.269.05.415.05h.464c.195 0 .366-.02.513-.05.146-.03.317-.08.512-.15.521-.29.993-.66 1.416-1.1.423-.43.814-.9 1.172-1.39.065-.13.139-.27.22-.41.081-.15.155-.3.22-.47.13-.22.187-.45.171-.68a9.088 9.088 0 0 1-.025-.68l-.098-.61c-.032-.21-.065-.42-.097-.61l-.196-.49-.195-.39-.146-.49a2.43 2.43 0 0 0-.269-.49 1.975 1.975 0 0 1-.268-.54 11.82 11.82 0 0 0-.684-1.17.9.9 0 0 0-.22-.24c-.081-.07-.171-.13-.268-.2a2.096 2.096 0 0 0-.635-.36c-.228-.09-.456-.17-.684-.27-.26-.13-.529-.27-.805-.42a5.496 5.496 0 0 0-.855-.36c-.097 0-.195-.01-.293-.03a1.577 1.577 0 0 1-.293-.07c-.163 0-.325-.03-.488-.07-.163-.05-.326-.09-.488-.13a3.11 3.11 0 0 0-1.514.2c-.521.19-.977.44-1.367.73-.13.1-.244.2-.342.29-.098.1-.212.2-.342.3-.13.13-.268.24-.415.34-.146.1-.285.23-.415.39-.13.13-.26.27-.39.42-.131.14-.228.3-.293.46-.228.36-.44.75-.635 1.17-.196.42-.326.83-.391 1.22-.032.23-.073.46-.122.68-.049.23-.106.44-.171.64-.032.13-.073.25-.122.37a.874.874 0 0 0-.073.36l.049.39v.34l.049.54.097.29c.033.17.057.34.073.52.017.18.057.35.122.51.131.42.318.83.562 1.22.244.39.562.72.952.98.261.19.537.39.83.58.293.2.586.38.879.54.228.1.448.2.659.32.111.06.219.11.325.17h-.007l-.879-.1-.189-.03-.055-.02a2.578 2.578 0 0 1-.586-.17 7.47 7.47 0 0 1-.586-.27l-.205-.13zm-5.782-8.28c.032.26.074.52.127.77.066.31.147.63.245.95.195.49.406.99.634 1.49.228.51.489.97.782 1.39.195.3.406.58.634.86.228.27.456.54.684.8.195.2.382.4.561.59.179.19.383.36.611.49.195.13.39.24.586.34.195.1.374.21.537.34l.381.26a3.702 3.702 0 0 1-.332-.38 5.92 5.92 0 0 0-.537-.61 6.073 6.073 0 0 0-.44-.49 3.185 3.185 0 0 1-.439-.54 4.96 4.96 0 0 1-.44-.73l-.39-.78c-.098-.16-.196-.33-.293-.51a5.281 5.281 0 0 1-.245-.51c-.13-.33-.252-.66-.366-1.01a4.493 4.493 0 0 1-.219-1 3.001 3.001 0 0 1 .097-1.31c.033-.3.09-.59.171-.88.081-.3.155-.59.22-.88.032-.2.073-.39.122-.59.049-.19.089-.37.122-.54.065-.16.122-.31.171-.46.049-.15.106-.29.171-.41l.146-.44c.098-.2.196-.39.293-.57.098-.18.228-.35.391-.51l.439-.29c.131-.07.253-.15.367-.25.113-.09.236-.17.366-.24.097-.06.195-.14.293-.22.097-.08.195-.15.293-.22l.537-.29c.163-.13.35-.25.561-.37.212-.11.432-.17.659-.17.424-.03.847-.03 1.27 0l1.27.1c.13.03.26.05.39.07.13.02.277.03.44.03.097.03.179.05.244.07.065.02.146.04.244.07.13.07.277.12.439.15.163.03.31.08.44.14l-.244-.53c-.065-.1-.139-.2-.22-.29-.081-.1-.171-.18-.269-.25-.13-.06-.252-.12-.366-.17-.114-.05-.22-.11-.317-.17l-.489-.24-.488-.2a3.035 3.035 0 0 0-.488-.15 1.65 1.65 0 0 0-.635-.07c-.228.02-.439.02-.635.02-.293 0-.586.01-.879.03-.292.02-.585.04-.878.07-.293.03-.578.09-.855.17-.277.08-.561.17-.854.27-.326.1-.627.21-.904.32-.276.11-.545.27-.805.46-.293.23-.554.48-.782.73-.227.27-.439.54-.634.83-.261.33-.489.66-.684 1.01-.195.34-.342.72-.439 1.14-.098.36-.179.74-.245 1.15-.065.41-.114.81-.146 1.2 0 .31.006.63.019.96z" style="fill-rule:nonzero" transform="matrix(5.82496 0 0 5.78595 -3993.29 -17331.6)"/></svg>