<svg viewBox="0 0 400 400" xmlns="http://www.w3.org/2000/svg" xml:space="preserve" style="fill-rule:evenodd;clip-rule:evenodd;stroke-linejoin:round;stroke-miterlimit:2"><path d="M647.992 2898.98c-.681.68-.846.31-1.543 1.01l-1.312.69-.077.08c-.363 0-.671.23-1.08.23l.308-.15c-1.236.15-1.399.15-2.777.61l.077-.15c-.666.22-1.587.8-2.083.31l-.463.15h-.463c-1.389 0-1.229.12-2.547.39l-.694.07-.772.16h-.617l-.617.07-.232-.23c-.942.14-.77.43-1.697.54l.231-.15c-.925.31-2.325-.2-3.24-.39l.077-.15c-.385 0-.773-.16-1.157-.16h-.232c-.663-.44-1.875-1-2.7-1l-.54-.23c-.581-.29-1.311-.62-1.775-1.08l-.231.15-.618-.3c-.091-.09-.217-.15-.308-.24l-.155-.15h-.115c-.083 0-.193-.15-.193-.15h.154c.116-.12-1.68-.26-1.389-.16l-.926-.31c-.348-.11-.725-.22-1.08-.31l-.926-.61c-.577-.58-1.339-.96-1.929-1.55 0 0-.166-.08-.231-.15l-.232-.23c-2.365-2.37-5.071-4.48-7.33-6.95l.309.16-.54-.54c0-.17-.309-.39-.309-.39-.011-.02 0-.07 0-.07-.105-.43-.316-.44-.54-.78l.154.08c-1.091-1.09-2.391-3.89-2.391-4.71 0 0-.078-.09-.078-.15l-.925-2.78.231.39c-.403-.81-.188-1.65-.463-2.47v.77c0-.65-.231-1.28-.231-1.93 0-.15.231.54.231.39v-1.43c0-.23-.617-.92-.617-.81-.792-1.58-.769-3.31-1.312-4.94v-.54c0-.11-.077-.2-.077-.31v-.46c0-1.56 1.157-7.52 1.157-3.09.315-1.26.128-1.17.386-2.46l.232-.16c0-.19.067-.36.139-.54l.029-.07c.072-.18.14-.36.14-.55v-.07l-.077.07c.092-1.09-.041-1.32.154-2.39v.08c.052-.1.078-.21.078-.31v-.54l.077-.16v-.23c.111 0 .077-.08.077-.15l.077-.08-.077.31-.077.46c.404 0 1.311-3.42 1.311-4.16l.078.07c.262-.42.905-1.6 1.311-2l-.077.15c.165-.16.155-.27.386-.38l.154-.24c0-.08.077-.23.077-.23l.54-.54c.207-.51.386-1.62.386-1.62.573-1.72 2.238-2.62 3.472-3.85l.232-.47.617-.61c-.225.15 1.08-2.05 1.08-2.09l.463-.46c-.398.5.913-.89 1.389-1.31l.231-.08.232-.23.154-.08c.407-.81 2.089-.62 2.701-1.23l-.463.15c1.063-.35 1.756-1.26 2.777-1.7l.155.24c.34 0 .779-.47 1.08-.62l.154-.08c.157-.15-.058-.23.155-.23l.231-.15-.617.23-.772.54c.331-.27.109-.62.54-.62 0 0 .097-.08.155-.08h.154c0-.05.013-.07.039-.07h.192c.377 0 1.05-.15 1.389-.24l.926-.3c.296 0 .556-.16.849-.16h.694c.082-.08.309-.04.309-.15h-.386c.906 0 2.701-.31 2.701-.31.057 0 .154-.08.154-.08h.463s.018.06 0 .08l-.154.08-.078.07h-.154c.037 0 .077.08.077.08s.097-.08.155-.08c0 0 .947-.88 1.543-1.08l-.309.08c.2-.2.373-.26.617-.39l-.385.24c.483-.25 1.321-.7 1.851-.7l.155.08h.308c-.036 0-.797.03-.077.15.404 0 .298.08.772.23 1.123 0 1.587-.32 2.237 0h1.543c-.918 0 .898.05 1.004.08h-.463c-.186 0 .279.28.463.31.394-.05.187-.23.655-.23h1.389c.698 0 1.486.48 2.122.69 1.466-.36 1.406-.32 3.626.23l-.231.16c.447 0 .77.38 1.157.38l-.463-.3c.796.19 1.75.9 2.469 1.31-1.308-.66.182.38.618.38l.154.16c-.912 0 1.382 1.19 2.083 1.77l.232.23.231.16c.24.12.519.22.772.31l.771.23c.414.16 1.179.34 1.523.42.307.31 1.538 1.26 1.949 1.74.53.62.901 1.35 1.389 2l-.386-.23c.071.07.197.17.286.24-.033-.01-.066-.01-.131-.01l.463.39c.027 0 .694.15 1.311.77l.232.16.231.23.155.23-.155-.08c.187.28.253.33.463.54l.309.47c-.646-.65.995 1.53 1.466 2.31.627 1.04 1.545 3.16 2.778 3.78.281.56 1.157 1.99 1.157 3.86l.231.08-.231.53.077.62c.444.22.33.24.54.62l-.077-.08c0 .25 1.349 2.35.617 1.62l.309.47h-.077c.085.25.231.77.231.77l.309.92-.077-.07.617 2.39-.695 3.47v.15h.078l.154.47c.24 0 .311-.15.617.61.091.46-.1.94 0 1.39l.232.7.154.23-.077.31v.15h-.077c-.059.12-.077.39-.077.39-.393-.4-.277 1.07-.386 1.62l.077-.16c-.134 1.88-.608 1.65-.926 3.4v.85l-.154.15v.31c0 .83-.501 1.46-.695 2.24l-.231.62-.155.61c-.716 1.03-1.287 2.02-1.928 3.09l-1.003 1c-.246.25-.514.47-.77.7.001 0 .003 0 0 0h-.002c-.039.03-.043.04-.079.07a.586.586 0 0 1-.075.08c-.986.66-1.489 1.92-1.852 3.01l-.232.39-.231.46c-.303.3-.877.66-1.306.82.024-.02.048-.03.071-.05l-.154.08.083-.03c-2.928 1.96-4.563 3.52-6.796 6.12a.547.547 0 0 1-.193.12l-.192.04c.058 0 .127-.02.192-.04l.193-.04.54-.62.078-.08c.057-.11.231-.3.231-.3.156-.16-.133.42-.231.61l-.386.39c-.052.05-.077.1-.077.15h-.309c-.269.14-.869.31-1.157.31l.077-.07h-.077c-.174.05-1.929.46-1.929.77h-.155v-.08l-.077-.08s-.177.06-.231 0h.077l.077-.07 1.158-.39c-.4 0-1.158.31-1.158.31l-.154.15zm14.276-12.03-.006.03a.158.158 0 0 1-.028.05c-.033.03-.077.05-.119.07l.153-.15zm-.153.15c-.027.02-.054.05-.081.08l.078-.08h.003zm-7.971-46.72c-.109-.11-.102-.14.098-.04l.077.08s-.067-.01-.175-.04zm3.238 3.75c.028.01.055.03.1.07l-.1-.07zm-55.376 17.12-.077.08c0-.04.077-.08.077-.08zm35.03-27.08.077-.08c.154.05.18.08.077.08h-.154zm-2.005 48.95a4.908 4.908 0 0 1-.19-.44 3.946 3.946 0 0 1-.135-.43l-.217-.87c-.073-.25-.154-.51-.244-.76a3.105 3.105 0 0 0-.353-.7 1.616 1.616 0 0 1-.19-.25 1.182 1.182 0 0 0-.19-.24.485.485 0 0 0-.135-.17.37.37 0 0 1-.136-.16c-.072-.07-.145-.13-.217-.19a1.23 1.23 0 0 1-.217-.19.791.791 0 0 1-.217-.35 2.487 2.487 0 0 0-.163-.41.307.307 0 0 1-.081-.13.483.483 0 0 1-.027-.14c0-.07.009-.14.027-.22a.675.675 0 0 0 .027-.16.915.915 0 0 0 .081-.24c.018-.09.027-.17.027-.25a.402.402 0 0 0 .055-.19c0-.05.018-.11.054-.19 0-.14.027-.3.081-.46.054-.16.118-.3.19-.4.109-.22.226-.43.353-.63.126-.2.262-.39.407-.57l.759-.76c.036-.11.073-.21.109-.3a.786.786 0 0 0 .054-.29 2.628 2.628 0 0 0-.19-.57c-.09-.2-.172-.37-.244-.52a1.475 1.475 0 0 0-.109-.19.383.383 0 0 0-.162-.13.176.176 0 0 0-.136-.06h-.136a.575.575 0 0 1-.217-.05.552.552 0 0 0-.271-.06 1.79 1.79 0 0 0-.732.3c-.235.16-.498.26-.787.3a.728.728 0 0 1-.298-.06.489.489 0 0 1-.245-.21 1.244 1.244 0 0 1-.189-.25 4.58 4.58 0 0 0-.19-.29c-.073-.19-.136-.36-.19-.52-.054-.16-.118-.33-.19-.52 0-.1-.027-.19-.081-.27a.874.874 0 0 1-.136-.27v-.11c0-.03-.018-.09-.054-.16 0-.11-.018-.23-.055-.38a1.562 1.562 0 0 1-.054-.38c.036-.22.109-.41.217-.57.109-.16.217-.32.326-.46.072-.14.162-.27.271-.38.108-.11.199-.23.271-.38.036-.07.082-.14.136-.22.054-.07.099-.14.136-.21a.355.355 0 0 0 .081-.17.675.675 0 0 0 .027-.16.53.53 0 0 0-.054-.22l-.109-.21v-.03c0-.02-.018-.03-.054-.03.036-.03.054-.09.054-.16s.018-.13.055-.16a2.546 2.546 0 0 1 .325-.65c.072-.15.154-.29.244-.44.091-.14.19-.29.299-.43.072-.11.144-.21.217-.3.072-.09.144-.19.217-.3a.744.744 0 0 0 .108-.13c.036-.06.072-.1.109-.14.072-.11.126-.22.162-.33l.109-.32c.072-.11.154-.2.244-.27s.172-.15.244-.22c.109-.04.208-.08.299-.13.09-.06.189-.12.298-.2.145-.07.28-.13.407-.18.126-.06.262-.1.407-.14l.434-.22c.072 0 .135-.01.19-.05.054-.04.099-.06.135-.06h.326c.108.04.208.1.298.17.091.07.172.14.244.21.037 0 .073.01.109.03a.75.75 0 0 1 .108.08c.073.04.127.08.163.11.036.04.091.07.163.11.072.07.145.13.217.16.072.04.145.09.217.17l.19.19c.054.05.135.08.244.08.072.03.154.05.244.05h.244c.109 0 .199-.01.271-.03a.643.643 0 0 0 .218-.08h.189c.055 0 .1-.02.136-.05h.326c.072.03.144.06.217.08.072.02.144.06.217.14.036.03.081.07.135.1.054.04.1.08.136.11.072.07.145.14.217.19.072.06.145.1.217.14.108.11.208.2.298.27.091.07.19.16.299.27.072.07.135.16.19.27.054.11.117.2.189.27l.38.38c.036 0 .073.02.109.06l.108.11c.036.03.091.06.163.08.072.02.145.04.217.08.072.03.181.08.326.13.144.06.271.07.379.03.073-.04.109-.07.109-.11v-.16c0-.04-.009-.09-.027-.16a.985.985 0 0 1-.027-.22.336.336 0 0 1-.082-.14c-.018-.05-.045-.11-.081-.19a2.678 2.678 0 0 0-.461-.78c-.199-.24-.389-.46-.57-.68a.967.967 0 0 1-.19-.27.424.424 0 0 1-.027-.33l.163-.16c.036 0 .063-.01.081-.03.018-.02.045-.03.081-.03.073-.03.136-.07.19-.1a.314.314 0 0 1 .19-.06.575.575 0 0 1 .217-.05h.217c.073-.04.136-.05.19-.03.054.02.118.01.19-.03.072 0 .145 0 .217-.02.072-.02.163-.03.271-.03h.244c.091 0 .19.02.299.05h.434a.55.55 0 0 1 .19.03c.054.02.117.03.19.03.072 0 .135.01.19.03.054.01.117.02.189.02.073 0 .172-.02.299-.08a.388.388 0 0 0 .244-.24v-.11c.036-.07.045-.12.027-.14l-.081-.08a4.185 4.185 0 0 0-.217-.3c-.073-.09-.145-.19-.217-.29-.036-.08-.073-.16-.109-.25a.355.355 0 0 0-.163-.19c0-.04-.018-.06-.054-.08-.036-.02-.054-.05-.054-.08-.072-.04-.145-.06-.217-.08a.999.999 0 0 1-.217-.09.922.922 0 0 0-.38-.13 2.913 2.913 0 0 1-.38-.08c-.144 0-.28-.02-.407-.06-.126-.03-.244-.07-.352-.1a.872.872 0 0 0-.299-.06h-.244a.628.628 0 0 0-.244-.05h-.244c-.253 0-.497-.02-.732-.06-.236-.03-.48-.05-.733-.05a.811.811 0 0 1-.217-.03c-.072-.02-.145-.04-.217-.08a.415.415 0 0 1-.136-.03.316.316 0 0 1-.135-.08h-.271l-.055.06c-.036 0-.063-.02-.081-.06-.018-.04-.063-.04-.136 0-.036.04-.072.06-.108.08a.757.757 0 0 0-.109.08.532.532 0 0 1-.135.11c-.055.04-.1.08-.136.11a.908.908 0 0 0-.271.14c-.073.05-.163.06-.272.02-.108 0-.189-.01-.244-.05-.054-.04-.099-.07-.135-.11a.874.874 0 0 1-.38-.49.517.517 0 0 1-.054-.24c0-.09.018-.17.054-.24.036-.04.072-.09.108-.14.037-.06.073-.1.109-.14a.692.692 0 0 0 .163-.24c.036-.09.09-.17.162-.24.073-.11.154-.22.245-.33.09-.11.171-.22.244-.33.072-.1.135-.22.19-.35.054-.12.117-.24.19-.35l.108-.22a.237.237 0 0 0 0-.22c0-.1-.018-.2-.054-.29a4.964 4.964 0 0 1-.109-.3 1.45 1.45 0 0 0-.135-.22.874.874 0 0 1-.136-.27v-.14c0-.05-.018-.09-.054-.13v-.49c0-.07.018-.14.054-.22 0-.07.009-.15.027-.24a.45.45 0 0 1 .136-.24c.036-.08.081-.12.135-.14.055-.02.1-.05.136-.08.109-.04.199-.07.271-.11.073-.04.163-.09.272-.16.18-.11.343-.25.488-.41.145-.16.289-.33.434-.52a.918.918 0 0 0 .271-.27c.072-.1.109-.23.109-.38 0-.1-.037-.2-.109-.29a.314.314 0 0 0-.271-.14.338.338 0 0 0-.244-.03c-.091.02-.19.03-.299.03a.936.936 0 0 1-.217.08.806.806 0 0 1-.217.03l-.325.11c-.109.03-.217.05-.326.05l-.108-.05-.054-.06a.3.3 0 0 1-.082-.13.345.345 0 0 0-.081-.14 1.647 1.647 0 0 1-.082-.19.596.596 0 0 1-.027-.19c0-.11-.009-.22-.027-.32-.018-.11-.027-.2-.027-.28v-.38a.396.396 0 0 1-.081-.1.311.311 0 0 0-.082-.11 2.656 2.656 0 0 0-.352-.3 2.602 2.602 0 0 1-.353-.3 8.824 8.824 0 0 0-.57-.41 1.294 1.294 0 0 0-.678-.19c-.145 0-.307.03-.488.09-.181.05-.344.1-.488.13-.181.04-.362.09-.543.16-.181.08-.344.18-.488.33-.073.07-.154.16-.244.27a.585.585 0 0 0-.136.38c0 .11.018.21.054.3.036.09.073.19.109.3.072.11.153.21.244.32.09.11.172.24.244.38.072.11.163.21.271.3.109.09.217.19.326.3 0 .04.018.07.054.11l.109.11c0 .03.009.05.027.05.018 0 .045.02.081.06.036.07.081.13.136.18.054.06.099.12.135.19.109.15.19.29.244.41.055.13.1.26.136.41.072.25.127.5.163.73l.108.73c.037.11.055.23.055.36v.4c0 .07-.009.14-.028.19a.345.345 0 0 1-.081.14c0 .03-.027.08-.081.13l-.136.14a.566.566 0 0 0-.108.14.193.193 0 0 1-.163.08c-.073.03-.154.06-.244.08-.091.02-.172.02-.244.02h-.19a.377.377 0 0 1-.19-.05l-.054-.05v-.06a5.755 5.755 0 0 0-.109-.3 2.807 2.807 0 0 0-.108-.24c0-.07-.019-.13-.055-.16-.036-.04-.054-.08-.054-.11-.036-.04-.054-.07-.054-.11v-.06l-.217-.21c-.036-.04-.073-.06-.109-.08a.75.75 0 0 1-.108-.08.338.338 0 0 0-.136-.09.247.247 0 0 1-.136-.08c-.072 0-.153.01-.244.03-.09.02-.171.05-.244.08l-.163.08c-.036.02-.09.07-.162.14 0 .07-.018.14-.055.21a.53.53 0 0 0-.054.22v.33c.036.03.054.08.054.13v.14c0 .07-.009.15-.027.24a.59.59 0 0 0 .027.3l.028.06c.018.03.045.07.081.1a.72.72 0 0 1 .081.11c.018.04.027.08.027.11.073.11.136.2.19.27.055.07.1.15.136.22a.87.87 0 0 1 0 .43c-.036.15-.09.28-.163.38l-.108.11c-.037.04-.091.06-.163.06-.072 0-.154-.04-.244-.11-.091-.07-.154-.13-.19-.16a4.956 4.956 0 0 1-.299-.33c-.09-.11-.189-.24-.298-.38-.036-.07-.09-.15-.163-.24a1.07 1.07 0 0 1-.162-.3c-.037-.04-.055-.07-.055-.11a.38.38 0 0 0-.054-.16 1.419 1.419 0 0 0-.136-.3 9.144 9.144 0 0 0-.189-.3.413.413 0 0 1-.082-.11.72.72 0 0 0-.081-.11.746.746 0 0 1-.109-.13 3.22 3.22 0 0 1-.108-.19 1.507 1.507 0 0 0-.38-.36c-.145-.09-.289-.19-.434-.29a.331.331 0 0 0-.136-.09.241.241 0 0 1-.135-.08.47.47 0 0 0-.136-.08.326.326 0 0 1-.136-.08.671.671 0 0 1-.162-.03c-.073-.02-.127-.02-.163-.02l-.434.21c-.109.04-.19.1-.244.19-.055.09-.1.19-.136.3a.599.599 0 0 0-.108.33v.32a.53.53 0 0 1 .054.22c0 .07.018.14.054.22 0 .07.018.13.054.19.037.05.073.1.109.13a.55.55 0 0 0 .108.16l.109.11c.072.04.136.08.19.14l.19.19c0 .04.018.07.054.11.036.03.054.07.054.11a.38.38 0 0 1 .163.13c.036.06.072.1.108.14.037.07.073.12.109.16l.325.33a.2.2 0 0 0 .028.1c.018.04.045.08.081.11l.163.16c.036.04.054.09.054.14v.19c0 .04.009.07.027.11.018.04.027.09.027.16s.009.15.027.22c.018.07.046.14.082.22.036.21.081.45.135.7.055.25.064.51.027.76a2.64 2.64 0 0 0-.081.3.865.865 0 0 1-.136.3.825.825 0 0 1-.162.21l-.217.22c-.109.15-.226.27-.353.38-.127.11-.262.2-.407.27a.908.908 0 0 0-.271.14c-.072.05-.145.12-.217.19-.036 0-.072.02-.109.05l-.379.38c-.145.15-.299.28-.462.41a4.84 4.84 0 0 0-.461.41.689.689 0 0 0-.162.24 3.14 3.14 0 0 1-.109.24c-.072.08-.127.14-.163.19a.355.355 0 0 0-.054.19l-.108.22a.484.484 0 0 0-.055.22c0-.04-.009-.06-.027-.08l-.027-.03a2.42 2.42 0 0 0-.136-.33c-.054-.1-.099-.21-.135-.32a15.06 15.06 0 0 1-.109-.35c-.036-.13-.072-.27-.108-.41a3.74 3.74 0 0 1-.082-.46 4.753 4.753 0 0 1-.027-.52 3.946 3.946 0 0 0-.135-.43c-.055-.15-.1-.29-.136-.44-.036-.1-.063-.21-.081-.32a2.339 2.339 0 0 0-.082-.33c-.072-.14-.144-.28-.217-.4a5.7 5.7 0 0 0-.217-.36 1.594 1.594 0 0 1-.217-.27.648.648 0 0 0-.217-.22c-.108-.03-.208-.06-.298-.08a.644.644 0 0 1-.244-.08c-.109 0-.181.03-.217.08-.037.06-.073.12-.109.19-.036.08-.063.14-.081.19a.642.642 0 0 0-.027.19 7.035 7.035 0 0 0 .108 1.25c.036.11.054.21.054.3s.018.19.055.3c.036.07.063.13.081.19.018.05.027.1.027.13.036.15.081.29.136.44.054.14.117.27.19.38.036.11.072.21.108.3.036.09.072.19.109.29.036.08.054.16.054.25v.3c-.036.11-.063.23-.082.38-.018.14-.027.29-.027.43v.38a.55.55 0 0 1-.108.16.649.649 0 0 0-.109.17l-.217.21a.377.377 0 0 1-.271.11c-.181.07-.334.02-.461-.16s-.28-.31-.461-.38c-.036-.04-.091-.06-.163-.08a.677.677 0 0 0-.163-.03.376.376 0 0 0-.108-.08c-.036-.02-.055-.05-.055-.08a.405.405 0 0 1-.135-.03.32.32 0 0 1-.136-.08 1.1 1.1 0 0 1-.325-.19 3.393 3.393 0 0 0-.326-.24 3.19 3.19 0 0 0-.352-.22.825.825 0 0 1-.299-.27 1.003 1.003 0 0 1-.217-.79c.036-.31.054-.61.054-.89v-.82c0-.11-.009-.22-.027-.32a2.04 2.04 0 0 1-.027-.33.874.874 0 0 0-.136-.27.896.896 0 0 1-.135-.27.773.773 0 0 1-.109-.16.625.625 0 0 0-.108-.17c-.036-.07-.082-.11-.136-.11h-.407a.448.448 0 0 0-.217.06l-.19.19a.694.694 0 0 0-.135.19c-.036.07-.082.15-.136.24-.054.09-.099.17-.136.25a.84.84 0 0 1-.027.21.904.904 0 0 1-.081.22c-.036.07-.081.15-.136.22a.591.591 0 0 1-.19.16c-.072.11-.189.12-.352.03-.163-.09-.28-.17-.353-.25a1.902 1.902 0 0 0-.217-.08c-.072-.02-.145-.04-.217-.08a.57.57 0 0 1-.217-.05l-.217-.11c-.108-.04-.217-.08-.325-.14-.109-.05-.217-.12-.326-.19a.635.635 0 0 1-.271-.16 1.546 1.546 0 0 1-.217-.27 1.212 1.212 0 0 1-.19-.25c-.054-.09-.1-.17-.136-.24a.375.375 0 0 0-.135-.16c-.055-.04-.082-.09-.082-.17a.307.307 0 0 1-.081-.13.336.336 0 0 0-.082-.14c0-.03-.018-.08-.054-.13-.036-.06-.072-.1-.108-.14a.657.657 0 0 0-.217-.22.742.742 0 0 1-.217-.16c-.073-.07-.145-.13-.217-.19-.073-.05-.163-.12-.272-.19a3.645 3.645 0 0 0-.217-.3 1.112 1.112 0 0 0-.271-.24 1.856 1.856 0 0 1-.217-.25 1.397 1.397 0 0 0-.271-.24 1.594 1.594 0 0 1-.217-.27c-.072-.11-.145-.2-.217-.27-.072-.11-.145-.2-.217-.27-.073-.07-.145-.17-.217-.27a.365.365 0 0 1-.082-.17.365.365 0 0 0-.081-.16l-.081-.08c-.018-.02-.064-.03-.136-.03a1.902 1.902 0 0 0-.217-.08c-.072-.02-.145-.04-.217-.08a1.14 1.14 0 0 1-.244-.03 1.148 1.148 0 0 0-.244-.03.224.224 0 0 0-.109.03.345.345 0 0 1-.163.03l-.217.11c-.072.03-.126.11-.162.21a.491.491 0 0 0-.055.19c0 .06.019.12.055.19.036.08.081.15.135.22.055.07.1.16.136.27.036.04.072.08.108.14.037.05.073.1.109.13.072.19.163.36.271.52.109.16.217.32.326.46.217.29.443.55.678.79.235.23.461.51.678.84.109.18.235.35.38.51.145.17.289.36.434.57.072.11.145.25.217.41a.7.7 0 0 1 .054.46c0 .07-.018.13-.054.16l-.109.11a.28.28 0 0 1-.217.03.671.671 0 0 0-.162-.03c-.073 0-.154-.01-.245-.02a.619.619 0 0 0-.298.02c-.217 0-.434.09-.651.27-.217.19-.362.4-.434.65-.036.11-.036.2 0 .28.036.07.09.12.163.16.108.11.235.17.38.19.144.02.289.04.434.08.108 0 .226-.01.352-.03.127-.01.262-.02.407-.02a.872.872 0 0 1 .299-.06c.09 0 .189-.02.298-.05.036-.04.081-.07.136-.11.054-.04.099-.06.135-.06h.109c.036 0 .072.02.108.06.073 0 .154.01.244.03.091.01.172.04.244.08.037.03.082.07.136.11.054.03.118.05.19.05.072.04.136.07.19.11.054.04.099.07.136.11.144.07.262.14.352.21.091.08.19.15.299.22.253.15.497.32.732.52.235.19.479.4.732.62.109.11.236.2.38.27.145.07.29.16.434.27l.434.33c.145.11.29.2.434.27.253.18.516.36.787.54.271.18.533.38.787.6.217.14.768.45 1.654.92.886.47 1.456.72 1.709.76.109.04.217.06.326.08.108.02.217.01.325-.02.037-.04.064-.06.082-.06h.081c.072 0 .154.02.244.06.091.03.172.07.244.1.181.11.353.22.516.33.163.11.298.23.407.38.108.11.199.23.271.35.072.13.145.26.217.41.036.11.081.23.136.35a.94.94 0 0 1 .081.35 1.24 1.24 0 0 0-.108.49c-.037.11-.064.23-.082.35a.406.406 0 0 1-.19.3c-.036 0-.072.02-.108.06a.251.251 0 0 1-.163.05v-.02c0-.02-.018-.03-.054-.03a.224.224 0 0 0-.109.03c-.036.01-.072.02-.108.02-.109.04-.217.08-.326.14-.108.05-.217.12-.325.19-.109.03-.226.09-.353.16a.822.822 0 0 0-.298.27c-.037.04-.055.11-.055.22s.018.2.055.27c0 .07.027.13.081.19.054.05.118.1.19.13.181.15.371.26.57.33.198.07.406.15.623.22.217.03.444.07.679.11.235.03.461.09.678.16.181.03.352.11.515.22.163.1.299.23.407.38.072.1.136.21.19.32.054.11.099.22.136.33.072.14.117.3.135.49.018.18.045.36.082.54v.43a.92.92 0 0 1-.027.22c-.019.07-.046.16-.082.27a1.93 1.93 0 0 0-.163.52c-.036.19-.09.38-.162.56a.722.722 0 0 1-.299.33c-.126.07-.262.15-.407.22-.181.07-.361.12-.542.16l-.543.11h-1.356c-.072.04-.136.06-.19.08-.054.02-.118.04-.19.08l-.217.11a.387.387 0 0 0-.163.16 6.23 6.23 0 0 0-.108.25.658.658 0 0 0-.054.24.336.336 0 0 0-.082.14.555.555 0 0 0-.027.19c-.036.07-.045.12-.027.16l.081.16a.88.88 0 0 0 .109.17c.036.03.09.07.163.1l.217.11c.072.04.162.07.271.11.145.04.307.06.488.08.181.02.362.06.543.14.217.03.416.16.597.38.18.21.307.41.379.59.073.15.127.3.163.47.036.16.072.31.109.46 0 .14.018.28.054.4.036.13.072.27.108.41l.38.76c.072.07.136.15.19.24.054.09.118.17.19.25.145.14.298.28.461.4.163.13.317.27.461.41.073.04.136.08.19.14.054.05.1.12.136.19l.813-.55c.073.11.154.19.245.22.09.04.19.06.298.06.036.03.081.05.136.05h.19c.144 0 .298-.01.461-.03.162-.01.316-.02.461-.02l.542-.11c.181-.04.344-.09.489-.17.144-.03.271-.07.379-.1.109-.04.217-.09.326-.17a.88.88 0 0 0 .271-.29c.073-.13.145-.25.217-.36.109-.14.199-.29.272-.43.072-.15.126-.29.162-.44.036-.1.073-.22.109-.35.036-.13.054-.24.054-.35 0-.07-.027-.16-.081-.24-.055-.1-.1-.19-.136-.3a2.042 2.042 0 0 1-.19-.38 1.53 1.53 0 0 0-.19-.38zm22.841-18.07c-.072-.22-.154-.44-.244-.68a2.38 2.38 0 0 0-.353-.62 2.321 2.321 0 0 0-.786-.6 4.66 4.66 0 0 0-.95-.32c-.217-.04-.434-.09-.651-.14-.217-.05-.434-.1-.651-.14a.25.25 0 0 0-.163-.05.253.253 0 0 0-.163.05c-.108.04-.189.08-.244.11a1.25 1.25 0 0 0-.19.17c-.108.07-.235.13-.379.19-.145.05-.272.11-.38.19l-.271.13a.564.564 0 0 1-.272.08h-.569c-.018 0-.046-.01-.082-.05a2.908 2.908 0 0 1-.271-.44 2.1 2.1 0 0 1-.163-.43l-.135-.27a2.42 2.42 0 0 1-.136-.33c-.036-.1-.09-.21-.163-.32a.918.918 0 0 0-.271-.27.834.834 0 0 0-.407-.22.527.527 0 0 0-.461.11c-.109.11-.199.25-.271.43a2.87 2.87 0 0 0-.163.55 6.866 6.866 0 0 0-.217 1.73c0 .15.009.28.027.41.018.13.045.26.081.4.037.08.055.15.055.22v.27a.671.671 0 0 1-.217.3 1.37 1.37 0 0 0-.272.3.742.742 0 0 1-.217.16.822.822 0 0 0-.217.17c-.036.03-.081.07-.135.1a.938.938 0 0 1-.19.11.31.31 0 0 0-.19.06c-.054.03-.118.07-.19.1-.108.04-.235.07-.38.09-.144.02-.271.02-.38.02l-.434.11a1.36 1.36 0 0 0-.379.16.558.558 0 0 0-.272.2 1.02 1.02 0 0 0-.162.29c-.109.15-.208.29-.299.44-.09.14-.153.3-.19.49a6.425 6.425 0 0 0-.325 1.08c-.036.14-.091.27-.163.38-.072.11-.126.24-.163.38a.92.92 0 0 1-.108.43.761.761 0 0 1-.217.25.504.504 0 0 1-.326.13 1.617 1.617 0 0 1-.868 0 1.384 1.384 0 0 1-.298-.13 1.632 1.632 0 0 1-.244-.19.637.637 0 0 1-.19-.35 3.025 3.025 0 0 1-.027-.41c0-.07-.009-.16-.027-.24-.019-.1-.028-.18-.028-.25v-.38c0-.07-.027-.11-.081-.11a.212.212 0 0 1-.136-.05c-.036 0-.054-.02-.054-.06v-.05c0-.04-.018-.08-.054-.14a.472.472 0 0 0-.163-.13.618.618 0 0 0-.163-.11.38.38 0 0 1-.162-.16.657.657 0 0 1-.272-.17l-.217-.21a6.224 6.224 0 0 0-.705-.79c-.253-.23-.488-.5-.705-.79a1.898 1.898 0 0 1-.19-.21 1.643 1.643 0 0 0-.244-.27 2.18 2.18 0 0 1-.217-.28c-.073-.1-.163-.19-.272-.27l-.434-.32a5.062 5.062 0 0 1-.434-.38 14.48 14.48 0 0 1-.434-.35 3.226 3.226 0 0 0-.488-.36 1.197 1.197 0 0 1-.244-.16.88.88 0 0 0-.298-.16.405.405 0 0 1-.136-.03.41.41 0 0 0-.136-.03c-.108 0-.235.01-.379.03-.145.02-.272.03-.38.03-.181.03-.362.04-.543.02-.181-.01-.361-.02-.542-.02h-.136a.338.338 0 0 0-.136.05c0 .04-.018.07-.054.08-.036.02-.054.05-.054.08-.072.11-.091.26-.054.44.036.18.072.31.108.38l.434.43c.073.04.136.09.19.17.054.07.1.12.136.16.072.11.144.2.217.27.072.07.144.16.217.27.108.07.199.15.271.24.072.09.145.19.217.3.072.11.136.21.19.3.054.09.099.19.136.3.036.07.09.14.162.22.073.07.127.14.163.21.072.11.136.21.19.3.054.09.099.17.136.25.036.1.063.19.081.27.018.07.027.16.027.27v.11c0 .03.018.07.054.1v.17c0 .03-.018.09-.054.16a.48.48 0 0 1-.407.22h-.461c-.398-.04-.814-.07-1.248-.08a6.33 6.33 0 0 0-1.302.08.705.705 0 0 0-.271.05.554.554 0 0 1-.271.06c-.073.03-.154.07-.245.11-.09.03-.171.07-.244.1-.072.04-.126.08-.162.11-.037.04-.037.11 0 .22.036.14.144.27.325.38.181.11.326.2.434.27.072.07.154.14.244.19.091.05.19.1.299.14.072 0 .135.01.19.02.054.02.117.03.189.03.109.04.226.07.353.11.127.03.244.05.353.05h.976c.181.04.362.08.543.14.181.05.361.1.542.13.145.04.272.08.38.11.109.04.235.08.38.11.072 0 .163.01.271.03.109.02.199.04.271.08.109.04.199.08.272.13.072.06.162.12.271.19.072.04.136.09.19.14.054.05.081.14.081.25.036.07.073.13.109.19.036.05.072.11.108.18.073.11.127.22.163.33.036.11.09.2.163.27.072.11.144.21.217.3.072.09.163.17.271.24.072.11.172.18.298.19.127.02.263.05.407.08.109.04.226.09.353.14.127.06.262.1.407.14.072 0 .154.01.244.05s.172.07.244.11c.072 0 .136.02.19.05.054.04.1.06.136.06.144.07.298.12.461.13.163.02.298.09.407.19a.72.72 0 0 1 .081.11.43.43 0 0 0 .081.11l.163.16c.036.04.055.1.055.19s.018.18.054.25c.036.1.063.21.081.32.018.11.045.24.082.38.036.18.081.37.135.57.054.2.1.39.136.57 0 .15.018.29.054.44.036.14.054.3.054.48.036.15.036.3 0 .47-.036.16-.072.31-.108.46a2.94 2.94 0 0 1-.244.4c-.091.13-.172.26-.244.41a.867.867 0 0 0-.082.22c-.018.07-.045.16-.081.27-.036.14-.082.3-.136.46-.054.16-.099.32-.136.46-.072.22-.162.44-.271.65-.108.22-.217.42-.325.6-.073.18-.136.34-.19.49a1.74 1.74 0 0 1-.244.43l-.434.44c-.073.03-.154.08-.245.13-.09.05-.171.1-.244.14-.108.07-.208.16-.298.27-.09.11-.172.21-.244.32a4.7 4.7 0 0 1-.109.38c-.036.11-.072.24-.108.38a4.392 4.392 0 0 0-.326.87c-.072.18-.09.34-.054.46.036.13.109.26.217.41.036.07.09.14.163.22l.217.21c.072.08.144.14.217.19.072.06.163.1.271.14.072.03.154.06.244.08.091.02.19.05.299.08.108.07.208.12.298.14.09.01.19.02.298.02.109-.03.208-.05.299-.05h.298a.97.97 0 0 0 .217.08c.073.02.145.03.217.03.073.03.145.06.217.08.073.02.145.04.217.08l.923-.27c.289-.14.578-.25.868-.33.289-.07.56-.19.813-.38.109-.07.208-.17.299-.29.09-.13.172-.25.244-.36a4.364 4.364 0 0 0 .217-.54 3.1 3.1 0 0 0 .19-.33.79.79 0 0 0 .081-.37c.073-.26.118-.52.136-.79.018-.27.045-.55.081-.84a.977.977 0 0 0 .055-.3v-.24a.487.487 0 0 0 .054-.19v-.58c0-.14-.018-.28-.054-.43a1.326 1.326 0 0 1-.055-.65c.036-.22.073-.45.109-.71.036-.1.072-.23.108-.38.036-.14.073-.27.109-.37.072-.15.144-.28.217-.38.072-.11.163-.2.271-.28.253-.25.543-.45.868-.59.326-.15.651-.27.977-.38.108-.04.217-.08.325-.14l.271-.13a.695.695 0 0 1 .19-.08c.055-.02.1-.05.136-.09l.217-.1a.554.554 0 0 1 .271-.06c.036 0 .073.01.109.03.036.02.09.03.163.03h.325c.072 0 .145 0 .217.02.072.02.145.03.217.03h.488c.109 0 .208.01.299.03.09.02.19.02.298.02h.38c.108.04.217.07.325.09.109.01.217.04.326.08.072 0 .154.01.244.02.091.02.172.03.244.03.073 0 .154-.01.244-.03.091-.01.19-.04.299-.08.108-.03.208-.07.298-.11.091-.03.19-.07.299-.1.144-.08.271-.16.379-.25.109-.09.199-.21.272-.35.108-.15.18-.28.217-.41a.984.984 0 0 0 0-.46c0-.07-.009-.16-.027-.27a.95.95 0 0 0-.082-.27.843.843 0 0 0-.163-.22.742.742 0 0 0-.217-.16c-.036-.04-.09-.07-.162-.11a.393.393 0 0 0-.163-.06c-.109-.03-.199-.07-.271-.1l-.217-.11a5.797 5.797 0 0 1-.733-.25 2.025 2.025 0 0 0-.732-.13h-.868c-.181 0-.362.01-.543.03-.181.01-.343.04-.488.08-.073 0-.136.01-.19.02-.054.02-.118.05-.19.09-.145 0-.298.01-.461.02-.163.02-.317.03-.461.03a7.09 7.09 0 0 1-.651-.03 2.507 2.507 0 0 1-.651-.13c-.109 0-.226-.02-.353-.06a1.15 1.15 0 0 1-.353-.16c-.072-.07-.099-.14-.081-.22.018-.07.045-.14.081-.21.073-.18.172-.36.299-.52.126-.16.28-.26.461-.3.145-.03.28-.05.407-.05h.407c.072 0 .135-.01.19-.03a.543.543 0 0 1 .189-.03h.326c.109-.03.208-.1.298-.19.091-.09.19-.17.299-.24.036 0 .081-.02.135-.05a.938.938 0 0 1 .19-.11l.217-.11a.618.618 0 0 0 .163-.11c.109-.04.19-.11.244-.22l.136-.27c.036-.11.054-.2.054-.27s-.018-.16-.054-.27a1.71 1.71 0 0 1-.109-.3.707.707 0 0 0-.162-.3l-.434-.21a.545.545 0 0 1-.19-.03.553.553 0 0 0-.19-.03.519.519 0 0 1-.163-.05.445.445 0 0 0-.217-.06.22.22 0 0 0-.108.03.227.227 0 0 1-.109.03.57.57 0 0 1-.217.05.445.445 0 0 0-.217.06c-.145 0-.28.02-.407.08-.127.05-.262.1-.407.13h-.217a.502.502 0 0 1-.19-.16 1.96 1.96 0 0 0-.19-.22c-.036-.11-.081-.2-.135-.3-.054-.09-.1-.19-.136-.29a.524.524 0 0 1-.027-.28c.018-.07.027-.16.027-.27a.456.456 0 0 0 .054-.21c0-.08.018-.15.055-.22a.694.694 0 0 1 .135-.19l.19-.19c.145-.11.299-.21.461-.3.163-.09.317-.17.461-.24.326-.15.642-.29.95-.44.307-.14.624-.27.949-.38.217-.07.425-.12.624-.16.199-.04.407-.05.624-.05h.705c.037.03.073.05.109.05h.325c.073 0 .145.02.218.06.18 0 .37.01.569.05.199.03.407.05.624.05.181.04.38.06.597.06.217 0 .416-.02.597-.06l.434-.1c.144-.04.271-.1.379-.17a.985.985 0 0 0 .326-.43c.072-.18.108-.35.108-.49.037-.29.019-.55-.054-.79a7.543 7.543 0 0 0-.271-.73z" style="fill-rule:nonzero" transform="matrix(5.82496 0 0 5.78595 -3494.98 -16395.3)"/></svg>