<svg viewBox="0 0 400 400" xmlns="http://www.w3.org/2000/svg" xml:space="preserve" style="fill-rule:evenodd;clip-rule:evenodd;stroke-linejoin:round;stroke-miterlimit:2"><path d="m11.688 159.83-.449.463c0-.231.449-.463.449-.463zM215.73 3.147l.449-.463c.903.29 1.048.463.454.463h-.903zm63.825 374.987c-3.967 3.935-4.934 1.794-8.994 5.786l-7.637 4.05-.448.405c-2.12 0-3.909 1.331-6.297 1.331l1.8-.868c-7.206.868-8.15.926-16.182 3.588l.449-.926c-3.88 1.33-9.239 4.687-12.134 1.794l-2.697.925h-2.697c-8.085 0-7.153.695-14.83 2.199l-4.042.463-4.497.868h-3.594l-3.594.463-1.352-1.331c-5.487.752-4.485 2.43-9.885 3.124l1.346-.868c-5.388 1.736-13.543-1.215-18.873-2.256l.449-.868c-2.243 0-4.509-.926-6.746-.926h-1.345c-3.868-2.546-10.922-5.786-15.734-5.786l-3.145-1.33c-3.384-1.678-7.63-3.588-10.334-6.25l-1.35.869-3.595-1.794c-.53-.52-1.27-.81-1.8-1.33l-.897-.869h-.676c-.477 0-1.124-.926-1.124-.926h.903c.676-.636-9.786-1.446-8.09-.867l-5.395-1.794c-2.027-.694-4.223-1.273-6.29-1.794l-5.395-3.587c-3.366-3.298-7.8-5.497-11.236-8.91 0 0-.967-.521-1.351-.868l-1.346-1.389c-13.782-13.655-29.538-25.92-42.697-40.154l1.8.868-3.145-3.125c0-.926-1.8-2.199-1.8-2.199-.07-.115 0-.462 0-.462-.618-2.43-1.847-2.488-3.146-4.456l.897.463c-6.355-6.364-13.933-22.507-13.933-27.252 0 0-.449-.578-.449-.867l-5.393-16.085 1.35 2.198c-2.352-4.628-1.094-9.489-2.696-14.233v4.455c0-3.76-1.351-7.464-1.351-11.167 0-.868 1.35 3.067 1.35 2.199v-8.216c0-1.331-3.593-5.381-3.593-4.687-4.613-9.2-4.485-19.151-7.642-28.582v-3.125c0-.636-.449-1.157-.449-1.794v-2.661c0-9.026 6.74-43.51 6.74-17.879 1.834-7.29.745-6.827 2.248-14.29l1.346-.869c0-1.1.396-2.14.815-3.182l.169-.405c.42-1.042.815-2.025.815-3.125v-.462l-.448.462c.53-6.364-.239-7.637.897-13.828v.405a3.705 3.705 0 0 0 .449-1.736v-3.124l.448-.926v-1.33c.652 0 .454-.521.454-.869l.449-.462-.449 1.793-.454 2.662c2.36 0 7.642-19.788 7.642-24.128l.449.463c1.532-2.43 5.277-9.257 7.642-11.63l-.448.926c.955-.983.903-1.562 2.248-2.256l.897-1.331c0-.463.449-1.33.449-1.33l3.145-3.125c1.2-3.009 2.249-9.373 2.249-9.373 3.337-9.952 13.036-15.16 20.224-22.334l1.345-2.662 3.6-3.587c-1.31.868 6.291-11.803 6.291-12.035l2.697-2.661c-2.318 2.835 5.318-5.15 8.091-7.638l1.346-.405 1.351-1.33.897-.464c2.37-4.744 12.168-3.645 15.727-7.174l-2.69.926c6.191-2.083 10.228-7.29 16.175-9.836l.897 1.33c1.98 0 4.544-2.72 6.297-3.587l.897-.405c.909-.926-.338-1.33.897-1.33l1.352-.927-3.594 1.331-4.497 3.125c1.922-1.505.635-3.53 3.145-3.53 0 0 .565-.463.897-.463h.903c0-.289.076-.463.221-.463h1.125c2.196 0 6.11-.81 8.09-1.33l5.394-1.794c1.719 0 3.24-.868 4.946-.868h4.042c.472-.463 1.8-.231 1.8-.926h-2.248c5.277 0 15.727-1.793 15.727-1.793.338 0 .903-.405.903-.405h2.697s.105.347 0 .405l-.903.463-.448.463h-.897c.21 0 .448.462.448.462s.565-.462.897-.462c0 0 5.522-5.092 8.988-6.25l-1.794.464c1.165-1.215 2.173-1.563 3.594-2.257l-2.248 1.33C173.15 2.627 178.03.024 181.124.024l.897.405h1.8c-.21 0-4.648.231-.448.925 2.353 0 1.736.405 4.49 1.331 6.548 0 9.245-1.91 13.037 0h8.988c-5.353 0 5.225.29 5.842.463h-2.696c-1.078 0 1.63 1.62 2.696 1.794 2.301-.29 1.096-1.389 3.822-1.389h8.09c4.066 0 8.65 2.835 12.361 4.05 8.54-2.14 8.184-1.91 21.121 1.33l-1.345.869c2.604 0 4.48 2.256 6.74 2.256l-2.698-1.793c4.631 1.157 10.188 5.207 14.382 7.58-7.625-3.762 1.06 2.256 3.594 2.256l.903.868c-5.318 0 8.05 6.885 12.133 10.299l1.346 1.33 1.351.868a32.41 32.41 0 0 0 4.491 1.794l4.497 1.33c2.412.984 6.868 2.026 8.866 2.489 1.794 1.793 8.964 7.232 11.359 10.01 3.081 3.587 5.248 7.868 8.09 11.63l-2.248-1.332c.408.405 1.148.984 1.666 1.331-.192-.058-.385 0-.769 0l2.697 2.257c.163 0 4.048.868 7.642 4.455l1.346.868 1.351 1.33.897 1.39-.897-.464c1.084 1.62 1.474 1.91 2.697 3.125l1.8 2.661c-3.763-3.76 5.79 8.853 8.54 13.366 3.652 6.075 8.993 18.341 16.175 21.929 1.637 3.24 6.746 11.456 6.746 22.275l1.345.463-1.345 3.125.448 3.587c2.587 1.273 1.923 1.389 3.146 3.587l-.449-.463c0 1.389 7.852 13.597 3.594 9.374l1.8 2.661h-.454c.495 1.505 1.351 4.455 1.351 4.455l1.794 5.381-.448-.463 3.6 13.829-4.049 20.135v.868h.449l.903 2.661c1.398 0 1.811-.81 3.594 3.588.53 2.603-.589 5.438 0 8.042l1.345 3.992.903 1.39-.448 1.735v.926h-.455c-.338.694-.448 2.198-.448 2.198-2.284-2.256-1.614 6.25-2.249 9.374l.455-.868c-.78 10.877-3.542 9.546-5.394 19.672v4.86l-.903.926v1.793c0 4.745-2.913 8.448-4.043 12.903l-1.351 3.587-.897 3.588c-4.17 5.901-7.497 11.687-11.236 17.878l-5.843 5.786c-1.433 1.389-2.988 2.72-4.48 4.05 0 0 .018-.057 0-.057h-.011c-.227.231-.256.231-.46.462-.152.116-.291.29-.443.463-5.737 3.761-8.673 11.11-10.782 17.416l-1.351 2.199-1.346 2.661c-1.765 1.794-5.108 3.819-7.607 4.745.14-.058.274-.174.413-.232l-.897.405c.158-.058.32-.115.484-.173-17.062 11.34-26.58 20.366-39.587 35.468-.273.289-.687.52-1.124.636l-1.124.231a2.72 2.72 0 0 0 1.124-.231l1.124-.174 3.146-3.587.448-.463c.338-.636 1.352-1.793 1.352-1.793.903-.868-.775 2.43-1.352 3.587l-2.242 2.256c-.303.29-.455.579-.455.868h-1.794c-1.567.752-5.062 1.794-6.745 1.794l.454-.463h-.454c-1.014.347-11.236 2.72-11.236 4.455h-.897v-.405l-.449-.463s-1.03.29-1.345 0h.448l.449-.463 6.74-2.198c-2.325 0-6.74 1.793-6.74 1.793l-.897.868zm83.157-69.605c-.012.058-.024.116-.035.116a1.04 1.04 0 0 1-.163.29 1.264 1.264 0 0 1-.7.404c.298-.231.595-.52.898-.81zm-.897.81c-.158.174-.31.348-.466.463l.448-.405.018-.058zM315.384 39.078c-.63-.637-.594-.81.57-.232l.45.463s-.385-.116-1.02-.231zm18.867 21.64c.157.057.314.173.582.462 0 0-.244-.174-.582-.463zM312.867 183.09c.822-.579 1.44-1.447 1.853-2.43a32.755 32.755 0 0 1 1.229-2.777 20.793 20.793 0 0 0 2.464-4.282c.617-1.446 1.34-2.95 2.16-4.57.409-1.042.665-1.852.77-2.431.105-.636-.46-.52-1.695.29a25.795 25.795 0 0 1-2.155 4.397 132.53 132.53 0 0 0-2.464 4.166 66.474 66.474 0 0 1-2.004 3.645 55.442 55.442 0 0 1-2.313 3.703l-1.846 2.43c-.618.81-1.235 1.562-1.853 2.14-.407.637-.82 1.158-1.229 1.679-.413.52-.821.983-1.235 1.388l-.151-.29c-.105-.23-.256-.404-.466-.636a9.782 9.782 0 0 1-.46-1.041c-.105-.347-.361-.694-.77-1.1-.617-.983-1.49-1.909-2.62-2.719-1.13-.81-2.208-1.562-3.233-2.14-.821-.637-1.596-1.274-2.313-1.852-.722-.637-1.49-1.215-2.312-1.852-1.23-1.215-2.517-2.256-3.85-3.066a36.655 36.655 0 0 1-3.85-2.72c-1.643-1.041-3.135-2.198-4.469-3.529-1.34-1.33-2.825-2.546-4.467-3.53-.618-.636-1.34-1.157-2.161-1.677-.822-.521-1.538-1.1-2.156-1.678-.82-.637-1.59-1.273-2.312-2.025a27.357 27.357 0 0 0-2.307-1.968c-2.056-1.851-4.368-3.182-6.937-3.992-2.563-.81-5.08-1.62-7.55-2.43-1.025-.231-2.102-.405-3.232-.636a10.12 10.12 0 0 1-2.93-.926c-.612-.174-1.177-.405-1.69-.752-.518-.29-1.083-.521-1.695-.753-1.648-.636-3.337-1.215-5.085-1.851-1.747-.579-3.337-1.33-4.776-2.14l-2.155-1.042c-.618-.347-1.235-.695-1.853-1.1-.617-.405-1.281-.694-2.004-.925-.716-.174-1.386-.405-2.003-.579-1.23-.405-2.464-.752-3.693-.926-1.235-.231-2.57-.405-4.008-.636-1.235-.405-2.621-.579-4.159-.579h-15.558c-2.057 0-4.008.058-5.854.29a49.7 49.7 0 0 0-5.243.289c-1.643.231-3.285.52-4.928.926-1.025 0-2.004.115-2.93.289-.92.231-1.794.347-2.615.347l-1.853.579a5.19 5.19 0 0 1-1.846.347c-1.235.173-2.464.347-3.699.463-1.229.057-2.464.231-3.699.405a33.984 33.984 0 0 0-7.7 1.562c-2.464.81-4.928 1.504-7.398 2.14-.821.406-1.695.695-2.615.926a6.314 6.314 0 0 0-2.313.926c-.617.405-1.13.752-1.538 1.042-.413.347-.821.694-1.235 1.099-1.642.984-3.285 1.91-4.928 2.72a31.72 31.72 0 0 0-4.625 2.777 8.935 8.935 0 0 0-2.155 1.504 15.245 15.245 0 0 1-2.155 1.851l-3.699 2.43c-1.235.868-2.464 1.678-3.699 2.604-1.235.926-2.464 1.736-3.699 2.315l-4.928 3.066a29.055 29.055 0 0 0-4.625 3.645 51.396 51.396 0 0 0-2.306 2.604c-.723.926-1.491 1.91-2.313 2.95a19.584 19.584 0 0 1-2.004 2.257 8.535 8.535 0 0 0-1.695 2.604 38.234 38.234 0 0 1-2.772 4.745 49.087 49.087 0 0 0-2.773 4.744c-.204-.174-.414-.463-.617-.752a1.763 1.763 0 0 1-.31-1.042 74.133 74.133 0 0 1-4.927-8.158c-1.439-2.72-2.977-5.554-4.625-8.39-.408-.636-.769-1.215-1.078-1.851a24.848 24.848 0 0 0-1.077-1.851c-.204-.405-.46-.868-.77-1.331-.308-.521-.46-.984-.46-1.389-.21-.405-.308-.868-.308-1.389 0-.52-.105-.983-.309-1.388-.413.81-.466 1.736-.157 2.777.309.984.565 1.794.775 2.43 0 1.042.046 2.025.151 2.893.105.926.256 1.794.46 2.604.21.81.414 1.678.618 2.604.204.925.413 1.793.617 2.603l2.464 7.985a48.735 48.735 0 0 0 3.081 7.637c.204.81.513 1.563.927 2.141.407.637.716 1.33.926 2.14-.21.406-.361.81-.466 1.216-.1.405-.256.81-.46 1.215-.414 1.446-.822 2.95-1.235 4.455-.408 1.562-.822 3.009-1.23 4.455a24.597 24.597 0 0 1-.925 3.646l-1.235 3.703a23.87 23.87 0 0 1-.92 3.645l-1.236 3.703c.204-.405.46-.868.77-1.389.308-.52.564-.984.774-1.389a60.32 60.32 0 0 1 2.464-3.992 25.632 25.632 0 0 0 2.155-3.934 95.332 95.332 0 0 1 2.004-3.877 74.085 74.085 0 0 1 2.313-3.819c.203-.173.355-.405.46-.578.105-.232.151-.405.151-.637l1.235 2.488c.204.347.414.752.617 1.042.204.289.408.636.618 1.1.612.578 1.13 1.33 1.538 2.256.413.925.821 1.793 1.235 2.603.611 1.042 1.229 2.083 1.846 3.24.618 1.1 1.235 2.2 1.847 3.183a60.788 60.788 0 0 0 3.39 5.96c1.235 1.966 2.569 3.934 4.007 6.017.414.405.822.867 1.235 1.33.408.521.822.984 1.23 1.389.617.636 1.182 1.273 1.694 2.025.513.694.979 1.33 1.387 1.967 1.025 1.215 2.155 2.373 3.39 3.356a25.924 25.924 0 0 0 4.007 2.777 224.449 224.449 0 0 1 7.392 3.82c2.464 1.33 5.033 2.371 7.707 3.181 1.025.405 2.102.81 3.233 1.1 1.13.289 2.207.636 3.238 1.041 1.433.637 2.773 1.215 4.002 1.736 1.235.463 2.464 1.041 3.699 1.678a63.4 63.4 0 0 0 5.394 2.893 55.15 55.15 0 0 0 5.697 2.314c.617.174 1.234.347 1.852.463.617.058 1.229.116 1.846.116l3.7 1.215c1.228.405 2.62.636 4.158.636 1.538 0 3.03.116 4.468.29 1.439.405 2.93.636 4.468.636h4.776c1.439 0 2.825.116 4.16.463 1.333.29 2.72.52 4.158.752.822.174 1.643.29 2.464.29.822 0 1.649.115 2.47.289.612 0 1.281.115 1.998.347.722.173 1.491.405 2.312.579.822.23 1.59.347 2.313.347h2.312c1.643.173 3.18.289 4.62.289 1.438 0 2.877-.116 4.316-.29a71.48 71.48 0 0 0 6.774-1.562l6.78-1.851c2.057-.405 4.16-.926 6.32-1.504a32.042 32.042 0 0 0 6.006-2.43c.822-.232 1.544-.521 2.156-.926.617-.405 1.234-.752 1.852-.926.408-.231.874-.463 1.386-.752.513-.347.973-.579 1.387-.81.407-.405.768-.81 1.077-1.215.309-.405.565-.695.769-.926.617-.81 1.386-1.446 2.313-1.967.926-.521 1.8-.984 2.62-1.389a54.807 54.807 0 0 0 3.542-1.851c1.13-.579 2.313-1.215 3.542-1.794a11.244 11.244 0 0 1 2.773-1.562 13.172 13.172 0 0 0 2.772-1.505l2.47-1.215c.821-.405 1.538-.81 2.155-1.273.822-.578 1.538-1.215 2.156-1.967.617-.694 1.234-1.388 1.852-1.967.408-.405.868-.752 1.386-1.1.513-.289.868-.751 1.078-1.33.408-.637.769-1.273 1.077-1.852.31-.636.565-1.215.77-1.851a42.667 42.667 0 0 1 3.39-5.207 57.912 57.912 0 0 0 3.39-4.918 114.424 114.424 0 0 0 1.695-3.472 30.44 30.44 0 0 1 1.695-3.24 83.396 83.396 0 0 1 2.615-3.645 50.326 50.326 0 0 0 2.621-3.993c.204-.636.362-1.157.46-1.562.105-.405.257-.868.467-1.504a16.57 16.57 0 0 1 1.695-3.992 70.017 70.017 0 0 1 2.306-3.646v.116c0 .116.105.174.309.174a223.48 223.48 0 0 1 4.625 7.174 75.423 75.423 0 0 1 4.002 7.522l1.235 3.067c.413.983.926 2.025 1.537 3.066 0 .174.053.405.158.579.105.231.151.405.151.636.21 0 .309.058.309.174v.115l2.464 7.638c.21 0 .309.058.309.173 0 .116.104.174.308.174l-1.229-3.703a7.422 7.422 0 0 1-.774-2.43c-.1-.81-.356-1.736-.77-2.777a18.895 18.895 0 0 1-.46-2.604 18.878 18.878 0 0 0-.466-2.604c-.203-.983-.46-1.91-.768-2.72a25.483 25.483 0 0 0-1.078-2.487 89.223 89.223 0 0 1-1.695-4.86 45.492 45.492 0 0 0-1.695-4.629 54.019 54.019 0 0 1-1.538-4.57 56.331 56.331 0 0 0-1.544-4.572c.204-.231.414-.578.618-1.1.204-.52.309-.983.309-1.388.617-1.62 1.281-3.298 2.003-5.034.717-1.735 1.695-3.298 2.924-4.744zm-17.87 26.963c-1.026 1.388-2.103 2.892-3.233 4.397-1.13 1.562-2.208 3.009-3.239 4.455-1.643 2.025-3.18 4.108-4.62 6.133-1.438 2.025-3.08 4.05-4.927 6.133-1.649 1.62-3.291 3.414-4.934 5.323-1.643 1.968-3.285 3.819-4.928 5.67-.617.637-1.334 1.216-2.155 1.852-.827.579-1.748 1.215-2.779 1.794l-1.846 1.273c-.617.405-1.334.694-2.155.867a5.396 5.396 0 0 1-2.004.926c-.722.232-1.386.521-2.004.926-1.025.636-2.004 1.215-2.924 1.851-.926.637-2.004 1.1-3.239 1.505a352.25 352.25 0 0 0-2.772 1.736 17.23 17.23 0 0 1-3.082 1.33 337.207 337.207 0 0 1-7.7 2.604c-2.674.926-5.342 1.62-8.015 2.025-2.05.405-4.16.694-6.315.926-2.155.173-4.264.405-6.32.579-1.846.405-3.64.694-5.388.752a81.696 81.696 0 0 1-5.394.173c-1.439 0-2.877-.058-4.316-.173-1.433-.058-2.872-.347-4.31-.752-1.44-.174-2.977-.463-4.626-.753-1.642-.289-3.18-.636-4.619-1.099a15.373 15.373 0 0 1-3.081-.868 12.502 12.502 0 0 0-3.082-.926 78.466 78.466 0 0 1-4.928-1.388 78.631 78.631 0 0 0-4.933-1.389c-3.903-.984-7.7-2.314-11.4-3.819a79.286 79.286 0 0 1-10.782-5.38c-1.438-.81-2.93-1.62-4.467-2.43a44.343 44.343 0 0 1-4.468-2.72c-1.439-.868-2.773-1.736-4.008-2.662a47.515 47.515 0 0 0-4.007-2.545c-1.026-.637-2.05-1.331-3.082-2.025a36.6 36.6 0 0 1-3.081-2.315c-1.439-.983-2.773-2.14-4.002-3.356a66.709 66.709 0 0 0-3.699-3.356c-1.642-1.446-3.238-2.893-4.776-4.455a72.51 72.51 0 0 1-4.468-4.744 48.315 48.315 0 0 0-3.239-3.472c-1.124-1.157-1.998-2.43-2.615-3.876a40.628 40.628 0 0 0-2.621-3.935 36.238 36.238 0 0 1-2.616-3.992c-.21-.232-.36-.405-.466-.637l-.151-.289c.204-.405.355-.81.46-1.215.105-.405.256-.81.46-1.215a500.243 500.243 0 0 1 4.934-7.811 33.859 33.859 0 0 1 5.854-6.885 43.868 43.868 0 0 1 5.854-4.918l6.163-4.282a8.935 8.935 0 0 1 2.155-1.504l7.398-3.703a22.095 22.095 0 0 1 3.85-1.389c1.334-.29 2.72-.752 4.16-1.33a83.883 83.883 0 0 1 5.702-1.737c1.951-.462 3.955-1.041 6.005-1.677 3.7-.984 7.346-2.141 10.94-3.356 3.594-1.215 7.24-2.257 10.939-3.067 1.025-.173 2.004-.463 2.924-.752.926-.29 2.004-.579 3.239-.752 1.235 0 2.464-.116 3.699-.29l3.693-.636c1.852-.174 3.6-.463 5.242-.752 1.643-.29 3.285-.579 4.928-.752h18.488c2.668 0 5.237.173 7.701.578.617 0 1.287.174 2.004.463.722.29 1.386.579 2.004.752.82.232 1.642.348 2.464.463.82.116 1.642.29 2.463.463 1.44.232 2.878.52 4.317.926l4.316 1.215a54.341 54.341 0 0 0 5.388 1.562c1.748.405 3.443.926 5.085 1.504 1.235.405 2.464.868 3.7 1.39 1.228.52 2.463.983 3.698 1.388.821.405 1.643.752 2.464 1.041.821.29 1.643.695 2.464 1.1.204.173.513.462.926.752.408.289.717.578.92.752 1.235.636 2.418 1.215 3.548 1.678 1.13.52 2.307 1.215 3.541 2.025 1.026.578 2.11 1.33 3.24 2.256a19.764 19.764 0 0 0 3.54 2.315l3.7 2.43c1.229.81 2.359 1.736 3.384 2.777 1.03 1.042 2.056 1.967 3.081 2.893 1.031.926 2.056 2.025 3.082 3.24.617.81 1.287 1.62 2.003 2.43.723.81 1.387 1.62 2.004 2.43a71.531 71.531 0 0 0 1.847 2.951 42 42 0 0 1 1.852 2.893c.408.405.717.81.926 1.215.204.405.513.695.92.926-.82 2.025-1.741 3.992-2.772 5.786l-3.081 5.555zm-55.769 43.741 4.62-4.57c.413-.637.82-1.216 1.234-1.679.408-.52.822-1.099 1.23-1.735a9.317 9.317 0 0 0 1.077-1.968 46.92 46.92 0 0 1 1.084-2.256 33.078 33.078 0 0 0 2.464-5.555c.617-1.793 1.13-3.76 1.537-5.786.414-1.446.618-2.892.618-4.455 0-1.504.105-3.008.308-4.455 0-.578.053-1.273.152-1.967.105-.694.052-1.389-.152-1.967 0-1.042-.203-1.968-.617-2.778-.408-.81-.716-1.62-.92-2.43a25.59 25.59 0 0 1-.926-3.53 16.258 16.258 0 0 0-.927-3.24 53.192 53.192 0 0 0-1.386-4.107 40.774 40.774 0 0 0-1.695-3.819 21.236 21.236 0 0 0-1.538-3.53 7.2 7.2 0 0 1-.926-3.529l-.617-2.43c-.204-.81-.513-1.62-.927-2.488-.203-.81-.46-1.562-.769-2.256a11.963 11.963 0 0 0-1.077-2.026c-.618-.983-1.235-1.967-1.847-2.892-.617-.926-1.235-1.852-1.852-2.893a18.569 18.569 0 0 0-2.307-3.993c-.926-1.215-2.003-2.314-3.238-3.356l-1.695-1.678c-.513-.52-1.183-.983-2.004-1.388-.612-.405-1.334-.926-2.155-1.505-.822-.636-1.643-1.041-2.464-1.272a68.385 68.385 0 0 0-12.786-3.646 72.547 72.547 0 0 0-13.1-1.215h-3.542c-1.13 0-2.313.116-3.542.29-1.642.231-3.186.578-4.625 1.099a67.74 67.74 0 0 1-4.619 1.33c-1.439.406-2.877.695-4.316.81-1.439.059-2.872.464-4.31 1.042-1.032.637-2.162 1.215-3.39 1.852-1.236.578-2.366 1.33-3.39 2.14-1.847 1.447-3.752 2.778-5.704 4.109-1.95 1.33-3.646 3.008-5.079 5.091a27.639 27.639 0 0 1-2.161 3.009 35.058 35.058 0 0 0-2.155 3.066l-.618 1.852a5.877 5.877 0 0 0-.308 1.851 40.385 40.385 0 0 1-1.387 3.53c-.512 1.1-.972 2.199-1.386 3.182a37.6 37.6 0 0 0-1.386 5.497 35.685 35.685 0 0 0-.46 5.844v4.918c0 .578.098 1.215.308 1.793.204.637.309 1.273.309 1.852v2.43c0 .81.099 1.678.309 2.488l1.846 8.563a56.5 56.5 0 0 0 2.464 8.274c.414 1.215 1.025 2.372 1.847 3.53.827 1.099 1.648 2.082 2.47 2.892a21.43 21.43 0 0 0 2.155 2.893 21.574 21.574 0 0 0 2.772 2.604c.414.405.77.694 1.078.926.309.173.67.405 1.078.578.413.405.873.868 1.386 1.215.518.463.978.868 1.386 1.273.822.405 1.596.81 2.313 1.215.722.405 1.49.695 2.312.926 1.439.405 2.878.637 4.31.752 1.44.116 2.878.232 4.317.463.204.174.513.29.926.29h.92c.414.231.822.347 1.235.462.414.116.822.058 1.235-.173-.21-.579-.774-1.215-1.695-1.794-.926-.636-1.596-1.157-2.004-1.562-.82-.405-1.642-.868-2.464-1.33-.82-.522-1.642-1.1-2.47-1.737l-2.463-1.793a11.578 11.578 0 0 1-2.155-2.141c-.618-.636-1.183-1.215-1.696-1.852-.512-.636-1.077-1.215-1.695-1.851-.617-.579-1.13-1.273-1.537-1.967a84.2 84.2 0 0 1-1.235-2.315 8.72 8.72 0 0 1-.46-1.041 1.984 1.984 0 0 0-.466-.81 12.582 12.582 0 0 1-.46-1.678 6.378 6.378 0 0 0-.46-1.389l-2.47-4.86a6.091 6.091 0 0 1-.46-1.215 29.484 29.484 0 0 0-.46-1.562 3.936 3.936 0 0 1-.927-1.389 19.476 19.476 0 0 1-.618-1.678 9.782 9.782 0 0 1-.46-1.041 6.851 6.851 0 0 0-.46-1.1c-.21-.173-.413-.462-.617-.925l-.618-1.215c-.617-1.215-1.077-2.315-1.386-3.356-.309-1.042-.565-2.257-.769-3.645a73.133 73.133 0 0 1-1.078-6.018c-.308-2.14-.052-3.992.77-5.612l2.312-4.629a50.108 50.108 0 0 0 1.998-4.57c.617-1.62 1.13-3.24 1.543-4.745.408-1.562 1.23-2.893 2.464-4.166 1.235-1.62 2.825-3.009 4.777-4.282 1.951-1.215 3.955-2.14 6.005-2.72a24.861 24.861 0 0 0 1.853-.751c.617-.347 1.229-.579 1.846-.81 1.439-.405 2.983-.637 4.625-.752 1.643-.116 3.18-.348 4.62-.753l4.933-1.215c1.433-.405 2.82-.81 4.16-1.215 1.333-.405 2.72-.752 4.158-.925 1.025 0 2.05-.058 3.082-.174a27.425 27.425 0 0 1 3.081-.174h2.155c.618 0 1.334.232 2.155.637.414.231.874.463 1.387.752.518.347 1.083.579 1.695.81.413.347.926.694 1.543.868.618.231 1.13.52 1.538.926a19.06 19.06 0 0 1 3.082 1.562c1.03.578 2.16 1.1 3.39 1.504.821.232 1.695.463 2.621.752.92.348 1.695.868 2.307 1.678 1.03.868 1.957 1.736 2.778 2.778l2.464 3.066c.821.637 1.538 1.273 2.155 1.967.618.753 1.13 1.505 1.544 2.315.408.405.769.925 1.078 1.504a12.8 12.8 0 0 0 1.077 1.852l1.23 2.488c.413.81.722 1.62.925 2.43.204.81.46 1.62.77 2.43.308.81.564 1.736.774 2.777.204.405.408.926.612 1.504l.617 1.852c.204.81.361 1.678.466 2.604.1.925.256 1.851.46 2.893.204.81.408 1.677.618 2.603.204.926.408 1.91.611 2.893.21.81.414 1.62.618 2.315.21.694.309 1.504.309 2.314v4.86c0 1.215.157 2.546.466 3.877.302 1.273.559 2.546.768 3.818.204 1.215.408 2.546.618 4.108.204 1.505.303 3.01.303 4.456 0 .983-.1 2.025-.303 3.066-.21.984-.414 2.141-.618 3.356l-1.234 2.43c-.408.81-.717 1.62-.927 2.43-.407 1.042-.972 1.91-1.689 2.604a25.723 25.723 0 0 0-2.004 2.314zm-6.78 35.526h-5.237c-1.03 0-2.056.058-3.08.29-1.032.173-2.057.289-3.082.289a34.277 34.277 0 0 1-4.777.347H177.91c-.414 0-.973-.058-1.695-.174-.717-.116-1.386-.058-2.004.174.414.578.821 1.157 1.235 1.678.408.52.821.925 1.23 1.33a28.897 28.897 0 0 0 1.851 2.778c.618.81 1.13 1.736 1.538 2.777.21.405.466.868.775 1.33.303.521.565.984.769 1.39.408.636.821 1.157 1.229 1.677.413.521.821 1.1 1.235 1.678.413.637.821 1.331 1.235 2.025.407.695.716 1.447.92 2.315a53.727 53.727 0 0 0 2.621 5.033c.926 1.505 1.794 3.183 2.622 5.034a26.951 26.951 0 0 0 2.463 4.918 40.228 40.228 0 0 1 2.773 5.208c.204.578.46 1.099.769 1.504s.67.926 1.078 1.562c.413.579.821 1.273 1.235 1.967.407.695.82 1.39 1.229 1.968.413.405.82.752 1.235 1.099.407.29.82.636 1.234 1.041.408.81.868 1.563 1.387 2.141a18.065 18.065 0 0 0 1.695 1.852c.408.636.769 1.157 1.077 1.678.31.52.664.983 1.078 1.388.408.637.821 1.1 1.23 1.505.413.405.721.925.925 1.562v-2.315c0-.694-.105-1.446-.308-2.314a58.648 58.648 0 0 0-.618-2.72 53.975 53.975 0 0 1-.612-2.777 25.175 25.175 0 0 0-1.543-3.066 20.407 20.407 0 0 1-1.538-3.009c0-.868-.105-1.562-.309-2.198l-.617-1.794c-.204-.637-.46-1.157-.769-1.562s-.565-.926-.775-1.505c-.407-1.041-.716-2.198-.92-3.53-.21-1.33-.513-2.487-.926-3.529a31.295 31.295 0 0 1-1.078-3.066 49.48 49.48 0 0 1-.769-2.72 24.59 24.59 0 0 0-.926-3.702 23.896 23.896 0 0 1-.926-3.646c0-.405-.052-.81-.152-1.215a5.664 5.664 0 0 1-.157-1.273c.21-.81.414-1.562.618-2.256.204-.752.821-1.273 1.852-1.678 1.847-.81 3.903-1.389 6.163-1.678a54.21 54.21 0 0 0 6.466-1.389c1.438-.405 2.825-.752 4.164-1.099 1.334-.29 2.72-.636 4.16-1.041.82-.232 1.741-.463 2.772-.81a10.197 10.197 0 0 1 2.773-.405 2.48 2.48 0 0 1 1.229-.348c.413 0 .821-.057 1.235-.289l1.846-.636c.618-.174 1.235-.29 1.853-.29h1.386c.512 0 .973-.115 1.386-.289.204 0 .361-.116.46-.29.105-.23.158-.636.158-1.272-.618 0-1.288.058-2.004.173a12.69 12.69 0 0 1-2.004.174zm15.407-149.972c.408-2.083.926-3.356 1.538-3.992l1.852-1.852a19.584 19.584 0 0 1 2.004-2.256l1.998-2.025c.414-.81.926-1.562 1.544-2.315.617-.694 1.229-1.33 1.846-1.967.618-.405.979-.636 1.078-.752.105-.116.157-.463.157-1.1v-10.703a30.9 30.9 0 0 0-.157-3.067 10.545 10.545 0 0 1 .157-3.066c.204-.81.309-1.505.309-2.141v-2.141a2.613 2.613 0 0 1-.309-1.215V88.548c0-.637.052-.984.151-1.1.105-.115.362-.173.775-.173h23.108c.821 0 1.59.058 2.312.173.717.116 1.486.058 2.307-.173.414 0 .821 0 1.235-.116a4.513 4.513 0 0 1 1.235-.174c.408 0 1.025.058 1.846.174.822.116 1.439-.058 1.847-.463-.204 0-.309-.116-.309-.29v-.636a3.69 3.69 0 0 0-.151-1.099 2.153 2.153 0 0 1-.152-.752c-.21-.579-.361-1.273-.466-1.967a23.096 23.096 0 0 0-.46-2.315c0-.405-.105-.868-.309-1.388-.204-.463-.308-.926-.308-1.331-.204-.232-.257-.463-.152-.81.1-.29.152-.521.152-.752-.408-.81-1.282-1.042-2.622-.753-1.334.29-2.306.463-2.924.463-.821.174-1.747.405-2.772.579a14.018 14.018 0 0 1-3.082.347c-1.439 0-2.877.116-4.316.463-1.439.29-2.872.463-4.31.463a29.623 29.623 0 0 1-5.086.116 24.68 24.68 0 0 0-5.085.173c-1.235.174-2.412.347-3.542.463-1.13.116-2.207.116-3.238.116-.408 0-1.177 0-2.307-.116s-1.905.058-2.312.463c0 .173.052.52.151 1.041.105.521.157.868.157 1.1v8.563c0 1.446-.105 2.95-.308 4.57 0 2.084-.257 4.167-.77 6.307-.518 2.141-.978 4.34-1.386 6.539a510.779 510.779 0 0 1-2.003 10.588c-.723 3.587-.874 7.174-.466 10.877.413 2.026.774 3.993 1.077 5.96.309 1.91.466 3.819.466 5.67zm-55.465-15.043c.821 0 1.642 0 2.464-.116a17.723 17.723 0 0 1 2.47-.174c.611.232 1.281.348 1.998.463a12.69 12.69 0 0 0 2.003.174c1.031 0 2.109.116 3.239.29 1.13.23 2.208.404 3.233.636.617 0 1.077-.058 1.386-.174.309-.116.466-.463.466-1.1-.827-.81-1.439-1.677-1.852-2.545a14.298 14.298 0 0 1-.926-2.95c-.612-1.621-1.23-3.183-1.847-4.745a32.813 32.813 0 0 1-1.538-4.745 62.31 62.31 0 0 1-2.62-7.464 282.334 282.334 0 0 1-2.005-7.521c-.617 0-1.13.636-1.537 1.851-.414 1.215-.618 1.91-.618 2.14-.821 1.62-1.596 3.24-2.312 4.861a24.397 24.397 0 0 1-2.622 4.629c-1.025 1.388-1.951 2.95-2.772 4.57a51.497 51.497 0 0 0-2.156 4.919c-.407.81-.716 1.562-.926 2.314-.204.694-.512 1.447-.92 2.257-.21.231-.414.578-.617 1.099-.204.463-.31.926-.31 1.33h8.319zm-88.429-30.26h5.854c1.23 0 2.36.115 3.385.289 1.03.23 2.056.289 3.08.289 1.65 0 3.292.058 4.935.173 1.642.116 3.18.232 4.619.463 1.235.232 2.417.579 3.547 1.042 1.13.52 1.9 1.388 2.307 2.603.21.463.309.81.309 1.273v1.215c-.204.81-.46 1.563-.77 2.257a5.968 5.968 0 0 0-.46 2.314c0 3.877.047 7.811.152 11.804a64.44 64.44 0 0 0 1.386 11.745l.46.926c.105.231.362.405.775.636.618.174 1.183.347 1.695.463.513.116.973.232 1.387.463.617.174 1.281.463 2.003.752.717.29 1.387.637 1.998 1.042.618.463 1.34.752 2.161.925.822.232 1.643.521 2.464.926.408.232 1.183.463 2.313.752 1.13.348 2.72.579 4.77.81-.407-.231-.611-.405-.611-.636v-.579a33.777 33.777 0 0 1-.466-3.066 28.566 28.566 0 0 0-.46-3.067c-.204-1.041-.414-2.083-.618-3.24a17.788 17.788 0 0 1-.308-3.182 9.744 9.744 0 0 1-.31-2.315v-4.744c0-.81-.098-1.62-.302-2.43 0-.868-.052-1.62-.157-2.314a15.985 15.985 0 0 1-.152-2.315c0-1.794-.052-3.703-.157-5.67-.099-1.91-.151-3.819-.151-5.612v-9.49a6.158 6.158 0 0 0 .308-1.85v-1.852c0-.405.047-.81.152-1.215.105-.406-.053-.695-.46-.926-.414-.232-.822-.347-1.235-.463-.408-.116-.822-.116-1.23-.116h-1.694c-.519 0-1.084-.116-1.696-.347a49.7 49.7 0 0 0-5.242-.29c-1.846 0-3.594-.115-5.237-.289a24.68 24.68 0 0 0-5.085-.173 76.694 76.694 0 0 1-5.08.173h-3.855a20.85 20.85 0 0 1-3.85-.347 19.296 19.296 0 0 0-3.233-.289c-1.13 0-2.208-.116-3.24-.29-.617-.23-1.228-.347-1.846-.462a10.035 10.035 0 0 0-1.852-.174c-.408-.173-.769-.231-1.078-.173-.308.115-.565.405-.768.81-.618.983-1.026 2.198-1.235 3.53-.204 1.33-.408 2.603-.612 3.818-.21.983-.414 2.083-.617 3.182-.204 1.157-.31 2.199-.31 3.24.618.174 1.335.232 2.156.116.821-.058 1.544-.116 2.161-.116z"/></svg>