<svg viewBox="0 0 400 400" xmlns="http://www.w3.org/2000/svg" xml:space="preserve" style="fill-rule:evenodd;clip-rule:evenodd;stroke-linejoin:round;stroke-miterlimit:2"><path d="M792.484 2805.82c-.109-.11-.102-.14.098-.04l.077.07s-.066-.01-.175-.03zm3.238 3.74c.028.01.055.03.101.08 0 0-.043-.03-.101-.08zm-55.376 17.13-.077.07c0-.03.077-.07.077-.07zm35.03-27.09.077-.07c.154.05.18.07.077.07h-.154zm10.956 64.82c-.681.68-.846.3-1.543 1l-1.312.69-.077.08c-.363 0-.67.23-1.08.23l.309-.15c-1.237.15-1.399.16-2.778.62l.077-.16c-.666.22-1.587.81-2.083.31l-.463.15h-.463c-1.388 0-1.228.13-2.546.39l-.695.08-.771.15h-.617l-.618.08-.231-.23c-.943.13-.771.42-1.698.54l.232-.16c-.926.31-2.326-.2-3.241-.38l.077-.16c-.384 0-.773-.15-1.157-.15h-.231c-.664-.44-1.875-1-2.701-1l-.54-.24c-.581-.29-1.31-.61-1.775-1.08l-.231.16-.617-.31c-.091-.09-.218-.14-.309-.23l-.154-.16h-.116c-.082 0-.193-.15-.193-.15h.154c.116-.12-1.68-.25-1.388-.16l-.926-.3a13.83 13.83 0 0 0-1.081-.31l-.925-.62c-.578-.58-1.339-.95-1.929-1.54 0 0-.166-.09-.232-.16l-.231-.23c-2.366-2.36-5.071-4.48-7.33-6.94l.308.15-.54-.54c0-.16-.308-.38-.308-.38-.012-.03 0-.08 0-.08-.106-.42-.317-.44-.54-.77l.154.07c-1.091-1.09-2.392-3.88-2.392-4.7 0 0-.077-.1-.077-.16l-.926-2.77.231.38c-.403-.81-.187-1.64-.463-2.47v.77c0-.64-.231-1.28-.231-1.92 0-.15.231.53.231.38v-1.43c0-.22-.617-.92-.617-.81-.792-1.58-.769-3.31-1.311-4.93v-.54c0-.11-.078-.21-.078-.31v-.47c0-1.55 1.158-7.51 1.158-3.08.315-1.26.127-1.18.386-2.47l.231-.16c0-.18.068-.36.14-.54l.029-.07c.072-.18.14-.36.14-.54v-.08l-.078.08c.092-1.1-.04-1.32.155-2.39v.07c.051-.1.077-.2.077-.31v-.54l.077-.15v-.23c.112 0 .077-.09.077-.16l.077-.07-.077.3-.077.47c.405 0 1.312-3.43 1.312-4.17l.077.08c.263-.42.905-1.6 1.312-2.01l-.078.16c.165-.17.156-.27.386-.39l.155-.23c0-.08.077-.23.077-.23l.54-.54c.206-.52.386-1.62.386-1.62.573-1.72 2.238-2.63 3.472-3.86l.231-.46.617-.62c-.225.15 1.081-2.04 1.081-2.08l.463-.47c-.398.5.912-.89 1.388-1.31l.232-.08.231-.23.155-.07c.406-.82 2.089-.63 2.7-1.24l-.463.16c1.064-.36 1.757-1.27 2.778-1.7l.154.23c.34 0 .78-.47 1.08-.62l.155-.08c.156-.15-.058-.23.154-.23l.231-.15-.617.23-.771.54c.33-.26.109-.62.54-.62 0 0 .097-.07.154-.07h.154c0-.05.013-.08.039-.08h.193c.376 0 1.049-.15 1.389-.23l.926-.31c.295 0 .555-.16.848-.16h.695c.081-.08.308-.04.308-.15h-.385c.906 0 2.7-.31 2.7-.31.058 0 .154-.08.154-.08h.463s.019.06 0 .08l-.154.08-.077.08h-.154c.036 0 .077.07.077.07s.096-.07.154-.07c0 0 .947-.89 1.543-1.08l-.308.07c.2-.2.372-.26.617-.38l-.386.23c.483-.24 1.321-.7 1.852-.7l.154.08h.309c-.037 0-.798.04-.077.16.404 0 .297.07.771.23 1.123 0 1.587-.33 2.238 0h1.543c-.919 0 .897.05 1.003.07h-.463c-.186 0 .279.29.463.31.394-.05.187-.23.656-.23h1.389c.698 0 1.485.48 2.121.7 1.466-.37 1.406-.33 3.627.23l-.232.15c.448 0 .77.39 1.158.39l-.463-.31c.795.2 1.749.9 2.469 1.31-1.309-.65.181.39.617.39l.154.15c-.912 0 1.383 1.19 2.084 1.78l.231.23.232.15c.24.12.518.23.771.31l.772.23c.413.17 1.178.35 1.522.43.308.3 1.539 1.25 1.95 1.73.529.62.901 1.36 1.389 2.01l-.386-.23c.07.07.196.16.285.23-.032-.01-.066 0-.131 0l.463.38c.027 0 .694.16 1.312.78l.231.15.232.23.154.23-.154-.07c.186.27.253.33.463.54l.308.46c-.646-.65.995 1.53 1.466 2.31.627 1.04 1.545 3.17 2.778 3.78.281.57 1.157 1.99 1.157 3.86l.232.08-.232.54.077.62c.444.22.331.23.54.61l-.077-.07c0 .24 1.349 2.35.618 1.62l.308.46h-.077c.085.25.232.77.232.77l.308.93-.077-.08.617 2.39-.694 3.47v.16h.077l.154.46c.24 0 .311-.15.618.62.09.45-.101.93 0 1.39l.231.69.154.23-.077.31v.16h-.077c-.059.11-.077.38-.077.38-.393-.39-.277 1.08-.386 1.62l.077-.15c-.134 1.87-.608 1.64-.926 3.39v.85l-.154.16v.3c0 .83-.501 1.47-.694 2.24l-.232.62-.154.62c-.716 1.02-1.288 2.01-1.929 3.08l-1.003 1c-.246.25-.514.47-.77.71.001 0 .003-.01.001-.01h-.003c-.038.03-.043.04-.079.07-.025.03-.049.06-.075.08-.985.66-1.489 1.92-1.852 3.01l-.231.39-.232.46c-.302.31-.876.66-1.305.82a.331.331 0 0 0 .071-.05l-.155.08.084-.03c-2.929 1.96-4.564 3.52-6.796 6.13a.73.73 0 0 1-.193.11l-.193.04c.059 0 .127-.01.193-.04l.193-.04.54-.61.077-.08c.058-.12.231-.31.231-.31.156-.15-.133.42-.231.62l-.386.38c-.051.06-.077.11-.077.16h-.309c-.268.13-.869.31-1.157.31l.077-.08h-.077c-.174.06-1.929.47-1.929.77h-.154v-.08l-.077-.07s-.177.05-.232 0h.077l.078-.08 1.157-.39c-.399 0-1.157.31-1.157.31l-.155.16zm14.276-12.03-.006.02a.154.154 0 0 1-.027.05c-.033.03-.078.05-.12.07.05-.05.102-.09.153-.14zm-.153.14c-.027.03-.054.06-.08.08l.077-.08h.003zm-21.627-25.44.024.02c.016.02.041.03.073.03l-.024-.03a.138.138 0 0 0-.073-.02zm0 0-.049-.05c-.065-.1-.122-.19-.171-.27-.049-.08-.106-.17-.171-.27a4.063 4.063 0 0 1-.268-.41 1.846 1.846 0 0 0-.318-.42.538.538 0 0 0-.098-.14.977.977 0 0 1-.097-.15l-.098-.2a.733.733 0 0 0-.146-.19c0-.03-.008-.08-.025-.15-.016-.06-.057-.1-.122-.1h-.537c-.098 0-.195.02-.293.05h-4.785c-.195 0-.374.02-.537.05-.195.03-.383.06-.562.07-.179.02-.366.03-.561.03h-1.343c-.179 0-.35-.02-.513-.05l-.39-.1c-.13-.03-.277-.06-.44-.09h-2.49a.563.563 0 0 0-.098.14.484.484 0 0 1-.097.15c0 .1-.008.19-.025.27-.016.08-.024.15-.024.22a.407.407 0 0 0-.049.19c0 .07-.016.13-.049.2a.733.733 0 0 1-.146.19.799.799 0 0 0-.147.2c-.032.06-.097.18-.195.34-.098.16-.114.28-.049.34h1.709c.228.03.456.06.684.07.228.02.472.03.732.03.293 0 .594-.01.903-.03.31-.01.611 0 .904.03.13.03.244.06.342.07.097.02.211.03.341.03.131 0 .269 0 .415.02.147.02.285.02.415.02.326-.03.66-.04 1.001-.02.342.02.692.04 1.05.07l.586.1c.195.03.391.05.586.05h1.709c.163.03.317.06.464.07.146.02.301.03.464.03h1.855l.733-.39zm-13.282-3.96.123-.12c.048-.05.073-.09.073-.12a.277.277 0 0 0 .073-.12.397.397 0 0 1 .073-.13.932.932 0 0 0 .074-.19c.016-.07.04-.13.073-.2 0-.09.024-.17.073-.24.049-.07.09-.13.122-.2a.563.563 0 0 1 .098-.14.148.148 0 0 0 .049-.1c.032-.1.048-.19.048-.27 0-.08-.016-.17-.048-.27v-2.02c0-.31-.017-.61-.049-.91v-.44a.73.73 0 0 0-.025-.19.854.854 0 0 1-.024-.2v-.29a.368.368 0 0 1-.049-.15v-.26c0-.02-.049-.04-.146-.08-.033 0-.082-.01-.147-.02a.66.66 0 0 0-.195-.03h-.049l-.098.05a.803.803 0 0 1-.195.08c-.065.01-.114.07-.147.17 0 .06-.008.13-.024.19-.016.07-.041.13-.073.2a.563.563 0 0 1-.098.14.233.233 0 0 0-.049.15c-.032.07-.065.14-.097.22-.033.08-.065.15-.098.22-.033.06-.065.12-.098.17a.317.317 0 0 0-.048.17.499.499 0 0 0-.049.22v.27a2.76 2.76 0 0 1 .097.73v.64c0 .13.017.25.049.36.033.12.049.24.049.37v1.37c0 .06-.008.14-.024.24-.017.1-.025.18-.025.24a.38.38 0 0 1 .073.13c.017.05.041.09.074.12l.634.24zm-3.955 6.25c.163-.16.326-.31.489-.44.162-.13.276-.27.341-.44.066-.09.114-.19.147-.29l.098-.29a.277.277 0 0 0 .073-.12.419.419 0 0 0 .024-.13l-.049-.05a1.672 1.672 0 0 1-.146-.44l-.098-.48a3.85 3.85 0 0 1-.146-.59 3.853 3.853 0 0 0-.147-.58 6.391 6.391 0 0 0-.097-.37c-.033-.11-.065-.24-.098-.37 0-.19-.008-.37-.024-.53a1.744 1.744 0 0 0-.122-.49c0-.16-.017-.31-.049-.44a1.579 1.579 0 0 1-.049-.39c-.033-.16-.065-.32-.098-.47-.032-.14-.049-.3-.049-.46 0-.1-.008-.19-.024-.27a1.383 1.383 0 0 1-.024-.27.336.336 0 0 1-.049-.14c0-.04-.033-.05-.098-.05h-.171c-.049 0-.089.03-.122.1-.065.09-.13.21-.195.34a1.35 1.35 0 0 1-.244.34c-.098.1-.212.2-.342.32-.13.11-.244.22-.342.31a.47.47 0 0 1-.122.17.747.747 0 0 0-.122.17c-.033.1-.049.21-.049.32 0 .12-.016.22-.049.32-.032.1-.049.2-.049.32 0 .11-.016.22-.048.31 0 .17-.017.33-.049.49-.033.17-.049.33-.049.49v.88c0 .1.008.19.024.27.017.08.025.17.025.27a5.764 5.764 0 0 1 .195.48 1.786 1.786 0 0 0 .098.59c0 .13.008.25.024.37.016.11.025.23.025.36 0 .13.008.27.024.42.016.15.041.28.073.41.033.13.122.24.269.32.146.08.285.14.415.17l.976-.44zm22.581 4.84c-.054.01-.102-.04-.144-.15-.049-.13-.09-.23-.122-.29a8.374 8.374 0 0 1-.464-.52 5.142 5.142 0 0 1-.415-.56c-.033-.03-.073-.08-.122-.14a1.01 1.01 0 0 0-.122-.15c-.033-.06-.065-.11-.098-.12-.032-.02-.049-.06-.049-.12-.065-.13-.13-.26-.195-.37a3.949 3.949 0 0 0-.244-.37.34.34 0 0 1-.073-.09.278.278 0 0 0-.074-.1.352.352 0 0 1-.073-.12.397.397 0 0 0-.073-.13c-.065-.09-.171-.14-.317-.14h-.318c-.195 0-.374.01-.537.02-.163.02-.326.04-.488.08-.391.03-.782.04-1.172.04h-3.076c-.358-.03-.725-.04-1.099-.04s-.757-.04-1.147-.1c-.196-.03-.407-.07-.635-.1a5.246 5.246 0 0 0-.684-.05 1.739 1.739 0 0 0-.512-.02c-.18.01-.35.02-.513.02h-2.588c-.358 0-.724-.01-1.099-.02-.374-.02-.757-.04-1.147-.08h-.318a.828.828 0 0 1-.317-.05c-.098 0-.179 0-.244-.02s-.13-.02-.195-.02c-.228-.04-.44-.06-.635-.08-.195-.01-.407-.04-.635-.07-.163 0-.325-.02-.488-.05a2.954 2.954 0 0 0-.537-.05 1.746 1.746 0 0 0-.513-.02c-.179.01-.35 0-.513-.03-.065 0-.13-.01-.195-.02a.267.267 0 0 0-.195.02c-.033.1-.09.18-.171.25-.082.06-.155.13-.22.19-.065.07-.122.13-.171.2-.049.06-.106.13-.171.19-.065.1-.13.21-.195.32-.065.11-.13.22-.195.32-.163.26-.318.51-.464.75-.147.25-.269.5-.366.76-.066.16-.139.34-.22.51-.082.18-.187.34-.318.47a.557.557 0 0 0-.17.12l-.269.27c-.065.06-.081.1-.049.1.098.03.187.02.269-.03a.498.498 0 0 1 .268-.07c.293-.07.603-.12.928-.17.326-.05.635-.09.928-.13.358-.03.716-.04 1.074-.04h1.123c.423 0 .846-.01 1.27-.03a53.7 53.7 0 0 1 1.269-.02h.733c.227 0 .472-.02.732-.05.228 0 .448-.01.659-.02.212-.02.431-.03.659-.03h1.148c.374 0 .757-.02 1.147-.05.358 0 .708-.01 1.05-.02.342-.02.692-.03 1.05-.03h6.055c.13.04.252.05.366.05.114 0 .236.02.366.05h.464c.146 0 .301.02.464.05h.415c.146 0 .301.02.464.05.13 0 .268.01.415.05.146.03.284.04.415.04l.586.1c.195.04.39.04.586 0 .065 0 .113 0 .146-.02.031-.02.136-.06.315-.12zm0 0h.027-.027zm-9.006-12.41c.097.13.162.22.195.27.032.05.065.09.098.12 0 .04.024.08.073.13l.122.12c.098.1.179.19.244.29.065.1.163.18.293.25.065.03.138.06.22.09.081.04.154.07.219.1l.074.08c.016.01.04 0 .073-.03.065 0 .106-.03.122-.1a.773.773 0 0 0 .024-.19c.066-.23.098-.47.098-.71v-.76c0-.13.008-.27.024-.41.017-.15.025-.3.025-.47v-.41c0-.15.016-.3.049-.46.032-.14.049-.27.049-.4v-1.7a.46.46 0 0 0-.049-.2c0-.03-.008-.06-.025-.1a.646.646 0 0 0-.073-.1c0-.06-.016-.1-.049-.12a.296.296 0 0 1-.097-.07 1.032 1.032 0 0 0-.293-.15c-.098-.03-.212-.06-.342-.1h-.122c-.049 0-.09.02-.122.05-.033 0-.065.03-.098.08a.631.631 0 0 1-.098.12.924.924 0 0 1-.219.15 2.92 2.92 0 0 0-.22.09.33.33 0 0 0-.024.22c.016.08.024.16.024.22.065.17.089.32.073.47-.016.14-.024.3-.024.46 0 .23-.017.44-.049.64a3.44 3.44 0 0 0-.049.58v1.03c-.032.09-.049.21-.049.34 0 .13-.032.24-.097.34a.23.23 0 0 1-.025.1c-.016.03-.008.08.025.14zm6.64 8.65h.049c.26-.04.48-.09.659-.17.179-.09.301-.19.366-.32.066-.13.131-.25.196-.37.065-.11.114-.25.146-.41a.572.572 0 0 0 .049-.25v-.29c.033-.13.065-.27.098-.41.032-.15.049-.29.049-.42 0-.2-.009-.4-.025-.61a8.697 8.697 0 0 1-.024-.66c0-.23.016-.46.049-.71.032-.24.048-.49.048-.75 0-.2.009-.38.025-.54.016-.16.04-.34.073-.54a4.5 4.5 0 0 0 .073-.51 1.75 1.75 0 0 0-.024-.51v-.93c0-.1-.025-.17-.073-.22l-.122-.12a1.405 1.405 0 0 1-.171-.12l-.122-.13a1.843 1.843 0 0 0-.489-.14 2.398 2.398 0 0 0-.488-.05h-.586c-.098 0-.211-.01-.342-.03-.13-.01-.26-.01-.39.03a.762.762 0 0 0-.244.12.778.778 0 0 1-.245.12.684.684 0 0 1-.097.08c-.033.01-.065.04-.098.07-.032.03-.041.07-.024.12.016.05.024.11.024.17.033.07.041.15.024.24-.016.1-.024.18-.024.25-.032.13-.057.25-.073.37a2.13 2.13 0 0 0-.025.31c.033.26.041.53.025.81s-.025.54-.025.8v.79c0 .26-.032.52-.097.78a1.758 1.758 0 0 1-.098.58.483.483 0 0 0-.073.12c-.016.05-.041.11-.073.17v.44c0 .17.032.34.097.52s.147.35.244.51c.066.13.139.27.22.42.082.14.155.28.22.41l.195.2c.065.06.13.11.195.14.098.07.18.13.245.2l.195.19c.065.03.122.07.171.1.049.03.106.07.171.1.032 0 .057.01.073.02.016.02.041.03.073.03zm8.155 10.98.585.49c.066 0 .131.03.196.1.065.06.114.13.146.19a.45.45 0 0 1 .147.13c.032.04.065.1.097.17 0 .03.009.07.025.12.016.05.024.09.024.12.033.2.082.39.147.59.065.19.114.39.146.58.033.1.049.21.049.35 0 .13-.016.24-.049.34 0 .16-.024.31-.073.46-.049.15-.073.29-.073.42-.033.22-.082.43-.147.63-.065.2-.097.39-.097.59-.066.36-.098.72-.098 1.1 0 .37.016.74.049 1.09 0 .2.024.38.073.54.049.16.122.33.22.49.065.16.146.28.244.36.098.09.211.16.342.23.26.06.529.13.805.19.277.07.546.1.806.1.098 0 .187-.01.269-.03.081-.01.17-.04.268-.07a.431.431 0 0 1 .147-.05c.032 0 .065-.01.097-.05.065 0 .147-.01.244-.05.098-.03.147-.08.147-.14v-.15l.024-.05a.18.18 0 0 0 .025-.09c.032-.1.04-.21.024-.32a2.37 2.37 0 0 1-.024-.32v-4.49a7.422 7.422 0 0 0 .097-1.17v-.66c0-.21-.016-.44-.048-.66-.066-.62-.09-1.24-.074-1.86a13.96 13.96 0 0 0-.073-1.85c0-.23-.008-.45-.024-.66a8.194 8.194 0 0 1-.025-.66c0-.29.008-.58.025-.86.016-.27.04-.54.073-.8v-.88c0-.29.016-.59.049-.88.032-.29.057-.57.073-.83.016-.26.041-.54.073-.83a.407.407 0 0 0 .049-.19v-.4a4.127 4.127 0 0 1-.171-.39 4.127 4.127 0 0 0-.171-.39c-.065-.13-.13-.25-.195-.36a1.989 1.989 0 0 1-.147-.32c-.162-.26-.333-.5-.512-.73a7.72 7.72 0 0 0-.611-.69c-.162-.13-.35-.24-.561-.34-.212-.1-.431-.15-.659-.15-.163 0-.326.01-.489.03-.162.02-.325.04-.488.07-.13 0-.26.04-.391.1-.13.07-.244.15-.341.24l-.293.2a2.56 2.56 0 0 0-.244.19c-.033.04-.049.07-.049.1v.1c-.033.1-.049.2-.049.32v.36c0 .2.008.39.024.59.017.2.057.39.122.59 0 .13.017.27.049.44l.098.48.195 1.17v3.89c0 .37-.016.75-.049 1.15-.065.48-.089.98-.073 1.48.016.51.025 1 .025 1.49zm-35.938 0c.033-.13.081-.25.147-.36.065-.12.13-.22.195-.32.032-.07.065-.12.097-.17a.672.672 0 0 1 .098-.12c.033 0 .073-.03.122-.08l.122-.12a.437.437 0 0 0 0-.29.981.981 0 0 1-.049-.3 2.746 2.746 0 0 1-.146-.48c-.033-.17-.065-.34-.098-.54v-.78a3.34 3.34 0 0 1-.097-.78c0-.33.008-.65.024-.98.016-.32.008-.63-.024-.93 0-.19.008-.37.024-.53.016-.17.041-.33.073-.49.033-.16.057-.32.074-.47.016-.14.024-.28.024-.41.033-.13.049-.26.049-.39s.016-.26.049-.39c0-.04.008-.08.024-.15a.612.612 0 0 0 .024-.14.418.418 0 0 1-.097-.25l-.098-.19a2.386 2.386 0 0 1-.098-.25c-.065-.1-.122-.21-.17-.34a.557.557 0 0 0-.22-.29.562.562 0 0 0-.22-.15c-.081-.03-.154-.07-.22-.1-.097-.06-.179-.1-.244-.12-.065-.02-.162-.02-.293-.02h-1.172c-.097 0-.195 0-.293.02-.097.02-.195.04-.293.07l-.195.12c-.065.05-.13.1-.195.13a.785.785 0 0 0-.171.1c-.049.03-.073.09-.073.19 0 .29-.017.57-.049.83-.033.26-.049.52-.049.78v1.42c0 .26-.008.51-.024.76-.017.24-.025.49-.025.75v3.86c0 .32-.016.67-.049 1.02-.032.27-.057.53-.073.79-.016.26-.008.53.025.83 0 .19.016.39.048.58.033.2.049.39.049.59v.88c0 .16.008.33.025.51.016.18.024.35.024.51 0 .23.008.47.024.71.017.24.009.48-.024.71-.032.23-.073.44-.122.63-.049.2-.073.39-.073.59v.49c.032.06.073.11.122.14.049.04.122.07.22.1.065.03.146.07.244.1l.293.1c.097.03.203.06.317.09.114.04.236.05.366.05.098 0 .187.01.269.03.081.01.171.02.268.02.098 0 .179.01.244.03.066.01.147.02.245.02.032-.1.065-.19.097-.27a.702.702 0 0 0 .049-.27c.033-.19.041-.38.025-.56a8.028 8.028 0 0 0-.074-.56.54.54 0 0 1-.049-.24c0-.1-.016-.2-.048-.3a.42.42 0 0 0-.049-.19l-.098-.2a1.582 1.582 0 0 1-.171-.58c-.016-.2-.04-.41-.073-.64v-.56c0-.18.033-.37.098-.56l.097-.49c.033-.16.082-.34.147-.54.032-.16.089-.31.171-.46.081-.15.171-.3.268-.46 0-.04.017-.08.049-.13.033-.04.065-.1.098-.17l.488-.44zm4.102-3.22-1.075.25c0 .09-.008.18-.024.26a.378.378 0 0 1-.122.22c-.065.07-.13.14-.195.22a.824.824 0 0 0-.147.27c-.032.07-.057.12-.073.17a.277.277 0 0 1-.073.12l-.293.39c-.098.14-.196.28-.293.44-.131.2-.277.39-.44.59-.163.2-.325.38-.488.54-.195.22-.383.45-.562.68-.179.23-.333.47-.463.73v.15c.097.03.211.04.341.02.131-.01.244-.02.342-.02h.586c.195 0 .407-.02.635-.05.26-.03.529-.06.806-.1l.854-.09c.195-.04.382-.06.562-.08.179-.01.366-.02.561-.02.488-.07.968-.08 1.44-.05s.953.03 1.441 0c.358-.03.724-.05 1.099-.05.374 0 .756.02 1.147.05.326 0 .651.01.977.02.325.02.651.04.976.08.195 0 .374.01.537.05l.489.09c.195.04.398.06.61.08.211.01.431.04.659.07.326.07.659.12 1.001.17.342.05.692.11 1.05.17.456.03.911.09 1.367.17.456.08.911.14 1.367.17.391.04.757.04 1.099 0 .342-.03.708-.06 1.098-.09.326-.04.66-.07 1.001-.1.342-.03.676-.05 1.001-.05h1.368c.455 0 .911-.03 1.367-.1.553-.06 1.107-.1 1.66-.1h3.979c.765 0 1.539.02 2.32.05.488 0 .984-.01 1.489-.02.505-.02 1.001-.06 1.489-.12.033 0 .098-.01.196-.03.097-.01.162-.05.195-.12 0-.03-.016-.06-.049-.07-.032-.02-.049-.04-.049-.08v-.09c-.032 0-.057-.01-.073-.03l-.024-.02-.293-.2c-.098-.06-.179-.11-.245-.14a.282.282 0 0 0-.146-.05h-.146a.168.168 0 0 1-.147-.08c-.033-.05-.065-.1-.098-.17-.032-.06-.04-.11-.024-.14.016-.04.057-.04.122 0 0-.04-.008-.09-.024-.17a.913.913 0 0 0-.074-.23c0-.06-.016-.12-.048-.19a1.03 1.03 0 0 0-.147-.2 2.96 2.96 0 0 0-.195-.17c-.065-.04-.147-.1-.244-.17l-.22-.22a2.178 2.178 0 0 0-.269-.22c-.097-.1-.187-.2-.268-.31a2.324 2.324 0 0 0-.269-.32c-.097-.16-.187-.32-.268-.47a2.007 2.007 0 0 0-.318-.41c-.097-.1-.211-.2-.342-.29-.13-.1-.211-.2-.244-.3-.032-.03-.048-.05-.048-.07 0-.02-.017-.04-.049-.07-.033 0-.09.01-.171.02a.864.864 0 0 1-.171.03c-.065 0-.122 0-.171.02a.45.45 0 0 1-.171.03h-8.105c-.358.03-.717.05-1.075.07-.358.01-.732.02-1.123.02h-3.125l-1.611-.09c-.521-.04-1.042-.05-1.562-.05h-2.393c-.326 0-.659-.03-1.001-.08a6.89 6.89 0 0 0-1.001-.07c-.488-.03-.985-.05-1.489-.05h-5.493zm17.285-15.28h.049c-.066-.1-.122-.19-.171-.27-.049-.08-.106-.17-.171-.27-.033-.06-.065-.14-.098-.22-.032-.08-.065-.15-.098-.22a.348.348 0 0 1-.048-.12c0-.02-.033-.03-.098-.03a.28.28 0 0 0-.22 0 .478.478 0 0 1-.219.05c-.261.04-.529.04-.806.03a4.31 4.31 0 0 0-.806.02c-.358 0-.708-.01-1.05-.02-.341-.02-.691-.03-1.049-.03-.131 0-.261.01-.391.03-.13.01-.26.01-.391-.03-.26 0-.504-.01-.732-.05a5.246 5.246 0 0 0-.684-.05 6.82 6.82 0 0 0-.537-.07 4.076 4.076 0 0 1-.537-.07.667.667 0 0 1-.22-.05.656.656 0 0 0-.219-.05c-.065.03-.09.06-.074.08.017.01.009.05-.024.12 0 .06-.008.14-.024.22-.017.08-.041.17-.074.26 0 .14-.04.26-.122.37-.081.11-.138.24-.171.37.065.03.147.03.245 0a.995.995 0 0 1 .292-.05c.293 0 .595-.01.904-.03.309-.01.61-.02.903-.02h3.467c.228 0 .439.01.635.02.195.02.407.05.634.08.098 0 .204.01.318.02.114.02.22.04.317.07h.196c.13.04.26.05.39.03.13-.02.358-.06.684-.12z" style="fill-rule:nonzero" transform="matrix(5.82496 0 0 5.78595 -4300.8 -16195.3)"/></svg>