<svg viewBox="0 0 400 400" xmlns="http://www.w3.org/2000/svg" xml:space="preserve" style="fill-rule:evenodd;clip-rule:evenodd;stroke-linejoin:round;stroke-miterlimit:2"><path d="M592.314 974.502c-.132-.132-.124-.167.118-.046l.094.093-.212-.047zm-63.1 25.26-.093.093c0-.044.093-.093.093-.093zm42.395-32.777.093-.093c.187.062.218.093.093.093h-.186zm13.26 78.435c-.824.83-1.025.38-1.868 1.22l-1.587.84-.094.09c-.439 0-.812.28-1.307.28l.373-.18c-1.496.18-1.693.19-3.361.74l.093-.18c-.806.27-1.921.97-2.521.37l-.561.19h-.56c-1.68 0-1.487.14-3.081.46l-.841.1-.934.18h-.747l-.747.1-.28-.28c-1.14.16-.932.51-2.054.65l.28-.19c-1.12.38-2.814-.24-3.922-.46l.093-.19c-.465 0-.936-.19-1.4-.19h-.28c-.804-.53-2.27-1.21-3.269-1.21l-.653-.28c-.703-.35-1.586-.75-2.148-1.31l-.28.19-.747-.37c-.11-.11-.264-.17-.374-.29l-.187-.18h-.14c-.099 0-.233-.19-.233-.19h.187c.14-.14-2.034-.3-1.681-.19l-1.121-.37c-.421-.14-.878-.26-1.307-.37l-1.121-.75c-.699-.7-1.62-1.15-2.334-1.87 0 0-.201-.1-.28-.18l-.281-.28c-2.863-2.87-6.137-5.43-8.871-8.41l.374.19-.654-.66c0-.19-.373-.46-.373-.46-.014-.03 0-.1 0-.1-.128-.51-.384-.52-.654-.93l.187.09c-1.321-1.32-2.895-4.7-2.895-5.69 0 0-.093-.12-.093-.19l-1.121-3.36.28.47c-.488-.98-.227-1.99-.56-2.99v.93c0-.78-.28-1.55-.28-2.33 0-.18.28.65.28.47v-1.73c0-.28-.747-1.12-.747-.98-.959-1.92-.931-4.01-1.588-5.98v-.65c0-.13-.093-.25-.093-.38v-.56c0-1.88 1.401-9.094 1.401-3.73.381-1.53.154-1.43.467-2.99l.28-.19c0-.22.082-.44.169-.66l.035-.08c.087-.22.169-.432.169-.658v-.094l-.093.094c.111-1.328-.049-1.596.187-2.895v.093a.83.83 0 0 0 .093-.373v-.654l.093-.187v-.28c.136 0 .094-.102.094-.186l.093-.094-.093.374-.094.56c.49 0 1.588-4.145 1.588-5.043l.093.094c.318-.509 1.096-1.936 1.588-2.428l-.094.187c.199-.199.188-.328.467-.467l.187-.28c0-.099.093-.28.093-.28l.654-.654c.25-.624.467-1.961.467-1.961.694-2.081 2.709-3.176 4.202-4.669l.28-.56.747-.747c-.272.181 1.308-2.473 1.308-2.522l.56-.56c-.482.602 1.105-1.075 1.681-1.587l.28-.094.28-.28.187-.093c.492-.985 2.528-.755 3.268-1.494l-.56.186c1.287-.429 2.126-1.524 3.361-2.054l.187.28c.412 0 .944-.565 1.308-.747l.186-.093c.19-.19-.07-.281.187-.281l.28-.186-.747.28-.934.654c.4-.32.132-.748.654-.748 0 0 .117-.093.187-.093h.187c0-.062.015-.093.046-.093h.234c.455 0 1.269-.178 1.681-.28l1.12-.374c.358 0 .673-.187 1.027-.187h.841c.098-.098.373-.047.373-.186h-.467c1.097 0 3.269-.374 3.269-.374.069 0 .186-.093.186-.093h.561s.022.071 0 .093l-.187.093-.093.094h-.187c.044 0 .093.093.093.093s.117-.093.187-.093c0 0 1.147-1.067 1.868-1.308l-.374.094c.242-.243.451-.319.747-.467l-.467.28c.585-.292 1.599-.84 2.241-.84l.187.093h.374c-.044 0-.966.041-.094.187.489 0 .361.089.934.28 1.36 0 1.921-.394 2.708 0h1.868c-1.112 0 1.085.061 1.214.093h-.561c-.224 0 .338.342.561.374.477-.06.226-.28.793-.28h1.681c.845 0 1.798.583 2.568.84 1.774-.443 1.701-.392 4.389.28l-.28.187c.542 0 .931.467 1.401.467l-.561-.374c.963.241 2.117 1.09 2.988 1.588-1.584-.792.22.467.747.467l.187.187c-1.104 0 1.673 1.441 2.522 2.147l.28.28.28.187c.29.145.628.272.934.374l.933.28c.501.2 1.427.42 1.843.513.372.374 1.862 1.521 2.36 2.101.64.748 1.09 1.641 1.68 2.428l-.467-.28c.086.085.238.204.346.285-.039-.012-.08-.005-.159-.005l.56.467c.033 0 .841.187 1.588.934l.28.187.28.28.187.28-.187-.093c.226.338.306.399.561.653l.373.561c-.782-.782 1.204 1.854 1.774 2.801.759 1.26 1.87 3.83 3.362 4.576.34.68 1.401 2.404 1.401 4.669l.28.093-.28.654.093.747c.537.269.4.289.654.747l-.094-.093c0 .296 1.633 2.846.747 1.96l.374.561h-.093c.102.308.28.934.28.934l.373 1.121-.093-.09.747 2.89-.841 4.2v.19h.094l.187.56c.29 0 .376-.18.747.75.109.55-.122 1.13 0 1.68l.28.84.187.28-.094.37v.19h-.093c-.071.14-.094.46-.094.46-.475-.47-.335 1.31-.467 1.97l.094-.19c-.162 2.27-.736 1.99-1.121 4.11v1.03l-.186.18v.38c0 1-.607 1.77-.841 2.7l-.28.75-.187.75c-.867 1.24-1.558 2.44-2.334 3.73l-1.214 1.22c-.298.29-.622.56-.932.85.001 0 .004-.01.001-.01h-.003c-.047.04-.053.04-.096.09l-.091.09c-1.192.8-1.802 2.33-2.241 3.65l-.28.46-.28.56c-.366.37-1.061.8-1.58.99.028-.02.057-.03.086-.05l-.187.09c.033-.01.066-.02.101-.04-3.545 2.38-5.523 4.26-8.225 7.42a.953.953 0 0 1-.234.14l-.233.04c.071 0 .154-.01.233-.04l.234-.05.653-.75.094-.09c.069-.14.28-.37.28-.37.188-.19-.161.51-.28.74l-.467.47a.276.276 0 0 0-.093.19h-.374c-.325.16-1.052.37-1.401.37l.094-.09h-.094c-.21.07-2.334.56-2.334.93h-.187v-.09l-.093-.1s-.214.07-.28 0h.093l.093-.09 1.401-.46c-.483 0-1.401.37-1.401.37l-.186.18zm17.277-14.55c-.002.01-.004.02-.007.02a.125.125 0 0 1-.033.06.43.43 0 0 1-.145.09c.061-.06.123-.11.185-.17zm-.185.17c-.033.03-.065.07-.097.1l.093-.1h.004zm-5.728-52.004c.034.01.066.034.121.089l-.121-.089zm-3.224 53.134a39.718 39.718 0 0 0-5.025-.31c-1.701 0-3.403.05-5.104.16-1.968-.11-3.949-.22-5.943-.32a54.987 54.987 0 0 0-6.022 0c-1.489.05-3.004.17-4.546.35-1.542.19-3.058.39-4.546.6 1.01.11 2.02.19 3.031.24l3.03.16h9.412c1.808 0 3.603-.01 5.384-.04 1.781-.02 3.576-.09 5.384-.2h.319a.63.63 0 0 0 .319-.08c.425 0 .851-.02 1.276-.08.426-.05.878-.08 1.356-.08.266-.05.559-.09.878-.12.319-.02.638-.06.957-.12 0-.05-.014-.09-.04-.12a.199.199 0 0 0-.12-.04zm-26.161 3.27a4.96 4.96 0 0 1-.838-.07 4.13 4.13 0 0 0-.837-.08h-2.712c-1.808.05-3.59.13-5.344.23-1.755.11-3.51.3-5.265.56l-.119.08c-.08.05-.067.08.04.08 1.595 0 3.217-.01 4.865-.04 1.649-.03 3.297-.04 4.945-.04 1.702-.05 3.403-.06 5.105-.04 1.702.03 3.377.02 5.025-.04.053 0 .12-.02.199-.08.08-.05.147-.13.2-.24-.851.06-1.715.04-2.592-.04-.878-.08-1.769-.17-2.672-.28zm-.958-5.66c1.489-.05 2.952-.17 4.387-.36 1.436-.18 2.872-.33 4.307-.44.319-.05.652-.09.997-.12.346-.02.705-.04 1.077-.04v-.12c0-.02.027-.06.08-.11-2.233-.27-4.48-.42-6.74-.44-2.26-.03-4.533-.02-6.819.04l-.08.04a.47.47 0 0 1-.16.04c-.266 0-.545-.02-.837-.04a8.18 8.18 0 0 0-.838-.04c-1.17.05-2.353.09-3.549.12-1.197.02-2.38.06-3.549.11h-.24c-.425.06-.851.13-1.276.2-.425.08-.851.15-1.276.2l-.16.16c2.446.11 4.879.31 7.299.6 2.419.29 4.878.36 7.377.2zm17.388-13.32c.213-.05.426-.09.638-.12.213-.02.426-.07.638-.12l-2.233-.16c-.744-.05-1.489-.08-2.233-.08-.638.06-1.303.14-1.994.24-.691.11-1.383.19-2.074.24a.32.32 0 0 1 .16.04c.053.03.106.04.159.04 1.117-.05 2.26-.08 3.43-.08h3.509zm-39.322-21.933-.12.12c-.026.026-.039.066-.039.119 0-.053.026-.093.079-.119.054-.027.08-.067.08-.12zm0 0c.426-.425.824-.891 1.197-1.396a5.093 5.093 0 0 1 1.276-1.236c0-.053.013-.08.04-.08h.039a.623.623 0 0 1 .24-.08c.053 0 .133.027.239.08-.266.319-.518.638-.758.957-.239.319-.465.665-.678 1.037a21.304 21.304 0 0 0-1.037 1.635c-.319.558-.584 1.13-.797 1.715l-.08.08a10.67 10.67 0 0 0-.837 2.273 22.587 22.587 0 0 1-.678 2.268c-.054.17-.107.31-.16.44-.053.14-.106.26-.159.36-.16.91-.253 1.77-.28 2.6-.026.82-.013 1.66.04 2.51.053.1.08.22.08.36 0 .13.027.28.08.44l.319 1.27c.053-.21.093-.41.119-.6.027-.18.04-.36.04-.52.107-.63.253-1.25.439-1.83.186-.58.386-1.17.598-1.75v.87c-.106.59-.186 1.17-.239 1.76-.053.58 0 1.17.16 1.75-.054 0-.08.03-.08.08v.08a135.682 135.682 0 0 1-.319 2.4c.159.42.305.85.438 1.27.133.43.253.88.359 1.36.053.1.04.22-.04.36a.396.396 0 0 1-.358.2 2.61 2.61 0 0 1-.599.07h-.598c-.053.16-.186.24-.399.24-.212 0-.372-.08-.478-.24-.053-.15-.107-.3-.16-.43a1.05 1.05 0 0 1-.08-.36c0-.06-.013-.08-.039-.08h-.04a5.544 5.544 0 0 1-.599-1.28 7.318 7.318 0 0 1-.279-1.27l-.159-.16c-.053-.06-.08-.11-.08-.16-.16-.75-.239-1.49-.239-2.24 0-.74.026-1.46.079-2.15a.648.648 0 0 1-.079-.24v-.24a.267.267 0 0 1-.08-.2v-.28l-.638 2.23c-.106.91-.2 1.83-.279 2.76-.08.93-.173 1.84-.279 2.75 0 .05.013.08.039.08h.04c-.053 0-.079.01-.079.04s-.027.04-.08.04c.053.26.106.52.159.76.053.24.08.46.08.67 0 .32-.04.6-.12.84-.079.24-.172.47-.279.68.053 0 .093.01.12.04.027.03.066.04.12.04l-.2.4c-.08.16-.066.26.04.32-.053.1-.093.24-.12.4-.026.16.067.24.28.24h2.871c-.16.05-.306.09-.439.12-.133.02-.279.06-.438.12-.054 0-.12.05-.2.15-.08.11-.093.16-.04.16h.399v.16c1.702.11 3.39.11 5.065 0 1.675-.1 3.363-.18 5.065-.24h1.356c.053-.05.093-.08.119-.08h.2v-.08h-.399a.32.32 0 0 1-.16-.04.448.448 0 0 0-.159-.03h-.558c-.16-.06-.306-.1-.439-.12a1.683 1.683 0 0 0-.359-.05c.213 0 .412-.01.598-.03.186-.03.386-.04.598-.04h3.59c.212.05.412.07.598.07s.359.03.518.09v.08c-.159 0-.332.01-.518.03-.186.03-.359.07-.519.12-.212 0-.398.02-.558.04-.159.03-.319.04-.479.04h-.558c-.053.06-.106.08-.159.08h-.16c-.053 0-.133.02-.239.04-.107.03-.213.04-.319.04h-.319c-.213.06-.399.1-.559.12a3.08 3.08 0 0 1-.558.04c-.532.06-1.05.1-1.555.12-.505.03-1.024.04-1.556.04-.691.06-1.382.09-2.073.12-.692.03-1.383.09-2.074.2-.372 0-.745.02-1.117.04-.372.03-.744.04-1.116.04a.314.314 0 0 0-.16.04.314.314 0 0 1-.16.04c0 .05-.013.09-.039.12l-.12.12c-.479.21-.957.35-1.436.4-.478.05-.983.08-1.515.08a18.1 18.1 0 0 1-1.316.12c-.505.02-.918.15-1.237.36-.265.16-.425.32-.478.48-.053.16.026.31.239.47.16.06.332.11.519.16.186.06.332.11.438.16.107.06.173.12.2.2a.7.7 0 0 1 .04.2c.372.11.757.2 1.156.28.399.08.784.15 1.157.2.159 0 .305.01.438.04s.279.04.439.04l.08.08c.425.11.837.19 1.236.24.399.05.784.11 1.157.16.159 0 .319-.01.478-.04.16-.03.319-.04.479-.04.266 0 .518-.01.757-.04.24-.03.492-.04.758-.04 2.34.11 4.666.21 6.979.32 2.313.11 4.64.24 6.979.4-.638.05-1.276.12-1.914.2-.638.08-1.249.14-1.834.2l-11.167.63c-.053 0-.146.04-.279.12a2.14 2.14 0 0 0-.359.28c-.053 0-.12.02-.199.04a.571.571 0 0 1-.2.04c-.053 0-.106.03-.159.08-.054.06-.054.08 0 .08 2.073.48 4.227.79 6.46.92 2.234.13 4.414.12 6.541-.04.531 0 1.063.03 1.595.08l1.595.16a17.45 17.45 0 0 1 1.635-.08c.559 0 1.104-.03 1.635-.08.532.05 1.09.05 1.675 0l1.755-.16c1.489 0 2.978.01 4.467.04 1.489.03 2.977.07 4.466.12 2.18.11 4.387.2 6.62.28 2.234.08 4.441-.07 6.621-.44.106 0 .252-.09.438-.28.186-.18.173-.28-.04-.28a42.057 42.057 0 0 1-3.35-.28 53.983 53.983 0 0 0-3.349-.28l-1.436-.16a13.82 13.82 0 0 0-1.436-.08c-.053 0-.093-.01-.12-.04a.193.193 0 0 0-.119-.04c.053 0 .106-.01.159-.03a.805.805 0 0 0 .16-.12c2.021-.27 4.041-.43 6.062-.48 2.02-.06 4.041-.08 6.062-.08.372 0 .744-.03 1.116-.08l1.117-.16c.106-.06.173-.12.199-.2.027-.08-.013-.15-.119-.2a8.18 8.18 0 0 1-.838-.04 9.018 9.018 0 0 0-.917-.04h-.08a.688.688 0 0 0-.279-.08h-.199c-.266 0-.532-.01-.798-.04a7.108 7.108 0 0 0-.798-.04l-.04-.04c-.026-.03-.066-.04-.119-.04h-.838c-.292 0-.598-.03-.917-.08h-1.117a4.177 4.177 0 0 0-.478-.12c-.16-.03-.319-.07-.479-.12-.691 0-1.382-.01-2.073-.04-.692-.03-1.383-.07-2.074-.12h-.08c-.425 0-.838.01-1.236.04-.399.03-.811.04-1.237.04-.265.05-.518.09-.757.12-.24.03-.492.04-.758.04-.106.05-.199.07-.279.04a.599.599 0 0 1-.2-.12h-1.276c-.797.05-1.622.09-2.472.12-.851.03-1.702.07-2.553.12-.744.05-1.489.09-2.233.12-.745.03-1.489.07-2.233.12.053-.05.119-.11.199-.16.08-.05.173-.11.279-.16.16 0 .306-.01.439-.04s.279-.07.439-.12c.584-.05 1.156-.12 1.714-.2.559-.08 1.104-.17 1.636-.28.053 0 .132-.04.239-.12.106-.08.159-.14.159-.2l.12-.12c.027-.02.013-.06-.04-.12-.372-.21-.824-.34-1.356-.39-.532-.06-1.01-.11-1.436-.16a3.588 3.588 0 0 0-.797-.08h-.798l-.04-.04c-.026-.03-.066-.04-.119-.04h-1.197c-1.116-.06-2.273-.12-3.469-.2-1.197-.08-2.406-.15-3.629-.2-.692-.06-1.463-.12-2.314-.2-.85-.08-1.435-.17-1.754-.28a.574.574 0 0 1 .239-.12.574.574 0 0 0 .239-.12c1.17-.16 2.34-.31 3.51-.44a51.81 51.81 0 0 1 3.509-.28l.16.08c.532 0 1.037-.03 1.515-.08.479-.05.984-.08 1.516-.08 0-.05.026-.06.079-.04l.08.04c.266-.05.532-.09.798-.12.266-.02.532-.04.797-.04.373-.05.732-.1 1.077-.16.346-.05.678-.1.997-.16.16 0 .319-.01.479-.04.159-.02.292-.04.399-.04.053 0 .106-.01.159-.04.053-.02.08-.06.08-.12h.08v-.12c0-.02-.027-.04-.08-.04-.638-.05-1.29-.09-1.954-.12-.665-.02-1.316-.01-1.954.04v-.04c0-.02-.027-.03-.08-.03.851-.06 1.701-.1 2.552-.12.851-.03 1.702-.02 2.553.04.319.05.638.08.957.08h.957c.319.1.638.14.957.11.319-.02.665-.06 1.037-.11a4.3 4.3 0 0 0 .797-.08c.266-.06.532-.09.798-.09h1.436c.478 0 .957.03 1.435.09-.744 0-1.502.03-2.273.11-.771.08-1.555.15-2.353.2v.08l-.079.08h-.479c-.16 0-.319.03-.479.08-.106 0-.226.02-.358.04-.133.03-.28.07-.439.12-.053 0-.107.03-.16.08-.053.06-.106.08-.159.08-.213.11-.412.19-.598.24-.187.05-.386.08-.599.08-.266.05-.505.09-.717.12a4.57 4.57 0 0 1-.639.04c-.957.11-1.887.16-2.791.16-.904 0-1.808.08-2.712.24-.053.05-.093.07-.12.04-.026-.03-.066-.04-.119-.04-.107 0-.24.01-.399.04-.16.03-.319.04-.479.04l-.159.16c-.107.11-.133.16-.08.16.213.05.332.08.359.08h.279v.08h.479c.265 0 .545.01.837.04.293.02.572.04.838.04 3.934.42 7.883.72 11.844.87 3.962.16 7.91.22 11.845.16.372-.05.731-.09 1.076-.11.346-.03.705-.07 1.077-.12.638 0 1.29-.05 1.954-.12.665-.08 1.316-.2 1.954-.36l.359-.36c.187-.19.226-.28.12-.28-.053 0-.093-.01-.12-.04-.026-.03-.066-.04-.119-.04v-.04c0-.03-.027-.04-.08-.04-1.17-.11-2.393-.21-3.669-.32a30.59 30.59 0 0 0-3.829-.08h-.717c.531-.05 1.05-.13 1.555-.24a7.288 7.288 0 0 1 1.555-.16h.798c.638 0 1.289.02 1.954.04.665.03 1.316-.01 1.954-.12 1.011.06 2.021.03 3.031-.08a9.88 9.88 0 0 0 2.712-.64c.106-.05.332-.25.678-.59.346-.35.332-.55-.04-.6-.213 0-.412-.02-.598-.04a3.783 3.783 0 0 0-.598-.04 31.039 31.039 0 0 0-3.31-.48 24.09 24.09 0 0 0-3.39-.08c-.213 0-.426-.01-.638-.04a4.564 4.564 0 0 0-.638-.04c0-.05.013-.09.039-.12l.12-.12c.213.05.452.08.718.08h.798c.053 0 .119-.01.199-.04.08-.03.173-.07.279-.12.213 0 .412-.03.598-.08s.386-.11.599-.16c.212-.05.651-.36 1.316-.92.664-.55 1.13-1.07 1.395-1.55 0-.11-.013-.21-.039-.32a5.465 5.465 0 0 0-.12-.4.267.267 0 0 1-.08-.2.28.28 0 0 0-.08-.2c-.159-.58-.345-1.17-.558-1.75-.213-.59-.399-1.17-.558-1.76l-.12-.12c-.027-.02-.04-.06-.04-.12a3.612 3.612 0 0 0-.199-.48 5.77 5.77 0 0 0-.279-.47c-.054-.06-.107-.08-.16-.08-.053 0-.106-.03-.159-.08h-.08c0 .16-.013.32-.04.48-.027.15-.04.31-.04.47-.106.43-.173.84-.199 1.24-.027.4-.12.78-.28 1.16v.24c0 .05-.026.13-.079.24h-.08a9.45 9.45 0 0 0-1.595-.04c-.532.02-1.064.06-1.595.12a.5.5 0 0 1-.399-.2.444.444 0 0 1-.08-.44c0-.06.013-.11.04-.16a.4.4 0 0 0 .04-.16c.159-.27.292-.52.399-.76.106-.24.186-.52.239-.84.053-.26.08-.54.08-.84 0-.29-.027-.59-.08-.91v-.24c.159.53.292 1.06.399 1.59.106.54.159 1.07.159 1.6 0 .05.067.04.2-.04.132-.08.199-.15.199-.2.053-.85.066-1.74.04-2.67-.027-.93-.306-1.74-.838-2.43-.106-.27-.212-.55-.319-.84-.106-.29-.212-.6-.319-.92a3.135 3.135 0 0 1-.279-.52c-.08-.18-.173-.38-.279-.6-.053-.26-.12-.51-.199-.75-.08-.24-.147-.5-.2-.76 0-.16-.013-.31-.04-.44-.026-.13-.04-.28-.04-.439a3.081 3.081 0 0 0-.279-.878 10.747 10.747 0 0 1-.359-.797 17.713 17.713 0 0 1-.279-.918 9.143 9.143 0 0 1-.199-.917 2.518 2.518 0 0 1-.319-.399 2.02 2.02 0 0 1-.24-.478 18.287 18.287 0 0 1-.319-1.117 28.126 28.126 0 0 1-.518-1.316 5.548 5.548 0 0 0-.678-1.316l-.16-.159a1.256 1.256 0 0 1-.239-.32 1.27 1.27 0 0 0-.239-.319 16.31 16.31 0 0 0-.559-.757 3.696 3.696 0 0 0-.877-.838 9.004 9.004 0 0 1 2.034 1.635 9.628 9.628 0 0 1 1.476 2.194c0 .053.013.093.039.119l.04.04.16.319c.053.107.08.186.08.24.319.584.651 1.143.997 1.675.345.531.651 1.09.917 1.675.053.053.106.119.159.199.054.08.107.173.16.279.159.319.319.651.479.997.159.346.319.678.478.997.213.589.479 1.169.798 1.759.319.58.664 1.14 1.037 1.67h.079c0 .05.014.09.04.12l.04.04c.053 0 .106.03.16.08.053.05.079.13.079.24.054.11.093.21.12.32.027.1.067.21.12.32.159.37.345.73.558 1.07.213.35.452.68.718 1a19.456 19.456 0 0 1-.638-3.59l.08-.16a7.01 7.01 0 0 0-.359-.88 6.172 6.172 0 0 1-.359-.87v-.08c-.213-.27-.426-.55-.638-.839a22.61 22.61 0 0 0-.639-.838v-.08l-.079-.079a18.128 18.128 0 0 0-.359-.678 2.832 2.832 0 0 1-.279-.678c-.16-.373-.306-.758-.439-1.157a34.247 34.247 0 0 0-.439-1.236c.107.212.213.438.319.678.107.239.213.465.319.678.16.212.333.425.519.638.186.212.385.425.598.638.213.266.412.545.598.837.186.293.386.599.598.918.054 0 .107-.027.16-.08.053-.053.08-.107.08-.16l-.16-.478a2.02 2.02 0 0 0-.239-.479l-.16-.478a2.02 2.02 0 0 0-.239-.479c.053 0 .093.013.12.04.026.027.04.066.04.12.053 0 .106.013.159.039a.643.643 0 0 1 .16.12c-.373-.638-.731-1.249-1.077-1.834a12.712 12.712 0 0 1-.917-1.915 62.043 62.043 0 0 1-.599-1.555 7.067 7.067 0 0 0-.757-1.476 7.775 7.775 0 0 0-.519-.757 7.608 7.608 0 0 1-.518-.758 1.595 1.595 0 0 1-.12-.319 1.532 1.532 0 0 0-.119-.319l-.04-.04c-.027-.027-.04-.066-.04-.12a8.767 8.767 0 0 1-.439-.638 7.72 7.72 0 0 1-.359-.638.49.49 0 0 1-.119-.199.515.515 0 0 0-.12-.2 6.391 6.391 0 0 0-.319-.438 5.883 5.883 0 0 1-.319-.439 6.437 6.437 0 0 0-1.276-1.117l-1.436-.957v-.159a2.848 2.848 0 0 0-.917-.957l-1.077-.718-.319-.16a3.115 3.115 0 0 0-.399-.159 4.36 4.36 0 0 0-.837-.24 5.15 5.15 0 0 0-.918-.079c.053 0 .093.013.12.039l.12.12a12.693 12.693 0 0 0-2.513-.399 30.312 30.312 0 0 1-2.433-.239c-.106-.053-.199-.027-.279.08-.08.106-.093.186-.04.239l1.277.479c.425.159.824.319 1.196.478.266.16.505.346.718.559.212.212.425.398.638.558.319.266.598.532.837.797.24.266.466.585.678.958v.398a6.159 6.159 0 0 0-1.236-.957 10.875 10.875 0 0 0-1.476-.718 9.46 9.46 0 0 0-1.036-.438 5.613 5.613 0 0 0-1.197-.279v.119c0 .027-.026.067-.08.12a1.63 1.63 0 0 0-.518-.08h-.519a6.316 6.316 0 0 0-.957-.239l-.957-.16h-.478a.644.644 0 0 1-.2-.04c-.079-.026-.119-.066-.119-.119a26.069 26.069 0 0 0-3.789-.2 36.83 36.83 0 0 0-3.789.28 16.12 16.12 0 0 0-1.116.199c-.373.08-.745.146-1.117.199h-.08a69.342 69.342 0 0 0-5.224 1.197 17.294 17.294 0 0 0-4.905 2.153l.039-.079a.625.625 0 0 1 .12-.16c1.064-.904 2.34-1.662 3.829-2.273a26.885 26.885 0 0 1 4.387-1.396l.119-.12a.951.951 0 0 1 .2-.119c1.595-.532 3.35-.944 5.264-1.237 1.914-.292 3.722-.279 5.424.04.053 0 .079-.013.079-.04 0-.026.027-.039.08-.039-.053-.054-.053-.133 0-.24a1.27 1.27 0 0 1 .239-.319h-.279a.266.266 0 0 1-.199-.08c-.107 0-.186-.026-.24-.079-.053-.053-.079-.133-.079-.24-1.436 0-2.872-.053-4.307-.159a29.207 29.207 0 0 0-4.307 0 6.87 6.87 0 0 0-.519.199c-.186.08-.385.147-.598.2a4.074 4.074 0 0 1-.798.079h-.797c-.054 0-.093.014-.12.04-.027.027-.066.04-.12.04a.676.676 0 0 0-.199.04.644.644 0 0 1-.199.04h-.319c-1.223.16-2.407.479-3.55.957a8.66 8.66 0 0 0-2.991 2.074 39.6 39.6 0 0 0-3.39 2.074 25.017 25.017 0 0 0-3.071 2.472c-1.276 1.223-2.446 2.725-3.509 4.507-1.064 1.781-1.781 3.629-2.154 5.543l.04-.08a.64.64 0 0 1 .12-.159 1.33 1.33 0 0 0 .159-.199c.054-.08.107-.147.16-.2a10.015 10.015 0 0 1 1.795-2.911 50.858 50.858 0 0 0 2.193-2.672c0-.053.027-.08.08-.08h.159a9.91 9.91 0 0 1-.877 1.196 4.01 4.01 0 0 0-.718 1.197zm5.057-.001c-.146.24-.303.479-.471.719-.186.266-.359.531-.518.797l-.638 1.596a.644.644 0 0 1-.04.199.644.644 0 0 0-.04.199c0 .054.013.093.04.12l.12.12a3.39 3.39 0 0 1 .518-.957c.239-.32.412-.585.518-.798.373-.638.772-1.223 1.197-1.755a9.156 9.156 0 0 1 1.436-1.436.609.609 0 0 1 .239-.079c.053 0 .053.053 0 .159l-.239.479c.053 0 .093.013.119.04.027.026.014.093-.04.199a1.252 1.252 0 0 0-.239.319.929.929 0 0 1-.159.239c0 .054.013.093.039.12.027.027.067.04.12.04a16.68 16.68 0 0 0-.319 1.117c0 .053.013.119.04.199.027.08.066.146.12.199.053-.265.146-.531.279-.797.133-.266.279-.532.438-.798v-.04c0-.026.027-.04.08-.04l.16-.319a1.27 1.27 0 0 1 .239-.319v-.119c0-.027.027-.04.08-.04a6.926 6.926 0 0 1 1.156-1.675c.452-.479.918-.931 1.396-1.356 0-.053-.013-.08-.04-.08h-.119c-.107.053-.226.12-.359.2a5.796 5.796 0 0 1-.359.199.643.643 0 0 1-.16.12.61.61 0 0 0-.159.119c0 .053-.014.093-.04.12-.027.026-.067.04-.12.04a4.128 4.128 0 0 0-.797 1.116 2.44 2.44 0 0 1-.319.24c-.16.106-.24.106-.24 0 .053-.107.093-.2.12-.279a.904.904 0 0 0 .04-.28h-.04c-.027 0-.04-.053-.04-.159a.643.643 0 0 0 .12-.16l.119-.239v-.319h-.079l.159-.16c.053-.053.106-.119.16-.199.053-.08.106-.146.159-.199a6.097 6.097 0 0 1 2.034-1.915c.824-.478 1.662-.93 2.512-1.356.426-.212.851-.398 1.277-.558a38.36 38.36 0 0 1 1.356-.478 9.253 9.253 0 0 1 1.156-.559c.399-.159.811-.319 1.236-.478-.478.106-.97.226-1.475.359-.505.133-.997.252-1.476.359a31.52 31.52 0 0 1-1.077.438 7.886 7.886 0 0 0-1.076.519h-.24a13.36 13.36 0 0 0-1.515.717 20.89 20.89 0 0 0-1.436.878.61.61 0 0 0-.119.159c-.027.054-.067.08-.12.08-.053 0-.08-.013-.08-.04v-.04c-.532.426-1.05.838-1.555 1.237a6.537 6.537 0 0 0-1.316 1.396c-.319.425-.612.824-.878 1.196a8.927 8.927 0 0 0-.717 1.196v.08l-.08.08a.347.347 0 0 1-.04.159c-.027.054-.067.08-.12.08.048.048.086.075.112.079l.048-.079c0 .053-.013.08-.04.08l-.008-.001zm34.824 2.793c.003-.187.016-.373.04-.559a1.108 1.108 0 0 0-.12-.638.923.923 0 0 0-.08-.279 1.175 1.175 0 0 1-.08-.439 4.12 4.12 0 0 1-.438-.518 2.406 2.406 0 0 0-.519-.519 1.864 1.864 0 0 0-.359-.279 5.081 5.081 0 0 0-.359-.199c.054.106.133.213.24.319.106.106.239.266.398.478.32.373.559.758.718 1.157l.559 1.396v.08zm-9.412-10.609v.16a15.692 15.692 0 0 1 3.589 1.116c.425.213.838.426 1.236.639.399.212.758.452 1.077.717.266.213.479.413.638.599.16.186.319.412.479.678-.16-.745-.585-1.37-1.276-1.875a17.574 17.574 0 0 0-1.915-1.236 8.652 8.652 0 0 0-1.914-.558 23.159 23.159 0 0 0-1.914-.24zm6.62 23.45c1.223-.11 2.446-.2 3.669-.28 1.223-.08 2.446-.14 3.669-.2-1.17 0-2.326-.01-3.47-.04-1.143-.02-2.299-.04-3.469-.04h-.878c-2.02.05-4.054.11-6.101.16-2.047.05-4.081.08-6.102.08-1.01-.05-2.007-.09-2.991-.12-.984-.02-1.981-.04-2.991-.04a269.147 269.147 0 0 0-16.032.48c1.648 0 3.297-.03 4.945-.08 1.649-.05 3.297-.05 4.945 0 2.021.05 4.042.12 6.062.2 2.021.08 4.041.12 6.062.12 1.967 0 3.948-.03 5.942-.08 1.994-.05 4.002-.11 6.022-.16h.718z" style="fill-rule:nonzero" transform="matrix(4.81299 0 0 4.78076 -2535.41 -4619.8)"/></svg>