<svg viewBox="0 0 400 400" xmlns="http://www.w3.org/2000/svg" xml:space="preserve" style="fill-rule:evenodd;clip-rule:evenodd;stroke-linejoin:round;stroke-miterlimit:2"><path d="m682.369 2901.41-.077.08c0-.04.077-.08.077-.08zm35.029-27.08.077-.08c.155.05.18.08.078.08h-.155zm17.108 6.21c-.108-.11-.102-.14.098-.04l.078.08s-.067-.01-.176-.04zm3.239 3.75c.027.01.054.03.1.07l-.1-.07zm-9.39 54.85c-.681.68-.847.31-1.544 1l-1.311.7-.077.08c-.364 0-.671.23-1.081.23l.309-.16c-1.237.16-1.399.16-2.778.62l.078-.15c-.666.22-1.587.8-2.084.3l-.463.16h-.463c-1.388 0-1.228.12-2.546.38l-.694.08-.772.16h-.617l-.617.07-.232-.23c-.942.14-.77.43-1.697.54l.231-.15c-.925.31-2.325-.2-3.24-.39l.077-.15c-.385 0-.774-.16-1.158-.16h-.231c-.664-.44-1.875-1-2.701-1l-.54-.23c-.58-.29-1.31-.62-1.774-1.08l-.232.15-.617-.3c-.091-.1-.218-.15-.309-.24l-.154-.15h-.116c-.082 0-.193-.15-.193-.15h.155c.116-.12-1.68-.26-1.389-.16l-.926-.31c-.348-.11-.725-.22-1.08-.31l-.926-.61c-.577-.58-1.339-.96-1.929-1.55 0 0-.166-.09-.231-.15l-.232-.23c-2.366-2.37-5.071-4.48-7.33-6.95l.309.16-.54-.54c0-.17-.309-.39-.309-.39-.011-.02 0-.08 0-.08-.106-.42-.317-.43-.54-.77l.154.08c-1.091-1.09-2.392-3.89-2.392-4.71 0 0-.077-.09-.077-.15l-.926-2.78.232.39c-.404-.81-.188-1.65-.463-2.47v.77c0-.65-.232-1.28-.232-1.93 0-.15.232.54.232.39v-1.43c0-.23-.617-.92-.617-.81-.792-1.58-.769-3.31-1.312-4.94v-.54c0-.11-.077-.2-.077-.31v-.46c0-1.56 1.157-7.52 1.157-3.09.315-1.26.128-1.18.386-2.47l.231-.15c0-.19.068-.37.14-.54l.029-.08c.072-.17.14-.35.14-.54v-.07l-.077.07c.091-1.1-.041-1.32.154-2.39v.08a.715.715 0 0 0 .077-.31v-.54l.078-.16v-.23c.111 0 .077-.08.077-.15l.077-.08-.077.31-.077.46c.404 0 1.311-3.42 1.311-4.16l.077.07c.263-.42.906-1.6 1.312-2l-.077.15c.164-.16.155-.27.386-.38l.154-.24c0-.08.077-.23.077-.23l.54-.54c.206-.51.386-1.62.386-1.62.573-1.72 2.238-2.62 3.472-3.85l.232-.47.617-.62c-.225.15 1.08-2.04 1.08-2.08l.463-.46c-.398.5.913-.89 1.389-1.31l.231-.08.232-.23.154-.08c.407-.81 2.089-.62 2.701-1.23l-.463.15c1.063-.35 1.756-1.26 2.777-1.7l.155.23c.339 0 .779-.46 1.08-.61l.154-.08c.156-.16-.058-.23.154-.23l.232-.16-.617.24-.772.54c.33-.27.109-.62.54-.62 0 0 .097-.08.154-.08h.155c0-.05.013-.08.038-.08h.193c.377 0 1.049-.14 1.389-.23l.926-.31c.295 0 .556-.15.849-.15h.694c.081-.08.309-.04.309-.15h-.386c.906 0 2.7-.31 2.7-.31.058 0 .155-.08.155-.08h.463s.018.06 0 .08l-.155.07-.077.08h-.154c.036 0 .077.08.077.08s.097-.08.154-.08c0 0 .948-.88 1.544-1.08l-.309.08c.2-.2.373-.26.617-.39l-.386.23c.484-.24 1.322-.69 1.852-.69l.154.08h.309c-.036 0-.797.03-.077.15.404 0 .298.08.772.23 1.123 0 1.586-.32 2.237 0h1.543c-.919 0 .897.05 1.003.08h-.463c-.185 0 .28.28.463.31.395-.05.188-.23.656-.23h1.389c.698 0 1.486.48 2.122.69 1.466-.36 1.406-.32 3.626.23l-.231.16c.447 0 .769.38 1.157.38l-.463-.31c.796.2 1.749.91 2.469 1.32-1.309-.66.182.38.617.38l.155.16c-.912 0 1.382 1.19 2.083 1.77l.231.23.232.16c.24.12.519.22.771.31l.772.23c.414.16 1.179.34 1.522.42.308.31 1.539 1.26 1.95 1.74.529.61.901 1.35 1.389 2l-.386-.23c.071.07.197.17.286.24-.033-.01-.066-.01-.131-.01l.462.39c.028 0 .695.15 1.312.77l.232.16.231.23.154.23-.154-.08c.186.28.253.33.463.54l.309.46c-.646-.64.994 1.54 1.466 2.32.627 1.04 1.544 3.16 2.777 3.78.282.56 1.158 1.99 1.158 3.86l.231.07-.231.54.077.62c.444.22.33.24.54.62l-.077-.08c0 .25 1.349 2.35.617 1.62l.309.47h-.078c.085.25.232.77.232.77l.309.92-.078-.08.618 2.4-.695 3.47v.15h.077l.155.47c.24 0 .311-.15.617.61.091.46-.1.94 0 1.39l.231.7.155.23-.077.31v.15h-.078c-.058.12-.077.39-.077.39-.392-.4-.277 1.07-.385 1.62l.077-.16c-.134 1.88-.608 1.65-.926 3.4v.85l-.155.15v.31c0 .83-.5 1.46-.694 2.24l-.231.61-.155.62c-.716 1.03-1.287 2.02-1.929 3.09l-1.003 1c-.245.25-.513.47-.769.7.001 0 .003 0 0-.01l-.002.01c-.039.03-.044.03-.079.07-.025.03-.05.05-.076.08-.985.66-1.489 1.92-1.851 3.01l-.232.38-.231.47c-.303.3-.877.65-1.306.82.024-.02.047-.03.071-.05l-.154.08.083-.03c-2.929 1.96-4.563 3.52-6.796 6.12a.547.547 0 0 1-.193.12l-.193.04c.059 0 .128-.02.193-.04l.193-.04.54-.62.077-.08c.058-.11.232-.3.232-.3.155-.16-.133.42-.232.61l-.385.39c-.052.05-.078.1-.078.15h-.308c-.269.14-.869.31-1.157.31l.077-.07h-.077c-.174.05-1.929.46-1.929.77h-.155v-.08l-.077-.08s-.177.06-.231 0h.077l.077-.07 1.157-.39c-.399 0-1.157.31-1.157.31l-.154.15zm14.276-12.03-.006.03c-.007.02-.013.03-.028.04-.033.04-.078.06-.12.08l.154-.15zm-.154.15c-.027.02-.053.05-.08.08l.077-.08h.003zm-11.988-10.57c.174-.03.348-.1.521-.18.174-.09.313-.18.417-.29.174-.1.338-.24.495-.42.156-.17.269-.34.338-.52.104-.17.209-.33.313-.49.104-.16.208-.32.312-.5.035-.07.078-.13.13-.2.053-.07.096-.14.131-.21.069-.11.121-.2.156-.29.035-.09.087-.18.156-.29.07-.2.191-.39.365-.54.173-.16.364-.29.573-.39.173-.14.356-.25.547-.34.191-.09.373-.2.546-.34.07-.07.157-.12.261-.16a.585.585 0 0 0 .26-.15c.139-.07.252-.15.339-.24.087-.08.182-.16.286-.23.313-.25.651-.44 1.016-.57.364-.14.738-.25 1.12-.32l.416-.1c.139-.04.261-.07.365-.11.104-.03.174-.06.208-.07l.157-.08a1.12 1.12 0 0 0-.235-.18.79.79 0 0 1-.234-.24c-.07-.07-.139-.13-.209-.18-.069-.05-.138-.1-.208-.13a10.937 10.937 0 0 1-.937-.42c-.313-.1-.617-.16-.912-.18-.295-.02-.599-.04-.911-.08a7.776 7.776 0 0 0-.834-.05h-1.953c-.364 0-.72.05-1.067.16-.105.03-.191.06-.261.07-.069.02-.156.05-.26.08-.07.04-.148.07-.235.11-.086.03-.182.07-.286.1l-1.042.42c-.139.03-.26.08-.364.15-.105.07-.209.16-.313.26-.173.14-.295.3-.364.47-.07.18-.157.35-.261.52l-.208.42c-.07.14-.156.28-.261.42-.104.1-.191.21-.26.34-.069.12-.139.25-.208.39-.07.13-.131.27-.183.41a4.48 4.48 0 0 1-.182.42c-.069.35-.113.68-.13 1.01-.018.33-.026.67-.026 1.02 0 .07-.009.13-.026.18a.598.598 0 0 0-.026.19v.41c0 .07-.018.12-.052.16 0 .03.008.08.026.15.017.07.026.13.026.16l-.078.16c-.018.03-.009.08.026.15.034.04.078.06.13.06h.13c.104.03.208.05.313.05h1.041c.104 0 .209.01.313.02.104.02.191.03.26.03h.833zm-3.854-7.66-.26-.26a1.12 1.12 0 0 0-.235-.18 1.14 1.14 0 0 1-.234-.18.928.928 0 0 1-.182-.13.642.642 0 0 0-.182-.13c-.174-.11-.365-.2-.573-.29a1.56 1.56 0 0 0-.625-.13h-1.302c-.07 0-.113.02-.131.05l-.078.16c-.035.14-.069.29-.104.44-.035.16-.069.31-.104.45 0 .17-.026.33-.078.49-.052.16-.096.32-.13.49-.035.07-.079.15-.131.24-.052.09-.095.16-.13.23.104 0 .2-.01.287-.02.086-.02.182-.03.286-.03.139 0 .269.01.391.03.121.01.234.06.338.13.07.03.113.06.13.08.018.01.044.06.079.13 0 .03.008.06.026.1a.22.22 0 0 1 .026.1v.16c.034.07.06.15.078.24.017.08.043.16.078.23.035.28.043.58.026.91-.017.33-.113.62-.287.86a.363.363 0 0 1-.156.21c-.069.03-.156.07-.26.1-.035 0-.061.01-.078.03l-.026.02h-.131a.165.165 0 0 0-.13.06c-.069 0-.113.01-.13.05-.017.03-.009.09.026.16.035.1.113.15.234.15h1.068c.035 0 .078.02.13.05.052.04.096.06.131.06.069 0 .112-.01.13-.03.017-.02.026-.04.026-.08a.82.82 0 0 0 .13-.28.78.78 0 0 1 .13-.29c.035-.11.061-.2.078-.29.018-.09.044-.18.078-.28.07-.18.148-.33.235-.47.087-.14.165-.28.234-.42l.417-.83.208-.32c.07-.1.122-.2.156-.31.035-.07.061-.15.079-.23.017-.09.06-.17.13-.24a.994.994 0 0 0 .078-.21.44.44 0 0 1 .13-.2c.035-.07.07-.13.104-.19.035-.05.07-.13.104-.23v-.1l-.104-.06zm-3.646 2.66c-.034-.14-.06-.27-.078-.39a.408.408 0 0 0-.182-.29.663.663 0 0 0-.443-.13 3.89 3.89 0 0 1-.494.03h-.261c-.104 0-.173.03-.208.1a.42.42 0 0 0-.052.19v.13c-.174 0-.278.01-.313.05l-.104.1a.994.994 0 0 0-.078.21.363.363 0 0 1-.078.16c-.07.1-.113.2-.13.28-.018.09-.026.18-.026.29.034.21.112.36.234.47.121.1.252.19.391.26.104.07.217.11.338.13.122.02.234.02.339.02h.338c.122 0 .217-.01.287-.05a.713.713 0 0 0 .312-.28c.07-.13.122-.26.156-.39.07-.14.105-.29.105-.45 0-.15-.018-.3-.053-.44zm-28.958-2.45c.07 0 .13.01.182.03.052.01.113.01.183-.03.069-.03.147-.08.234-.15.087-.07.165-.14.234-.21.07-.04.122-.08.157-.13a.37.37 0 0 1 .156-.13c.035 0 .069-.01.104-.03a.35.35 0 0 0 .104-.08.993.993 0 0 1 .417-.26l.026-.02a.465.465 0 0 1 .182-.08c-.034-.07-.034-.12 0-.16.035-.03.052-.08.052-.15 0-.04-.017-.08-.052-.14a1.571 1.571 0 0 1-.104-.18.994.994 0 0 1-.078-.21.213.213 0 0 0-.13-.15.48.48 0 0 0-.209-.13c-.069-.02-.138-.05-.208-.08-.104-.04-.191-.07-.26-.1a.52.52 0 0 0-.261-.06c-.069 0-.147-.01-.234-.02a1.056 1.056 0 0 0-.234-.03c-.07 0-.122.01-.157.03-.034.01-.052.06-.052.13a.14.14 0 0 0-.052.1v.11c0 .03-.009.07-.026.13-.017.05-.043.11-.078.18v.57c0 .07-.009.16-.026.26a.853.853 0 0 1-.078.26v.52c0 .11.008.17.026.19a.51.51 0 0 0 .182.02zm41.094 3.39c-.347.17-.599.34-.755.49l-.339.34c-.069.1-.147.22-.234.34-.087.12-.148.25-.183.39a.479.479 0 0 0-.052.21c0 .07-.017.14-.052.21 0 .1.009.17.026.2.018.04.061.06.131.06.104.03.217.06.338.08.122.01.234.02.339.02.173-.03.338-.08.494-.13a.992.992 0 0 0 .391-.23c.104-.11.2-.24.286-.39a.95.95 0 0 0 .131-.45.837.837 0 0 0 0-.41l-.104-.42c0-.03-.044-.1-.131-.21-.086-.1-.182-.14-.286-.1zm4.583-.58c0-.14-.017-.26-.052-.36l-.104-.31a2.335 2.335 0 0 1-.104-.26.296.296 0 0 0-.209-.21c-.173.03-.295.05-.364.05-.07 0-.156.02-.261.05-.069.04-.147.07-.234.11a.301.301 0 0 0-.182.15.818.818 0 0 0-.13.32c-.018.1-.026.22-.026.36v.63c0 .2.017.41.052.62.034.24.043.5.026.75-.018.27-.044.52-.078.76 0 .14-.027.26-.079.37a.772.772 0 0 0-.078.36.175.175 0 0 0-.052.13c0 .05-.017.09-.052.13a.8.8 0 0 1-.182.29l-.287.28a.967.967 0 0 0-.208.16l-.208.21a.695.695 0 0 0-.104.13.464.464 0 0 1-.157.13c-.104.07-.191.15-.26.23-.07.09-.156.17-.261.24a.585.585 0 0 0-.26.15.715.715 0 0 1-.26.16c-.07 0-.139.01-.209.02-.069.02-.156.05-.26.08a.38.38 0 0 1-.182.06.354.354 0 0 0-.183.05l-.625.1c-.208.04-.416.05-.625.05h-1.041a1.94 1.94 0 0 1-.625-.1 2.578 2.578 0 0 1-.625-.31.936.936 0 0 0-.157-.13c-.069-.05-.104-.1-.104-.13-.035-.04-.052-.06-.052-.08v-.08c-.035-.03-.087-.04-.156-.03l-.104.03c-.07 0-.131.02-.183.05-.052.04-.112.07-.182.11h-.156c-.07 0-.122.01-.156.05-.07 0-.165.02-.287.05a.7.7 0 0 0-.286.16c-.035.07-.026.12.026.15.052.04.095.07.13.11a.23.23 0 0 1 .13.13c.018.05.044.11.078.18.104.14.226.27.365.39.139.12.278.22.417.29.104.03.199.07.286.1.087.04.182.07.286.11.035.03.079.06.131.07.052.02.095.05.13.08h.156c.035 0 .087.02.156.05.313.11.625.17.938.19.312.01.625.02.937.02h1.094l.833-.21c.209-.07.4-.13.573-.2l.521-.21c.139-.07.269-.15.391-.24.121-.08.252-.16.39-.23.07-.07.139-.13.209-.18.069-.06.139-.12.208-.19a.69.69 0 0 1 .208-.15l.209-.11c.139-.14.269-.29.39-.47.122-.17.235-.34.339-.52.104-.13.182-.27.234-.41.052-.14.113-.28.183-.42.069-.21.121-.4.156-.57.035-.18.069-.37.104-.58.035-.1.061-.21.078-.33.018-.13.044-.24.078-.34v-.26c0-.11.018-.19.052-.26v-.89c-.034-.1-.052-.22-.052-.34 0-.12-.017-.23-.052-.34zm-34.219-4.94c.07.03.139.06.209.07.069.02.139.03.208.03.278.07.556.1.833.08.278-.02.556-.01.834.02.312.07.625.12.937.14.313.01.625.04.938.07.173 0 .338.02.495.06.156.03.303.06.442.1h1.354c.139 0 .261-.04.365-.1.035 0 .122-.03.26-.08.139-.05.209-.12.209-.19l.781-.41c-.069 0-.113-.02-.13-.05-.018-.04-.044-.07-.078-.11-.035-.07-.07-.15-.104-.26l-.105-.31c-.034-.11-.069-.2-.104-.29-.035-.08-.069-.16-.104-.23l-.104-.21a.778.778 0 0 0-.104-.16.612.612 0 0 0-.235-.15c-.086-.04-.165-.07-.234-.11a.818.818 0 0 0-.365-.1c-.104 0-.208-.02-.312-.05a.464.464 0 0 0-.235-.06c-.086 0-.147-.01-.182-.05h-2.291c-.244 0-.478-.02-.704-.05a1.535 1.535 0 0 1-.651-.26l-.208-.1a.413.413 0 0 0-.208-.06.965.965 0 0 0-.261.03c-.069.02-.139.04-.208.08l-.182.18a.652.652 0 0 0-.131.18l-.182.19a.592.592 0 0 0-.13.23c-.035.07-.069.15-.104.23a2.374 2.374 0 0 1-.235.47.553.553 0 0 0-.078.29c-.034.1-.069.22-.104.36a.454.454 0 0 0 .052.37c0 .03.018.07.052.1l.104.11zm-5.312 5.52c-.069.03-.148.07-.234.1-.087.04-.183.09-.287.16-.104.1-.2.23-.286.39-.087.15-.165.3-.235.44-.034.11-.06.23-.078.37a.812.812 0 0 0 .026.36c0 .07.035.11.104.13.07.02.139.03.209.03a.29.29 0 0 0 .182-.06.361.361 0 0 1 .182-.05c.035 0 .087-.01.157-.02a.742.742 0 0 1 .208-.03c.069-.04.13-.08.182-.13a.63.63 0 0 0 .13-.18c.07-.07.131-.14.183-.21.052-.07.113-.14.182-.21.069-.1.121-.22.156-.34.035-.12.052-.25.052-.39v-.18c0-.05-.017-.11-.052-.18 0-.04-.008-.07-.026-.11-.017-.03-.009-.07.026-.1-.312.07-.503.11-.573.13-.069.02-.139.04-.208.08zm20.26-1.62c0-.03.018-.07.052-.1l.105-.11c.034-.03.086-.07.156-.13.069-.05.087-.18.052-.39a.53.53 0 0 0-.13-.36.96.96 0 0 1-.183-.37c0-.07-.026-.14-.078-.2a.351.351 0 0 1-.078-.21l-.104-.31c-.035-.11-.069-.2-.104-.27a1.217 1.217 0 0 0-.755-.54c-.33-.09-.651-.08-.964.02-.173.11-.364.21-.573.32-.208.1-.416.15-.625.15h-.156c-.035 0-.069.04-.104.11v.1c0 .04-.009.06-.026.08l-.026.03c-.035.03-.044.06-.026.07l.078.08c.035.07.078.15.13.24.052.08.095.16.13.23s.07.15.104.23c.035.09.07.17.105.24.034.03.06.07.078.1.017.04.026.09.026.16.034.07.069.12.104.16l.104.1c.035.07.061.13.078.18.018.05.044.1.078.13.07.07.13.15.183.24.052.08.095.16.13.23.104.11.208.23.312.37.104.13.191.27.261.41a.63.63 0 0 0 .13.18l.13.13c0 .07.017.14.052.19.035.05.052.09.052.13.035.07.07.14.104.23.035.09.07.17.105.24l.104.2c.035.07.087.14.156.21 0 .04.017.07.052.11.035.03.07.05.104.05h.469c.104 0 .174-.02.208-.05.07-.07.078-.15.026-.24-.052-.08-.095-.15-.13-.18-.069-.1-.13-.22-.182-.34a8.871 8.871 0 0 0-.182-.39.888.888 0 0 1-.105-.42c0-.07.009-.14.026-.2.018-.07.044-.14.079-.21a.857.857 0 0 1 .182-.31c.087-.11.165-.21.234-.32h.052zm9.48-8.12a.876.876 0 0 0-.079.23.453.453 0 0 1-.13.24.31.31 0 0 1-.026.15.414.414 0 0 1-.078.11.889.889 0 0 0-.026.36c.017.11.061.21.13.31.174.21.391.39.651.52.261.14.512.25.755.32.07 0 .139.01.209.05a.65.65 0 0 0 .26.05c.07.04.139.05.209.05H732c.139.04.286.06.443.06h1.536c.035 0 .052-.04.052-.11a.171.171 0 0 0 .052-.13c0-.05.018-.09.052-.13 0-.1.018-.22.052-.34.035-.12.07-.23.105-.34v-1.06c0-.09-.018-.19-.053-.29 0-.07-.026-.15-.078-.24a2.351 2.351 0 0 1-.13-.23.591.591 0 0 0-.234-.34c-.122-.08-.235-.2-.339-.34a1.082 1.082 0 0 1-.156-.23c-.069-.12-.208-.2-.417-.23-.034 0-.06 0-.078.02-.017.02-.043.03-.078.03h-.052l-.104.1c-.139.04-.278.05-.417.05-.139 0-.26.02-.364.06-.07.03-.131.06-.183.07-.052.02-.113.05-.182.08-.069.04-.148.08-.234.13-.087.05-.165.1-.235.13a.928.928 0 0 0-.182.13.642.642 0 0 1-.182.13c-.105.11-.217.21-.339.32-.121.1-.234.2-.338.31zm-13.282 9.01c-.069-.11-.13-.19-.182-.26a.965.965 0 0 1-.13-.31 1.214 1.214 0 0 0-.13-.29c-.053-.09-.113-.18-.183-.29-.069-.14-.13-.27-.182-.39a2.52 2.52 0 0 0-.182-.34 3.24 3.24 0 0 0-.391-.75 9.339 9.339 0 0 1-.443-.71.7.7 0 0 0-.286-.36 8.16 8.16 0 0 0-.391-.21c-.139.21-.243.31-.312.31h-.156a.381.381 0 0 0-.131.03.376.376 0 0 1-.13.03c-.069 0-.139.01-.208.02a.754.754 0 0 1-.209.03c-.034 0-.086.01-.156.02a.62.62 0 0 1-.156.03c-.174.03-.33.06-.469.08-.139.02-.278.04-.416.08a1.34 1.34 0 0 1-.417.13 6.38 6.38 0 0 1-.469.02c-.347.07-.694.11-1.042.11h-1.093c-.209 0-.417.01-.625.02-.209.02-.417.05-.625.08-.104 0-.226.01-.365.03a.59.59 0 0 0-.364.18.685.685 0 0 0-.157.26l-.104.31a.738.738 0 0 0-.104.16.223.223 0 0 0 0 .21c0 .07.026.14.078.23.052.09.096.17.13.24.035.1.078.2.13.31.053.1.096.22.131.36.104.25.217.48.338.71.122.22.235.46.339.7.104.17.208.34.312.49.104.16.191.32.261.5a.63.63 0 0 0 .13.18c.052.05.113.1.182.13.035.04.078.06.13.08.052.02.096.04.131.08l.156.08c.035.01.087.02.156.02h.261c.069 0 .138.01.208.03.069.01.139.04.208.08.347.03.695.06 1.042.07.347.02.694.03 1.042.03.312 0 .607-.02.885-.05.278-.04.556-.05.833-.05h2.5c.174 0 .391-.01.651-.03.261-.02.443-.13.547-.34.07-.1.096-.23.078-.39a1.779 1.779 0 0 0-.078-.39 1.121 1.121 0 0 0-.182-.39 1.183 1.183 0 0 1-.182-.34c-.035-.1-.07-.2-.105-.29a4.925 4.925 0 0 1-.104-.28zm5.469-13.6h.938c.138 0 .269-.01.39-.05.122-.03.235-.05.339-.05.173 0 .338-.03.494-.08.157-.05.304-.08.443-.08h1.354c.174 0 .356.02.547.06.191.03.374.06.547.1.243.1.495.2.755.29.261.08.495.2.703.34.07.03.122.08.157.15.034.07.069.12.104.16.069.07.104.14.104.21 0 .06.017.15.052.26a.84.84 0 0 1 .078.23c.018.09.009.18-.026.29 0 .07-.017.14-.052.23a.672.672 0 0 0-.052.24c0 .03.009.06.026.1.017.03.009.07-.026.1 0 .07-.009.13-.026.16a.379.379 0 0 1-.078.1v.47c0 .07.035.13.104.16h.052c.07.03.139.05.208.05.07 0 .105-.03.105-.1.069 0 .112-.03.13-.08.017-.05.026-.1.026-.13.069-.1.121-.22.156-.34.035-.12.07-.23.104-.34.104-.21.2-.42.287-.65a.895.895 0 0 0-.026-.7 7.353 7.353 0 0 0-.131-.37.615.615 0 0 0-.234-.31 1.359 1.359 0 0 0-.286-.21 1.368 1.368 0 0 1-.287-.21 9.496 9.496 0 0 1-.26-.18 2.38 2.38 0 0 0-.209-.13 4.61 4.61 0 0 0-.286-.26 4.17 4.17 0 0 0-.286-.21c-.209-.1-.417-.2-.625-.28a8.162 8.162 0 0 0-.625-.24 1.132 1.132 0 0 0-.313-.15l-.312-.11c-.139-.03-.27-.05-.391-.05h-1.042c-.225 0-.46.02-.703.05-.208 0-.417.01-.625.03-.208.01-.417.04-.625.08h-.573c-.069 0-.139 0-.208.02-.07.02-.122.04-.156.08-.07 0-.139.01-.209.03-.069.01-.139.02-.208.02a.207.207 0 0 0-.104.03c-.035.02-.07.04-.104.08a.918.918 0 0 0-.235.39.358.358 0 0 0 .078.39c.174.14.348.24.521.31.174.07.347.1.521.1zm-18.333 13.34c0 .03.017.08.052.13.035.05.069.09.104.13 0 .07.026.15.078.23.052.09.078.17.078.24.07.17.087.37.052.6-.034.22-.052.42-.052.59-.035.14-.069.29-.104.45-.035.15-.087.3-.156.44-.035.1-.096.22-.183.34a1.14 1.14 0 0 0-.182.39c-.035 0-.052.01-.052.02v.03h-2.864c-.209 0-.426-.01-.652-.03-.225-.01-.442-.02-.651-.02h-1.38a.196.196 0 0 1-.13-.05c0-.04.009-.07.026-.11a.379.379 0 0 1 .078-.1 4.7 4.7 0 0 1 .495-.86c.191-.26.373-.53.547-.81.139-.17.286-.34.443-.52.156-.17.321-.31.494-.42.139-.1.287-.19.443-.28.156-.09.304-.18.443-.29.139-.07.269-.14.39-.21.122-.07.252-.14.391-.2.035-.04.087-.06.156-.06.07 0 .122-.01.157-.05.069-.03.13-.07.182-.1.052-.04.095-.07.13-.11a.394.394 0 0 0 .13-.08c.018-.01.061-.04.13-.07l.417-.21c.139-.07.269-.15.391-.24.121-.08.234-.18.338-.28.139-.14.261-.29.365-.45.104-.15.191-.33.26-.54 0-.11.018-.2.052-.29a.768.768 0 0 0 .052-.29.62.62 0 0 0 .053-.28v-.34a.77.77 0 0 0-.105-.42c-.069-.1-.069-.22 0-.36a.241.241 0 0 0-.13-.13.376.376 0 0 0-.13-.03c-.035-.03-.069-.06-.104-.08l-.052-.02h-.104a.21.21 0 0 1-.105-.03c-.034-.02-.069-.02-.104-.02a.602.602 0 0 0-.234-.08 1.057 1.057 0 0 0-.235-.03c-.034-.03-.069-.05-.104-.05h-.104a.747.747 0 0 1-.208-.03c-.07-.01-.122-.02-.156-.02h-1.719c-.104 0-.2.01-.287.02-.086.02-.199.05-.338.08a.846.846 0 0 1-.261.08c-.104.02-.208.04-.312.08-.035.03-.078.07-.13.1a.285.285 0 0 1-.183.05l-.078.03a.376.376 0 0 1-.13.03 1.38 1.38 0 0 0-.312.13c-.105.05-.209.09-.313.13-.069.03-.13.06-.182.08-.052.01-.113.04-.183.07-.034 0-.078.02-.13.06a.493.493 0 0 0-.13.1c-.104.03-.2.07-.286.1a.79.79 0 0 0-.235.16c-.278.14-.547.28-.807.42-.261.13-.512.29-.755.47-.07.06-.148.12-.235.18-.086.05-.165.11-.234.18-.069.07-.139.13-.208.18-.07.05-.139.11-.209.18a.516.516 0 0 1-.182.19.432.432 0 0 0-.182.18c-.174.14-.321.29-.443.47-.122.17-.234.34-.339.52-.104.14-.191.27-.26.39s-.139.25-.208.39a.474.474 0 0 0-.131.23.765.765 0 0 1-.13.29c0 .03-.017.08-.052.13a.306.306 0 0 0-.052.18c0 .04-.009.08-.026.13a.628.628 0 0 0-.026.19c0 .07-.017.13-.052.2a.465.465 0 0 0-.052.21.938.938 0 0 0-.052.29c0 .08-.018.18-.052.29 0 .06-.018.14-.052.23-.035.09-.07.16-.105.23l-.208.42c-.035 0-.052.01-.052.03v.02c-.174-.03-.339-.06-.495-.08a2.96 2.96 0 0 1-.442-.07 1.655 1.655 0 0 0-.547-.03.628.628 0 0 0-.443.23c-.069.11-.13.2-.182.29-.052.09-.113.18-.183.29-.069.1-.139.23-.208.39-.069.15-.104.3-.104.44-.035.11-.026.18.026.23.052.06.113.1.182.14.07.03.148.06.235.07.086.02.165.03.234.03h1.042c0 .07-.018.13-.052.18a.74.74 0 0 1-.105.13l-.104.11c0 .07.026.1.078.1h.078c.105.03.191.06.261.08.069.02.156.02.26.02.104.04.209.06.313.06h2.396c.208 0 .416-.05.625-.13.208-.09.416-.17.625-.24.104 0 .191-.02.26-.08a.43.43 0 0 1 .26-.07c.07 0 .131-.01.183-.03.052-.02.113-.04.182-.08h4.375c.174.04.365.06.573.08.208.02.417.03.625.03h.208c-.034 0-.052 0-.052.02v.03a.768.768 0 0 0-.156.23.7.7 0 0 1-.156.24c-.139.14-.278.24-.417.31-.139.07-.295.14-.469.21-.104.03-.191.06-.26.08-.07.01-.156.04-.261.07-.069 0-.147.01-.234.03-.087.02-.182.04-.286.08-.348.07-.686.1-1.016.1h-1.745c-.139 0-.269-.02-.39-.05-.122-.04-.235-.07-.339-.1-.174-.04-.33-.09-.469-.16l-.416-.21a.402.402 0 0 1-.131-.08c-.017-.01-.06-.01-.13.03a.152.152 0 0 0-.078.02l-.078.08-.156.08a.323.323 0 0 1-.157.03l-.26.13a.42.42 0 0 0-.208.18c-.174.28-.087.5.26.68.347.17.59.31.729.41.07.04.157.07.261.11.104.03.191.07.26.1.104.04.208.06.313.08.104.02.208.04.312.08.313.07.608.14.886.21.277.07.572.12.885.15h.443c.156 0 .303-.01.442-.05.139-.03.296-.06.469-.08a.823.823 0 0 0 .417-.13l.521-.21c.173-.07.329-.12.468-.15.174-.07.33-.12.469-.16.139-.03.278-.08.417-.15a9.488 9.488 0 0 0 1.484-.99c.469-.39.894-.8 1.276-1.25h12.813c.139 0 .277-.02.416-.06.139-.03.278-.05.417-.05.139-.03.278-.06.417-.08.139-.01.277-.04.416-.07.139 0 .287-.03.443-.08.156-.06.304-.1.443-.13.382-.07.729-.2 1.041-.39.313-.19.591-.43.834-.71l.312-.31c.104-.1.174-.23.209-.36v-.24a.5.5 0 0 0-.052-.23h-.053l-.781.26a.387.387 0 0 0-.286-.11.935.935 0 0 1-.339-.05h-.859a.732.732 0 0 0-.287.05c-.034 0-.069.02-.104.06l-.104.1a.425.425 0 0 0-.052.13c0 .02-.017.04-.052.08l-.104.1a.13.13 0 0 1-.104.05c-.035.04-.087.06-.157.06h-.156c-.174.03-.356.07-.547.1-.191.04-.39.05-.599.05H714.5c-.139 0-.295.02-.469.06-.173 0-.356 0-.547.02-.191.02-.373.04-.547.08-.555.03-1.111.05-1.666.05h-5.625a2.005 2.005 0 0 0 .104-.62c.035-.14.052-.29.052-.45v-.44c0-.14-.009-.27-.026-.39a2.784 2.784 0 0 1-.026-.39c-.035-.1-.052-.22-.052-.34 0-.12-.018-.23-.052-.34 0-.07-.018-.13-.052-.18a.306.306 0 0 1-.052-.18 8.506 8.506 0 0 0-.131-.37 4.32 4.32 0 0 0-.182-.41 8.378 8.378 0 0 0-.13-.37.611.611 0 0 0-.235-.31c-.069-.03-.138-.08-.208-.13-.069-.05-.121-.08-.156-.08l-.729 1.41zm11.25-8.23c-.07.03-.131.07-.183.1a.446.446 0 0 0-.13.16.14.14 0 0 0-.052.1c0 .04-.017.07-.052.11a.495.495 0 0 1-.156.18c-.07.05-.139.11-.209.18-.104.14-.199.3-.286.47a2.03 2.03 0 0 0-.182.52v.21a.462.462 0 0 0-.026.26c.017.07.043.14.078.21 0 .1.008.19.026.26.017.07.043.14.078.21.069.07.148.14.234.21.087.07.183.12.287.15.069.04.147.08.234.13.087.05.182.11.287.18.173.07.382.11.625.11h1.458c.243 0 .486-.02.729-.05.243 0 .478-.02.703-.06.226-.03.443-.05.651-.05h1.302c.417 0 .834-.02 1.25-.05.348-.04.686-.05 1.016-.05h.964c.277 0 .546-.01.807-.03.26-.02.512-.04.755-.08.417-.03.851-.05 1.302-.05.452 0 .868-.1 1.25-.31.208-.1.399-.25.573-.44.174-.19.313-.39.417-.6.104-.14.182-.26.234-.37a1.6 1.6 0 0 0 .13-.36c.035-.11.052-.22.052-.34 0-.12-.017-.23-.052-.34 0-.14-.008-.27-.026-.39a2.784 2.784 0 0 1-.026-.39c-.035-.07-.043-.13-.026-.18.018-.05.009-.11-.026-.18a.58.58 0 0 0-.13-.34 2.638 2.638 0 0 0-.234-.29c-.07-.1-.148-.2-.235-.29a1.485 1.485 0 0 0-.338-.23l-.625-.42a.811.811 0 0 0-.521-.23c-.209-.02-.4-.06-.573-.13-.174-.04-.33-.05-.469-.05h-1.771c-.486 0-.972.04-1.458.13-.486.08-.972.2-1.458.34-.209.06-.426.12-.651.15-.226.04-.46.09-.704.16-.243.07-.486.14-.729.23s-.468.18-.677.29l-.937.31c-.313.11-.608.19-.886.26-.277.07-.547.17-.807.29-.26.12-.53.23-.807.34-.591.24-.738.31-.443.2l.443-.15z" style="fill-rule:nonzero" transform="matrix(5.82496 0 0 5.78595 -3963.09 -16627.6)"/></svg>