<svg viewBox="0 0 400 400" xmlns="http://www.w3.org/2000/svg" xml:space="preserve" style="fill-rule:evenodd;clip-rule:evenodd;stroke-linejoin:round;stroke-miterlimit:2"><path d="m671.371 2760.23.077-.07c.154.05.18.07.077.07h-.154zm-35.03 27.09-.077.07c0-.03.077-.07.077-.07zm52.138-20.87c-.109-.11-.102-.14.098-.04l.077.07s-.067-.01-.175-.03zm3.238 3.74c.028.01.055.03.1.07l-.1-.07zm-9.39 54.86c-.681.68-.846.3-1.543 1l-1.312.69-.077.08c-.363 0-.671.23-1.08.23l.308-.15c-1.236.15-1.399.15-2.777.61l.077-.15c-.666.22-1.587.81-2.083.31l-.463.15h-.463c-1.389 0-1.229.13-2.547.39l-.694.08-.772.15h-.617l-.617.08-.232-.23c-.942.13-.77.42-1.697.54l.231-.16c-.925.31-2.325-.2-3.24-.38l.077-.16c-.385 0-.773-.15-1.157-.15h-.232c-.663-.44-1.875-1.01-2.7-1.01l-.54-.23c-.581-.29-1.311-.61-1.775-1.08l-.231.16-.618-.31c-.091-.09-.217-.14-.308-.23l-.155-.16h-.115c-.083 0-.193-.15-.193-.15h.154c.116-.12-1.68-.25-1.389-.16l-.926-.3c-.348-.12-.725-.22-1.08-.31l-.926-.62c-.577-.58-1.339-.95-1.929-1.54 0 0-.166-.09-.231-.16l-.232-.23c-2.365-2.37-5.071-4.48-7.33-6.94l.309.15-.54-.54c0-.16-.309-.39-.309-.39-.011-.02 0-.07 0-.07-.105-.42-.316-.44-.54-.77l.154.07c-1.091-1.09-2.391-3.88-2.391-4.7 0 0-.078-.1-.078-.16l-.925-2.77.231.38c-.403-.81-.188-1.64-.463-2.47v.77c0-.64-.231-1.28-.231-1.93 0-.14.231.54.231.39v-1.43c0-.22-.617-.92-.617-.81-.792-1.58-.769-3.31-1.312-4.94v-.54c0-.1-.077-.2-.077-.3v-.47c0-1.56 1.157-7.51 1.157-3.08.315-1.26.128-1.18.386-2.47l.232-.16c0-.18.067-.36.139-.54l.029-.07c.072-.18.14-.36.14-.54v-.08l-.077.08c.092-1.1-.041-1.32.154-2.4v.08c.052-.1.078-.2.078-.31v-.54l.077-.15v-.23c.111 0 .077-.09.077-.16l.077-.08-.077.31-.077.47c.404 0 1.311-3.43 1.311-4.17l.078.08c.262-.42.905-1.6 1.311-2.01l-.077.16c.165-.17.155-.27.386-.39l.154-.23c0-.08.077-.23.077-.23l.54-.54c.207-.52.386-1.62.386-1.62.573-1.72 2.238-2.63 3.472-3.86l.232-.46.617-.62c-.225.15 1.08-2.04 1.08-2.08l.463-.47c-.398.5.913-.89 1.389-1.31l.231-.08.232-.23.154-.07c.407-.82 2.09-.63 2.701-1.24l-.463.16c1.063-.36 1.756-1.26 2.777-1.7l.155.23c.34 0 .779-.47 1.08-.62l.154-.08c.157-.15-.058-.23.155-.23l.231-.15-.617.23-.772.54c.331-.26.109-.62.54-.62 0 0 .097-.07.155-.07h.154c0-.06.013-.08.039-.08h.192c.377 0 1.05-.15 1.389-.23l.926-.31c.296 0 .556-.16.849-.16h.694c.082-.08.309-.03.309-.15h-.386c.906 0 2.701-.31 2.701-.31.057 0 .154-.08.154-.08h.463s.018.06 0 .08l-.154.08-.078.08h-.154c.037 0 .077.07.077.07s.097-.07.155-.07c0 0 .947-.89 1.543-1.08l-.309.07c.2-.2.373-.26.617-.38l-.385.23c.483-.24 1.321-.7 1.851-.7l.155.08h.308c-.036 0-.797.03-.077.16.404 0 .298.07.772.23 1.123 0 1.587-.33 2.237 0h1.543c-.918 0 .898.05 1.004.07h-.463c-.186 0 .279.29.463.31.394-.05.187-.23.655-.23h1.389c.698 0 1.486.48 2.122.7 1.466-.37 1.406-.33 3.626.23l-.231.15c.447 0 .77.39 1.157.39l-.463-.31c.796.2 1.75.9 2.469 1.31-1.308-.65.182.39.618.39l.154.15c-.912 0 1.382 1.19 2.083 1.78l.232.23.231.15c.24.12.519.22.772.31l.771.23c.414.17 1.179.35 1.523.43.307.3 1.538 1.25 1.949 1.73.53.62.901 1.36 1.389 2.01l-.386-.23c.071.07.197.16.286.23-.033-.01-.066 0-.131 0l.463.38c.027 0 .694.16 1.311.77l.232.16.231.23.155.23-.155-.07c.187.27.253.33.463.54l.309.46c-.646-.65.995 1.53 1.466 2.31.627 1.04 1.545 3.17 2.778 3.78.281.57 1.157 1.99 1.157 3.86l.231.08-.231.54.077.62c.444.22.33.24.54.61l-.077-.07c0 .24 1.349 2.35.617 1.62l.309.46h-.077c.085.25.231.77.231.77l.309.93-.077-.08.617 2.39-.695 3.47v.16h.078l.154.46c.24 0 .311-.15.617.62.091.45-.1.93 0 1.39l.232.69.154.23-.077.31v.16h-.077c-.059.11-.077.38-.077.38-.393-.39-.277 1.08-.386 1.62l.077-.15c-.134 1.87-.608 1.64-.926 3.39v.85l-.154.16v.3c0 .83-.501 1.47-.695 2.24l-.231.62-.154.62c-.717 1.02-1.288 2.01-1.929 3.08l-1.003 1.01c-.246.24-.514.46-.77.7.001-.01.003-.01 0-.01h-.002c-.039.03-.043.04-.079.08-.025.02-.05.05-.075.07-.986.66-1.489 1.92-1.852 3.01l-.232.39-.231.46c-.303.3-.877.66-1.306.82a.288.288 0 0 0 .071-.05l-.154.08.083-.03c-2.928 1.96-4.563 3.52-6.796 6.13a.73.73 0 0 1-.193.11l-.192.04c.058 0 .127-.01.192-.04l.193-.04.541-.61.077-.08a1.8 1.8 0 0 1 .231-.31c.156-.16-.133.42-.231.62l-.386.38a.231.231 0 0 0-.077.16h-.309c-.269.13-.869.31-1.157.31l.077-.08h-.077c-.174.06-1.929.46-1.929.77h-.155v-.08l-.077-.07s-.177.05-.231 0h.077l.077-.08 1.158-.39c-.4 0-1.158.31-1.158.31l-.154.16zm14.276-12.03-.006.02a.158.158 0 0 1-.028.05c-.033.03-.077.05-.119.07.05-.05.101-.09.153-.14zm-.153.14c-.027.03-.054.05-.081.08l.078-.08h.003zm-5.384-11.87-.625-1.77-.365-.1-.677-1.15-.937-.78-.938-.68-.104-.26-.052-1.04-.156-1.09-.209-1.98.052-.16h.313l.312-.1.938-1.1 1.042-1.04.468-1.35.73-1.25-.053-1.41.209-1.41-.573-1.3-.365-1.35-.937-1.09v-.16l-.99-.73-.937-.89-.625-.26-.886-.26-1.198-.2-1.25-.06-1.25.21-1.093.52-.417.16-.573.21-.521-.16-.208-.1-1.302-.89-1.511-.62-.104-.42-.312-.05.156-.47-.469-1.36-.312-1.4-.677-1.3-.834-1.2-.989-.68-1.042-.73-.26.05-.782-.26.052-.21-1.51-.36-1.771.1-.104.06-1.354.47-1.354.57-1.302 1.14-.73.79-.572.88v.16l-.261.36-.208.52.104.05-.156.06-.052.15-.261 1.1v1.09l-.156.47-.938.57-.989.47-1.823.94-1.146-.52-1.146-.26h-.364l-.052.1-1.615-.15h-1.042l-1.875.57-.989.67-1.042.47-.677.89-.729.83-.313 1.41-.26 1.4-.104 1.26.26 1.24-.052.47.625 1.2.625 1.25 1.146.78 1.094.89.364.52.052 1.09-.208 1.1.052 1.09v1.15l-.625-.11-1.042 1.04-.937 1.1-.677 1.3-.521 1.35v1.41l.052 1.41.365 1.35.26 1.41 2.083 1.98 1.25.72 1.146.84 1.927.31 1.198-.57 1.25-.16 1.198-.42.573-.52.781.94.782.84 1.093.26 1.042.41-.104.52.26 1.46.052 1.51 1.042 1.1.99 1.09 1.145.83 1.094.94 1.459.21 1.458.05 1.406-.1 1.458-.16 1.303-.73 1.25-.78.468-.73.677-1.25.521-1.3.365-1.93.052-.16v-.31l-.052-.15.885-.58.99-.47.885-.67.938-.58.468.21 1.355.37 1.25.52 1.093-.05h.73l1.718-.26.99-.53 1.042-.41 1.145-.94.886-.94.156-.36.313-1.15.26-1.2.208-.67-.156-1.3-.104-1.36zm-12.813-15.68.105-.2-.313-.16.26-1.35.573-1.25.834-1.1 2.396-1.25 1.718-.57.417.1 1.146.47 1.094.58.989.67.938 1.2.052.16.312.2.365 1.2.26.52-.104 1.57.104.57-.104.05.104.05-.469.99-.416 1.04-.104-.05.052.05-.521.68-1.25.89-1.354.57-1.459.1-.52.11-.365-.21-.625-.21-.469-.05-1.146-.42-.989-.67-.886-1.05-.364-1.25-.261-1.3v-.68zm-2.812-6.3 1.198.84 1.458.73-.677 1.24-.625 1.1-.052 1.25-.417 1.25-1.198.52-1.093.83-1.355.99-.468.47-.469.05.052-1.3-.156-1.3 1.041.68.053.1-.053-.21.782-.62-.99-.47-1.042-.42-.729.68.052 1.3.105 1.25-.105 1.3.157.16-.157.16.157.1v-.05l1.406-.73 1.094-.42.937-.57 1.198-.68 1.198-.57.26 1.56-1.198.68-1.354.68-1.146.83-1.145.94-1.459.52-1.302.78.052-1.56-.156-1.51.052-1.41.052-1.46-.052-1.46.104-1.46 1.25-.31 1.302-.47.625-.62.782.78.468.42v.1l.469.16.104.1.209-.26.468-.52.99-1.56v-.37l-.729.37-.469.62-.365.42-.156.05-.469-.62-.468-.32.677-.36.625-1.3.677-1.1zm-13.854.21.573 1.09.937.94 1.042.73 1.094.78 1.145.47 1.042.73v.94l.156 1.04-.156.1-1.25.42-1.354.26-.886 1.04.834 1.3 1.094 1.05.833-.79-1.25-1.66.781-.37.573-.31h.833v1.3l.157 1.31-.157 1.56.157 1.61-1.302-.99-1.355-.78-1.354-.52-1.302-.62-.208-.21.104-.11.26-.36.73-.73.156-.05-.365-.26-.208-.21-.208.1-.886.78-.417.26-1.458-.78.208-.36.573-.78.886-.84.885-.57.834-.62.572-.47.209-.32-.261-.46-.104-.21-.937-.84-.365-.26h-.104l-.156-.05-.052-.05v.05l-.052-.05-.573-.94-.365-.36h-.052l-.26.1v.05l-.105.47.209.05.364 1.15.209.16v.1l.625.21.104.1.469.11.364.67-.989.58-1.042.52-.625.57v-.21l-.156-1.19-.105-1.15-.729-1.41-.573-1.45 1.355-.84 1.302-.52h.052zm4.583-7.86 1.25-.37 1.354-.26 1.354.26 1.25.57 1.146.79.677 1.25.157.1.208.16.26.57.417 1.3-.052.73-.208.47-.469 1.77-.834 1.51-1.25 1.09.105.26-.105-.05-1.197.78-1.407.11-1.354-.11-1.25-.67-.677-.06-.937-1.19-1.198-.94.052-.47-.573-1.2-.209-1.3.261-1.3.469-1.2.677-1.15.885-.93 1.198-.52zm20.625 36.3-1.51.62-1.667.42-.521.1-.26-.15-1.302-.42-.99-.94-1.198-.88-.104.05-.208-.36-.417-.21-.104-1.51-.313-1.46.052-.52-.052-.26.313-1.1.208-1.14.365-.26.833-1.04 1.042-.79 1.198-.52h1.354l.781-.2 1.615.31 1.51.62v.16l1.094 1.25.573.88.364.99.104 1.51-.208 1.41-.469 1.41-.885 1.19-1.198.84zm-11.25 1.3-.625-1.09-.885-.94-.99-.68-.937-.67-.261-.06-.781-.67-.886-.21-.312-.11-.417-.15.209-1.46.052-1.46-.157-1.41-.104-1.45.052-1.51-.156-1.62 1.198.83 1.25.73-.26.58-.157 1.4-.312 1.36-.156 1.35v.26l1.145.11 1.094.41.313.11.781.1.26-.36.261-.47-.104-.06.468-1.66-.573-.26-.468.26-.469 1.35-.729-.15-.417-.11-.104-.26-.052.05-.052-.15-.261.15.157-.88.104-.52.208-1.25.208-.78.938.41.99.32 1.302.72 1.145.89-.26 1.3-.26 1.41.156.78-.938.52-.885.57-1.094-.52-1.198-.31-1.302-.26.052.1-.156-.05-.104.05-.052.32.104.15-.052.05 1.614.42.417.37.677.15.261.16.26.05-.052.05h.052l.417.94.364.52.573.73.521-.42-.573-1.72 1.146-.72.312.99.573.72.469 1.31-1.302.73-1.25.62zm-26.927-20.62-.521-.53-.469-1.92v-.58l.261.06.052-1.46.208-1.2.677-.94.104-.26 1.198-.83 1.25-.63 1.355-.41 1.458-.05 1.354.46 1.354.58.886 1.09.885 1.51-.052.21.365.31v1.77l.052.94-.521 1.25-.573 1.2-1.042.78-.104.21-.156.15-.417.16-1.302.42-.208.1-.209.05-1.562.11-1.563-.47-.885-.26-.052.05-.052-.05-1.094-.68-.677-1.14zm8.594 8.33-1.198-.68-1.25-.47v-.21l1.041-.67.99-.78.573-.42-.729-.42-1.25.89-1.094.99-.625.62-1.458-.21.052-1.19-.104-1.41h1.093l1.927-.31 1.771-.78 1.198.62 1.667.94-1.458 1.14v.11l-.053-.05-.052.21-.156.46.052-.1.104.21.209.05.989-.83.99-.78.26-.06.104-.2h.053l.208-.06.052-.62-.052-.05-1.458-.99-1.459-.73 1.094-1.36 1.198.89 1.302.68 1.042.62.52.52.886.31h.208l1.198.79 1.302.78-1.302.83-1.406.57-1.719.94-1.146-.78.729-.52 1.25-.84v-.05l.053.05v-.15l.104-.16.416-.21-.208-.1-.104-.1-.208.05h-.313l-1.198.83-1.25.73-.625 1.04.573.57.677.58-2.083 1.14-.99-.93-.989-.89.052-.05zm2.864 2.95.365-.14.052.05.104-.05 1.406-.78 1.355-.89 1.093-.67 1.094-.63 1.146-.36.989-.52v1.19l.105 1.26-.886.36-.104.1-.156.11v-.05l-.573.52.156.52 1.302-.32.365-.15-.052 1.14.156 1.15-.26 1.46.052 1.51-1.407.26-1.302.47-1.041.83-.99.94-.104.1-.469-.15-1.094-.58-.52.68.937.73.469.21-.573 1.51-1.354-.89-1.302-.88.677-1.46.937-1.25v-.31l.677.05 1.146.21 1.406-1.3.938-.79.312.11.73.1.781-.83-.729-.37-.313.21-.26-.26-.157-.31.053-.1-.678-1.77-.156-.06-1.146.52-1.25.32-.364.52.052.67.052-.05.26.63.782-.16-.261-1.04 1.198-.47.469 1.56-.208.21-.886.73-.729.94-1.875-.16.052-1.3-.26-1.09-.157-1.15-.052-.31v-.28zm13.594 13.46.052.26-.208 1.4-.834 1.15-1.197.83-1.303.52h-1.406l-1.406-.05-1.354-.21-1.25-.62-1.146-1.1-.417-1.51-.156-1.51-.208-.47.26-.73v-.31l.104-1.41.729-1.24.938-1.1 1.302-.62 1.354-.47 1.406.1 1.407.16 1.25.57 1.302.68.469 1.3.26.16.365 1.4.26 1.51-.573 1.31zm-15.156-8.76-.469.99-.26 1.1-.782.83-.833.78-1.094.21-1.146-.1h-1.041l-1.042.1-.989-.42-1.042-.41-.625-.94-.729-.78-.469-1.36-.469-1.4.573-1.3.313-1.46.989-1.15.886-1.25 1.51-.21 1.458-.46 1.459.41 1.51.31.938 1.2 1.198.94.208 1.15.364 1.09-.052 1.09-.364 1.04zm15.781-10.72-.156-.06v.11l-.573.26-.313.41h-.104l.938.32.052.15.469-.26.156.11.208.1.573.47v-.05l.521.15.885.32-.781.83-.417.99-.52-.21-1.198-.73-1.25-.73-1.25-.93-1.355-.73 1.355-.73 1.302-.84 1.302-.62 1.302-.68.573-.41.312.93.729 1.77 1.303.32 1.302.15h.156l.156-.21.104-.15v-.26l-1.146-.37-.729-.21-.208-.72-.833-1.83.781-.52 1.406 1.25-.052.31 1.302.79 1.458.52 1.511.1.26.26.573-.21.365.05.208 1.31.052 1.4-1.25.21-1.302.11-.26-1.46-.157-.16-.52.16-.417.57-.208.57-.105-.05-.937 1.25v.26l-.938.73-.989.73-1.615-.68.938-1.09.781-1.62-.156-.05-1.198-.36-1.042-.63-.156-.31-.625-.62-.573.52z" style="fill-rule:nonzero" transform="matrix(5.82496 0 0 5.78595 -3694.98 -15967.5)"/></svg>