<svg viewBox="0 0 400 400" xmlns="http://www.w3.org/2000/svg" xml:space="preserve" style="fill-rule:evenodd;clip-rule:evenodd;stroke-linejoin:round;stroke-miterlimit:2"><path d="M657.382 2946.44c.028.01.055.03.1.08 0 0-.042-.03-.1-.08zm-9.39 54.86c-.681.68-.846.31-1.543 1l-1.312.7-.077.07c-.363 0-.671.23-1.08.23l.308-.15c-1.236.15-1.399.16-2.777.62l.077-.16c-.666.23-1.587.81-2.083.31l-.463.16h-.463c-1.389 0-1.229.12-2.547.38l-.694.08-.772.15h-.617l-.617.08-.232-.23c-.942.13-.77.42-1.697.54l.231-.15c-.925.3-2.325-.21-3.24-.39l.077-.15c-.385 0-.773-.16-1.157-.16h-.232c-.663-.44-1.875-1-2.7-1l-.54-.23c-.581-.29-1.311-.62-1.775-1.08l-.231.15-.618-.31c-.091-.09-.217-.14-.308-.23l-.155-.15h-.115c-.083 0-.193-.16-.193-.16h.154c.116-.11-1.68-.25-1.389-.15l-.926-.31c-.348-.12-.725-.22-1.08-.31l-.926-.62c-.577-.57-1.339-.95-1.929-1.54 0 0-.166-.09-.231-.15l-.232-.24c-2.365-2.36-5.071-4.48-7.33-6.94l.309.15-.54-.54c0-.16-.309-.38-.309-.38-.011-.03 0-.08 0-.08-.105-.42-.316-.43-.54-.77l.154.08c-1.091-1.09-2.391-3.89-2.391-4.71 0 0-.078-.1-.078-.15l-.925-2.78.231.38c-.403-.8-.188-1.64-.463-2.46v.77c0-.65-.231-1.29-.231-1.93 0-.15.231.53.231.38v-1.42c0-.23-.617-.93-.617-.81-.792-1.59-.769-3.31-1.312-4.94v-.54c0-.11-.077-.2-.077-.31v-.46c0-1.56 1.157-7.52 1.157-3.09.315-1.26.128-1.18.386-2.47l.232-.15c0-.19.067-.37.139-.55l.029-.07c.072-.18.14-.35.14-.54v-.08l-.077.08c.092-1.1-.041-1.32.154-2.39v.07c.052-.1.078-.2.078-.3v-.54l.077-.16v-.23c.111 0 .077-.09.077-.15l.077-.08-.077.31-.077.46c.404 0 1.311-3.42 1.311-4.17l.078.08c.262-.42.905-1.6 1.311-2.01l-.077.16c.165-.17.155-.27.386-.39l.154-.23c0-.08.077-.23.077-.23l.54-.54c.207-.52.386-1.62.386-1.62.573-1.72 2.238-2.62 3.472-3.86l.232-.46.617-.62c-.225.15 1.08-2.04 1.08-2.08l.463-.47c-.398.5.913-.88 1.389-1.31l.231-.07.232-.23.154-.08c.407-.82 2.089-.63 2.701-1.24l-.463.16c1.063-.36 1.756-1.26 2.777-1.7l.155.23c.34 0 .779-.47 1.08-.62l.154-.07c.157-.16-.058-.23.155-.23l.231-.16-.617.23-.772.54c.33-.26.109-.61.54-.61 0 0 .097-.08.155-.08h.154c0-.05.013-.08.039-.08h.192c.377 0 1.05-.14 1.389-.23l.926-.31c.296 0 .556-.15.849-.15h.694c.082-.08.309-.04.309-.16h-.386c.906 0 2.701-.31 2.701-.31.057 0 .154-.07.154-.07h.463s.018.06 0 .07l-.154.08-.078.08h-.154c.037 0 .077.08.077.08s.097-.08.155-.08c0 0 .947-.88 1.543-1.08l-.309.08c.2-.2.373-.27.617-.39l-.385.23c.483-.24 1.321-.69 1.851-.69l.155.07h.308c-.036 0-.797.04-.077.16.404 0 .298.07.772.23 1.123 0 1.587-.33 2.237 0h1.543c-.918 0 .898.05 1.003.08h-.462c-.186 0 .279.28.462.31.395-.05.188-.24.656-.24h1.389c.698 0 1.486.49 2.122.7 1.466-.37 1.406-.33 3.626.23l-.231.15c.447 0 .77.39 1.157.39l-.463-.31c.796.2 1.75.9 2.469 1.31-1.308-.65.182.39.618.39l.154.15c-.912 0 1.382 1.19 2.083 1.78l.232.23.231.15c.24.12.519.23.772.31l.771.23c.414.17 1.179.35 1.523.43.307.31 1.538 1.25 1.949 1.73.53.62.901 1.36 1.389 2.01l-.386-.23c.071.07.197.17.286.23-.033-.01-.066 0-.131 0l.463.39c.027 0 .694.15 1.311.77l.232.15.231.23.155.24-.155-.08c.187.28.253.33.463.54l.309.46c-.646-.65.995 1.53 1.466 2.31.627 1.05 1.545 3.17 2.777 3.79.282.56 1.158 1.98 1.158 3.85l.231.08-.231.54.077.62c.444.22.33.24.54.62l-.077-.08c0 .24 1.349 2.35.617 1.62l.309.46h-.077c.085.26.231.77.231.77l.309.93-.077-.08.617 2.39-.695 3.48v.15h.078l.154.46c.24 0 .311-.14.617.62.091.45-.1.94 0 1.39l.232.69.154.24-.077.3v.16h-.077c-.059.12-.077.38-.077.38-.393-.39-.277 1.08-.386 1.62l.077-.15c-.134 1.88-.608 1.65-.926 3.4v.84l-.154.16v.31c0 .82-.501 1.46-.695 2.23l-.231.62-.155.62c-.716 1.02-1.287 2.02-1.928 3.09l-1.003 1c-.246.24-.514.47-.77.7.001 0 .003-.01 0-.01h-.002c-.039.04-.043.04-.079.08a.586.586 0 0 0-.075.08c-.986.65-1.489 1.92-1.852 3.01l-.232.38-.231.47c-.303.3-.877.65-1.306.81.024-.01.048-.03.071-.04l-.154.07.083-.03c-2.928 1.96-4.563 3.52-6.796 6.13a.42.42 0 0 1-.193.11l-.192.04c.058 0 .127-.01.192-.04l.193-.03.54-.62.078-.08c.057-.11.231-.31.231-.31.155-.15-.133.42-.231.62l-.386.39c-.052.05-.077.1-.077.15h-.309c-.269.14-.869.31-1.157.31l.077-.08h-.077c-.174.06-1.929.47-1.929.77h-.155v-.07l-.077-.08s-.177.05-.231 0h.077l.077-.08 1.158-.38c-.4 0-1.158.3-1.158.3l-.154.16zm14.276-12.03c-.002.01-.004.02-.006.02-.007.02-.013.04-.028.05-.033.04-.077.05-.119.07.05-.04.101-.09.153-.14zm-.153.14a.607.607 0 0 1-.081.08l.078-.07.003-.01zm-60.109-25.84-.077.08c0-.04.077-.08.077-.08zm52.138-20.87c-.109-.11-.102-.14.098-.04l.077.08s-.067-.02-.175-.04zm-17.109-6.21.078-.08c.154.05.18.08.077.08h-.155zm6.258 57.85c0-.69-.054-1.37-.163-2.04-.108-.67-.181-1.35-.217-2.04v-.49c0-.18-.018-.36-.055-.54a2.64 2.64 0 0 1-.081-.3 2.464 2.464 0 0 0-.082-.3 3.86 3.86 0 0 1-.136-.79 11.11 11.11 0 0 0-.081-.79v-.54c0-.18-.018-.36-.054-.54 0-.08-.009-.13-.028-.17-.018-.03-.063-.03-.135 0a.703.703 0 0 0-.191.14.667.667 0 0 1-.19.13c-.181.08-.344.17-.489.28-.145.1-.29.23-.435.38a2.99 2.99 0 0 1-.734.62c-.272.16-.553.32-.843.46-.253.15-.498.28-.733.41-.236.13-.481.26-.734.41-.363.14-.725.31-1.087.49-.363.18-.707.36-1.033.54-.29.15-.562.3-.816.46-.253.17-.525.34-.815.52-.254.14-.498.3-.734.46-.235.16-.48.34-.734.52a9.045 9.045 0 0 1-1.902 1.08c-.181.11-.372.19-.571.22a4.13 4.13 0 0 0-.625.17c-.326.07-.652.13-.979.19-.326.05-.652.1-.978.13-.181.04-.371.08-.571.11-.199.04-.389.07-.571.11-.072 0-.163.01-.271.03-.109.02-.2.04-.272.08h.217c.145 0 .299.02.462.08.163.05.317.1.462.14.472.1.961.2 1.468.27l1.522.22c.544.07 1.078.14 1.604.21.525.08 1.042.15 1.549.22.58.11 1.16.15 1.739.14.58-.02 1.16-.03 1.74-.03.507 0 1.024.01 1.549.03.526.01 1.042.02 1.549.02a7.78 7.78 0 0 0 1.278-.21c.417-.11.824-.24 1.223-.38.181-.11.389-.19.625-.22.236-.04.353 0 .353.11zm-8.806-39.63c.036.03.055.04.055.03 0-.02.018-.03.054-.03a.682.682 0 0 1 .19-.08.553.553 0 0 1 .19-.03c.254-.07.499-.13.734-.16.236-.04.462-.06.68-.06.398-.07.806-.1 1.223-.08.417.02.824.03 1.223.03h1.196c.036 0 .063-.01.081-.03l.082-.08c.072 0 .118.01.136.03.018.01.027-.03.027-.14.036-.04.054-.11.054-.22s-.018-.18-.054-.21h-2.99c-.29 0-.589-.01-.897-.03a14.68 14.68 0 0 0-.951-.03h-7.42c-.489 0-.987-.03-1.495-.11a1.455 1.455 0 0 0-.244-.08 1.156 1.156 0 0 0-.245-.03h-.163l-.218-.1c-.072-.04-.163-.04-.271 0-.073.03-.1.18-.082.43.018.25.064.42.136.49.036.04.082.04.136.03a.41.41 0 0 1 .136-.03c.072 0 .145.01.217.03.073.01.163.02.272.02.109.04.227.06.353.06h.408c.181 0 .371.01.571.03.199.01.407.02.625.02h.353c.127 0 .263.02.408.06.181.03.353.05.516.05.163 0 .336.02.517.06.217 0 .444.01.679.05.236.04.48.05.734.05.109 0 .236.01.381.03.145.02.271.03.38.03.29.03.571.04.843.03.271-.02.552-.03.842-.03.073 0 .145.01.218.03.072.01.199 0 .38-.03zm6.523 24.84v-3.42c0-.18-.009-.36-.027-.52a4.212 4.212 0 0 1-.027-.46c0-.22-.009-.42-.027-.6a6.068 6.068 0 0 1-.027-.6 2.778 2.778 0 0 1-.028-.68 1.07 1.07 0 0 0-.19-.68c0-.03-.009-.08-.027-.13a.336.336 0 0 0-.082-.14c-.072-.11-.126-.16-.163-.16-.036 0-.09.05-.163.16-.145.22-.299.42-.462.6-.163.18-.335.34-.516.49-.073.11-.145.21-.218.3-.072.09-.145.19-.217.3l-.598.59c-.29.26-.562.53-.815.82-.254.29-.526.58-.816.87-.29.29-.607.53-.951.73-.344.2-.698.39-1.06.57-.399.15-.77.32-1.114.52-.345.2-.698.41-1.06.63-.327.21-.644.42-.952.62-.308.2-.643.37-1.005.52-.182.07-.372.15-.571.24-.199.09-.39.17-.571.25-.145 0-.272.01-.38.05l-.327.11c-.253.11-.489.19-.706.24-.218.06-.453.1-.707.14-.109.04-.217.06-.326.08-.109.02-.217.05-.326.08v.55c0 .32-.009.65-.027.98-.018.32-.046.66-.082 1.03-.072.25-.118.51-.136.79-.018.27-.027.55-.027.84v.65c.036.07.063.14.082.19.018.06.027.12.027.19.036.07.045.16.027.25s.027.15.136.19c.036-.04.063-.06.081-.06h.028c.144-.03.271-.07.38-.11.109-.03.217-.05.326-.05.363-.11.707-.23 1.033-.35.326-.13.652-.29.978-.47.327-.14.644-.29.952-.43.308-.15.625-.31.951-.49.362-.22.725-.44 1.087-.68.363-.24.725-.46 1.087-.68.29-.15.589-.29.897-.44.308-.14.607-.29.897-.43.254-.11.517-.24.788-.38.272-.15.553-.29.843-.44.181-.1.344-.2.489-.29.145-.09.308-.21.489-.36.182-.14.381-.26.598-.35.218-.09.435-.19.653-.3.108-.07.208-.14.299-.22.09-.07.19-.14.299-.21.108-.11.199-.24.271-.38.073-.15.164-.28.272-.39.036-.07.118-.12.245-.16.127-.03.299.13.516.49zm-2.935-33.76 1.033.06c0-.07-.073-.12-.218-.14-.145-.02-.253-.04-.326-.08a2.56 2.56 0 0 1-.625-.08c-.199-.06-.408-.12-.625-.19-.181-.07-.372-.16-.571-.25-.199-.09-.389-.17-.571-.24l-.326-.11a.76.76 0 0 1-.272-.16 1.788 1.788 0 0 1-.271-.22 2.854 2.854 0 0 0-.272-.22 4.073 4.073 0 0 1-.299-.21 5.81 5.81 0 0 1-.299-.28 1.149 1.149 0 0 1-.19-.24 9.461 9.461 0 0 0-.191-.3.677.677 0 0 0-.136-.19.348.348 0 0 0-.244-.08h-.734c-.272 0-.516.03-.734.11a.389.389 0 0 0-.19.05c-.054.04-.1.07-.136.11-.073.04-.154.08-.245.14-.09.05-.19.1-.299.13-.108.07-.226.13-.353.17-.127.03-.263.07-.408.1-.145.08-.299.14-.462.19-.163.06-.335.1-.516.14-.145.07-.299.13-.462.16a6.78 6.78 0 0 1-.517.11.554.554 0 0 1-.271.06.56.56 0 0 0-.272.05l-.435.22a2.17 2.17 0 0 0-.299.11c-.091.03-.19.07-.299.11a1.47 1.47 0 0 0-.408.16c-.126.07-.262.14-.407.22l-.272.13a.437.437 0 0 0-.218.25h.761c.109 0 .236.01.381.05.217 0 .435.01.652.03.218.02.453.02.707.02h2.609c.326 0 .652.02.979.06.326.04.652.05.978.05h5.273zm-1.794 7.23c.471-.07.797-.19.978-.35a.735.735 0 0 0 .272-.57c-.036 0-.054-.02-.054-.05 0-.04-.018-.08-.054-.11v-2.99c0-.33.009-.67.027-1.01.018-.34.009-.68-.027-1.01v-.21a.81.81 0 0 0-.055-.27c-.036-.04-.045-.07-.027-.08.018-.02-.027-.03-.136-.03h-.244a.349.349 0 0 1-.245-.11.736.736 0 0 1-.109-.16.35.35 0 0 0-.163-.17c-.036.07-.036.14 0 .19.036.06.054.12.054.19.037.08.046.15.028.22s-.028.16-.028.27c.037.08.064.15.082.22.018.07.009.16-.027.27l-.218 1.52c-.072.19-.136.38-.19.6-.054.22-.1.42-.136.6-.072.25-.099.49-.081.71.018.21.045.45.081.7 0 .22.009.43.027.63.019.2.064.41.136.62 0 .08.009.15.027.22.019.07.046.13.082.16zm-6.052-.22c-.062 0-.101-.05-.118-.13a.392.392 0 0 0-.081-.19 4.177 4.177 0 0 1-.163-.65c-.037-.22-.073-.45-.109-.71-.036-.25-.063-.51-.082-.79-.018-.27-.027-.55-.027-.84.036-.22.082-.43.136-.62.055-.2.1-.43.136-.68.036-.29.045-.61.027-.96a1.15 1.15 0 0 0-.407-.84.531.531 0 0 0-.191-.05h-.19a.263.263 0 0 0-.163-.08.817.817 0 0 0-.217-.03c-.037 0-.1-.03-.191-.08-.09-.06-.154-.08-.19-.08-.072 0-.118.03-.136.1a.832.832 0 0 0-.027.17 8.39 8.39 0 0 0-.082.62c-.018.2-.027.39-.027.57v4.52c0 .1-.009.21-.027.32a.689.689 0 0 0 .027.33c0 .07.009.11.027.11h.136c.181 0 .39-.01.625-.03.234-.02.672-.01 1.314.02zm0 0c.006.01.012.01.018.01-.006 0-.012-.01-.018-.01zm7.683 5.06v-.81c0-.08.009-.17.027-.28.018-.1.027-.19.027-.27 0-.11.027-.21.082-.3a.48.48 0 0 0 .081-.24c0-.07-.018-.19-.054-.35-.036-.17-.091-.25-.163-.25a.317.317 0 0 0-.136.05c-.054.04-.1.08-.136.11-.072.04-.154.08-.245.11-.09.04-.172.07-.244.11l-.326.11a.944.944 0 0 1-.327.06c-.144.03-.28.06-.407.08-.127.01-.263.02-.408.02-.145.04-.29.06-.435.06-.145 0-.308.02-.489.05-.145 0-.299.03-.462.08-.163.06-.335.08-.516.08-.327.04-.653.1-.979.17a8.3 8.3 0 0 1-.978.16c-.254.07-.508.12-.761.14-.254.01-.508.04-.761.08-.218.04-.435.06-.653.08-.217.02-.435.03-.652.03a4.08 4.08 0 0 1-.381-.03c-.181-.02-.289-.01-.326.03-.036.03-.054.11-.054.22v1.52c0 .4.009.79.027 1.19.018.4-.009.8-.081 1.2v.32c.253-.07.489-.14.706-.21.218-.07.435-.17.653-.27.289-.15.57-.29.842-.44.272-.14.553-.27.843-.38.253-.11.498-.22.734-.33.235-.1.48-.21.733-.32.399-.18.816-.36 1.251-.55.434-.18.851-.38 1.25-.59.29-.15.625-.26 1.005-.33.381-.07.952-.11 1.713-.11zm1.847 9.12c.044.02.099.03.164.01-.056 0-.111 0-.164-.01zm0 0c-.079-.03-.123-.12-.135-.26a6.287 6.287 0 0 1-.027-.49 5.62 5.62 0 0 1-.082-.57 6.37 6.37 0 0 1-.027-.57c0-.22-.009-.43-.027-.62-.018-.2-.045-.41-.082-.63a3.704 3.704 0 0 1-.081-.41 2.775 2.775 0 0 1-.027-.4c0-.15-.018-.29-.055-.41a8.183 8.183 0 0 0-.108-.36c0-.1-.018-.23-.055-.38a1.562 1.562 0 0 1-.054-.38.289.289 0 0 1-.027-.21c.018-.08-.009-.13-.082-.17a.682.682 0 0 1-.19.08c-.054.02-.118.05-.19.09-.109.07-.2.14-.272.21l-.217.22c-.073.04-.155.09-.245.16-.091.08-.172.15-.245.22-.145.11-.29.21-.435.3-.145.09-.289.19-.434.3-.218.14-.435.26-.653.35-.217.09-.435.21-.652.36-.254.14-.507.3-.761.48l-.761.55c-.29.14-.571.28-.843.41-.271.12-.534.26-.788.4-.29.18-.589.33-.897.44-.308.11-.607.24-.897.38-.29.15-.58.28-.869.41-.29.12-.598.22-.925.3-.108.03-.226.07-.353.11a1.14 1.14 0 0 0-.353.16.818.818 0 0 0-.218.03c-.072.01-.126.06-.163.13-.036.04-.054.11-.054.22v.27c0 .22-.009.44-.027.65a8.09 8.09 0 0 0-.027.66v1.52c0 .14-.019.27-.055.38-.036.11-.054.23-.054.38.036.18.054.38.054.6v.59c-.036.11-.072.23-.109.36-.036.12-.036.22 0 .3h.218c.109-.04.226-.08.353-.11.127-.04.245-.08.354-.11.253-.07.516-.17.788-.3.272-.13.534-.24.788-.35.362-.18.707-.38 1.033-.6.326-.22.652-.42.978-.6.326-.18.643-.37.952-.57.308-.2.625-.39.951-.57.253-.18.516-.34.788-.46.272-.13.535-.27.788-.41.145-.11.308-.21.489-.3.182-.09.363-.19.544-.3.073-.03.145-.08.217-.13.073-.06.145-.12.218-.19l.435-.22c.145-.07.29-.16.435-.27.072-.08.163-.15.271-.22l.327-.22c.145-.07.344-.13.598-.19.225-.05.551-.06.977-.04z" style="fill-rule:nonzero" transform="matrix(5.82496 0 0 5.78595 -3494.98 -16987.2)"/></svg>