<svg viewBox="0 0 400 400" xmlns="http://www.w3.org/2000/svg" xml:space="preserve" style="fill-rule:evenodd;clip-rule:evenodd;stroke-linejoin:round;stroke-miterlimit:2"><path d="M502.912 578.976a26.887 26.887 0 0 1 2.442-.61c.814-.163 1.953-3.215.976-3.296h-1.953a70.595 70.595 0 0 1-1.587-.244l-1.464-.244a111.325 111.325 0 0 0-3.663-.427c-1.22-.123-2.482-.224-3.784-.306a31.165 31.165 0 0 0-2.807-.122c-.977 0-1.872-.162-2.686-.488h-.061c-.041 0-.061-.041-.061-.122a43.118 43.118 0 0 1-4.578-.732 79.567 79.567 0 0 1-4.455-1.099c-.082 0-.122-.02-.122-.061 0-.041-.041-.061-.122-.061h-.244a.995.995 0 0 1-.306-.061 1.34 1.34 0 0 0-.427-.061h-.61c-1.302-.163-.651 6.998.732 7.568 4.069 1.139 20.467 1.18 24.536.366h.244zm-10.864-30.273v-.122l.366-.366v-.122a.767.767 0 0 0 .183-.367c.041-.162.021-.244-.061-.244-.081 0-.122-.02-.122-.061v-.061h-.122c.57-.407.814-2.075.733-5.005-.082-2.929-.122-4.76-.122-5.493v-5.066a99.48 99.48 0 0 0-.122-4.944 50.038 50.038 0 0 0 6.103-1.892 374.564 374.564 0 0 0 6.104-2.38 86.848 86.848 0 0 0-2.015 5.737 92.084 92.084 0 0 0-1.647 5.982 205.64 205.64 0 0 1-1.343 5.31 44.129 44.129 0 0 0-1.099 5.432 36.743 36.743 0 0 1-3.418 1.953l-3.418 1.709zm-1.587-10.254c0 .732-.101 2.136-.305 4.211-.203 2.076-.183 3.764.061 5.066a11.098 11.098 0 0 0-2.075-.549 11.098 11.098 0 0 1-2.075-.549 19.382 19.382 0 0 1-1.831-.55 29.17 29.17 0 0 1-1.709-.671 157.34 157.34 0 0 0-1.343-6.287c-.488-2.075-.977-4.17-1.465-6.286a144.09 144.09 0 0 0-1.099-4.578 40.052 40.052 0 0 0-1.464-4.578c.162 0 .325.021.488.062.163.04.325.101.488.183a254.229 254.229 0 0 0 11.963 3.173c.163.163.326.224.488.184.163-.041.326-.102.489-.184h.122a65.652 65.652 0 0 0-.489 5.677c-.081 1.912-.162 3.804-.244 5.676zm-3.784-41.138.244-.488c.082-.163.204-.325.366-.488.082-.163.224-.305.428-.428.203-.122.427-.183.671-.183a.55.55 0 0 1 .244.061l.122.061v.306c0 .122-.04.223-.122.305 0 .081-.061.224-.183.427-.122.204-.102.387.061.549.082.082.183.163.305.245a.41.41 0 0 1 .183.366v.244c0 .081-.04.163-.122.244h-.488c-.163 0-.366-.041-.61-.122-.082 0-.143-.02-.183-.061-.041-.041-.061-.143-.061-.305h-.367c-.162 0-.284-.082-.366-.244a1.091 1.091 0 0 1-.122-.489zm8.667 69.336c.081 0 .61-4.109.122-4.028v-.427c0-.122.041-.265.122-.428v-.244c0-.081.041-.162.122-.244v-.244c.326-.244.631-.488.916-.732.285-.245.508-.57.671-.977.488-.732.529-1.404.122-2.014a6.745 6.745 0 0 0-1.587-1.648c.244-.163.448-.346.611-.549.162-.204.325-.428.488-.672.977-1.139 1.465-2.055 1.465-2.746 0-.692-.407-1.526-1.221-2.503.082-.081.122-.142.122-.183 0-.041.041-.061.122-.061a30.362 30.362 0 0 1 1.587-.732 6.432 6.432 0 0 0 1.587-.977l.549-.671c.367-.448.346-.712-.061-.794v-.488a68.805 68.805 0 0 0 1.465-6.043c.407-2.075.855-4.13 1.343-6.164.407-1.872.814-3.723 1.221-5.554.407-1.831.773-3.642 1.098-5.432a21.788 21.788 0 0 1 2.93-1.221c.081 0 .183-.041.305-.122.122-.082.224-.163.305-.244.407-.244.875-.57 1.404-.977.529-.407.631-.732.305-.976 0-.163-.02-.265-.061-.306-.04-.04-.142-.061-.305-.061a333.09 333.09 0 0 0-4.15-3.601 325.021 325.021 0 0 1-4.151-3.601 135.42 135.42 0 0 0-3.357-2.746 11.994 11.994 0 0 1-2.868-3.235 7.558 7.558 0 0 0 1.037-.733c.285-.244.509-.488.672-.732-.407-.733-1.14-1.282-2.198-1.648-1.057-.366-2.075-.59-3.051-.671v-.123c.325-.244.671-.671 1.037-1.281.367-.611.55-1.16.55-1.648v-.611c0-.162-.041-.366-.122-.61.081-.244.061-.509-.061-.793-.123-.285-.387-.55-.794-.794a.972.972 0 0 0-.244-.183.846.846 0 0 0-.366-.061 2.033 2.033 0 0 0-.305-.244 4.076 4.076 0 0 0-.428-.244 10.658 10.658 0 0 0-1.587-.55c-.488-.122-1.017-.061-1.587.184a6.037 6.037 0 0 0-1.22.671 7.397 7.397 0 0 0-.977.793c-.163.082-.325.224-.488.428a3.136 3.136 0 0 0-.366.549v.244c0 .081-.041.163-.122.244a2.48 2.48 0 0 0-.122.794c0 .285.04.59.122.915v.122a1.205 1.205 0 0 0-.122.55c0 .203.04.427.122.671v.061c0 .041.04.102.122.183l.244.244h.122l.183.366a.975.975 0 0 0 .183.245h-.366c-.57.162-1.139.366-1.709.61a9.844 9.844 0 0 0-1.587.854l-.122.123a4.897 4.897 0 0 0-.183.732 5.22 5.22 0 0 0-.061.854c.081.326.244.59.488.794.244.203.57.346.977.427.244.082.488.143.732.183.244.041.488.102.733.183a2.168 2.168 0 0 0-.184.55c-.04.203-.101.386-.183.549-.325.244-.61.549-.854.916-.244.366-.285.59-.122.671l.122.122h.122c-.081.407-.143.834-.183 1.282-.041.447-.143.793-.305 1.037-.163.082-.285.244-.367.489-.081.244 0 .447.245.61a.54.54 0 0 1 .244.061.99.99 0 0 1 .244.183v.061c0 .041-.041.061-.122.061-.163.326-.448.753-.855 1.282s-.61.997-.61 1.404c.081.244.163.427.244.549.081.122.203.265.366.427a1.221 1.221 0 0 0-.427.366.992.992 0 0 0-.183.611c0 .081.02.163.061.244a.537.537 0 0 1 .061.244v.122a.754.754 0 0 1-.122.427 4.076 4.076 0 0 0-.244.428l-.733-.244a4.742 4.742 0 0 1-.61-.245c-.407-.081-.875.082-1.404.489-.529.407-.875.813-1.037 1.22a38.523 38.523 0 0 0-3.296-.793 16.727 16.727 0 0 0-3.174-.305 64.125 64.125 0 0 0 5.31-3.784 47.107 47.107 0 0 0 4.944-4.517h-.122a4.423 4.423 0 0 0-.855.549c-.244.204-.529.428-.854.672l-.244.122a51.374 51.374 0 0 1-4.639 3.662l-2.564 1.709c-.976.651-1.912 1.017-2.807 1.098a2.674 2.674 0 0 0-.611.55 3.253 3.253 0 0 0-.366.549 1.211 1.211 0 0 0-.427.366.814.814 0 0 0-.183.489v.183c0 .04.041.061.122.061.244.569.936 1.058 2.075 1.465 1.139.406 2.279.732 3.418.976a45.373 45.373 0 0 0 1.16 6.226 339.954 339.954 0 0 1 1.526 6.103c.488 2.198.976 4.415 1.465 6.653.488 2.238.935 4.496 1.342 6.775.082.244.285.325.611.244.325-.081.651-.244.976-.488.163.081.305.163.427.244.123.081.265.163.428.244.162.081.305.143.427.183.122.041.264.061.427.061a8.221 8.221 0 0 1-.305.55 7.978 7.978 0 0 0-.305.549 65.61 65.61 0 0 0-.244 1.282c-.082.447-.041.834.122 1.159.081.57.366 1.14.854 1.709.489.57.936 1.099 1.343 1.587a4.002 4.002 0 0 0-.916 1.404c-.203.529-.183 1.078.062 1.648.162.407.427.732.793.977.366.244.753.406 1.16.488a56.245 56.245 0 0 1-.428 4.577 34.232 34.232 0 0 0-.305 4.578v.061c0 .041-.04.102-.122.183.082 0 .143.021.183.061l.061.061v.122c.082 0 .183.021.305.061a.775.775 0 0 1 .306.183c.081 0 .203.041.366.123.163.081.285.122.366.122.895.244 1.79.468 2.686.671.895.203 1.79.305 2.685.305.407.244.895.366 1.465.366h4.211c.936 0 1.852-.04 2.747-.122h1.16c.366 0 .712-.081 1.037-.244.163 0 .346-.102.55-.305.203-.203.345-.387.427-.549 0-.163-.061-.367-.183-.611a2.343 2.343 0 0 0-.427-.61 1.908 1.908 0 0 0-.367-.488l-.488-.489h-.366a.99.99 0 0 0-.244-.183c-.082-.04-.712-.346-.916-.427a7.394 7.394 0 0 1-.549-.244c-.244 0-.468-.02-.672-.061a3.4 3.4 0 0 0-.671-.061 11.804 11.804 0 0 0-1.282-.183 2.726 2.726 0 0 0-1.281.183l-.061.061c-.041.041-.062.102-.062.183.407 0 .814.081 1.221.244l1.221.488v.306a.416.416 0 0 1-.122.305h-3.052v-.977c0-.081-.041-.163-.122-.244.081-.163.122-.285.122-.366v-1.099z" style="fill-rule:nonzero" transform="translate(-743.878 -798.28) scale(2.01046)"/><path d="M0-99.471c-2.741-.87-4.518-2.147-7.385-2.884-6.763-1.739-10.32-3.073-18.35-2.772-16.561.62-21.955 10.581-25.291 27.056-2.228 11.004-2.308 26.27-1 37.16 1.729 14.381 5.134 29.447 13.751 39.44 8.617 9.994 16.756 14.151 28.092 17.837 12.884 4.189 24.835 3.796 37.901 2.444 6.026-.623 11.815-1.974 17.619-3.409 5.804-1.434 11.344-3.502 16.924-5.578C73.668 5.58 84.365.058 95.054-5.723c1.651-.892 3.193-1.94 4.828-2.881.672-.387 1.402-.7 2.175-.861-1.734 1.64-3.371 3.373-5.133 4.991C90.552 1.38 84.142 7.061 76.839 11.761c-9.098 5.856-18.555 10.657-28.753 14.33-6.021 2.169-12.073 3.784-18.452 4.808-6.379 1.024-12.957 1.34-19.488 1.229-4.937-.083-9.6-.558-14.517-1.752-9.744-2.366-17.644-4.439-26.857-9.875-15.17-8.952-25.689-18.46-33.864-35.494-4.345-9.052-8.213-21.212-10.227-31.947-1.469-7.829-2.158-16.805-1.881-24.95.489-14.377 3.666-28.999 10.844-40.929 4.732-7.866 9.294-12.408 16.77-16 5.577-2.68 9.831-2.891 15.782-2.326 8.979.853 15.329 4.745 21.899 10.904 4.381 4.107 7.201 9.209 9.735 14.592.893 1.898 1.52 4.032 2.423 5.937-.086.086-.207.172-.253.241" style="fill-rule:nonzero" transform="matrix(1.82142 0 0 1.82142 190.756 319.711)"/><path d="M0 184.568c-12.076-5.689-23.169-10.759-33.718-19.395-8.175-6.692-14.884-12.89-20.464-23.117-4.592-8.416-8.378-19.711-10.257-30.222-1.175-6.569-2.021-15.583-2.269-22.499-.408-11.359 1.323-24.175 4.043-34.473 3.596-13.612 9.081-24.776 17.135-34.778 6.243-7.753 12.76-11.468 21.069-15.123C-16.153 1.305-7.757 0 1.183.54c10.457.632 19.561 4.031 28.169 10.019 9.121 6.344 15.459 14.437 19.994 24.64 2.357 5.306 2.852 10.939 1.308 16.61-.851 3.122-3.017 5.51-5.65 7.364-3.427 2.411-7.304 3.602-11.437 4.136-3.289.426-6.595.234-9.889.405-.154-.208-.316-.395-.465-.591.348-.219.858-.347 1.151-.652 2.737-2.856 5.875-5.586 7.533-9.237 3.585-7.893 3.072-14.908-1.742-22.062-3.692-5.487-8.925-8.49-14.57-11.589-1.378-.757-2.563-1.477-4.207-1.873-10.364-2.497-16.633-4.868-28.276-1.691-20.86 5.692-28.726 15.834-36.015 37.206-2.938 8.615-4.765 19.186-4.848 28.779-.096 11.155 1.718 26.329 4.302 36.319 4.667 18.045 12.259 30.752 23.894 43.107 8.805 9.349 16.746 14.171 26.53 21.257 1.032.747 1.973 1.092 3.035 1.881" style="fill-rule:nonzero" transform="matrix(1.82142 0 0 1.82142 144.941 41.19)"/><path d="M0 114.776c-8.107.21-15.823 1.09-23.931-.533-12.235-2.449-22.049-4.161-32.783-12.681-11.138-8.839-17.955-19.891-21.896-35.034-1.719-6.602-3.133-16.729-2.954-24.078.342-14.031 2.827-27.711 12.63-37.481C-64.656.706-60.544.817-55.572-.077c5.63-1.013 10.468.155 15.975.999.329.05 1.025.587 1.324.822-.351.358-.754.289-1.045.744-4.116 6.427-7.499 11.145-9.935 18.978-4.137 13.306-5.237 30.946-3.106 44.238 1.763 10.989 6.243 18.336 12.145 25.286 9.546 11.242 19.005 15.454 31.553 20.965 2.565 1.126 4.759 1.328 7.35 2.266.363.132.912.312 1.311.555" style="fill-rule:nonzero" transform="matrix(1.82142 0 0 1.82142 249.819 138.595)"/><path d="M0-88.012c.086-.029.385-.082.568-.052 11.249 1.83 21.786 4.851 31.36 11.205 9.056 6.01 16.339 13.379 21.292 23.031 4.952 9.653 6.424 19.255 4.097 29.846-1.92 8.738-6.736 15.262-14.382 19.923-4.887 2.979-10.181 4.141-16 3.03-7.052-1.346-11.136-6.48-12.763-13.316-.549-2.305-.32-2.448 1.93-3.216 4.575-1.562 9.677-3.075 13.609-6.295 5.569-4.561 8.599-10.15 8.495-17.433-.104-7.282-2.237-13.751-6.195-19.857-7.466-11.518-17.13-19.136-29.195-25.469-.885-.465-1.863-.7-2.75-1.115-.043-.02-.153-.253-.066-.282" style="fill-rule:nonzero" transform="matrix(1.82142 0 0 1.82142 200.971 186.6)"/><path d="M0 70.844c.016-.062.4-.154.543-.29 5.695-5.41 7.782-11.786 6.046-19.432-2.467-10.867-8.126-18.908-16.1-26.288-7.047-6.523-14.831-10.779-23.908-13.596-5.722-1.777-11.591-2.223-17.577-1.95-8.488.387-16.257 2.911-24.029 6.206-.18.076-.415.176-.554.167-.14-.01-.102-.192-.215-.241 2.013-1.618 3.85-3.432 5.956-4.928 3.684-2.618 7.45-5.052 11.685-6.722 6.084-2.399 12.295-4.039 18.877-4.109 8.23-.087 16.014 1.312 23.627 4.46C-7.058 7.673.366 12.452 6.93 19.102c6.009 6.089 10.508 12.911 13.227 21.102 1.312 3.956 1.725 8.119.991 12.291-.806 4.579-3.003 8.249-6.405 11.541s-7.917 5.005-12.355 6.571c-.686.243-1.462.476-2.091.627-.151.036-.313-.328-.297-.39" style="fill-rule:nonzero" transform="matrix(1.82142 0 0 1.82142 228.79 22.332)"/><path d="M0-74.047c1.439.313 2.935.328 4.36.779 14.036 4.449 23.838 11.883 31.452 24.508 3.013 4.996 4.996 10.12 6.103 15.833 1.524 7.873 1.599 15.278-1.741 22.771-2.229 5.003-5.991 8.151-11.412 9.328-3.814.828-7.635-.301-11.334-1.264-.149-.039-.31-.221-.394-.292-.084-.07-.164-.193-.125-.153 1.553-2.268 3.596-4.324 4.934-6.732 2.833-5.098 4.55-10.321 4.679-16.195.315-14.392-3.951-25.582-13.189-36.531-3.931-4.659-8.405-8.331-13.411-11.707.011-.097.052-.223.078-.345" style="fill-rule:nonzero" transform="matrix(1.82142 0 0 1.82142 261.618 178.655)"/></svg>