<svg viewBox="0 0 400 400" xmlns="http://www.w3.org/2000/svg" xml:space="preserve" style="fill-rule:evenodd;clip-rule:evenodd;stroke-linejoin:round;stroke-miterlimit:2"><path d="M0-218.665c4.571-1.903 10.954-4.605 14.813-6.211 6.933 9.866 12.484 14.655 20.532 11.741 8.097-2.931 11.072-9.219 9.899-23.487 3.717-1.744 5.054-2.742 9.196-4.685-10.598-6.345-22.018-9.236-32.14-4.394-9.366 4.48-18.102 15.071-22.3 27.036m-56.611-.194c-5.223-12.501-15.179-19.686-23.832-24.004-10.347-5.164-22.439-6.353-32.752.085 4.112 1.865 7.702 4.457 11.432 6.149-2.344 11.673 1.768 16.501 9.184 20.331 7.433 3.838 14.11 4.512 23.195-5.749 3.727 1.501 8.098 1.306 12.773 3.188m46.7 53.326c-2.105 8.289-3.23 17.63-5.484 24.894-3.153 10.16-9.629 19.334-12.519 29.561-3.403 12.039-5.56 24.86-4.202 37.464.236 2.194 3.615 3.561 5.325 4.751 5.453 3.79 5.144 10.758 2.164 16.06-2.71 4.82-7.248 7.091-13.288 3.647-9.948-5.674-15.648-14.957-16.237-25.817-.981-18.068 6.359-34.95 12.194-51.909 2.606-7.573 4.711-15.111 7.541-22.606-8.063 16.087-18.746 30.442-30.894 43.332-6.732 7.144-14.197 13.544-20.464 21.102-7.427 8.954-11.383 17.961-13.95 27.365-2.743 10.045-5.353 20.158-3.241 30.945 1.859 9.492 7.35 18.654 12.449 28.894 4.312 8.658 10.747 15.343 19.39 17.836 8.495 2.451 19.212 3.454 27.81-.637 10.522-5.007 10.318-5.648 17.166 3.881 1.364-1.531 3.362-4.216 4.194-5.903 3.802-7.713 9.881-14.641 12.365-22.785 3.555-11.658 6.871-23.566 7.991-35.529 1.12-11.954-1.504-24.172-2.121-36.29-.486-9.553 1.893-19.264 1.361-28.815-.532-9.552-3.756-18.941-4.506-28.476-.764-9.703-1.516-20.839-3.044-30.965m-16.992-62.028c4.103-9.853 7.021-20.173 13.34-27.702 6.499-7.742 15.75-12.552 24.351-18.313 7.844-5.254 15.733-9.464 24.353-12.427 8.595-2.955 17.29-7.264 26.906-6.964 11.74.366 19.63 7.541 25.642 14.596 6.102 7.16 10.298 15.888 8.069 27.496-1.743 9.084-4.905 18.497-8.991 26.984-2.277 4.731-9.188 6.905-12.249 11.261-4.906 6.981-4.904 15.371-2.917 23.929 2.906 12.513 7.335 24.509 10.992 36.754 3.676 12.307 6.485 24.731 11.508 36.515 4.996 11.723 11.379 22.6 18.29 33.554 4.87 7.72 8.246 16.497 13.903 23.721 5.64 7.2 13.057 13.044 18.638 20.274 8.942 11.583 13.598 24.919 14.948 39.75 1.318 14.478-4.325 27.137-12.426 38.398-8.1 11.26-18.486 19.629-32.773 22.768-6.549 1.439-13.253 3.865-19.988 3.554-6.343-.294-9.139-5.801-8.765-11.341.416-6.167 3.969-8.062 10.611-7.962 10.899.163 19.905-5.203 27.173-10.496 7.599-5.536 15.353-12.776 17.502-23.24 2.24-10.907-3.102-21.213-9.304-30.008-7.761-11.006-17.598-20.427-25.914-31.041-9.364-11.95-13.865-26.791-20.56-40.098-6.698-13.312-14.104-26.29-18.499-40.777-5.115-16.865-8.904-34.138-14.075-50.985-1.861-6.062-7.155-8.552-12.96-5.929-9.106 4.113-10.992 6.468-9.17 16.235 3.202 17.168 9.905 33.738 12.346 51.014 1.686 11.94 2.07 24.032 3.159 36.018 1.09 12.003 2.879 23.974 3.162 36.018.283 12.023-2.706 23.947-3.434 36.007-.909 15.059-.779 30.239-3.758 45.001-2.578 12.773-8.911 23.995-20.166 31.567-13.638 9.175-32.514 7.192-41.662-4.837-3.538-4.652-1.236-9.596 2.769-13.461 3.871-3.736 9.197-5.681 13.648-1.726 6.133 5.451 9.704 5.736 15.742-.033 7.215-6.893 10.689-15.616 11.608-25.072 1.703-17.535 4.499-35.195 4.077-52.767-.319-13.299-1.324-26.614-2.129-39.909-.806-13.3-1.036-26.69-2.512-39.911-1.134-10.151-5.02-19.914-7.073-29.963-2.049-10.023-1.945-20.489-3.889-30.523-.262-1.353-3.034-1.824-3.478-3.141-.486.08-.203-.363-.688-.282.25 1.902-1.837 4.104-1.581 6.005 1.311 9.72 3.647 19.325 5.04 29.037 1.395 9.721 2.778 19.348 3.55 29.118 1.084 13.701 5.313 27.346 5.21 41.076-.102 13.718-4.163 27.306-5.734 40.987-1.229 10.708-1.461 21.556-4.684 31.604-3.208 10.002-7.7 19.892-14.545 28.592-2.356 2.994-4.665 6.444-7.501 8.994-8.9 8.005-14.829 4.246-20.631-5.429-7.386 1.718-15.457 6.843-22.769 7.374-11.497.835-22.028-1.712-31.052-6.139-9.067-4.449-17.283-11.322-22.981-21.564-6.603-11.867-8.942-24.942-11.416-37.742-2.463-12.742-6.066-25.89-3.121-39.435 2.011-9.245 7.914-16.862 12.906-24.472 4.983-7.593 10.365-15.077 16.425-22.015 10.837-12.408 22.331-24.303 32.451-37.285 4.195-5.381 6.646-12.304 9.515-18.649 1.705-3.769 1.265-7.553-3.084-9.856-3.675-1.947-8.226.223-10.61 3.98-3.746 5.904-7.536 11.757-11.159 17.738-6.86 11.323-14.261 22.417-22.587 32.576-8.332 10.166-16.658 20.472-25.392 30.326-6.672 7.526-16.483 12.589-21.921 20.908-5.422 8.296-9.226 17.943-12.228 27.724-3.27 10.651-2.279 21.079-.701 30.98 1.578 9.906 3.978 20.058 10.393 29.16 1.54 2.183 4.229 4.325 6.625 5.568 5.27 2.734 9.813 7.515 8.172 12.742-1.709 5.446-9.682 10.407-15.295 8.01-5.308-2.266-9.163-8.105-12.531-12.561-6.876-9.097-12.472-17.759-15.579-27.374-3.311-10.25-5.791-20.662-4.958-31.429.781-10.099 4.346-20.249 8.651-30.739 4.042-9.846 7.164-20.324 13.169-28.875 6.011-8.559 15.61-14.446 22.599-22.327 8.519-9.605 14.887-21.013 22.909-30.996 8.014-9.975 15.021-20.334 21.383-31.588.573-1.013 2.598-1.195 3.139-2.225 1.976-3.76 2.081-7.868-1.581-9.888-3.883-2.142-7.734.687-9.627 4.102-2.742 4.944-4.348 10.53-7.165 15.427-5.148 8.946-13.03 15.049-20.354 21.626-7.322 6.575-14.218 13.828-23.443 18.325-10.134 4.939-20.732 9.107-29.696 15.624-8.951 6.507-16.702 14.77-23.925 23.575-6.412 7.817-10.641 16.895-15.277 25.619-4.637 8.728-7.955 17.494-9.288 27.74-.867 6.664.688 13.273 2.435 19.881 1.947 7.364 5.67 13.517 13.012 15.748 6.729 2.045 11.457 5.746 9.601 11.976-1.822 6.117-8.576 6.81-15.079 4.842-18.6-5.629-29.257-17.237-32.67-35.653-3.065-16.537.977-32.401 8.003-47.22 5.629-11.869 13.786-21.649 21.461-31.519 7.881-10.134 16.728-18.704 26.821-26.624 9.822-7.708 18.533-18.008 30.501-23.518 16.233-7.473 31.838-14.822 40.637-30.662 6.741-12.134 5.599-25.9-3.584-36.256-8.943-10.085-15.286-20.704-18.972-33.834-4.106-14.627-4.559-27.809 2.892-36.553 7.468-8.764 20.972-13.912 36.103-11.917 12.105 1.596 22.032 8.008 31.9 12.791 10.425 5.054 21.637 8.974 29.673 17.372 7.608 7.95 11.59 19.194 17.153 29.951.607 1.173 3.972 2.57 5.035 4.74" style="fill-rule:nonzero" transform="matrix(.5986 0 0 .5986 220.86 319.528)"/><path d="M0 191.942c8.147-11.259 18.144-20.342 24.919-30.947 4.288-6.712 9.682-6.833 17.391-7.899 11.081-1.531 20.673-7.947 30.531-11.353 10.4-3.593 20.428-6.948 29.349-12.779 8.928-5.836 17.146-12.617 24.47-20.85 6.875-7.728 11.506-17.292 16.865-27.266 1.416-2.635 2.992-5.066 4.209-7.802 2.883-6.479 3.44-13.344-2.176-16.098-5.56-2.727-13.171.895-16.115 7.357-5.93 13.017-11.377 26.526-21.722 36.493-8.625 8.31-19.707 12.808-30.009 17.661-10.323 4.862-20.701 10.983-32.333 13.15-.615.115-2.074-2.224-3.434-2.224 2.972-17.324 2.501-32.583-4.659-44.384C30.169 73.269 15.973 65.363.905 57.784c9.324-5.763 17.454-13.694 26.197-18.762 12.725-7.375 26.502-13.047 39.895-18.84 13.387-5.791 27.891-8.023 42.462-10.829 9.403-1.81 18.812-4.178 28.425-4.624 7.298-.338 11.464-3.481 11.557-9.68.094-6.262-3.671-10.923-11.073-11.226-13.618-.557-26.919 1.021-39.757 4.068C85.747-9.056 74.09-2.194 61.698 3.006 50.609 7.66 38.204 9.489 27.686 15.209c-10.52 5.72-18.803 15.23-28.887 21.758-.805.521-2.603-.82-4.718.354 1.26-5.242 3.549-8.791 4.827-12.763 3.715-11.55 8.524-21.78 15.165-31.423 6.66-9.671 13.605-19.116 21.964-27.632C48.299-46.989 61.419-58.308 76.75-67.056c9.689-5.528 18.948-11.94 29.056-13.107 10.057-1.161 19.894 3.404 30.36 8.605 10.554 5.245 20.782 10.008 26.787 18.562 5.989 8.532 6.889 19.721 8.033 31.537 1.035 10.697 3.035 21.416 7.186 30.581 4.138 9.135 13.193 15.114 21.491 22.319 1.358 1.179 2.388 5.618 2.287 7.661-.379 7.618-2.561 15.168-3.345 22.757-.129 1.247-.864 3.653-1.87 4.216-12.782 7.157-19.404 18.185-22.933 31.272-3.347 12.411-2.657 25.28 2.368 39.088 2.319 6.372 2.719 13.673 5.995 19.635 1.666 3.032 2.804 4.673 1.323 8.021-4.062 9.181-7.747 18.533-12.813 27.114-5.071 8.586-9.617 17.705-15.524 25.8-1.153 1.578-4.891.809-6.531 1.821-10.42 6.43-17.931 16.35-26.655 24.58-8.73 8.235-17.835 16.038-25.041 25.902-.641.877-3.363 2.527-4.615 3.958-1.114-5.909 1.673-12.505.456-17.619-2.332-9.793-5.965-19.397-10.61-27.857-4.623-8.421-11.472-15.953-19.684-22.274-14.847-11.428-32.425-15.301-50.797-14.397-2.795.138-7.517.453-11.674.823" style="fill-rule:nonzero" transform="matrix(.5986 0 0 .5986 14.703 98.299)"/><path d="M0 184.712c-10.689 0-22.286-3.254-31.323-1.819-13.415 2.129-25.779 7.422-34.806 15.097-9.048 7.694-15.038 19.506-19.807 32.021-3.931 10.315-5.819 21.525-8.42 32.333-.643 2.671.066 5.357-.501 9.384-7.127-6.819-14.017-12.128-20.151-18.366-10.429-10.604-18.725-22.974-27.97-34.522-9.24-11.542-18.586-22.875-26.139-35.742-3.195-5.442-5.259-11.547-8.448-16.992-1.753-2.991-4.364-5.757-2.135-8.526 10.729-13.328 20.439-26.829 23.226-43.875 1.84-11.255-1.802-21.674-6.109-31.297-4.301-9.611-10.085-18.561-19.732-24.685-1.226-.778-3.356-2.117-3.515-3.388-1.423-11.344-2.793-22.728-3.797-34.117-.208-2.357.621-5.634 1.935-7.473 8.68-12.14 13.552-25.464 14.4-40.198.803-13.955 5.366-28.115 14.045-38.432 8.755-10.407 22.227-15.908 35.914-18.66 12.287-2.471 25.591-1.753 39.486 4.979 8.983 4.353 16.598 10.337 24.237 16.422 7.661 6.103 16.641 10.86 23.607 17.843 7.574 7.593 13.034 17.071 19.341 25.601C-10.364-11.182-3.751-2.717.372 7.314c2.669 6.496 3.57 13.694 5.694 20.415-.481.264-.203-.694-.683-.43-5.038-3.119-11.545-3.625-16.626-6.672C-20.359 15.16-28.26 7.607-37.662 2.78c-9.44-4.846-19.637-8.075-29.501-11.959-9.811-3.864-19.495-8.443-29.86-11.043-13.294-3.334-26.954-3.01-40.724-2.346-7.606.366-14.308 3.358-14.197 9.459.114 6.286 6.764 10.985 14.469 10.719 12.628-.434 24.871.072 36.696 3.084 11.862 3.021 23.026 8.472 34.43 13.403 10.419 4.506 19.835 10.704 29.718 16.2 9.883 5.496 21.635 7.96 31.101 14.207 1.359.897 1.502 3.702 3.313 5.038-15.02 7.499-28.497 15.742-35.502 27.767-6.847 11.755-7.729 27.057-4.891 44.564-7.603-1.902-14.56-1.713-21.087-3.82-10.138-3.273-17.754-10.785-26.061-16.14-8.648-5.575-19.079-9.124-25.674-17.022-6.32-7.568-9.919-17.635-14.291-27.398-3.212-7.176-8.856-9.453-14.744-6.674-5.798 2.736-7.582 8.417-4.323 15.543 5.711 12.483 13.04 23.167 21.295 32.61 8.656 9.902 19.533 16.492 30.874 23.155 10.846 6.372 21.708 13.452 34.907 16.957 8.804 2.338 18.176 2.35 27.157 4.059 1.646.313 2.29 2.538 3.194 3.753C-22.142 159.298-9.974 170.964 0 184.712" style="fill-rule:nonzero" transform="matrix(.5986 0 0 .5986 385.21 103.191)"/><path d="M0 89.202c1.993-10.694 6.848-21.841 9.271-31.938 3.22-13.413 4.506-27.257 10.533-39.258C25.824 6.018 35.06-4.014 44.793-14.01c8.357-8.583 16.89-15.957 27.056-20.331 10.097-4.344 21.195-6.762 33.479-5.684 16.966 1.489 31.863 8.699 44.269 19.879 9.541 8.599 15.094 20.014 21.355 30.642 6.283 10.663 12.204 21.453 15.853 33.606 4.233 14.101 9.023 29.448 12.584 44.974-9.91-.945-21.039-.969-29.882.707-9.258 1.754-18.798 3.034-27.377 7.084-8.438 3.984-15.386 10.495-22.682 16.09-7.214 5.533-13.911 10.309-20.163 17.348-8.745-9.279-19.357-14.393-29.306-21.071-10.275-6.897-20.492-12.682-32.532-16.053C26.191 90.03 13.211 88.626 0 89.202" style="fill-rule:nonzero" transform="matrix(.5986 0 0 .5986 144.633 80.116)"/></svg>